<svg width="209" height="44" viewBox="0 0 209 44" fill="none" xmlns="http://www.w3.org/2000/svg">
<path d="M196.986 43.68C196.892 43.68 196.869 43.68 196.916 43.68C196.869 43.68 196.776 43.6333 196.636 43.54L196.286 43.4C196.192 43.4467 196.076 43.47 195.936 43.47C195.842 43.47 195.726 43.4933 195.586 43.54L194.606 42.98C194.466 42.6533 194.279 42.49 194.046 42.49C193.999 42.4433 193.952 42.4433 193.906 42.49C193.859 42.5367 193.766 42.56 193.626 42.56C193.626 42.56 193.392 42.3733 192.926 42L192.366 41.79C192.226 41.65 192.062 41.4867 191.876 41.3C191.736 41.1133 191.549 40.9033 191.316 40.67L190.756 40.25V40.11C190.756 39.9233 190.639 39.6433 190.406 39.27C190.172 39.0367 189.986 38.85 189.846 38.71C189.752 38.5233 189.682 38.4067 189.636 38.36V37.52C189.869 37.66 190.009 37.6367 190.056 37.45C190.149 37.31 190.056 37.17 189.776 37.03C189.589 36.89 189.496 36.7733 189.496 36.68V35.84C189.496 35.7 189.496 35.56 189.496 35.42C189.496 35.28 189.472 35.14 189.426 35C189.379 34.7667 189.332 34.5567 189.286 34.37C189.286 34.1367 189.309 33.9267 189.356 33.74L189.496 33.04C189.449 32.76 189.426 32.48 189.426 32.2C189.426 31.8733 189.426 31.5467 189.426 31.22C189.426 31.0333 189.496 30.8 189.636 30.52L189.846 29.96C189.799 29.5867 189.752 29.19 189.706 28.77C189.659 28.3033 189.612 27.8367 189.566 27.37C189.566 27.23 189.752 26.7867 190.126 26.04C190.219 25.9933 190.312 25.9467 190.406 25.9C190.499 25.8533 190.592 25.7833 190.686 25.69C190.686 25.6433 190.476 25.48 190.056 25.2L189.846 23.73C189.846 23.4967 189.939 23.3567 190.126 23.31C190.266 23.2167 190.312 23.0533 190.266 22.82L191.176 22.19C191.129 22.0033 190.966 21.8867 190.686 21.84C190.639 21.84 190.476 21.8867 190.196 21.98C190.056 21.8867 189.986 21.7933 189.986 21.7C189.986 21.42 190.126 21.1867 190.406 21C190.686 20.7667 190.826 20.6267 190.826 20.58L190.476 19.39C190.476 19.39 190.662 19.0633 191.036 18.41C191.362 18.3633 191.526 18.27 191.526 18.13C191.526 18.0367 191.456 17.92 191.316 17.78C191.129 17.64 191.036 17.5233 191.036 17.43C191.036 17.3833 191.082 17.3133 191.176 17.22C191.316 16.94 191.456 16.4267 191.596 15.68L192.016 15.26L192.226 14.56C192.506 14.4667 192.832 14.3267 193.206 14.14L194.116 13.02C194.582 12.4133 194.979 12.1333 195.306 12.18L195.516 12.25C195.516 12.2033 195.702 12.1333 196.076 12.04C197.196 11.6667 197.826 11.5033 197.966 11.55L198.316 11.62C198.596 11.4333 198.806 11.27 198.946 11.13L199.296 11.2C199.389 11.2 199.459 11.2233 199.506 11.27C199.552 11.3167 199.599 11.34 199.646 11.34L200.206 11.27L200.836 11.83C200.836 11.83 200.976 11.7833 201.256 11.69L201.606 11.55C201.792 11.6433 202.002 11.7367 202.236 11.83C202.469 11.9233 202.702 12.0167 202.936 12.11C203.169 12.0167 203.496 12.0167 203.916 12.11L203.846 12.46V12.53C203.846 12.81 204.102 12.95 204.616 12.95H205.176C205.176 12.95 205.479 13.51 206.086 14.63L206.506 14.49C206.692 14.49 206.809 14.56 206.856 14.7L207.626 17.36C207.579 17.4533 207.556 17.6167 207.556 17.85C207.556 18.0367 207.556 18.2467 207.556 18.48L207.766 18.97C207.859 19.25 207.906 19.39 207.906 19.39L207.766 19.6C207.719 19.6467 207.696 19.7167 207.696 19.81V20.86C207.649 20.9067 207.602 21 207.556 21.14C207.509 21.2333 207.462 21.3733 207.416 21.56C207.136 21.6067 206.996 21.7 206.996 21.84C206.996 21.98 207.206 22.2367 207.626 22.61C207.999 22.9833 208.186 23.2167 208.186 23.31C208.186 23.4033 208.069 23.45 207.836 23.45L207.626 24.43C207.579 24.4767 207.509 24.6167 207.416 24.85C207.416 25.13 207.556 25.7367 207.836 26.67C207.649 26.7633 207.509 26.88 207.416 27.02C207.416 27.02 207.416 27.2067 207.416 27.58L207.486 28.28C207.486 28.3267 207.486 28.42 207.486 28.56C207.486 28.6533 207.462 28.7933 207.416 28.98L207.346 29.68H206.996C206.622 29.68 206.319 29.4933 206.086 29.12C205.899 28.7933 205.736 28.63 205.596 28.63C205.549 28.63 205.409 28.77 205.176 29.05C204.896 29.33 204.709 29.47 204.616 29.47L203.846 29.4C203.612 29.3533 203.426 29.3533 203.286 29.4C203.146 29.4 203.052 29.4 203.006 29.4L201.536 28.77C201.209 29.05 200.836 29.19 200.416 29.19C199.902 29.19 199.459 29.0267 199.086 28.7C198.992 28.7933 198.946 28.8633 198.946 28.91H197.896C197.849 28.91 197.826 28.91 197.826 28.91C197.826 28.8633 197.802 28.84 197.756 28.84H197.476C197.056 28.84 196.706 29.0967 196.426 29.61V29.89C196.379 29.9833 196.309 30.1233 196.216 30.31C196.169 30.45 196.099 30.6133 196.006 30.8C196.006 30.8467 196.052 30.9167 196.146 31.01L196.286 31.29V31.43C196.286 31.4767 196.286 31.57 196.286 31.71C196.286 31.8033 196.262 31.9433 196.216 32.13C196.262 32.27 196.286 32.5033 196.286 32.83C196.286 33.0167 196.169 33.18 195.936 33.32L195.796 35.63C196.076 35.8633 196.192 36.26 196.146 36.82H196.986C197.266 36.82 197.476 36.9133 197.616 37.1C197.756 37.2867 197.849 37.38 197.896 37.38L198.386 37.17L198.876 37.52C199.016 37.52 199.109 37.45 199.156 37.31L199.576 36.33V35.28L199.646 34.23C199.692 34.09 199.716 33.9733 199.716 33.88C199.762 33.74 199.786 33.6467 199.786 33.6L199.716 33.39C199.809 33.2033 199.856 33.0633 199.856 32.97C199.856 32.83 199.856 32.7367 199.856 32.69L199.716 32.06C199.902 31.5933 200.136 31.36 200.416 31.36C200.789 31.5467 201.302 31.71 201.956 31.85L202.306 31.71C202.446 31.6633 202.562 31.64 202.656 31.64C202.749 31.64 202.912 31.8267 203.146 32.2C203.659 32.0133 203.916 31.92 203.916 31.92L204.476 32.27H204.616C205.176 32.27 205.712 32.0367 206.226 31.57L207.416 32.69C207.182 33.11 206.926 33.6467 206.646 34.3C206.599 34.5333 206.529 34.8133 206.436 35.14C206.389 35.4667 206.296 35.8167 206.156 36.19C205.829 36.33 205.666 36.5167 205.666 36.75C205.666 36.8433 205.736 37.0067 205.876 37.24C206.016 37.52 206.086 37.7067 206.086 37.8L205.946 38.01C206.039 38.2433 206.016 38.4533 205.876 38.64L205.666 38.99C205.712 39.0367 205.736 39.13 205.736 39.27C205.736 39.69 205.432 40.04 204.826 40.32L204.686 40.46C204.732 40.5067 204.756 40.5767 204.756 40.67C204.756 40.9967 204.569 41.2067 204.196 41.3C203.682 41.44 203.379 41.5567 203.286 41.65C203.192 41.79 203.052 41.9533 202.866 42.14C202.679 42.3267 202.469 42.5367 202.236 42.77C201.302 43.3767 200.649 43.6333 200.276 43.54L199.436 43.33C199.202 43.33 198.969 43.4 198.736 43.54C198.502 43.68 198.316 43.7267 198.176 43.68L197.896 43.61H197.546C197.359 43.61 197.219 43.61 197.126 43.61C197.032 43.6567 196.962 43.68 196.916 43.68C196.962 43.68 196.986 43.68 196.986 43.68ZM198.386 14.21L198.526 13.93L198.316 13.79C198.316 13.93 198.339 14.07 198.386 14.21ZM203.286 16.59C203.519 16.59 203.659 16.45 203.706 16.17L203.636 15.26H203.496C203.356 15.26 203.286 15.1433 203.286 14.91C203.192 14.6767 203.076 14.56 202.936 14.56C202.749 14.4667 202.609 14.5367 202.516 14.77C202.469 14.8167 202.446 14.8867 202.446 14.98C202.492 15.0733 202.516 15.1667 202.516 15.26L202.586 15.75L202.376 15.96L203.286 16.59ZM197.126 17.5C197.499 17.36 197.499 17.1967 197.126 17.01C197.032 17.1033 197.032 17.2667 197.126 17.5ZM206.226 17.43L206.086 17.15L205.876 17.29L206.226 17.43ZM196.916 23.8L197.616 23.59L198.596 23.31C198.922 23.31 199.272 23.2867 199.646 23.24C200.019 23.1467 200.439 23.0533 200.906 22.96L201.116 22.12C201.162 22.0733 201.279 22.0033 201.466 21.91C201.279 21.7233 201.116 21.5367 200.976 21.35C200.882 21.1633 200.859 20.9767 200.906 20.79L200.976 20.3V19.88C200.976 19.46 200.789 19.11 200.416 18.83C200.462 18.69 200.486 18.5033 200.486 18.27C200.486 17.8967 200.066 17.6867 199.226 17.64C199.086 17.64 198.829 17.78 198.456 18.06L197.336 18.83C197.522 18.97 197.546 19.1567 197.406 19.39C197.359 19.5767 197.196 19.67 196.916 19.67V19.88C197.056 19.7867 197.196 19.8567 197.336 20.09C197.429 20.2767 197.452 20.3933 197.406 20.44L197.266 22.54C197.266 22.68 197.266 22.7967 197.266 22.89C197.312 22.9833 197.336 23.03 197.336 23.03C197.336 23.17 197.266 23.24 197.126 23.24C196.986 23.1467 196.869 23.03 196.776 22.89L196.566 23.03L196.496 23.45L196.916 23.8ZM201.816 19.53C201.909 19.67 202.049 19.67 202.236 19.53C202.096 19.11 201.956 19.11 201.816 19.53ZM197.336 22.96C197.336 23.0533 197.336 23.0767 197.336 23.03C197.336 23.03 197.336 23.0067 197.336 22.96ZM191.176 28.49C191.316 28.3967 191.502 28.14 191.736 27.72L191.666 27.51H191.526C191.292 27.51 190.989 27.6267 190.616 27.86C190.756 28.0933 190.942 28.3033 191.176 28.49ZM204.616 28C204.662 27.86 204.639 27.7433 204.546 27.65C204.499 27.6033 204.382 27.6267 204.196 27.72C204.196 27.8133 204.336 27.9067 204.616 28ZM192.506 37.38L193.066 37.1L192.996 36.82L192.646 36.75L192.506 36.89V36.82L192.436 36.54L192.226 36.47L192.086 37.24L192.506 37.38ZM197.826 38.5C197.872 38.4067 197.849 38.3133 197.756 38.22C197.662 38.1267 197.569 38.1267 197.476 38.22C197.476 38.3133 197.592 38.4067 197.826 38.5Z" fill="white"/>
<path d="M182.568 43.4001L182.078 43.1901C181.798 43.0967 181.495 43.0501 181.168 43.0501L180.608 43.2601L180.048 43.1201C180.001 43.1667 179.931 43.1901 179.838 43.1901C179.745 43.1901 179.651 43.2134 179.558 43.2601L179.278 43.1201C179.091 43.0267 178.975 42.9801 178.928 42.9801L178.578 43.0501C178.531 42.8167 178.485 42.6301 178.438 42.4901C178.438 42.3034 178.438 42.1634 178.438 42.0701L178.648 41.4401C178.695 41.2534 178.718 40.9267 178.718 40.4601C178.718 39.9467 178.718 39.3167 178.718 38.5701L178.858 37.8001C178.858 37.4267 178.928 37.0301 179.068 36.6101C179.535 36.4234 179.768 36.1901 179.768 35.9101L178.788 34.4401L178.858 32.4101C178.858 31.9434 179.068 31.4767 179.488 31.0101C179.255 30.4501 179.138 30.2634 179.138 30.4501L179.208 28.0701C179.348 28.0701 179.465 28.0234 179.558 27.9301L179.208 27.5101L179.348 26.8801C179.115 26.6467 178.998 26.2967 178.998 25.8301C178.998 25.5501 179.021 25.3167 179.068 25.1301L178.858 24.8501C178.998 24.7101 179.138 24.6167 179.278 24.5701C179.185 24.2901 179.138 24.1034 179.138 24.0101C179.138 23.7301 179.278 23.5201 179.558 23.3801C179.371 22.7734 179.278 22.4934 179.278 22.5401V22.6101C179.278 22.5634 179.278 22.5401 179.278 22.5401C179.325 22.2601 179.488 21.9801 179.768 21.7001C179.721 21.6534 179.675 21.6067 179.628 21.5601C179.581 21.5134 179.535 21.4667 179.488 21.4201V20.2301C179.301 20.0434 179.208 19.9034 179.208 19.8101V18.6201C179.161 18.5734 178.975 18.5501 178.648 18.5501L178.228 18.6201C178.088 18.6667 177.948 18.6901 177.808 18.6901L177.598 18.6201C177.505 18.5734 177.411 18.5501 177.318 18.5501C177.271 18.5501 177.155 18.5967 176.968 18.6901L177.108 18.9701C176.968 19.3901 176.805 19.6001 176.618 19.6001L176.548 19.5301H176.408C176.501 19.5301 176.245 19.6934 175.638 20.0201C175.638 20.2067 175.638 20.3934 175.638 20.5801C175.638 20.7201 175.615 20.8834 175.568 21.0701C175.521 21.6301 175.428 21.9101 175.288 21.9101H175.218L175.148 21.9801C175.148 22.3067 175.288 22.4701 175.568 22.4701C175.661 22.4701 175.755 22.4234 175.848 22.3301L175.568 23.2401C175.615 23.3334 175.661 23.4501 175.708 23.5901C175.755 23.6834 175.801 23.7767 175.848 23.8701L175.498 24.5701C175.451 24.5234 175.335 24.5234 175.148 24.5701C175.475 24.7101 175.638 24.9434 175.638 25.2701C175.638 25.4101 175.521 25.5967 175.288 25.8301C175.475 26.2501 175.615 26.4134 175.708 26.3201C175.661 26.5067 175.591 26.8801 175.498 27.4401V28.2801C175.498 28.7934 175.475 29.1201 175.428 29.2601L175.218 29.7501C175.218 29.7501 175.288 29.8667 175.428 30.1001L175.568 30.5201C175.615 30.8467 175.638 31.2201 175.638 31.6401C175.638 32.0601 175.638 32.5734 175.638 33.1801L175.428 34.1601C175.381 34.2534 175.358 34.4401 175.358 34.7201C175.358 34.8601 175.358 35.0234 175.358 35.2101C175.405 35.3501 175.451 35.5367 175.498 35.7701C175.498 35.8634 175.475 35.9567 175.428 36.0501C175.428 36.1434 175.405 36.2367 175.358 36.3301C175.171 36.7034 175.078 36.9601 175.078 37.1001L175.288 38.0801L174.868 38.9901C174.681 39.3167 174.588 39.5734 174.588 39.7601C174.588 39.8067 174.611 39.8301 174.658 39.8301C174.658 39.8301 174.798 39.7834 175.078 39.6901L175.288 40.1101C175.335 40.5767 175.358 40.9034 175.358 41.0901C175.405 41.2767 175.428 41.3467 175.428 41.3001L175.288 41.8601V42.8401C174.355 43.0267 173.865 43.1201 173.818 43.1201H173.888C173.888 43.1201 173.865 43.1201 173.818 43.1201L173.608 43.0501C173.421 42.9567 173.305 42.9101 173.258 42.9101L172.698 43.1201C172.698 43.1201 172.558 43.0734 172.278 42.9801L171.858 42.7701C171.765 42.7701 171.671 42.7934 171.578 42.8401C171.438 42.8401 171.135 42.6534 170.668 42.2801C170.528 42.7934 170.248 43.0501 169.828 43.0501C169.501 43.0501 169.198 42.9801 168.918 42.8401C168.638 42.6067 168.498 42.1867 168.498 41.5801C168.498 40.9267 168.778 40.4367 169.338 40.1101L168.848 39.7601L168.918 39.3401C168.778 38.9201 168.708 38.6634 168.708 38.5701C168.755 38.4767 168.801 38.3601 168.848 38.2201C168.941 38.0334 169.011 37.8234 169.058 37.5901L168.918 36.4701C168.918 36.1434 169.035 35.8634 169.268 35.6301C169.268 35.4901 169.198 35.3501 169.058 35.2101C168.965 35.0234 168.918 34.8834 168.918 34.7901L169.128 34.2301L169.268 33.6701L168.988 32.8301L169.128 31.8501L169.268 31.0101C169.268 31.0101 169.221 30.9634 169.128 30.8701C168.988 30.6367 168.918 30.3567 168.918 30.0301C168.918 29.6567 168.988 29.2367 169.128 28.7701C169.268 28.6301 169.361 28.4667 169.408 28.2801L169.268 27.5801C169.128 27.2067 169.058 26.9734 169.058 26.8801L169.338 25.4801C169.805 25.4334 170.038 25.3401 170.038 25.2001C170.038 25.1067 169.945 24.9667 169.758 24.7801C169.618 24.6401 169.501 24.4767 169.408 24.2901C169.455 24.1501 169.478 23.8701 169.478 23.4501C169.338 23.1234 169.245 22.9367 169.198 22.8901C169.245 22.8434 169.291 22.7734 169.338 22.6801C169.385 22.5867 169.431 22.4701 169.478 22.3301C169.478 22.3301 169.385 22.1667 169.198 21.8401L169.268 18.8301C169.315 18.6434 169.315 18.5267 169.268 18.4801L169.128 18.5501C168.988 18.3634 168.825 18.2001 168.638 18.0601L168.078 18.1301C167.891 18.1767 167.751 18.2234 167.658 18.2701C167.565 18.2701 167.471 18.2701 167.378 18.2701C166.911 18.6434 166.725 18.8301 166.818 18.8301L166.398 18.7601C166.351 19.2267 166.211 19.6467 165.978 20.0201C165.791 20.1134 165.605 20.2534 165.418 20.4401L165.278 20.9301L165.558 22.0501C165.558 22.0501 165.511 22.1434 165.418 22.3301C165.278 22.5167 165.208 22.6567 165.208 22.7501L165.488 24.1501C165.488 24.1967 165.371 24.5234 165.138 25.1301C164.905 25.8301 164.788 26.1801 164.788 26.1801V26.3901C164.881 26.3434 164.951 26.2967 164.998 26.2501C165.091 26.2034 165.185 26.1567 165.278 26.1101L165.418 27.7201L165.208 28.9101L164.928 30.1001C164.928 30.4267 165.021 30.7534 165.208 31.0801C165.115 31.3134 164.975 31.4301 164.788 31.4301C164.928 32.1767 164.998 32.7134 164.998 33.0401C164.951 33.1334 164.905 33.2501 164.858 33.3901C164.811 33.5301 164.765 33.6934 164.718 33.8801L164.788 34.2301C164.881 34.4167 164.951 34.5334 164.998 34.5801C165.045 34.7667 165.068 34.9767 165.068 35.2101C165.068 35.3967 165.068 35.6534 165.068 35.9801C164.975 35.8867 164.881 36.1901 164.788 36.8901L164.928 37.1701C165.068 37.4501 164.975 37.6601 164.648 37.8001C164.648 37.8467 164.718 37.9401 164.858 38.0801C164.951 38.2667 164.998 38.3834 164.998 38.4301C164.998 38.5701 164.905 38.6634 164.718 38.7101L164.228 38.9201V39.2001C164.461 39.2934 164.625 39.4101 164.718 39.5501C164.671 39.7367 164.648 39.9701 164.648 40.2501C164.648 40.4834 164.648 40.7867 164.648 41.1601C164.788 41.9067 164.858 42.2334 164.858 42.1401C164.858 42.6067 164.601 42.8401 164.088 42.8401C164.041 42.8401 163.925 42.8167 163.738 42.7701C163.598 42.6767 163.481 42.6067 163.388 42.5601C163.341 42.5601 163.295 42.5834 163.248 42.6301C163.155 42.7234 163.061 42.7701 162.968 42.7701L162.828 42.7001C162.781 42.6534 162.735 42.6301 162.688 42.6301L161.988 42.9801C161.941 42.9334 161.778 42.8634 161.498 42.7701C161.265 42.7234 161.055 42.7001 160.868 42.7001C160.728 42.6534 160.611 42.6301 160.518 42.6301L159.818 42.7001C159.585 42.7467 159.398 42.7701 159.258 42.7701C159.118 42.7701 159.025 42.7701 158.978 42.7701C158.931 42.7701 158.838 42.7001 158.698 42.5601C158.511 42.4201 158.395 42.3501 158.348 42.3501L157.928 42.7001H157.578V42.4901C157.578 42.3967 157.578 42.2567 157.578 42.0701C157.578 41.8834 157.601 41.6501 157.648 41.3701C157.835 41.3701 158.021 41.3001 158.208 41.1601C158.208 41.1601 158.021 40.9267 157.648 40.4601V39.4801C157.881 39.2467 157.998 39.0601 157.998 38.9201C157.998 38.7801 157.928 38.5701 157.788 38.2901C157.648 38.0101 157.578 37.8001 157.578 37.6601C157.578 37.6134 157.695 37.4267 157.928 37.1001L157.858 36.4001C157.905 36.3067 157.928 36.2134 157.928 36.1201C157.928 36.0267 157.951 35.9101 157.998 35.7701L157.858 35.4201C157.858 35.4201 157.905 35.3267 157.998 35.1401L158.068 34.9301C158.068 34.8834 158.068 34.8134 158.068 34.7201C158.068 34.6267 158.045 34.5101 157.998 34.3701C157.951 34.1834 157.905 34.0434 157.858 33.9501C157.858 33.8101 157.858 33.7167 157.858 33.6701V31.9901L157.998 31.7801C157.905 31.7801 157.858 31.7334 157.858 31.6401L157.998 31.5701C158.045 31.4767 158.068 31.3834 158.068 31.2901C158.115 31.1501 158.115 30.9867 158.068 30.8001L157.998 30.4501C157.998 30.4034 157.998 30.3101 157.998 30.1701C157.998 30.0301 157.975 29.8434 157.928 29.6101C157.928 29.7034 158.068 29.4701 158.348 28.9101C158.395 28.7701 158.418 28.4667 158.418 28.0001C158.418 28.0467 158.278 27.9067 157.998 27.5801V27.3701C158.045 27.2301 158.091 27.0667 158.138 26.8801C158.231 26.6934 158.301 26.5067 158.348 26.3201L158.208 25.9001C158.115 25.6201 158.068 25.4801 158.068 25.4801C158.068 25.2001 158.138 25.0367 158.278 24.9901C158.418 24.8967 158.488 24.8034 158.488 24.7101C158.488 24.8034 158.395 24.6634 158.208 24.2901V23.8701C158.208 23.6367 158.301 23.4267 158.488 23.2401C158.628 23.0067 158.698 22.8901 158.698 22.8901C158.511 22.6567 158.301 22.3767 158.068 22.0501L158.418 20.7201C158.511 20.6267 158.581 20.5334 158.628 20.4401L158.278 20.0201V18.8301C158.745 18.6901 158.978 18.6434 158.978 18.6901C158.978 18.5501 158.885 18.3867 158.698 18.2001C158.745 18.0601 158.768 17.8034 158.768 17.4301C158.488 16.8701 158.348 16.4267 158.348 16.1001L158.698 13.2301C158.651 12.9967 158.605 12.7401 158.558 12.4601C158.511 12.1334 158.441 11.8067 158.348 11.4801C158.348 11.2001 158.488 11.0601 158.768 11.0601C158.861 11.0601 159.025 11.1534 159.258 11.3401C159.445 11.5267 159.585 11.6201 159.678 11.6201L159.818 11.5501H159.958C160.005 11.5501 160.051 11.5734 160.098 11.6201C160.145 11.6201 160.215 11.6434 160.308 11.6901C160.448 11.8301 160.565 11.9001 160.658 11.9001H161.148C161.148 12.0401 161.125 12.1801 161.078 12.3201L161.218 12.4601C161.358 12.4601 161.475 12.3201 161.568 12.0401C161.708 11.7601 161.755 11.5034 161.708 11.2701H162.128C162.361 11.5034 162.501 11.6201 162.548 11.6201C162.688 11.6201 162.781 11.5967 162.828 11.5501L163.038 11.4801L163.738 11.6901L164.438 11.9701C164.531 11.9701 164.671 11.8767 164.858 11.6901C164.951 11.7834 165.068 11.9001 165.208 12.0401C165.348 12.1334 165.511 12.2501 165.698 12.3901C165.651 12.4367 165.581 12.5067 165.488 12.6001C165.441 12.6934 165.348 12.8101 165.208 12.9501C165.488 13.3234 165.745 13.5101 165.978 13.5101L166.118 13.4401C166.258 13.3001 166.351 13.1834 166.398 13.0901L167.098 12.8801C167.471 12.7867 167.658 12.6001 167.658 12.3201C167.798 12.1801 167.938 12.0867 168.078 12.0401C168.311 11.8534 168.615 11.7601 168.988 11.7601C168.988 11.7601 169.081 11.8067 169.268 11.9001C169.315 11.8534 169.548 11.7601 169.968 11.6201L170.528 11.5501C170.715 11.3634 170.855 11.2701 170.948 11.2701C171.041 11.2701 171.181 11.3401 171.368 11.4801C171.508 11.6201 171.625 11.6901 171.718 11.6901L172.278 11.4801C172.371 11.4801 172.861 11.7601 173.748 12.3201H174.098L174.938 13.1601V13.3001C174.938 13.5334 175.055 13.7667 175.288 14.0001C175.101 14.0001 175.008 14.0701 175.008 14.2101C175.008 14.7234 175.451 14.9801 176.338 14.9801C176.385 14.9801 176.571 14.7701 176.898 14.3501C177.271 13.9301 177.505 13.7201 177.598 13.7201V13.7901C177.785 13.6501 177.855 13.4867 177.808 13.3001L177.668 12.8801C177.668 12.6001 177.785 12.4601 178.018 12.4601L178.508 12.8801C178.601 12.8334 178.671 12.8101 178.718 12.8101C178.811 12.8101 178.881 12.7867 178.928 12.7401C179.115 12.6934 179.208 12.5767 179.208 12.3901V12.1801C179.301 12.2267 179.441 12.2501 179.628 12.2501C179.955 12.2501 180.118 12.0867 180.118 11.7601V11.6201C180.211 11.7134 180.398 11.8534 180.678 12.0401H180.888C181.495 12.0401 181.798 11.8534 181.798 11.4801L182.498 11.9701C182.591 12.2501 182.731 12.5301 182.918 12.8101C183.011 12.8101 183.151 12.5767 183.338 12.1101H183.688C183.781 12.3434 183.921 12.4601 184.108 12.4601L184.458 12.3901C184.551 12.3901 184.645 12.5067 184.738 12.7401V13.0201C184.785 13.0667 184.901 13.1367 185.088 13.2301L185.858 14.5601C185.811 14.6067 185.788 14.7001 185.788 14.8401C185.788 14.9334 185.765 15.0501 185.718 15.1901L186.068 15.6101C186.115 15.7501 186.138 16.0067 186.138 16.3801C186.138 16.7534 186.138 17.2434 186.138 17.8501V17.9201L186.068 18.0601C186.068 18.0601 186.091 18.1767 186.138 18.4101C186.185 18.4567 186.138 18.6434 185.998 18.9701V19.1101C185.811 19.1567 185.648 19.2967 185.508 19.5301V19.8101C185.508 19.9034 185.461 20.0434 185.368 20.2301C185.275 20.4167 185.228 20.5334 185.228 20.5801C185.228 20.6734 185.298 20.8367 185.438 21.0701C185.765 21.9101 185.905 22.4234 185.858 22.6101C185.578 22.7034 185.415 22.9834 185.368 23.4501L186.068 23.7301V24.0101C186.021 24.0567 185.975 24.1034 185.928 24.1501C185.881 24.1967 185.811 24.2667 185.718 24.3601C185.718 24.4534 185.788 24.5701 185.928 24.7101C185.975 24.8034 185.998 24.8734 185.998 24.9201C186.045 24.9667 186.068 25.0134 186.068 25.0601C186.068 25.1534 185.951 25.3167 185.718 25.5501C185.811 25.9701 185.881 26.3201 185.928 26.6001C186.021 26.8801 186.045 27.0901 185.998 27.2301V30.3101C185.998 30.4034 185.881 30.8467 185.648 31.6401C185.695 31.8267 185.718 31.9434 185.718 31.9901C185.765 32.0367 185.788 32.0367 185.788 31.9901V34.3001L185.718 34.5101C185.625 34.6967 185.578 34.7901 185.578 34.7901C185.671 35.2101 185.695 35.4667 185.648 35.5601L185.298 36.0501L185.228 37.3801C185.088 37.2401 184.948 37.1701 184.808 37.1701C184.528 37.1701 184.388 37.2867 184.388 37.5201C184.388 37.7534 184.528 37.9867 184.808 38.2201C184.995 38.4067 185.181 38.5001 185.368 38.5001V39.0601C185.508 39.3867 185.601 39.5501 185.648 39.5501L185.298 40.5301C185.298 40.5767 185.298 40.6701 185.298 40.8101C185.345 40.9034 185.391 41.0434 185.438 41.2301C185.485 41.2301 185.461 41.4167 185.368 41.7901C185.555 41.9767 185.648 42.1634 185.648 42.3501C185.648 42.4901 185.578 42.6767 185.438 42.9101C185.298 43.1434 185.158 43.2601 185.018 43.2601L184.528 43.3301H184.038L183.618 43.1901C183.338 43.0501 183.175 42.9801 183.128 42.9801C183.081 43.1201 182.895 43.2601 182.568 43.4001ZM162.618 12.8801L162.898 12.6701L162.828 12.5301C162.735 12.6234 162.665 12.7401 162.618 12.8801ZM168.918 14.4201L169.408 14.2801C169.268 14.0467 169.035 13.8367 168.708 13.6501C168.661 13.6967 168.591 13.8367 168.498 14.0701V14.2801C168.591 14.4201 168.731 14.4667 168.918 14.4201ZM159.888 15.0501C160.028 15.0501 160.121 15.0267 160.168 14.9801C160.261 14.8867 160.261 14.7701 160.168 14.6301C160.075 14.6301 159.981 14.7701 159.888 15.0501ZM180.048 16.6601C180.141 16.6601 180.375 16.5434 180.748 16.3101L180.888 15.5401C180.888 15.3534 180.771 15.1434 180.538 14.9101L180.258 14.9801C180.165 15.0267 180.095 15.0734 180.048 15.1201C180.001 15.1201 179.955 15.1201 179.908 15.1201C179.348 15.1201 179.021 15.1201 178.928 15.1201C178.975 15.2134 179.138 15.4234 179.418 15.7501C179.371 15.9367 179.371 16.1234 179.418 16.3101C179.605 16.4967 179.815 16.6134 180.048 16.6601ZM163.248 19.4601C163.295 19.3667 163.248 19.2734 163.108 19.1801C163.061 19.1334 162.968 19.1334 162.828 19.1801C162.828 19.3667 162.968 19.4601 163.248 19.4601ZM174.098 19.7401C174.098 19.6001 174.075 19.5067 174.028 19.4601C173.935 19.3667 173.818 19.3667 173.678 19.4601C173.678 19.5534 173.818 19.6467 174.098 19.7401ZM169.198 22.9601C169.198 22.8667 169.198 22.8434 169.198 22.8901C169.198 22.8901 169.198 22.9134 169.198 22.9601ZM183.408 28.0001C183.408 27.9067 183.361 27.8134 183.268 27.7201C183.221 27.6267 183.128 27.6501 182.988 27.7901C182.988 27.9301 183.128 28.0001 183.408 28.0001ZM160.868 34.1601C161.055 34.1601 161.241 34.0201 161.428 33.7401C161.568 33.5067 161.638 33.2967 161.638 33.1101C161.498 32.8767 161.218 32.6667 160.798 32.4801H160.728C160.261 32.4801 159.888 32.8067 159.608 33.4601C159.935 33.8334 160.355 34.0667 160.868 34.1601ZM162.268 39.5501C162.315 39.5034 162.268 39.4101 162.128 39.2701L161.918 39.4101C162.011 39.4101 162.081 39.4334 162.128 39.4801L162.268 39.5501ZM185.648 39.4801C185.648 39.5734 185.648 39.5967 185.648 39.5501V39.4801ZM163.038 41.2301V41.1601C163.038 41.0201 162.945 40.9034 162.758 40.8101C162.618 40.7167 162.478 40.7167 162.338 40.8101V41.0201C162.338 41.3467 162.571 41.4167 163.038 41.2301Z" fill="white"/>
<path d="M141.56 43.05L140.65 42.77H140.37C140.23 42.77 140.067 42.77 139.88 42.77C139.693 42.7233 139.483 42.6767 139.25 42.63L137.78 41.37C137.407 40.9967 137.127 40.5533 136.94 40.04C136.893 39.8533 136.847 39.62 136.8 39.34C136.753 39.06 136.683 38.7333 136.59 38.36L136.66 38.01C136.66 37.87 136.637 37.7533 136.59 37.66C136.497 37.38 136.45 37.24 136.45 37.24C136.497 37.1467 136.52 37.0067 136.52 36.82C136.52 36.5867 136.52 36.3533 136.52 36.12L136.1 34.72V34.51C136.1 34.4167 136.1 34.3 136.1 34.16C136.1 34.02 136.123 33.88 136.17 33.74L136.52 32.9V32.41C136.707 32.13 136.893 31.78 137.08 31.36C137.267 30.8933 137.453 30.3567 137.64 29.75L138.2 29.47C138.247 29.3767 138.293 29.2833 138.34 29.19C138.387 29.0967 138.457 29.0033 138.55 28.91L139.53 27.93C139.577 27.8367 139.623 27.7433 139.67 27.65C139.717 27.51 139.787 27.3467 139.88 27.16L142.4 25.62C142.633 25.48 142.867 25.34 143.1 25.2C143.333 25.06 143.567 24.8967 143.8 24.71C143.8 24.71 143.94 24.7567 144.22 24.85C144.267 24.8033 144.313 24.7567 144.36 24.71C144.407 24.6167 144.477 24.5467 144.57 24.5L145.27 24.22C145.27 23.9867 145.363 23.7533 145.55 23.52C145.69 23.4267 145.853 23.2867 146.04 23.1C146.273 22.9133 146.53 22.68 146.81 22.4C146.857 22.3533 146.857 22.12 146.81 21.7C146.903 21.7933 146.95 21.77 146.95 21.63C146.95 21.21 146.927 21.0467 146.88 21.14C146.833 20.9533 146.763 20.7667 146.67 20.58C146.623 20.3467 146.577 20.1133 146.53 19.88C146.483 19.8333 146.507 19.6933 146.6 19.46L146.74 19.11C146.74 19.11 146.623 18.9467 146.39 18.62L145.69 17.71C145.457 17.4767 145.153 17.3833 144.78 17.43L144.43 17.5C144.15 17.5933 144.01 17.64 144.01 17.64H143.38L143.24 17.78C143.287 17.8267 143.333 17.8733 143.38 17.92C143.427 17.9667 143.473 18.0367 143.52 18.13C143.52 18.2233 143.497 18.2933 143.45 18.34V18.55C143.263 18.5967 143.053 18.7833 142.82 19.11C142.727 19.39 142.68 19.6467 142.68 19.88C142.773 20.0667 142.913 20.2533 143.1 20.44C143.053 20.4867 142.983 20.51 142.89 20.51C142.797 20.8833 142.797 21.14 142.89 21.28L143.1 21.56V21.91C143.1 21.9567 143.03 22.0267 142.89 22.12L142.05 21.91C142.003 21.7233 141.887 21.6767 141.7 21.77C141.56 21.8633 141.443 21.84 141.35 21.7H141.21C141.07 21.7 140.977 21.6533 140.93 21.56C140.883 21.42 140.79 21.4433 140.65 21.63L140.23 22.12C139.997 22.12 139.81 22.1433 139.67 22.19L139.32 22.05C139.18 21.9567 139.087 21.9333 139.04 21.98C138.993 21.98 138.947 21.98 138.9 21.98L137.43 22.4C137.337 22.4 137.22 22.4 137.08 22.4C136.94 22.4 136.777 22.3767 136.59 22.33L136.24 21.28C136.24 21.2333 136.263 21.21 136.31 21.21C136.357 21.1633 136.38 21.1167 136.38 21.07L136.45 20.86C136.403 20.72 136.38 20.5567 136.38 20.37C136.38 20.1367 136.38 19.9033 136.38 19.67C136.52 19.53 136.613 19.39 136.66 19.25C136.707 19.11 136.73 18.8067 136.73 18.34V17.92C136.73 16.7067 137.757 15.19 139.81 13.37C139.857 13.23 140.02 13.02 140.3 12.74C140.347 12.6933 140.65 12.5533 141.21 12.32C141.303 12.2267 141.327 12.1567 141.28 12.11L141.35 11.76C141.537 11.8067 141.723 11.8533 141.91 11.9C142.143 11.9 142.353 11.9 142.54 11.9L143.03 11.69C143.123 11.6433 143.217 11.5967 143.31 11.55C143.403 11.5033 143.473 11.48 143.52 11.48H144.01C144.057 11.4333 144.22 11.3633 144.5 11.27C144.78 11.2233 145.013 11.2 145.2 11.2C145.433 11.1533 145.643 11.13 145.83 11.13C146.063 11.13 146.553 11.2 147.3 11.34C148.14 11.48 148.607 11.62 148.7 11.76L148.63 12.25L148.84 12.53L149.26 12.32C149.4 12.32 149.563 12.46 149.75 12.74L150.31 12.81C150.403 12.81 150.497 12.8333 150.59 12.88C150.73 12.88 150.823 12.88 150.87 12.88C150.917 12.9267 150.963 12.9733 151.01 13.02C151.057 13.02 151.103 13.0667 151.15 13.16V13.72L150.59 14C150.637 14.1867 150.823 14.3033 151.15 14.35C151.523 14.3967 151.733 14.4667 151.78 14.56L152.48 17.15C152.48 17.29 152.62 17.4767 152.9 17.71C152.947 18.0367 152.97 18.41 152.97 18.83C152.97 19.25 152.97 19.6933 152.97 20.16L153.18 20.51C153.227 20.5567 153.25 20.8133 153.25 21.28L153.18 22.47C153.133 22.89 153.11 23.2633 153.11 23.59C153.11 23.87 153.11 24.1033 153.11 24.29L153.25 24.5C153.297 24.9667 153.32 25.34 153.32 25.62C153.367 25.8533 153.39 25.9467 153.39 25.9L153.11 26.6C153.063 26.7867 153.017 26.9267 152.97 27.02C152.97 27.0667 152.97 27.1133 152.97 27.16C152.97 27.3 152.97 27.44 152.97 27.58C153.017 27.72 153.063 27.86 153.11 28C153.203 28.0933 153.273 28.2333 153.32 28.42C153.413 28.56 153.483 28.7233 153.53 28.91L153.46 29.82C153.413 29.8667 153.367 29.96 153.32 30.1C153.273 30.1933 153.227 30.31 153.18 30.45C153.18 30.45 153.273 31.08 153.46 32.34L153.18 33.32C153.227 33.3667 153.297 33.53 153.39 33.81C153.483 34.0433 153.53 34.1833 153.53 34.23V34.58C153.53 34.86 153.507 35.07 153.46 35.21C153.88 35.2567 154.09 35.6067 154.09 36.26L153.95 36.68C153.857 36.96 153.81 37.1 153.81 37.1L154.02 37.87C154.067 38.0567 154.09 38.2667 154.09 38.5C154.137 38.7333 154.16 39.0367 154.16 39.41V40.11C154.3 40.2967 154.44 40.6233 154.58 41.09V41.16C154.58 41.6733 153.95 41.9767 152.69 42.07L151.36 41.86C151.313 41.86 151.173 41.86 150.94 41.86C150.707 41.86 150.357 41.8833 149.89 41.93C149.843 41.93 149.773 41.9767 149.68 42.07C149.587 42.1633 149.493 42.21 149.4 42.21H148.77C148.77 42.21 148.49 42.1167 147.93 41.93L148.07 41.3C148.07 41.02 147.93 40.81 147.65 40.67C147.65 40.6233 147.673 40.4367 147.72 40.11L147.86 39.62C147.533 39.6667 146.693 40.3667 145.34 41.72C145.013 42.0467 144.78 42.1867 144.64 42.14L144.36 42.07C144.22 42.21 144.08 42.3267 143.94 42.42C143.66 42.56 143.403 42.63 143.17 42.63C143.123 42.6767 143.1 42.6767 143.1 42.63C143.053 42.5833 143.007 42.56 142.96 42.56C142.913 42.6067 142.68 42.7 142.26 42.84C141.887 42.98 141.653 43.05 141.56 43.05ZM141.91 12.88C141.91 12.74 141.817 12.6467 141.63 12.6C141.537 12.6933 141.49 12.7633 141.49 12.81C141.537 13.09 141.677 13.1133 141.91 12.88ZM150.59 16.45L150.8 16.17C150.847 16.0767 150.8 15.9833 150.66 15.89C150.52 15.8433 150.357 15.8433 150.17 15.89C150.217 16.03 150.357 16.2167 150.59 16.45ZM140.65 18.97L141.49 18.9C141.863 18.9 142.05 18.7367 142.05 18.41L141.91 18.06L141 17.99C140.627 17.99 140.463 18.13 140.51 18.41L140.58 18.69C140.627 18.7833 140.65 18.8767 140.65 18.97ZM147.02 24.08C147.067 24.1267 147.183 24.1267 147.37 24.08L147.3 23.8C147.113 23.8467 147.02 23.94 147.02 24.08ZM142.4 28.21L142.47 27.86L142.05 27.79L142.4 28.21ZM144.08 36.89H144.43C144.523 36.89 144.617 36.8433 144.71 36.75C144.803 36.6567 144.873 36.61 144.92 36.61C145.013 36.6567 145.153 36.7267 145.34 36.82C145.527 36.82 145.737 36.7033 145.97 36.47C146.063 36.2367 146.203 35.9567 146.39 35.63C146.623 35.5367 146.88 35.35 147.16 35.07C147.113 34.9767 147.09 34.79 147.09 34.51C147.09 34.2767 147.09 34.02 147.09 33.74C147.137 33.46 147.183 33.1567 147.23 32.83C147.183 32.5967 147.137 32.34 147.09 32.06C147.043 31.7333 146.997 31.36 146.95 30.94C146.95 30.66 147.09 30.4967 147.37 30.45C147.23 29.9833 146.927 29.33 146.46 28.49H145.34C145.2 29.05 144.99 29.54 144.71 29.96L144.22 30.31L143.94 30.8L143.45 31.08C143.403 31.2667 143.31 31.4767 143.17 31.71C143.077 31.9433 142.983 32.2233 142.89 32.55C142.89 32.83 142.727 33.2967 142.4 33.95L142.47 34.23C142.143 34.6033 141.98 34.8367 141.98 34.93C142.073 34.8833 142.167 34.93 142.26 35.07L142.68 36.19C142.773 36.2367 142.867 36.2833 142.96 36.33C143.053 36.33 143.147 36.3767 143.24 36.47C143.287 36.5167 143.333 36.5633 143.38 36.61C143.427 36.6567 143.473 36.7267 143.52 36.82L144.08 36.89ZM151.22 33.32C151.313 33.32 151.43 33.25 151.57 33.11C151.757 32.9233 151.85 32.7833 151.85 32.69L151.71 32.41C151.663 32.3633 151.593 32.34 151.5 32.34C151.407 32.34 151.313 32.3167 151.22 32.27L150.73 32.62C150.777 32.6667 150.847 32.83 150.94 33.11C151.033 33.25 151.127 33.32 151.22 33.32ZM148.35 35.28L148.77 35.14C148.723 35.0933 148.7 34.9767 148.7 34.79L148.28 34.86C148.28 35.0933 148.303 35.2333 148.35 35.28ZM144.64 41.23C144.733 40.8567 144.71 40.67 144.57 40.67L144.43 40.81C144.383 40.8567 144.36 40.9733 144.36 41.16L144.64 41.23Z" fill="white"/>
<path d="M121.498 43.75L121.008 43.54C120.728 43.54 120.494 43.5167 120.308 43.47L119.608 42.98C119.328 42.98 119.188 43.0733 119.188 43.26C119.141 43.4 119.048 43.47 118.908 43.47L118.348 43.19C118.348 43.2367 118.231 43.2833 117.998 43.33C117.858 43.0967 117.648 42.8867 117.368 42.7C117.368 42.7 117.251 42.7467 117.018 42.84C116.831 42.7467 116.551 42.5367 116.178 42.21L115.548 41.58L115.058 41.65C115.011 41.5567 114.941 41.44 114.848 41.3C114.754 41.1133 114.661 40.9267 114.568 40.74C114.568 40.6467 114.428 40.5067 114.148 40.32L113.868 39.41C113.868 39.3633 113.798 39.3167 113.658 39.27C113.611 39.3167 113.518 39.34 113.378 39.34C113.284 39.34 113.191 39.27 113.098 39.13L112.748 37.66C112.701 37.4733 112.654 37.31 112.608 37.17C112.608 36.9833 112.608 36.8433 112.608 36.75L112.398 36.47C112.398 36.3767 112.374 36.2367 112.328 36.05C112.281 35.8633 112.234 35.63 112.188 35.35L112.048 34.51C112.094 34.0433 112.118 33.74 112.118 33.6C112.118 33.46 112.141 33.4367 112.188 33.53L112.748 33.25C112.561 33.1567 112.421 33.11 112.328 33.11L112.398 32.55L112.048 32.2C112.001 31.9667 111.954 31.7333 111.908 31.5C111.908 31.22 111.931 30.9867 111.978 30.8L112.048 30.52H112.398C112.538 30.2867 112.608 30.03 112.608 29.75L112.118 29.47C112.118 29.33 112.118 29.1667 112.118 28.98C112.118 28.7933 112.094 28.6067 112.048 28.42C112.094 28 112.141 27.6267 112.188 27.3C112.234 26.9733 112.281 26.7167 112.328 26.53C112.374 26.4367 112.538 26.25 112.818 25.97C112.678 25.83 112.538 25.7367 112.398 25.69V25.34C112.538 25.2 112.631 25.06 112.678 24.92C112.771 24.6867 112.864 24.3133 112.958 23.8C113.004 23.7533 113.144 23.73 113.378 23.73L113.868 23.8C113.868 23.8 113.914 23.7533 114.008 23.66L113.728 23.17C113.634 23.17 113.564 23.1933 113.518 23.24C113.331 23.2867 113.214 23.4033 113.168 23.59C112.794 23.5433 112.608 23.2867 112.608 22.82L112.748 20.44C112.981 20.0667 113.098 19.6467 113.098 19.18L112.888 18.41C112.934 18.3167 112.958 18.2 112.958 18.06C112.958 17.8733 112.981 17.6867 113.028 17.5L113.518 17.22C113.424 17.22 113.331 17.1967 113.238 17.15L113.308 16.17C113.354 16.17 113.401 16.1 113.448 15.96C113.448 15.9133 113.308 15.75 113.028 15.47L113.378 13.37C113.518 13.23 113.611 13.09 113.658 12.95C113.751 12.6233 113.868 12.39 114.008 12.25C114.194 12.0633 114.288 11.9 114.288 11.76L114.218 11.62C114.218 11.5733 114.218 11.4567 114.218 11.27C114.218 11.0833 114.241 10.8267 114.288 10.5C114.288 10.36 114.264 10.22 114.218 10.08C114.218 9.89333 114.218 9.70667 114.218 9.52C114.218 8.82 114.288 7.91 114.428 6.79C114.474 6.79 114.568 6.86 114.708 7H114.848C114.894 7 114.918 6.95333 114.918 6.86L114.778 6.37L114.638 5.81C114.638 5.62333 114.708 5.43667 114.848 5.25C115.034 5.15667 115.221 5.01666 115.408 4.83L115.688 3.78C115.828 3.59333 116.154 3.38333 116.668 3.15C116.668 3.43 116.784 3.57 117.018 3.57H117.158C117.391 3.57 117.508 3.43 117.508 3.15L117.298 2.45L118.488 1.4L118.558 1.33C118.651 1.33 118.978 1.56333 119.538 2.03L119.608 1.96C119.701 1.86667 119.748 1.77333 119.748 1.68C119.748 1.35333 119.701 1.23667 119.608 1.33L119.678 0.909996H120.518L121.008 0.699999C121.241 0.606664 121.381 0.583331 121.428 0.629997L121.778 0.769999C121.778 0.816665 121.778 0.886665 121.778 0.98C121.778 1.07333 121.754 1.21333 121.708 1.4L121.918 1.47C122.104 1.47 122.221 1.37666 122.268 1.19V0.699999C122.268 0.606664 122.244 0.51333 122.198 0.419998C122.198 0.326663 122.198 0.256663 122.198 0.209997C122.431 0.069999 122.688 0.0233336 122.968 0.0699997L123.668 0.279997L124.368 0.139999L124.998 0C125.138 0 125.371 0.0933326 125.698 0.279997C125.698 0.326666 125.838 0.35 126.118 0.35H126.958L127.798 0.559998C127.844 0.606664 127.891 0.65333 127.938 0.699999C127.984 0.746665 128.054 0.793332 128.148 0.839998L128.428 0.769999H128.638C128.918 0.769999 129.361 1.12 129.968 1.82L130.668 2.03C130.761 2.12333 130.854 2.24 130.948 2.38C131.368 2.56667 131.648 2.84667 131.788 3.22C131.834 3.26667 131.858 3.5 131.858 3.92C131.951 4.24667 132.114 4.50333 132.348 4.69C132.394 4.73666 132.488 4.80666 132.628 4.9C132.768 4.99333 132.978 5.08667 133.258 5.18C133.538 5.6 133.654 5.90333 133.608 6.09C133.608 6.13667 133.421 6.27667 133.048 6.51C132.674 6.74333 132.488 6.88333 132.488 6.93C132.488 7.02333 132.511 7.16333 132.558 7.35C132.604 7.49 132.721 7.63 132.908 7.77L133.398 8.19C133.444 8.19 133.468 8.21333 133.468 8.26C133.561 8.35333 133.608 8.47 133.608 8.61L133.888 8.75L134.098 10.64L133.888 14.14C133.841 14.1867 133.794 14.2333 133.748 14.28C133.701 14.3267 133.654 14.3967 133.608 14.49C133.608 14.6767 133.584 14.8867 133.538 15.12C133.538 15.3533 133.514 15.6333 133.468 15.96L133.328 16.24L132.838 16.17C132.698 16.2167 132.464 16.24 132.138 16.24C132.044 16.24 131.858 16.17 131.578 16.03C131.298 15.89 131.111 15.82 131.018 15.82C130.691 15.8667 130.341 15.9367 129.968 16.03C129.594 16.0767 129.198 16.1233 128.778 16.17C128.638 16.03 128.498 15.9367 128.358 15.89C128.264 15.9367 128.078 15.96 127.798 15.96L126.398 15.75C126.164 15.5167 126.048 15.26 126.048 14.98C126.048 14.84 126.188 14.6067 126.468 14.28L126.398 13.93C126.444 13.8833 126.468 13.8133 126.468 13.72C126.468 13.6267 126.491 13.51 126.538 13.37C126.491 12.4367 126.608 11.41 126.888 10.29C126.748 10.1967 126.561 10.01 126.328 9.73C126.654 9.63666 127.028 9.45 127.448 9.17V8.89L127.238 8.82C127.238 8.82 127.051 8.96 126.678 9.24L126.398 9.17L126.468 8.19C126.654 8.09667 126.818 7.98 126.958 7.84C126.958 7.56 126.888 7.32667 126.748 7.14L125.978 7.84L125.348 7.42C125.114 7.32667 124.788 7.25667 124.368 7.21C124.321 7.25667 124.228 7.28 124.088 7.28C124.041 7.28 123.901 7.16333 123.668 6.93L122.408 7.91C122.034 8.23666 121.801 8.58667 121.708 8.96C121.428 8.96 121.288 9.17 121.288 9.59L121.498 10.5C121.498 10.6867 121.404 10.85 121.218 10.99C120.984 10.8967 120.821 10.6633 120.728 10.29L120.518 10.22L120.378 10.5C120.378 10.64 120.518 10.8267 120.798 11.06L121.218 11.34C121.218 11.62 121.194 11.8533 121.148 12.04L121.358 13.3L121.008 14.28V15.12L120.588 15.68V15.96C120.588 16.52 120.401 16.9167 120.028 17.15C120.214 17.15 120.471 17.29 120.798 17.57L119.888 19.67C119.934 19.81 119.934 20.2533 119.888 21L119.608 25.41L119.958 29.75C119.958 29.89 119.818 30.1467 119.538 30.52C119.584 30.5667 119.631 30.6367 119.678 30.73C119.771 30.8233 119.888 30.9167 120.028 31.01V31.22L119.398 31.43C119.398 31.4767 119.421 31.5467 119.468 31.64C119.514 31.6867 119.561 31.7567 119.608 31.85L119.748 32.27C119.468 32.4567 119.234 32.9233 119.048 33.67C119.234 33.7167 119.374 33.95 119.468 34.37C119.561 34.79 119.538 35.07 119.398 35.21C119.444 35.2567 119.701 35.28 120.168 35.28V35.63L119.958 35.91C120.004 35.9567 120.098 36.0267 120.238 36.12C120.378 36.2133 120.564 36.3067 120.798 36.4C120.798 36.6333 120.914 36.9367 121.148 37.31L121.428 37.24L121.638 37.17C121.638 37.17 121.778 37.2167 122.058 37.31H122.268C122.501 37.31 122.688 37.24 122.828 37.1C122.828 37.0533 122.898 37.0067 123.038 36.96C123.131 36.8667 123.178 36.82 123.178 36.82V36.75C123.084 36.75 123.038 36.75 123.038 36.75L122.828 36.82C122.874 36.7733 122.944 36.75 123.038 36.75L123.388 36.61L123.878 36.47C123.924 36.47 123.971 36.4933 124.018 36.54C124.018 36.5867 124.041 36.61 124.088 36.61C124.228 36.61 124.344 36.4933 124.438 36.26C124.531 36.1667 124.554 35.98 124.508 35.7C124.974 35.42 125.068 35.0467 124.788 34.58C125.021 34.0667 125.114 33.4367 125.068 32.69L125.278 29.47C125.464 29.3767 125.651 29.2367 125.838 29.05C126.071 28.77 126.211 28.5833 126.258 28.49C126.258 28.49 126.234 28.49 126.188 28.49C126.141 28.49 125.978 28.35 125.698 28.07C125.651 27.93 125.511 27.79 125.278 27.65L123.808 27.58C123.714 27.6733 123.621 27.72 123.528 27.72L123.108 27.51C123.061 27.51 123.014 27.5333 122.968 27.58C122.968 27.58 122.944 27.58 122.898 27.58L122.548 27.65C122.501 27.65 122.431 27.6033 122.338 27.51C122.291 27.4633 122.198 27.44 122.058 27.44C122.011 27.4867 121.848 27.51 121.568 27.51L121.428 27.23L121.498 26.6L121.428 26.18V26.04C121.428 25.8533 121.521 25.62 121.708 25.34C121.894 25.1067 121.988 24.9433 121.988 24.85L121.708 24.29L121.918 23.87L121.708 23.24C121.848 23.1 122.128 22.89 122.548 22.61C122.548 22.5633 122.478 22.47 122.338 22.33C122.338 22.33 122.221 22.4 121.988 22.54H121.638V22.19C121.684 22.1433 121.731 22.0967 121.778 22.05C121.824 21.9567 121.871 21.8867 121.918 21.84C121.918 21.84 121.964 21.6767 122.058 21.35C122.431 21.1167 122.664 21 122.758 21L123.178 21.21C123.411 21.35 123.551 21.42 123.598 21.42L123.878 21.35C123.971 21.3033 124.088 21.28 124.228 21.28L127.098 21.14C127.378 21.1867 127.541 21.35 127.588 21.63L127.798 22.33C127.891 22.2833 128.148 22.1433 128.568 21.91C128.848 21.63 129.081 21.5367 129.268 21.63L129.898 21.84C129.991 21.7933 130.084 21.77 130.178 21.77C130.271 21.77 130.388 21.7467 130.528 21.7C130.761 21.7467 130.971 21.8167 131.158 21.91C131.391 21.9567 131.624 22.0033 131.858 22.05H131.998C132.371 22.05 132.698 21.8867 132.978 21.56C133.211 21.6533 133.304 21.9333 133.258 22.4L132.838 24.08L132.978 24.36C133.024 24.5 133.048 24.6633 133.048 24.85C133.001 25.1767 132.884 25.34 132.698 25.34L132.488 25.27C132.441 25.3167 132.418 25.3867 132.418 25.48C132.418 25.48 132.464 25.5267 132.558 25.62H132.838C132.838 25.8067 132.814 26.0167 132.768 26.25C132.768 26.4833 132.744 26.7633 132.698 27.09C132.558 27.23 132.464 27.37 132.418 27.51L132.488 27.72C132.488 27.9533 132.488 28.28 132.488 28.7C132.534 29.12 132.581 29.6567 132.628 30.31C132.488 30.45 132.278 30.52 131.998 30.52C131.904 30.4733 131.811 30.4967 131.718 30.59C131.624 30.6833 131.601 30.7533 131.648 30.8C131.741 30.8933 131.881 30.9167 132.068 30.87C132.114 30.8233 132.184 30.8467 132.278 30.94C132.371 31.5933 132.418 32.1767 132.418 32.69C132.464 33.2033 132.464 33.6467 132.418 34.02L132.208 35.21C132.161 35.49 132.114 35.7467 132.068 35.98C132.021 36.1667 131.998 36.33 131.998 36.47L131.928 37.1C131.834 37.1 131.624 37.1467 131.298 37.24C131.018 37.2867 130.878 37.3567 130.878 37.45C130.878 37.59 131.251 37.6833 131.998 37.73V38.01C131.998 38.15 131.998 38.3133 131.998 38.5C131.998 38.64 131.974 38.8267 131.928 39.06C131.788 39.8533 131.741 40.39 131.788 40.67C131.788 40.7633 131.741 40.8567 131.648 40.95C131.694 41.0433 131.718 41.2067 131.718 41.44V41.65C131.531 41.7433 131.368 41.86 131.228 42C131.181 41.9533 131.134 41.9067 131.088 41.86C131.041 41.8133 130.994 41.7667 130.948 41.72C130.854 41.72 130.761 41.7667 130.668 41.86L130.598 42.49L130.808 42.56C130.948 42.56 131.204 42.4433 131.578 42.21L131.648 42.63L131.368 43.54C131.041 43.4933 130.714 43.47 130.388 43.47C130.108 43.47 129.851 43.4467 129.618 43.4L128.918 43.26C128.918 43.2133 129.011 43.19 129.198 43.19C129.244 43.2367 129.338 43.19 129.478 43.05L129.548 42.84C129.361 42.6533 129.151 42.5367 128.918 42.49C128.684 42.8167 128.474 43.0033 128.288 43.05C128.194 43.1433 128.148 43.2367 128.148 43.33C128.008 43.4233 127.751 43.4233 127.378 43.33C127.284 43.4233 127.214 43.0967 127.168 42.35L127.098 41.65C127.004 41.5567 126.864 41.51 126.678 41.51C126.444 41.51 126.304 41.5333 126.258 41.58L125.628 42.28C125.581 42.3267 125.488 42.3733 125.348 42.42C125.254 42.4667 125.138 42.5133 124.998 42.56C124.904 42.7 124.718 42.8867 124.438 43.12L123.668 43.4C123.481 43.4 123.271 43.4 123.038 43.4C122.804 43.4 122.524 43.4233 122.198 43.47C122.151 43.5167 122.034 43.5867 121.848 43.68C121.661 43.7733 121.544 43.7967 121.498 43.75ZM120.028 7.21C120.121 7.25667 120.214 7.23333 120.308 7.14C120.401 7.04666 120.401 6.95333 120.308 6.86C120.214 6.86 120.121 6.97667 120.028 7.21ZM118.698 9.52C118.838 9.52 119.141 9.35667 119.608 9.03C119.328 8.98333 119.118 8.89 118.978 8.75L118.558 8.4C118.604 8.77333 118.628 9.05333 118.628 9.24C118.674 9.42666 118.698 9.52 118.698 9.52ZM131.718 9.59C131.811 9.63667 131.951 9.56667 132.138 9.38C132.091 9.33333 132.021 9.31 131.928 9.31C131.788 9.31 131.718 9.40333 131.718 9.59ZM130.318 11.34C130.364 11.2467 130.341 11.1533 130.248 11.06C130.201 10.9667 130.108 10.99 129.968 11.13C129.968 11.27 130.084 11.34 130.318 11.34ZM129.688 14.77H129.758C130.038 14.77 130.271 14.63 130.458 14.35C130.738 14.35 130.971 14.21 131.158 13.93L130.178 12.88L129.688 13.37C129.781 13.65 129.781 14.1167 129.688 14.77ZM119.188 14.98L119.258 14.63H119.118V14.98H119.188ZM119.258 15.33L119.328 15.19L119.258 15.12L119.118 15.33H119.258ZM126.328 23.03C126.468 22.8433 126.491 22.68 126.398 22.54L125.908 22.47V22.96L126.328 23.03ZM126.258 23.73C126.304 23.6833 126.421 23.66 126.608 23.66V23.52C126.608 23.4733 126.584 23.45 126.538 23.45C126.538 23.45 126.538 23.4267 126.538 23.38C126.351 23.4267 126.258 23.5433 126.258 23.73ZM117.018 24.78C117.064 24.7333 117.088 24.64 117.088 24.5C117.041 24.4533 116.948 24.43 116.808 24.43C116.901 24.6167 116.971 24.7333 117.018 24.78ZM116.178 27.44L116.248 27.09C116.108 26.95 115.991 26.67 115.898 26.25C115.898 25.97 115.734 25.83 115.408 25.83H115.128L115.058 26.11C115.058 26.1567 115.058 26.2033 115.058 26.25C115.104 26.25 115.128 26.2733 115.128 26.32L115.198 26.53C115.198 26.6233 115.198 26.74 115.198 26.88C115.198 26.9733 115.221 27.1133 115.268 27.3C115.314 27.2533 115.454 27.23 115.688 27.23L116.178 27.44ZM117.298 28.28C117.391 28.1867 117.438 28.1167 117.438 28.07C117.438 27.93 117.321 27.86 117.088 27.86C117.041 28 117.111 28.14 117.298 28.28ZM127.658 30.52L127.938 30.38L127.798 30.17C127.751 30.2167 127.728 30.2633 127.728 30.31C127.728 30.3567 127.704 30.4267 127.658 30.52ZM126.118 35.56C125.978 35.7 125.884 35.84 125.838 35.98C125.838 36.0733 125.931 36.2133 126.118 36.4V35.56ZM113.028 36.33C113.168 36.3767 113.308 36.3067 113.448 36.12C113.354 36.0267 113.284 35.98 113.238 35.98C113.098 35.98 113.028 36.0967 113.028 36.33ZM124.158 37.17V36.89C124.111 36.8433 124.018 36.82 123.878 36.82L123.808 36.96C123.808 37.0533 123.831 37.1233 123.878 37.17H124.158ZM127.868 37.17C127.914 37.0767 127.891 36.9833 127.798 36.89C127.704 36.7967 127.611 36.7967 127.518 36.89C127.518 36.9833 127.634 37.0767 127.868 37.17ZM113.938 38.29C114.171 38.1967 114.311 38.0333 114.358 37.8C114.404 37.7067 114.381 37.6133 114.288 37.52H114.078L113.938 38.29ZM124.438 37.94C124.438 37.7533 124.391 37.66 124.298 37.66L124.018 37.59L123.878 37.87L124.438 37.94ZM123.318 41.02C123.504 41.02 123.668 40.88 123.808 40.6L123.668 40.46C123.341 40.5067 123.131 40.5767 123.038 40.67C123.084 40.7167 123.131 40.7633 123.178 40.81C123.224 40.8567 123.271 40.9267 123.318 41.02Z" fill="white"/>
<path d="M84.2749 43.05L83.3649 42.77H83.0849C82.9449 42.77 82.7816 42.77 82.5949 42.77C82.4083 42.7233 82.1983 42.6767 81.9649 42.63L80.4949 41.37C80.1216 40.9967 79.8416 40.5533 79.6549 40.04C79.6083 39.8533 79.5616 39.62 79.5149 39.34C79.4683 39.06 79.3983 38.7333 79.3049 38.36L79.3749 38.01C79.3749 37.87 79.3516 37.7533 79.3049 37.66C79.2116 37.38 79.1649 37.24 79.1649 37.24C79.2116 37.1467 79.2349 37.0067 79.2349 36.82C79.2349 36.5867 79.2349 36.3533 79.2349 36.12L78.8149 34.72V34.51C78.8149 34.4167 78.8149 34.3 78.8149 34.16C78.8149 34.02 78.8383 33.88 78.8849 33.74L79.2349 32.9V32.41C79.4216 32.13 79.6083 31.78 79.7949 31.36C79.9816 30.8933 80.1683 30.3567 80.3549 29.75L80.9149 29.47C80.9616 29.3767 81.0083 29.2833 81.0549 29.19C81.1016 29.0967 81.1716 29.0033 81.2649 28.91L82.2449 27.93C82.2916 27.8367 82.3383 27.7433 82.3849 27.65C82.4316 27.51 82.5016 27.3467 82.5949 27.16L85.1149 25.62C85.3483 25.48 85.5816 25.34 85.8149 25.2C86.0483 25.06 86.2816 24.8967 86.5149 24.71C86.5149 24.71 86.6549 24.7567 86.9349 24.85C86.9816 24.8033 87.0283 24.7567 87.0749 24.71C87.1216 24.6167 87.1916 24.5467 87.2849 24.5L87.9849 24.22C87.9849 23.9867 88.0783 23.7533 88.2649 23.52C88.4049 23.4267 88.5683 23.2867 88.7549 23.1C88.9883 22.9133 89.2449 22.68 89.5249 22.4C89.5716 22.3533 89.5716 22.12 89.5249 21.7C89.6183 21.7933 89.6649 21.77 89.6649 21.63C89.6649 21.21 89.6416 21.0467 89.5949 21.14C89.5483 20.9533 89.4783 20.7667 89.3849 20.58C89.3383 20.3467 89.2916 20.1133 89.2449 19.88C89.1983 19.8333 89.2216 19.6933 89.3149 19.46L89.4549 19.11C89.4549 19.11 89.3383 18.9467 89.1049 18.62L88.4049 17.71C88.1716 17.4767 87.8683 17.3833 87.4949 17.43L87.1449 17.5C86.8649 17.5933 86.7249 17.64 86.7249 17.64H86.0949L85.9549 17.78C86.0016 17.8267 86.0483 17.8733 86.0949 17.92C86.1416 17.9667 86.1883 18.0367 86.2349 18.13C86.2349 18.2233 86.2116 18.2933 86.1649 18.34V18.55C85.9783 18.5967 85.7683 18.7833 85.5349 19.11C85.4416 19.39 85.3949 19.6467 85.3949 19.88C85.4883 20.0667 85.6283 20.2533 85.8149 20.44C85.7683 20.4867 85.6983 20.51 85.6049 20.51C85.5116 20.8833 85.5116 21.14 85.6049 21.28L85.8149 21.56V21.91C85.8149 21.9567 85.7449 22.0267 85.6049 22.12L84.7649 21.91C84.7183 21.7233 84.6016 21.6767 84.4149 21.77C84.2749 21.8633 84.1583 21.84 84.0649 21.7H83.9249C83.7849 21.7 83.6916 21.6533 83.6449 21.56C83.5983 21.42 83.5049 21.4433 83.3649 21.63L82.9449 22.12C82.7116 22.12 82.5249 22.1433 82.3849 22.19L82.0349 22.05C81.8949 21.9567 81.8016 21.9333 81.7549 21.98C81.7083 21.98 81.6616 21.98 81.6149 21.98L80.1449 22.4C80.0516 22.4 79.9349 22.4 79.7949 22.4C79.6549 22.4 79.4916 22.3767 79.3049 22.33L78.9549 21.28C78.9549 21.2333 78.9783 21.21 79.0249 21.21C79.0716 21.1633 79.0949 21.1167 79.0949 21.07L79.1649 20.86C79.1183 20.72 79.0949 20.5567 79.0949 20.37C79.0949 20.1367 79.0949 19.9033 79.0949 19.67C79.2349 19.53 79.3283 19.39 79.3749 19.25C79.4216 19.11 79.4449 18.8067 79.4449 18.34V17.92C79.4449 16.7067 80.4716 15.19 82.5249 13.37C82.5716 13.23 82.7349 13.02 83.0149 12.74C83.0616 12.6933 83.3649 12.5533 83.9249 12.32C84.0183 12.2267 84.0416 12.1567 83.9949 12.11L84.0649 11.76C84.2516 11.8067 84.4383 11.8533 84.6249 11.9C84.8583 11.9 85.0683 11.9 85.2549 11.9L85.7449 11.69C85.8383 11.6433 85.9316 11.5967 86.0249 11.55C86.1183 11.5033 86.1883 11.48 86.2349 11.48H86.7249C86.7716 11.4333 86.9349 11.3633 87.2149 11.27C87.4949 11.2233 87.7283 11.2 87.9149 11.2C88.1483 11.1533 88.3583 11.13 88.5449 11.13C88.7783 11.13 89.2683 11.2 90.0149 11.34C90.8549 11.48 91.3216 11.62 91.4149 11.76L91.3449 12.25L91.5549 12.53L91.9749 12.32C92.1149 12.32 92.2783 12.46 92.4649 12.74L93.0249 12.81C93.1183 12.81 93.2116 12.8333 93.3049 12.88C93.4449 12.88 93.5383 12.88 93.5849 12.88C93.6316 12.9267 93.6783 12.9733 93.7249 13.02C93.7716 13.02 93.8183 13.0667 93.8649 13.16V13.72L93.3049 14C93.3516 14.1867 93.5383 14.3033 93.8649 14.35C94.2383 14.3967 94.4483 14.4667 94.4949 14.56L95.1949 17.15C95.1949 17.29 95.3349 17.4767 95.6149 17.71C95.6616 18.0367 95.6849 18.41 95.6849 18.83C95.6849 19.25 95.6849 19.6933 95.6849 20.16L95.8949 20.51C95.9416 20.5567 95.9649 20.8133 95.9649 21.28L95.8949 22.47C95.8483 22.89 95.8249 23.2633 95.8249 23.59C95.8249 23.87 95.8249 24.1033 95.8249 24.29L95.9649 24.5C96.0116 24.9667 96.0349 25.34 96.0349 25.62C96.0816 25.8533 96.1049 25.9467 96.1049 25.9L95.8249 26.6C95.7783 26.7867 95.7316 26.9267 95.6849 27.02C95.6849 27.0667 95.6849 27.1133 95.6849 27.16C95.6849 27.3 95.6849 27.44 95.6849 27.58C95.7316 27.72 95.7783 27.86 95.8249 28C95.9183 28.0933 95.9883 28.2333 96.0349 28.42C96.1283 28.56 96.1983 28.7233 96.2449 28.91L96.1749 29.82C96.1283 29.8667 96.0816 29.96 96.0349 30.1C95.9883 30.1933 95.9416 30.31 95.8949 30.45C95.8949 30.45 95.9883 31.08 96.1749 32.34L95.8949 33.32C95.9416 33.3667 96.0116 33.53 96.1049 33.81C96.1983 34.0433 96.2449 34.1833 96.2449 34.23V34.58C96.2449 34.86 96.2216 35.07 96.1749 35.21C96.5949 35.2567 96.8049 35.6067 96.8049 36.26L96.6649 36.68C96.5716 36.96 96.5249 37.1 96.5249 37.1L96.7349 37.87C96.7816 38.0567 96.8049 38.2667 96.8049 38.5C96.8516 38.7333 96.8749 39.0367 96.8749 39.41V40.11C97.0149 40.2967 97.1549 40.6233 97.2949 41.09V41.16C97.2949 41.6733 96.6649 41.9767 95.4049 42.07L94.0749 41.86C94.0283 41.86 93.8883 41.86 93.6549 41.86C93.4216 41.86 93.0716 41.8833 92.6049 41.93C92.5583 41.93 92.4883 41.9767 92.3949 42.07C92.3016 42.1633 92.2083 42.21 92.1149 42.21H91.4849C91.4849 42.21 91.2049 42.1167 90.6449 41.93L90.7849 41.3C90.7849 41.02 90.6449 40.81 90.3649 40.67C90.3649 40.6233 90.3883 40.4367 90.4349 40.11L90.5749 39.62C90.2483 39.6667 89.4083 40.3667 88.0549 41.72C87.7283 42.0467 87.4949 42.1867 87.3549 42.14L87.0749 42.07C86.9349 42.21 86.7949 42.3267 86.6549 42.42C86.3749 42.56 86.1183 42.63 85.8849 42.63C85.8383 42.6767 85.8149 42.6767 85.8149 42.63C85.7683 42.5833 85.7216 42.56 85.6749 42.56C85.6283 42.6067 85.3949 42.7 84.9749 42.84C84.6016 42.98 84.3683 43.05 84.2749 43.05ZM84.6249 12.88C84.6249 12.74 84.5316 12.6467 84.3449 12.6C84.2516 12.6933 84.2049 12.7633 84.2049 12.81C84.2516 13.09 84.3916 13.1133 84.6249 12.88ZM93.3049 16.45L93.5149 16.17C93.5616 16.0767 93.5149 15.9833 93.3749 15.89C93.2349 15.8433 93.0716 15.8433 92.8849 15.89C92.9316 16.03 93.0716 16.2167 93.3049 16.45ZM83.3649 18.97L84.2049 18.9C84.5783 18.9 84.7649 18.7367 84.7649 18.41L84.6249 18.06L83.7149 17.99C83.3416 17.99 83.1783 18.13 83.2249 18.41L83.2949 18.69C83.3416 18.7833 83.3649 18.8767 83.3649 18.97ZM89.7349 24.08C89.7816 24.1267 89.8983 24.1267 90.0849 24.08L90.0149 23.8C89.8283 23.8467 89.7349 23.94 89.7349 24.08ZM85.1149 28.21L85.1849 27.86L84.7649 27.79L85.1149 28.21ZM86.7949 36.89H87.1449C87.2383 36.89 87.3316 36.8433 87.4249 36.75C87.5183 36.6567 87.5883 36.61 87.6349 36.61C87.7283 36.6567 87.8683 36.7267 88.0549 36.82C88.2416 36.82 88.4516 36.7033 88.6849 36.47C88.7783 36.2367 88.9183 35.9567 89.1049 35.63C89.3383 35.5367 89.5949 35.35 89.8749 35.07C89.8283 34.9767 89.8049 34.79 89.8049 34.51C89.8049 34.2767 89.8049 34.02 89.8049 33.74C89.8516 33.46 89.8983 33.1567 89.9449 32.83C89.8983 32.5967 89.8516 32.34 89.8049 32.06C89.7583 31.7333 89.7116 31.36 89.6649 30.94C89.6649 30.66 89.8049 30.4967 90.0849 30.45C89.9449 29.9833 89.6416 29.33 89.1749 28.49H88.0549C87.9149 29.05 87.7049 29.54 87.4249 29.96L86.9349 30.31L86.6549 30.8L86.1649 31.08C86.1183 31.2667 86.0249 31.4767 85.8849 31.71C85.7916 31.9433 85.6983 32.2233 85.6049 32.55C85.6049 32.83 85.4416 33.2967 85.1149 33.95L85.1849 34.23C84.8583 34.6033 84.6949 34.8367 84.6949 34.93C84.7883 34.8833 84.8816 34.93 84.9749 35.07L85.3949 36.19C85.4883 36.2367 85.5816 36.2833 85.6749 36.33C85.7683 36.33 85.8616 36.3767 85.9549 36.47C86.0016 36.5167 86.0483 36.5633 86.0949 36.61C86.1416 36.6567 86.1883 36.7267 86.2349 36.82L86.7949 36.89ZM93.9349 33.32C94.0283 33.32 94.1449 33.25 94.2849 33.11C94.4716 32.9233 94.5649 32.7833 94.5649 32.69L94.4249 32.41C94.3783 32.3633 94.3083 32.34 94.2149 32.34C94.1216 32.34 94.0283 32.3167 93.9349 32.27L93.4449 32.62C93.4916 32.6667 93.5616 32.83 93.6549 33.11C93.7483 33.25 93.8416 33.32 93.9349 33.32ZM91.0649 35.28L91.4849 35.14C91.4383 35.0933 91.4149 34.9767 91.4149 34.79L90.9949 34.86C90.9949 35.0933 91.0183 35.2333 91.0649 35.28ZM87.3549 41.23C87.4483 40.8567 87.4249 40.67 87.2849 40.67L87.1449 40.81C87.0983 40.8567 87.0749 40.9733 87.0749 41.16L87.3549 41.23Z" fill="white"/>
<path d="M57.7172 43.33C57.7172 43.33 57.4605 43.19 56.9472 42.91C56.9472 42.63 56.9239 42.3033 56.8772 41.93C56.8305 41.51 56.7605 41.0433 56.6672 40.53L56.4572 39.9C56.4572 39.8533 56.4572 39.8066 56.4572 39.76C56.4572 39.6666 56.4805 39.5266 56.5272 39.34C56.5739 39.1533 56.5972 38.99 56.5972 38.85C56.6439 38.71 56.6672 38.6166 56.6672 38.57C56.8072 38.3366 56.8772 38.0799 56.8772 37.7999C56.8772 37.1933 56.7839 36.89 56.5972 36.89L56.4572 36.96V36.61C56.5039 36.47 56.5272 36.2133 56.5272 35.84C56.4805 35.6066 56.4339 35.42 56.3872 35.28C56.3872 35.0933 56.4105 34.93 56.4572 34.79L56.5972 34.02C56.5972 33.9733 56.4805 33.7166 56.2472 33.25C56.2005 33.0166 56.1305 32.6666 56.0372 32.2L56.2472 30.59L55.8972 29.82C55.8972 29.4466 55.9205 29.19 55.9672 29.05L56.1072 28.7C56.2005 28.42 56.2472 28.28 56.2472 28.28C56.1072 28.0466 55.9672 27.7666 55.8272 27.44C55.7805 27.0666 55.7339 26.67 55.6872 26.25C55.6872 25.83 55.6872 25.3866 55.6872 24.92L55.4072 23.8L55.7572 22.26L55.8272 22.12C55.8272 22.0733 55.7572 21.98 55.6172 21.84C55.4305 21.7 55.3372 21.6066 55.3372 21.56L55.5472 20.23C55.5005 20.0433 55.4539 19.8566 55.4072 19.67C55.4072 19.4366 55.3605 19.2266 55.2672 19.04C55.2205 18.9 55.0105 18.6433 54.6372 18.27C54.5905 18.2233 54.4739 18.2 54.2872 18.2L53.6572 18.55C53.4705 18.6433 53.3072 18.7133 53.1672 18.76C53.0739 18.8066 53.0039 18.8533 52.9572 18.9C52.7705 18.9 52.4439 18.7366 51.9772 18.41C51.7905 18.27 51.6505 17.9433 51.5572 17.43V16.3099C51.6039 16.2633 51.6272 16.1466 51.6272 15.96C51.4872 15.1666 51.4172 14.6533 51.4172 14.42L51.4872 14.21C51.5339 14.1633 51.5572 14.0933 51.5572 14C51.4172 13.72 51.2772 13.37 51.1372 12.95C51.1372 12.53 51.3005 12.32 51.6272 12.32H53.7272C54.5205 12.2266 54.9172 12.1333 54.9172 12.04C54.9172 11.9466 54.8705 11.8533 54.7772 11.76C54.6839 11.6666 54.6372 11.5966 54.6372 11.55C54.5905 11.3633 54.6839 11.1766 54.9172 10.99C55.1505 10.85 55.2672 10.6866 55.2672 10.5L54.7772 9.51995C54.9639 9.37995 55.0572 9.16995 55.0572 8.88995C55.0572 8.70328 55.0105 8.56328 54.9172 8.46995C54.8705 8.14329 54.7305 7.97995 54.4972 7.97995V6.64995C54.4972 6.50995 54.6139 6.27662 54.8472 5.94995C54.6605 5.76328 54.6372 5.52995 54.7772 5.24995C54.9639 5.01662 55.1739 4.82995 55.4072 4.68995C55.2205 4.50328 55.1272 4.31662 55.1272 4.12995C55.1272 3.89662 55.1972 3.70995 55.3372 3.56995C55.8505 3.00995 56.1539 2.72995 56.2472 2.72995L56.5272 2.86995L57.1572 1.81995C57.2505 1.72662 57.3439 1.63328 57.4372 1.53995C57.5305 1.44662 57.6705 1.35328 57.8572 1.25995C58.1372 1.30662 58.2772 1.46995 58.2772 1.74995C58.2772 1.93662 58.3939 2.02995 58.6272 2.02995C58.8139 1.98329 58.9772 1.79662 59.1172 1.46995C59.2105 1.18995 59.4205 1.04995 59.7472 1.04995L60.5172 1.11995C60.7039 1.02662 60.8905 0.956617 61.0772 0.909948C61.2639 0.816616 61.4739 0.746617 61.7072 0.699951H61.9872L62.1272 1.11995C62.1272 1.16662 62.1972 1.23662 62.3372 1.32995C62.3839 1.28328 62.4305 1.23662 62.4772 1.18995C62.5239 1.14328 62.5705 1.09662 62.6172 1.04995L63.2472 0.769951C63.6672 0.769951 64.1572 0.863285 64.7172 1.04995C64.9505 1.37662 65.0672 1.72662 65.0672 2.09995L65.1372 2.65995C64.8572 3.03329 64.7405 3.26662 64.7872 3.35995L65.2072 3.84995C65.2539 3.89662 65.2772 3.98995 65.2772 4.12995C65.3705 4.40995 65.3239 4.59662 65.1372 4.68995C64.9505 4.73662 64.8572 4.92328 64.8572 5.24995C64.8572 5.29662 64.9739 5.38995 65.2072 5.52995L65.4872 6.78995V6.85995C65.4872 7.13995 65.2539 7.30328 64.7872 7.34995L63.8772 7.06995H63.3172C63.4105 6.69662 63.4572 6.36995 63.4572 6.08995C63.3639 5.71662 63.2005 5.52995 62.9672 5.52995C62.6872 5.52995 62.4539 5.66995 62.2672 5.94995C62.0339 6.18328 61.9639 6.34662 62.0572 6.43995C61.7772 6.53328 61.6139 6.69662 61.5672 6.92995C61.4739 7.25662 61.5205 7.46662 61.7072 7.55995C61.2872 7.93328 61.1472 8.81995 61.2872 10.2199C61.2872 10.3133 61.2172 10.4766 61.0772 10.7099C60.8905 11.0366 60.9605 11.2466 61.2872 11.34C61.7539 11.9466 62.2205 12.25 62.6872 12.25C62.9672 12.1566 63.1305 12.0166 63.1772 11.83C63.2705 11.5966 63.4105 11.48 63.5972 11.48C63.6905 11.5266 63.8772 11.55 64.1572 11.55C64.2039 11.55 64.2972 11.48 64.4372 11.34C64.6239 11.2466 64.7172 11.2 64.7172 11.2C65.0439 11.2 65.3005 11.2933 65.4872 11.48L65.2772 12.6C65.4172 12.7866 65.4872 12.9733 65.4872 13.16C65.4872 13.3933 65.3472 13.58 65.0672 13.72C65.1139 13.8133 65.1605 13.9533 65.2072 14.14C65.2539 14.28 65.3005 14.4666 65.3472 14.7L65.4172 15.61C65.4639 15.6566 65.5105 15.75 65.5572 15.89C65.6039 15.9833 65.6505 16.1 65.6972 16.24V16.59C65.6972 17.3366 65.5572 17.71 65.2772 17.71C65.1839 17.6633 65.0672 17.64 64.9272 17.64C64.8339 17.5933 64.6939 17.5466 64.5072 17.5L62.9672 17.92C62.9205 17.7333 62.6872 17.57 62.2672 17.43C62.0805 17.4766 61.9405 17.5466 61.8472 17.64C61.8005 17.78 61.8239 17.8733 61.9172 17.92C61.8705 18.1066 61.8239 18.27 61.7772 18.41C61.7772 18.55 61.7772 18.6899 61.7772 18.83C61.7772 19.1566 61.8005 19.4833 61.8472 19.81C61.9405 20.1366 62.0105 20.4633 62.0572 20.79C62.1972 20.93 62.2905 21.07 62.3372 21.21L62.1272 21.77C62.1739 22.19 62.1972 22.4233 62.1972 22.4699C62.0572 22.5633 61.9872 22.68 61.9872 22.82C62.0805 22.9133 62.1505 23.03 62.1972 23.17C62.2905 23.2633 62.3605 23.38 62.4072 23.52C62.4072 23.7066 62.4072 23.9866 62.4072 24.36C62.4539 24.7333 62.5005 25.1766 62.5472 25.69L62.7572 26.11C62.7572 26.11 62.7105 26.25 62.6172 26.53L62.5472 27.02C62.5472 27.2533 62.5939 27.51 62.6872 27.79C62.6405 27.8833 62.6172 28.0466 62.6172 28.28C62.6172 28.4666 62.6172 28.6766 62.6172 28.91C62.4772 28.91 62.4772 29.05 62.6172 29.33C62.7105 29.47 62.8272 29.61 62.9672 29.75L63.0372 30.17C63.0372 30.31 62.9672 30.66 62.8272 31.22C62.8739 31.3133 62.8972 31.5233 62.8972 31.85L62.8272 32.62C62.7805 32.8066 62.7572 32.9466 62.7572 33.04C62.7572 33.0866 62.7572 33.1333 62.7572 33.18L63.4572 34.86C63.2705 35.0933 63.1539 35.5133 63.1072 36.1199C63.2005 36.2133 63.2705 36.3533 63.3172 36.54C63.3639 36.68 63.4339 36.82 63.5272 36.96C63.4805 37.0066 63.4339 37.17 63.3872 37.45L63.4572 38.36C63.4105 38.64 63.3872 38.9433 63.3872 39.27C63.3872 39.55 63.3872 39.8766 63.3872 40.25L63.5972 40.53C63.8305 41.09 63.9472 41.4866 63.9472 41.72V41.79C63.9472 42.2566 63.5505 42.5366 62.7572 42.63C62.4305 42.63 62.1039 42.63 61.7772 42.63C61.4972 42.63 61.1705 42.6533 60.7972 42.7L59.8872 42.9799C59.7472 42.9333 59.5839 42.91 59.3972 42.91C59.2572 42.91 59.0939 42.91 58.9072 42.91C58.6739 43.05 58.2772 43.19 57.7172 43.33ZM63.4572 3.49995L63.7372 3.21995C63.6905 3.17328 63.5505 3.14995 63.3172 3.14995L63.4572 3.49995ZM56.9472 5.17995C57.0405 5.22662 57.1339 5.20328 57.2272 5.10995C57.3205 5.01662 57.2739 4.89995 57.0872 4.75995C56.9472 4.85329 56.9005 4.99329 56.9472 5.17995ZM60.6572 9.30995C60.6572 9.21662 60.6105 9.12328 60.5172 9.02995C60.4705 8.93662 60.3772 8.95995 60.2372 9.09995C60.2372 9.23995 60.3772 9.30995 60.6572 9.30995ZM53.3072 13.58C53.3539 13.4866 53.3305 13.3933 53.2372 13.2999C53.1905 13.2533 53.0739 13.2766 52.8872 13.37C52.9805 13.51 53.1205 13.58 53.3072 13.58ZM64.2972 15.75C64.4839 15.6566 64.6005 15.5866 64.6472 15.5399L64.5772 15.12L64.5072 15.05H64.2272C63.9939 15.1433 63.8539 15.33 63.8072 15.61L64.2972 15.75ZM59.2572 20.09C59.3505 20.09 59.4439 20.0433 59.5372 19.95L59.3972 19.74C59.3505 19.7866 59.3272 19.8333 59.3272 19.8799C59.3272 19.9266 59.3039 19.9966 59.2572 20.09ZM62.2672 22.4C62.2205 22.4933 62.1972 22.5166 62.1972 22.4699C62.1972 22.4699 62.2205 22.4466 62.2672 22.4ZM58.7672 30.66C58.8139 30.6133 58.7672 30.52 58.6272 30.38L58.4172 30.52C58.4639 30.5666 58.5105 30.59 58.5572 30.59C58.6505 30.59 58.7205 30.6133 58.7672 30.66ZM57.5072 32.7599L57.7172 32.62C57.7639 32.5266 57.8339 32.41 57.9272 32.27C58.0205 32.13 58.1139 31.99 58.2072 31.85C57.9272 31.57 57.7172 31.43 57.5772 31.43C56.9705 31.57 56.7139 31.7566 56.8072 31.99C57.0405 32.5966 57.2739 32.8533 57.5072 32.7599ZM63.5272 37.03V36.96C63.5272 36.9133 63.5272 36.9366 63.5272 37.03ZM62.6172 37.45L62.5472 37.24C62.5005 37.1933 62.4772 37.1466 62.4772 37.1C62.3839 37.1 62.2672 37.17 62.1272 37.31L62.3372 37.45H62.6172ZM60.8672 41.93L60.7272 41.58H60.4472C60.4939 41.72 60.6339 41.8366 60.8672 41.93ZM68.7772 8.67995C68.5905 8.63328 68.3572 8.49328 68.0772 8.25995C67.9372 8.11995 67.8672 7.95662 67.8672 7.76995C67.8205 7.48995 67.8439 7.20995 67.9372 6.92995L68.2872 6.50995C68.3339 6.46328 68.3339 6.34662 68.2872 6.15995C68.2872 5.97329 68.2639 5.85662 68.2172 5.80995C68.0305 5.71662 67.9139 5.57662 67.8672 5.38995C67.8205 5.29662 67.7972 5.01662 67.7972 4.54995L67.9372 4.05995C67.9839 3.91995 68.0072 3.80328 68.0072 3.70995C68.0072 3.56995 68.0072 3.47662 68.0072 3.42995L68.0772 1.60995C68.1705 1.32995 68.3572 1.18995 68.6372 1.18995L68.8472 1.25995C68.8939 1.30662 68.9639 1.32995 69.0572 1.32995L69.4772 1.11995H70.3172C70.4105 1.11995 70.5272 1.21328 70.6672 1.39995C70.7605 1.53995 70.8305 1.65662 70.8772 1.74995C70.9705 1.79662 71.0405 1.84328 71.0872 1.88995C71.1805 1.74995 71.3672 1.63328 71.6472 1.53995L71.7872 0.839951C71.9739 0.886617 72.2072 1.02662 72.4872 1.25995C72.5805 1.30662 72.8372 1.32995 73.2572 1.32995C73.3039 1.32995 73.3972 1.25995 73.5372 1.11995C73.6772 0.97995 73.7939 0.909948 73.8872 0.909948L74.5872 0.979952C74.6805 1.16662 74.7739 1.39995 74.8672 1.67995C74.9605 1.91329 75.0539 2.14662 75.1472 2.37995C75.1472 2.47328 75.1005 2.56662 75.0072 2.65995C75.1005 2.70662 75.1005 2.98662 75.0072 3.49995L74.7972 3.77995C74.7972 3.96662 74.7272 4.17662 74.5872 4.40995L74.3072 4.26995C74.1672 4.26995 74.0505 4.40995 73.9572 4.68995C74.0972 4.87662 74.1905 4.96995 74.2372 4.96995L74.5872 4.82995C74.7272 4.82995 74.8439 4.94662 74.9372 5.17995V6.15995L75.1472 7.62995V7.69995C75.1472 8.07328 74.9139 8.28328 74.4472 8.32995L74.0972 8.11995C74.0039 8.16662 73.8872 8.21328 73.7472 8.25995C73.6539 8.30662 73.5605 8.35328 73.4672 8.39995L72.9772 8.25995C72.8372 8.21328 72.6972 8.18995 72.5572 8.18995C72.0905 8.18995 71.6239 8.21328 71.1572 8.25995C70.6905 8.30662 70.2705 8.37662 69.8972 8.46995C69.7105 8.60995 69.4772 8.67995 69.1972 8.67995H68.7772ZM73.1172 2.09995C73.1639 2.05328 73.2572 2.02995 73.3972 2.02995L73.3272 1.74995C73.1405 1.79662 73.0705 1.91328 73.1172 2.09995ZM69.8972 3.63995H69.6172L69.8972 3.98995V3.63995ZM73.1172 43.47C73.0239 43.47 72.9305 43.4233 72.8372 43.33C72.7439 43.2366 72.6739 43.1899 72.6272 43.1899L71.2272 43.0499C71.1805 43.0499 71.0639 43.0966 70.8772 43.1899C70.7372 43.2366 70.5972 43.26 70.4572 43.26L69.8272 43.1899C69.6405 43.1433 69.5005 43.1199 69.4072 43.1199C69.3139 43.1199 69.2439 43.1199 69.1972 43.1199C69.1505 43.1666 69.0572 43.2133 68.9172 43.26C68.8239 43.3066 68.7072 43.3533 68.5672 43.4L68.2172 43.26V42L68.4972 41.58C68.5439 41.44 68.5672 41.1366 68.5672 40.67C68.7539 40.6233 68.8005 40.4833 68.7072 40.25L68.4972 39.83C68.4972 39.41 68.6372 39.13 68.9172 38.99C69.1972 38.85 69.3372 38.7566 69.3372 38.71C69.3372 38.6166 69.3139 38.5233 69.2672 38.43C69.2672 38.29 69.2439 38.1266 69.1972 37.9399C69.0105 37.7999 68.8472 37.59 68.7072 37.31C68.6605 37.17 68.5905 36.96 68.4972 36.68C68.3572 35.7 68.2872 34.9766 68.2872 34.5099C68.4272 34.3233 68.4505 33.7866 68.3572 32.9L68.5672 32.69C68.5672 32.69 68.5672 32.41 68.5672 31.85C68.6605 31.7566 68.7305 31.6166 68.7772 31.43L68.2172 31.15V30.59C68.2172 30.3566 68.1939 30.1233 68.1472 29.89C68.1472 29.61 68.1239 29.33 68.0772 29.05L67.9372 28C68.1239 27.9533 68.2405 27.4866 68.2872 26.6L68.7772 26.67L68.8472 26.6V26.11C68.7072 25.8766 68.4972 25.8066 68.2172 25.9C68.2172 25.62 68.1705 25.1533 68.0772 24.5C68.0305 23.8466 68.0072 23.52 68.0072 23.52C68.0072 23.4733 68.0539 23.31 68.1472 23.03L68.2872 22.75V21.14C68.2872 20.8133 68.2172 20.58 68.0772 20.44V20.16C68.0772 19.88 68.1239 19.6466 68.2172 19.46C68.4505 19.46 68.5905 19.3666 68.6372 19.18C68.6839 18.9933 68.5672 18.8533 68.2872 18.76C68.3339 18.7133 68.3572 18.62 68.3572 18.48C68.3572 18.34 68.2872 18.1766 68.1472 17.99V16.17L68.4272 13.86L68.2872 13.16L68.0772 12.53V12.04H69.0572C69.2905 12.4133 69.5239 12.6 69.7572 12.6L70.3172 12.32C70.6905 12.18 70.8772 12.11 70.8772 12.11C70.9239 12.11 71.0405 12.18 71.2272 12.32C71.4139 12.5066 71.5305 12.6 71.5772 12.6L72.2072 12.39C72.1605 12.4833 72.1372 12.5766 72.1372 12.67C72.1372 12.7166 72.1372 12.74 72.1372 12.74V12.8099C72.1372 12.8566 72.3239 12.88 72.6972 12.88C72.9305 12.88 73.0939 12.8333 73.1872 12.74C73.2805 12.6466 73.3505 12.6 73.3972 12.6C73.4439 12.6466 73.5605 12.67 73.7472 12.67H73.9572C74.0505 12.5766 74.1205 12.4366 74.1672 12.25L74.9372 11.9C75.1705 11.9 75.3105 12.04 75.3572 12.32C75.3572 12.5066 75.3339 12.7633 75.2872 13.09C75.2405 13.4166 75.1705 13.8366 75.0772 14.35C74.4705 14.35 74.1672 14.4433 74.1672 14.63C74.1672 14.63 74.3539 14.8166 74.7272 15.19C75.0539 15.5166 75.2172 15.82 75.2172 16.1V16.59C75.0772 16.9166 74.9839 17.08 74.9372 17.08L75.2872 18.2C74.9605 18.48 74.7972 18.6433 74.7972 18.69L75.0072 19.25C75.0539 19.2966 75.0772 19.39 75.0772 19.53C75.0772 19.6233 75.0305 19.81 74.9372 20.09C74.9839 20.1366 75.0072 20.2533 75.0072 20.44L74.9372 20.51L75.0072 20.93C75.1472 21.07 75.2405 21.21 75.2872 21.35L75.1472 22.19L74.5872 22.33C74.6339 22.5166 74.7272 22.54 74.8672 22.4C75.1472 22.5866 75.2872 22.82 75.2872 23.1L75.1472 23.73C75.0072 24.0566 74.9372 24.2666 74.9372 24.36C75.0305 24.4066 75.1005 24.4766 75.1472 24.57C75.2405 24.6633 75.3339 24.7566 75.4272 24.85C75.4272 25.0366 75.3339 25.2 75.1472 25.34C74.8672 25.62 74.7039 25.83 74.6572 25.97C74.9839 26.2033 75.1705 26.53 75.2172 26.95C75.2639 27.09 75.2639 27.3933 75.2172 27.86L75.2872 28.21C75.3339 28.35 75.3572 28.4666 75.3572 28.56V29.19C75.3572 29.5166 75.3572 29.8433 75.3572 30.17C75.4039 30.4966 75.4505 30.8466 75.4972 31.22C75.4972 31.4533 75.4505 31.71 75.3572 31.99C75.4039 32.0833 75.4272 32.2233 75.4272 32.41C75.4272 32.69 75.3339 32.9233 75.1472 33.11C74.9139 33.4366 74.7972 33.6233 74.7972 33.67C74.7972 33.81 74.8672 33.95 75.0072 34.09C75.0072 34.09 74.9372 34.2066 74.7972 34.4399C74.6105 34.6266 74.5172 34.7666 74.5172 34.86C74.6105 34.9533 74.6805 35 74.7272 35C74.7739 35 74.8672 34.93 75.0072 34.79C75.1472 34.79 75.2639 34.8366 75.3572 34.93L75.4272 39.13L75.3572 39.9L75.2872 40.25L75.0772 40.6C74.9372 40.74 74.8672 40.8333 74.8672 40.88C74.9605 41.0666 75.0539 41.2066 75.1472 41.2999C75.3339 41.6266 75.4272 41.9766 75.4272 42.35C75.4272 42.5366 75.3572 42.8166 75.2172 43.1899H74.8672L74.1672 42.91C73.9805 42.91 73.6305 43.0966 73.1172 43.47ZM71.5772 14.35V14C71.5305 13.9533 71.4372 13.93 71.2972 13.93L71.1572 14.14L71.2272 14.35H71.5772ZM72.4872 19.8799C72.6739 19.8799 72.9305 19.7866 73.2572 19.6L73.6072 19.18C73.6072 19.32 73.6539 19.4366 73.7472 19.53C73.9805 19.4366 74.0972 19.2966 74.0972 19.1099C74.0972 18.8299 73.9805 18.69 73.7472 18.69L73.3972 18.76C73.2105 18.2933 73.0005 18.0599 72.7672 18.0599C72.6739 18.1999 72.5572 18.3166 72.4172 18.41C72.2305 18.7366 72.1139 19.0633 72.0672 19.39C72.0672 19.7166 72.2072 19.8799 72.4872 19.8799ZM71.2272 25.34C71.3205 25.34 71.4139 25.2933 71.5072 25.2C71.5072 25.1533 71.4605 25.0833 71.3672 24.99C71.3672 25.13 71.3205 25.2466 71.2272 25.34ZM72.4872 27.3C72.7205 27.2066 72.8605 27.0666 72.9072 26.88L72.5572 26.6C72.3705 26.74 72.3472 26.9733 72.4872 27.3ZM68.5672 27.65C68.6605 27.65 68.7539 27.6033 68.8472 27.51C68.9405 27.4166 68.9172 27.3233 68.7772 27.23C68.6372 27.23 68.5672 27.37 68.5672 27.65ZM72.0672 31.92C72.1139 31.8266 72.0905 31.7333 71.9972 31.64C71.9505 31.5933 71.8339 31.6166 71.6472 31.71C71.7405 31.85 71.8805 31.92 72.0672 31.92ZM71.8572 41.09C72.0439 41.09 72.2305 40.9966 72.4172 40.81C72.4172 40.5766 72.2539 40.46 71.9272 40.46C71.8805 40.5066 71.8105 40.6933 71.7172 41.02C71.7639 41.0666 71.8105 41.09 71.8572 41.09Z" fill="white"/>
<path d="M38.2691 43.05L37.3591 42.77H37.0791C36.9391 42.77 36.7758 42.77 36.5891 42.77C36.4024 42.7233 36.1924 42.6767 35.9591 42.63L34.4891 41.37C34.1157 40.9967 33.8357 40.5533 33.6491 40.04C33.6024 39.8533 33.5557 39.62 33.5091 39.34C33.4624 39.06 33.3924 38.7333 33.2991 38.36L33.3691 38.01C33.3691 37.87 33.3458 37.7533 33.2991 37.66C33.2058 37.38 33.1591 37.24 33.1591 37.24C33.2058 37.1467 33.2291 37.0067 33.2291 36.82C33.2291 36.5867 33.2291 36.3533 33.2291 36.12L32.8091 34.72V34.51C32.8091 34.4167 32.8091 34.3 32.8091 34.16C32.8091 34.02 32.8324 33.88 32.8791 33.74L33.2291 32.9V32.41C33.4158 32.13 33.6024 31.78 33.7891 31.36C33.9758 30.8933 34.1624 30.3567 34.3491 29.75L34.9091 29.47C34.9558 29.3767 35.0024 29.2833 35.0491 29.19C35.0958 29.0967 35.1657 29.0033 35.2591 28.91L36.2391 27.93C36.2857 27.8367 36.3324 27.7433 36.3791 27.65C36.4258 27.51 36.4958 27.3467 36.5891 27.16L39.1091 25.62C39.3424 25.48 39.5758 25.34 39.8091 25.2C40.0424 25.06 40.2757 24.8967 40.5091 24.71C40.5091 24.71 40.6491 24.7567 40.9291 24.85C40.9758 24.8033 41.0224 24.7567 41.0691 24.71C41.1158 24.6167 41.1857 24.5467 41.2791 24.5L41.9791 24.22C41.9791 23.9867 42.0724 23.7533 42.2591 23.52C42.3991 23.4267 42.5624 23.2867 42.7491 23.1C42.9824 22.9133 43.2391 22.68 43.5191 22.4C43.5658 22.3533 43.5658 22.12 43.5191 21.7C43.6124 21.7933 43.6591 21.77 43.6591 21.63C43.6591 21.21 43.6358 21.0467 43.5891 21.14C43.5424 20.9533 43.4724 20.7667 43.3791 20.58C43.3324 20.3467 43.2858 20.1133 43.2391 19.88C43.1924 19.8333 43.2158 19.6933 43.3091 19.46L43.4491 19.11C43.4491 19.11 43.3324 18.9467 43.0991 18.62L42.3991 17.71C42.1657 17.4767 41.8624 17.3833 41.4891 17.43L41.1391 17.5C40.8591 17.5933 40.7191 17.64 40.7191 17.64H40.0891L39.9491 17.78C39.9958 17.8267 40.0424 17.8733 40.0891 17.92C40.1358 17.9667 40.1824 18.0367 40.2291 18.13C40.2291 18.2233 40.2058 18.2933 40.1591 18.34V18.55C39.9724 18.5967 39.7624 18.7833 39.5291 19.11C39.4357 19.39 39.3891 19.6467 39.3891 19.88C39.4824 20.0667 39.6224 20.2533 39.8091 20.44C39.7624 20.4867 39.6924 20.51 39.5991 20.51C39.5057 20.8833 39.5057 21.14 39.5991 21.28L39.8091 21.56V21.91C39.8091 21.9567 39.7391 22.0267 39.5991 22.12L38.7591 21.91C38.7124 21.7233 38.5958 21.6767 38.4091 21.77C38.2691 21.8633 38.1524 21.84 38.0591 21.7H37.9191C37.7791 21.7 37.6858 21.6533 37.6391 21.56C37.5924 21.42 37.4991 21.4433 37.3591 21.63L36.9391 22.12C36.7057 22.12 36.5191 22.1433 36.3791 22.19L36.0291 22.05C35.8891 21.9567 35.7958 21.9333 35.7491 21.98C35.7024 21.98 35.6558 21.98 35.6091 21.98L34.1391 22.4C34.0458 22.4 33.9291 22.4 33.7891 22.4C33.6491 22.4 33.4858 22.3767 33.2991 22.33L32.9491 21.28C32.9491 21.2333 32.9724 21.21 33.0191 21.21C33.0658 21.1633 33.0891 21.1167 33.0891 21.07L33.1591 20.86C33.1124 20.72 33.0891 20.5567 33.0891 20.37C33.0891 20.1367 33.0891 19.9033 33.0891 19.67C33.2291 19.53 33.3224 19.39 33.3691 19.25C33.4158 19.11 33.4391 18.8067 33.4391 18.34V17.92C33.4391 16.7067 34.4658 15.19 36.5191 13.37C36.5658 13.23 36.7291 13.02 37.0091 12.74C37.0557 12.6933 37.3591 12.5533 37.9191 12.32C38.0124 12.2267 38.0358 12.1567 37.9891 12.11L38.0591 11.76C38.2457 11.8067 38.4324 11.8533 38.6191 11.9C38.8524 11.9 39.0624 11.9 39.2491 11.9L39.7391 11.69C39.8324 11.6433 39.9258 11.5967 40.0191 11.55C40.1124 11.5033 40.1824 11.48 40.2291 11.48H40.7191C40.7658 11.4333 40.9291 11.3633 41.2091 11.27C41.4891 11.2233 41.7224 11.2 41.9091 11.2C42.1424 11.1533 42.3524 11.13 42.5391 11.13C42.7724 11.13 43.2624 11.2 44.0091 11.34C44.8491 11.48 45.3158 11.62 45.4091 11.76L45.3391 12.25L45.5491 12.53L45.9691 12.32C46.1091 12.32 46.2724 12.46 46.4591 12.74L47.0191 12.81C47.1124 12.81 47.2058 12.8333 47.2991 12.88C47.4391 12.88 47.5324 12.88 47.5791 12.88C47.6258 12.9267 47.6724 12.9733 47.7191 13.02C47.7658 13.02 47.8124 13.0667 47.8591 13.16V13.72L47.2991 14C47.3458 14.1867 47.5324 14.3033 47.8591 14.35C48.2324 14.3967 48.4424 14.4667 48.4891 14.56L49.1891 17.15C49.1891 17.29 49.3291 17.4767 49.6091 17.71C49.6558 18.0367 49.6791 18.41 49.6791 18.83C49.6791 19.25 49.6791 19.6933 49.6791 20.16L49.8891 20.51C49.9357 20.5567 49.9591 20.8133 49.9591 21.28L49.8891 22.47C49.8424 22.89 49.8191 23.2633 49.8191 23.59C49.8191 23.87 49.8191 24.1033 49.8191 24.29L49.9591 24.5C50.0057 24.9667 50.0291 25.34 50.0291 25.62C50.0758 25.8533 50.0991 25.9467 50.0991 25.9L49.8191 26.6C49.7724 26.7867 49.7258 26.9267 49.6791 27.02C49.6791 27.0667 49.6791 27.1133 49.6791 27.16C49.6791 27.3 49.6791 27.44 49.6791 27.58C49.7258 27.72 49.7724 27.86 49.8191 28C49.9124 28.0933 49.9824 28.2333 50.0291 28.42C50.1224 28.56 50.1924 28.7233 50.2391 28.91L50.1691 29.82C50.1224 29.8667 50.0758 29.96 50.0291 30.1C49.9824 30.1933 49.9357 30.31 49.8891 30.45C49.8891 30.45 49.9824 31.08 50.1691 32.34L49.8891 33.32C49.9357 33.3667 50.0057 33.53 50.0991 33.81C50.1924 34.0433 50.2391 34.1833 50.2391 34.23V34.58C50.2391 34.86 50.2158 35.07 50.1691 35.21C50.5891 35.2567 50.7991 35.6067 50.7991 36.26L50.6591 36.68C50.5658 36.96 50.5191 37.1 50.5191 37.1L50.7291 37.87C50.7758 38.0567 50.7991 38.2667 50.7991 38.5C50.8458 38.7333 50.8691 39.0367 50.8691 39.41V40.11C51.0091 40.2967 51.1491 40.6233 51.2891 41.09V41.16C51.2891 41.6733 50.6591 41.9767 49.3991 42.07L48.0691 41.86C48.0224 41.86 47.8824 41.86 47.6491 41.86C47.4157 41.86 47.0657 41.8833 46.5991 41.93C46.5524 41.93 46.4824 41.9767 46.3891 42.07C46.2958 42.1633 46.2024 42.21 46.1091 42.21H45.4791C45.4791 42.21 45.1991 42.1167 44.6391 41.93L44.7791 41.3C44.7791 41.02 44.6391 40.81 44.3591 40.67C44.3591 40.6233 44.3824 40.4367 44.4291 40.11L44.5691 39.62C44.2424 39.6667 43.4024 40.3667 42.0491 41.72C41.7224 42.0467 41.4891 42.1867 41.3491 42.14L41.0691 42.07C40.9291 42.21 40.7891 42.3267 40.6491 42.42C40.3691 42.56 40.1124 42.63 39.8791 42.63C39.8324 42.6767 39.8091 42.6767 39.8091 42.63C39.7624 42.5833 39.7157 42.56 39.6691 42.56C39.6224 42.6067 39.3891 42.7 38.9691 42.84C38.5958 42.98 38.3624 43.05 38.2691 43.05ZM38.6191 12.88C38.6191 12.74 38.5258 12.6467 38.3391 12.6C38.2458 12.6933 38.1991 12.7633 38.1991 12.81C38.2458 13.09 38.3857 13.1133 38.6191 12.88ZM47.2991 16.45L47.5091 16.17C47.5558 16.0767 47.5091 15.9833 47.3691 15.89C47.2291 15.8433 47.0658 15.8433 46.8791 15.89C46.9258 16.03 47.0658 16.2167 47.2991 16.45ZM37.3591 18.97L38.1991 18.9C38.5724 18.9 38.7591 18.7367 38.7591 18.41L38.6191 18.06L37.7091 17.99C37.3358 17.99 37.1724 18.13 37.2191 18.41L37.2891 18.69C37.3358 18.7833 37.3591 18.8767 37.3591 18.97ZM43.7291 24.08C43.7758 24.1267 43.8924 24.1267 44.0791 24.08L44.0091 23.8C43.8224 23.8467 43.7291 23.94 43.7291 24.08ZM39.1091 28.21L39.1791 27.86L38.7591 27.79L39.1091 28.21ZM40.7891 36.89H41.1391C41.2324 36.89 41.3257 36.8433 41.4191 36.75C41.5124 36.6567 41.5824 36.61 41.6291 36.61C41.7224 36.6567 41.8624 36.7267 42.0491 36.82C42.2358 36.82 42.4458 36.7033 42.6791 36.47C42.7724 36.2367 42.9124 35.9567 43.0991 35.63C43.3324 35.5367 43.5891 35.35 43.8691 35.07C43.8224 34.9767 43.7991 34.79 43.7991 34.51C43.7991 34.2767 43.7991 34.02 43.7991 33.74C43.8458 33.46 43.8924 33.1567 43.9391 32.83C43.8924 32.5967 43.8458 32.34 43.7991 32.06C43.7524 31.7333 43.7058 31.36 43.6591 30.94C43.6591 30.66 43.7991 30.4967 44.0791 30.45C43.9391 29.9833 43.6357 29.33 43.1691 28.49H42.0491C41.9091 29.05 41.6991 29.54 41.4191 29.96L40.9291 30.31L40.6491 30.8L40.1591 31.08C40.1124 31.2667 40.0191 31.4767 39.8791 31.71C39.7858 31.9433 39.6924 32.2233 39.5991 32.55C39.5991 32.83 39.4358 33.2967 39.1091 33.95L39.1791 34.23C38.8524 34.6033 38.6891 34.8367 38.6891 34.93C38.7824 34.8833 38.8758 34.93 38.9691 35.07L39.3891 36.19C39.4824 36.2367 39.5757 36.2833 39.6691 36.33C39.7624 36.33 39.8558 36.3767 39.9491 36.47C39.9958 36.5167 40.0424 36.5633 40.0891 36.61C40.1358 36.6567 40.1824 36.7267 40.2291 36.82L40.7891 36.89ZM47.9291 33.32C48.0224 33.32 48.1391 33.25 48.2791 33.11C48.4658 32.9233 48.5591 32.7833 48.5591 32.69L48.4191 32.41C48.3724 32.3633 48.3024 32.34 48.2091 32.34C48.1158 32.34 48.0224 32.3167 47.9291 32.27L47.4391 32.62C47.4857 32.6667 47.5557 32.83 47.6491 33.11C47.7424 33.25 47.8358 33.32 47.9291 33.32ZM45.0591 35.28L45.4791 35.14C45.4324 35.0933 45.4091 34.9767 45.4091 34.79L44.9891 34.86C44.9891 35.0933 45.0124 35.2333 45.0591 35.28ZM41.3491 41.23C41.4424 40.8567 41.4191 40.67 41.2791 40.67L41.1391 40.81C41.0924 40.8567 41.0691 40.9733 41.0691 41.16L41.3491 41.23Z" fill="white"/>
<path d="M2.94 43.89C2.84667 43.89 2.77667 43.8666 2.73 43.82L2.45 43.68C2.31 43.68 2.12333 43.68 1.89 43.68C1.70333 43.68 1.49333 43.6566 1.26 43.61C1.21333 43.5633 1.19 43.4466 1.19 43.26C1.19 43.3533 1.21333 43.2833 1.26 43.05C1.30667 42.8166 1.37667 42.42 1.47 41.86V41.58C1.47 41.3466 1.44667 41.16 1.4 41.02L1.19 40.39C1.19 40.39 1.23667 40.2966 1.33 40.11L1.47 39.76C1.42333 39.6666 1.4 39.4566 1.4 39.13L1.54 38.78V38.22L1.75 37.52L1.26 37.24L1.61 36.47L1.4 36.05C1.49333 35.8166 1.63333 35.6066 1.82 35.42V35.35C1.58667 35.1633 1.33 34.8833 1.05 34.51L1.12 33.67C1.26 33.53 1.35333 33.4133 1.4 33.32C1.4 33.04 1.37667 32.8533 1.33 32.76L1.12 32.34C1.12 32.2466 1.19 32.06 1.33 31.78C1.47 31.5466 1.54 31.36 1.54 31.22L1.19 30.66C1.05 30.52 0.956667 30.38 0.91 30.24V29.05C1.00333 29.0033 1.12 28.91 1.26 28.77C1.16667 28.5833 1.00333 28.3966 0.77 28.21C0.863333 28.1166 0.91 27.9766 0.91 27.79C0.91 27.65 0.886667 27.4866 0.84 27.3C0.793333 27.1133 0.723333 26.9266 0.63 26.74C1.09667 26.46 1.42333 26.3666 1.61 26.46L1.82 26.39C1.86667 26.2966 1.89 26.25 1.89 26.25C1.89 26.2033 1.89 26.18 1.89 26.18C1.89 25.9933 1.75 25.8066 1.47 25.62H0.84C0.84 25.5733 0.816667 25.55 0.77 25.55C0.77 25.5033 0.77 25.4566 0.77 25.41C0.77 25.2233 0.84 24.99 0.98 24.71L0.91 24.22C0.863333 24.1733 0.84 23.8233 0.84 23.17C0.84 22.9366 0.84 22.68 0.84 22.4C0.84 22.12 0.816667 21.8166 0.77 21.49C1.05 21.49 1.23667 21.4433 1.33 21.35C1.23667 21.3033 1.14333 21.1166 1.05 20.79V20.65C1.05 20.51 0.956667 20.3233 0.77 20.09V18.97H0.91C1.05 18.97 1.21333 18.9233 1.4 18.83C1.63333 18.69 1.75 18.5966 1.75 18.55C1.75 18.3166 1.33 18.2466 0.49 18.34C0.723333 17.9666 0.793333 17.6866 0.7 17.5L0.49 17.08C0.49 16.94 0.583333 16.8 0.77 16.66L0.91 16.31V16.03L0.42 14.14C0.42 13.86 0.63 13.4866 1.05 13.02C1.05 12.9266 1.00333 12.8333 0.91 12.74C1.14333 12.6466 1.30667 12.5533 1.4 12.46V12.32C1.21333 12.2266 1.05 12.18 0.91 12.18C0.63 11.76 0.49 11.4566 0.49 11.27C0.49 11.1766 0.536667 11.0833 0.63 10.99C0.676667 10.9433 0.7 10.85 0.7 10.71L0.63 8.95997C0.49 8.86664 0.373333 8.67997 0.28 8.39997C0.28 8.39997 0.396666 8.11997 0.63 7.55997C0.536667 6.34664 0.443333 5.41331 0.35 4.75997C0.303333 4.05997 0.28 3.63997 0.28 3.49997C0.28 3.35997 0.233333 3.10331 0.14 2.72997C0.0466666 2.35664 0 2.16997 0 2.16997L0.0700001 1.67998C0.163333 1.58664 0.303333 1.51664 0.49 1.46997H0.98C0.98 1.42331 1.07333 1.37664 1.26 1.32998C1.35333 1.32998 1.44667 1.58664 1.54 2.09997C1.54 2.33331 1.65667 2.44997 1.89 2.44997C2.17 2.44997 2.26333 2.16997 2.17 1.60998L3.15 1.39997C3.29 1.53998 3.5 1.67997 3.78 1.81997C4.01333 1.81997 4.13 1.70331 4.13 1.46997V1.25997L4.69 1.18997L5.11 1.32998C5.71667 1.32998 6.04333 1.32998 6.09 1.32998V1.25997C6.09 1.25997 6.09 1.28331 6.09 1.32998V1.39997C6.09 1.67997 6.25333 1.88997 6.58 2.02997H6.93C7.02333 2.16997 7.14 2.28664 7.28 2.37997H7.49C7.53667 2.37997 7.56 2.33331 7.56 2.23997C7.37333 1.95997 7.25667 1.67997 7.21 1.39997V1.11997L7.35 0.979975C7.53667 1.07331 7.65333 1.18997 7.7 1.32998L8.4 1.04997C8.54 1.04997 8.70333 1.07331 8.89 1.11997L9.59 1.18997L9.8 1.95998C10.0333 2.14664 10.29 2.42664 10.57 2.79997C10.5233 2.75331 10.4767 2.93997 10.43 3.35997C10.29 3.40664 10.22 3.52331 10.22 3.70997C10.22 3.80331 10.2433 3.96664 10.29 4.19998C10.3367 4.43331 10.4067 4.71331 10.5 5.03997L10.85 5.73997V6.08997C11.0833 6.69664 11.2 7.48997 11.2 8.46997C11.2 9.26331 11.3633 9.79997 11.69 10.08C11.69 10.4533 11.8533 11.2233 12.18 12.39L12.53 13.09C12.3433 13.37 12.18 13.79 12.04 14.35C12.0867 14.4433 12.11 14.56 12.11 14.7C12.11 14.84 12.11 14.9566 12.11 15.05C12.1567 15.2366 12.18 15.4233 12.18 15.61C12.2267 15.75 12.25 15.89 12.25 16.03C12.25 16.17 12.25 16.31 12.25 16.45C12.2967 16.59 12.39 16.73 12.53 16.87C12.7633 17.15 12.9033 17.9433 12.95 19.25C13.1833 19.3433 13.3233 19.46 13.37 19.6C13.3233 19.7866 13.37 19.95 13.51 20.09C13.79 20.23 13.93 20.3233 13.93 20.37V20.86C14.1167 21.1866 14.2333 21.4433 14.28 21.63C14.3733 21.77 14.42 21.84 14.42 21.84C14.7 21.84 14.8633 21.63 14.91 21.21C15.0033 20.79 15.0733 20.58 15.12 20.58C15.26 20.6733 15.4233 20.7666 15.61 20.86C15.7967 20.86 15.89 20.6966 15.89 20.37C15.89 20.23 15.7967 20.0433 15.61 19.81C15.47 19.67 15.4 19.39 15.4 18.97C15.4 18.8766 15.4 18.76 15.4 18.62C15.4467 18.48 15.4933 18.3166 15.54 18.13C15.6333 17.9433 15.68 17.78 15.68 17.64C15.7267 17.4533 15.7733 17.29 15.82 17.15L16.03 16.87C16.03 16.7766 16.03 16.66 16.03 16.52C16.03 16.38 16.0067 16.2166 15.96 16.03L15.89 15.12C16.03 15.12 16.2167 15.0266 16.45 14.84C16.45 14.7933 16.4267 14.77 16.38 14.77C16.2867 14.6766 16.1933 14.63 16.1 14.63C15.96 14.3966 15.89 14.2333 15.89 14.14C15.89 14.0466 15.96 13.86 16.1 13.58L16.31 12.95C16.59 12.7166 16.73 12.5533 16.73 12.46C16.6367 12.3666 16.4967 12.18 16.31 11.9C16.31 11.7133 16.38 11.55 16.52 11.41C16.66 11.1766 16.73 11.06 16.73 11.06C16.6833 10.92 16.6833 10.6866 16.73 10.36C16.73 10.2666 16.87 10.0566 17.15 9.72997L16.73 9.30997L17.01 8.81997C17.6167 8.21331 17.92 7.79331 17.92 7.55997C17.92 7.41997 17.8267 7.23331 17.64 6.99997C17.4067 6.76664 17.29 6.43997 17.29 6.01997V5.59997C17.5233 5.22664 17.7333 4.87664 17.92 4.54997C18.1533 4.22331 18.3167 3.89664 18.41 3.56997C18.4567 3.38331 18.48 3.26664 18.48 3.21998C18.5267 3.17331 18.55 3.17331 18.55 3.21998C18.55 3.03331 18.5033 2.93998 18.41 2.93998C18.3633 2.93998 18.2467 3.03331 18.06 3.21998C17.8733 3.12664 17.7333 2.84664 17.64 2.37997V1.81997C17.6867 1.63331 17.7333 1.46997 17.78 1.32998C17.8733 1.18997 17.9433 1.04997 17.99 0.909971L18.62 0.769974C18.9933 0.769974 19.2733 0.839974 19.46 0.979975L19.74 1.18997C19.88 1.14331 20.09 1.02664 20.37 0.839973L20.86 0.699974L21.98 1.04997V1.81997C22.0733 2.09997 22.2133 2.23997 22.4 2.23997C22.68 2.14664 22.82 2.00664 22.82 1.81997L22.75 1.46997C22.7033 1.37664 22.68 1.25998 22.68 1.11997C22.68 1.02664 22.7033 0.95664 22.75 0.909971L23.31 0.699974C23.4033 0.513307 23.5433 0.396642 23.73 0.349976L24.85 0.629972C24.9433 0.629972 25.0133 0.653305 25.06 0.699974L25.27 0.839973C25.3633 0.746641 25.5033 0.676641 25.69 0.629972L27.51 0.559973C27.5567 0.653308 27.6033 0.769973 27.65 0.909971C27.7433 1.00331 27.8133 1.11997 27.86 1.25997C27.86 1.25997 27.79 1.37664 27.65 1.60998C27.6033 1.79664 27.5567 1.95997 27.51 2.09997C27.51 2.23997 27.51 2.37997 27.51 2.51997C27.51 2.65997 27.6033 2.82331 27.79 3.00997C27.7433 3.05664 27.6967 3.10331 27.65 3.14997C27.65 3.19664 27.6033 3.26664 27.51 3.35997L27.37 3.77997V4.54997L27.44 4.61997L27.37 5.03997C27.4167 5.13331 27.44 5.31997 27.44 5.59997C27.4867 5.87997 27.51 6.11331 27.51 6.29997C27.51 6.34664 27.51 6.43997 27.51 6.57998C27.5567 6.71998 27.6033 6.88331 27.65 7.06997L27.79 7.69997L27.58 8.46997C27.44 8.79664 27.3467 9.07664 27.3 9.30997C27.3933 9.44997 27.4867 9.58997 27.58 9.72997C27.6733 9.86997 27.79 10.0333 27.93 10.22C27.79 10.0333 27.6733 9.86997 27.58 9.72997C27.4867 9.58997 27.3933 9.47331 27.3 9.37997C27.3 9.37997 27.3 9.35664 27.3 9.30997C26.6 8.23664 25.97 7.32664 25.41 6.57998C24.85 5.78664 24.36 5.13331 23.94 4.61997L23.87 4.75997C24.2433 5.36664 24.7567 6.13664 25.41 7.06997C26.11 8.00331 26.9033 9.07664 27.79 10.29C27.6033 10.1966 27.4867 10.08 27.44 9.93998C27.1133 9.98664 26.9733 10.1266 27.02 10.36L27.3 10.78C27.2533 10.8266 27.2533 10.9666 27.3 11.2C27.3933 11.2466 27.4633 11.3166 27.51 11.41C27.6033 11.5033 27.6967 11.5966 27.79 11.69L27.51 12.04C27.4633 12.1333 27.4167 12.2033 27.37 12.25C27.37 12.2966 27.37 12.3433 27.37 12.39C27.37 12.5766 27.5333 12.67 27.86 12.67C27.72 13.37 27.6267 13.6733 27.58 13.58C27.58 13.58 27.7667 13.7666 28.14 14.14C28.14 14.2333 28.1167 14.35 28.07 14.49C28.07 14.63 28.0467 14.7933 28 14.98C27.9067 15.0733 27.79 15.2133 27.65 15.4C27.51 15.54 27.3467 15.7266 27.16 15.96L26.88 16.52C26.88 16.8933 26.95 17.1266 27.09 17.22C27.23 17.2666 27.37 17.3133 27.51 17.36C27.6033 17.22 27.6967 17.15 27.79 17.15C27.9767 17.15 28.0933 17.29 28.14 17.57C28.14 17.6633 27.9767 17.8733 27.65 18.2C27.7433 18.4333 27.93 18.7366 28.21 19.11L27.65 19.6C27.37 19.7866 27.23 19.9733 27.23 20.16L27.37 20.44H27.58C27.7667 20.44 27.9533 20.2766 28.14 19.95H28.42L28.49 20.16C28.49 20.16 28.4667 20.23 28.42 20.37C28.42 20.51 28.3967 20.72 28.35 21C28.3033 21.3266 28.2567 21.6066 28.21 21.84C28.21 22.0266 28.21 22.1666 28.21 22.26C27.9767 22.5866 27.86 22.82 27.86 22.96C27.7667 22.8666 27.6967 22.82 27.65 22.82C27.5567 22.82 27.51 22.9366 27.51 23.17C27.51 23.45 27.6267 24.1033 27.86 25.13C27.9533 25.3633 28.0233 25.5966 28.07 25.83C28.1167 26.0633 28.1633 26.2966 28.21 26.53C28.2567 27.3233 28.28 27.72 28.28 27.72C28.1867 27.9533 28.14 28.1166 28.14 28.21V28.7C28.14 29.6333 28.0233 30.1 27.79 30.1C27.79 30.0533 27.7667 30.03 27.72 30.03L28 30.45C28.0467 30.4966 28.07 30.5666 28.07 30.66V30.87C28.21 30.9633 28.3267 31.1266 28.42 31.36L28.56 32.41V32.83L28.49 33.53C28.3967 33.6233 28.28 33.6933 28.14 33.74C27.9533 33.7866 27.86 33.9033 27.86 34.09L27.93 34.86L28.21 34.79C28.4433 34.79 28.5833 34.8833 28.63 35.07C28.7233 35.1633 28.7233 35.35 28.63 35.63L28.49 36.12C28.5367 36.1666 28.6067 36.2833 28.7 36.47C28.7 36.61 28.6767 36.7033 28.63 36.75V37.03C28.5833 37.17 28.56 37.2866 28.56 37.38L28.63 39.27C28.77 39.41 28.8633 39.55 28.91 39.69L28.7 40.25C28.7467 40.6233 28.77 40.9033 28.77 41.09C28.77 41.23 28.7933 41.2533 28.84 41.16C28.7467 41.58 28.6767 41.8133 28.63 41.86L28.77 42.07C28.8167 42.1633 28.84 42.2333 28.84 42.28C28.8867 42.3266 28.91 42.3733 28.91 42.42C28.91 42.7933 28.84 43.0033 28.7 43.05C28.7 43.05 28.6767 43.05 28.63 43.05H28.7C28.7 43.0033 28.7 42.98 28.7 42.98L28.14 42.77H27.51C27.4167 42.77 27.3 42.7933 27.16 42.84H26.6L26.32 42.77C26.2267 42.77 26.1333 42.7933 26.04 42.84L25.76 42.91L24.5 42.63C24.4533 42.63 24.36 42.7 24.22 42.84C24.08 42.98 23.94 43.05 23.8 43.05C23.6133 43.05 23.2867 42.8866 22.82 42.56C22.7733 42.6533 22.54 42.84 22.12 43.12C21.7933 43.12 21.63 42.9333 21.63 42.56L21.91 39.55V39.2C21.77 39.1533 21.6067 39.1533 21.42 39.2C21.6533 39.0133 21.7467 38.78 21.7 38.5L21.56 37.94V37.87C21.56 37.73 21.7 37.59 21.98 37.45C21.8867 37.31 21.7933 37.1466 21.7 36.96C21.6533 36.82 21.6067 36.7033 21.56 36.61C21.56 36.47 21.56 36.3533 21.56 36.26C21.6067 36.1666 21.63 35.9566 21.63 35.63L21.42 35.21C21.7 35.1633 21.91 34.9766 22.05 34.65C22.0033 34.5566 21.8633 34.4633 21.63 34.37C21.6767 34.1366 21.7 33.95 21.7 33.81C21.7467 33.6233 21.7467 33.4833 21.7 33.39L21.42 32.48L21.56 31.78L21.7 31.22L21.28 29.82C21.28 29.68 21.3967 29.4933 21.63 29.26C21.5367 29.2133 21.4433 29.1433 21.35 29.05C21.2567 28.9566 21.1633 28.8633 21.07 28.77C21.1633 28.49 21.21 28.07 21.21 27.51C21.21 27.37 21.2333 27.2766 21.28 27.23L21.07 26.67C21.07 26.2033 21.14 25.9 21.28 25.76C21.42 25.62 21.49 25.4333 21.49 25.2C21.49 24.8266 21.35 24.4766 21.07 24.15C21.21 24.2433 21.3033 24.2666 21.35 24.22C21.5367 24.22 21.6533 24.15 21.7 24.01L21.07 23.8C21.0233 23.7533 20.9767 23.7066 20.93 23.66C20.8833 23.5666 20.8133 23.4966 20.72 23.45C20.8133 23.31 20.9767 23.17 21.21 23.03C21.21 23.1233 21.2567 23.2166 21.35 23.31C21.35 23.2633 21.3967 23.1933 21.49 23.1C20.8367 22.7266 20.5567 22.54 20.65 22.54C20.4633 22.54 20.3233 22.6566 20.23 22.89V23.73C20.0433 23.7766 19.95 23.9166 19.95 24.15V24.57C19.9033 24.6166 19.8333 24.7566 19.74 24.99L19.81 25.97C19.7633 26.0166 19.6933 26.11 19.6 26.25C19.5067 26.3433 19.3667 26.4833 19.18 26.67C19.4133 26.8566 19.5767 27.23 19.67 27.79C19.67 27.9766 19.6467 28.0933 19.6 28.14C19.32 28.42 19.1567 28.77 19.11 29.19C19.0633 29.4233 19.0167 29.6566 18.97 29.89C18.9233 30.0766 18.8533 30.2866 18.76 30.52L19.11 30.59V31.64L18.76 32.2C18.8067 32.2466 18.8533 32.41 18.9 32.69C18.9467 32.83 18.97 32.97 18.97 33.11C19.0167 33.25 19.0167 33.39 18.97 33.53L18.76 33.95H18.55L18.13 33.74C17.7567 34.72 17.57 35.1166 17.57 34.93L18.13 35.49C18.2233 35.77 18.27 36.0733 18.27 36.4V37.1C18.2233 37.1466 18.13 37.24 17.99 37.38C17.8967 37.4733 17.8033 37.6133 17.71 37.8C17.6167 37.9866 17.57 38.2433 17.57 38.57L17.71 38.71C17.7567 38.7566 17.78 38.8266 17.78 38.92L17.57 40.46C17.57 40.6 17.4767 40.7633 17.29 40.95V41.16C17.29 41.3466 17.1967 41.4633 17.01 41.51C17.2433 41.93 17.3833 42.28 17.43 42.56C17.43 42.6533 17.3833 42.7933 17.29 42.98C17.1033 43.0266 16.8933 43.0733 16.66 43.12C16.4267 43.2133 16.1933 43.3066 15.96 43.4L15.12 43.33L14.28 43.19L13.3 43.47C13.16 43.47 13.0667 43.4466 13.02 43.4C13.02 43.3533 12.9733 43.1666 12.88 42.84C12.6933 42.6533 12.5767 42.49 12.53 42.35L12.25 41.23C12.3433 41.09 12.46 41.02 12.6 41.02V40.53C12.9733 40.4366 13.1833 40.32 13.23 40.18C13.1833 39.9933 13.09 39.9 12.95 39.9C12.67 39.9466 12.53 40.1566 12.53 40.53H12.11L12.25 38.99L12.11 38.43L11.9 37.87C11.9 37.5433 12.1333 37.38 12.6 37.38L12.88 37.52C13.0667 37.52 13.1833 37.4266 13.23 37.24C12.81 37.0533 12.4833 36.96 12.25 36.96L12.04 37.03C12.04 36.9833 12.0867 36.8666 12.18 36.68C12.04 36.54 11.9467 36.47 11.9 36.47L11.41 36.54C11.3633 36.4933 11.34 36.3066 11.34 35.98C11.34 35.7 11.41 35.4666 11.55 35.28L11.69 34.93C11.5967 34.8366 11.48 34.7433 11.34 34.65C11.2467 34.5566 11.1067 34.44 10.92 34.3C10.8733 34.2533 10.85 34.1833 10.85 34.09C10.85 33.95 10.8267 33.7866 10.78 33.6L11.06 32.34C11.0133 32.2933 10.9667 32.2466 10.92 32.2C10.8733 32.1533 10.8033 32.0833 10.71 31.99L10.57 31.22C10.5233 31.1733 10.4533 31.1266 10.36 31.08C10.3133 30.9866 10.2433 30.87 10.15 30.73C10.1967 30.6833 10.22 30.6133 10.22 30.52C10.22 30.3333 10.15 30.1466 10.01 29.96V29.68L10.22 29.61C10.6867 29.5633 10.92 29.4233 10.92 29.19C10.92 29.0033 10.6167 28.8866 10.01 28.84C9.87 28.4666 9.8 28.14 9.8 27.86L9.94 27.65V27.51C9.8 27.1833 9.63667 26.9733 9.45 26.88L9.38 26.74C9.38 26.6933 9.40333 26.6466 9.45 26.6L9.17 26.39C9.54333 25.7833 9.73 25.48 9.73 25.48C9.73 25.2466 9.59 25.0366 9.31 24.85C9.31 24.8033 9.42667 24.6633 9.66 24.43L8.75 24.29C8.61 24.0566 8.51667 23.94 8.47 23.94C8.23667 24.0333 8.09667 24.1266 8.05 24.22V24.57L7.84 24.78V25.06C7.88667 25.1533 7.93333 25.27 7.98 25.41C8.02667 25.55 8.07333 25.7133 8.12 25.9C8.12 26.1333 8.05 26.32 7.91 26.46C7.72333 26.6 7.63 26.6933 7.63 26.74L8.26 27.79C8.30667 27.8366 8.33 27.93 8.33 28.07C8.33 28.1633 8.35333 28.2566 8.4 28.35C8.35333 28.3033 8.30667 28.3733 8.26 28.56C8.07333 28.6066 7.95667 28.7233 7.91 28.91L7.84 29.26C8.02667 29.4466 8.19 29.54 8.33 29.54L8.47 33.67L8.33 33.88C8.37667 34.02 8.4 34.2533 8.4 34.58C8.4 34.72 8.33 34.93 8.19 35.21L8.05 35.63C8.05 35.6766 8.05 35.7233 8.05 35.77C8.09667 35.8166 8.14333 35.8866 8.19 35.98C8.28333 36.12 8.28333 36.3766 8.19 36.75C8.37667 36.9833 8.42333 37.3566 8.33 37.87C8.37667 38.3833 8.4 38.8033 8.4 39.13C8.44667 39.4566 8.44667 39.7133 8.4 39.9C8.49333 40.04 8.56333 40.18 8.61 40.32C8.65667 40.4133 8.70333 40.5066 8.75 40.6C8.65667 40.88 8.56333 41.1833 8.47 41.51C8.42333 41.79 8.35333 42.1166 8.26 42.49L8.61 42.98V43.26C8.51667 43.3533 8.37667 43.4466 8.19 43.54C8.05 43.6333 7.88667 43.7266 7.7 43.82C7.42 43.82 7.11667 43.7266 6.79 43.54L6.09 43.19C5.95 43.33 5.81 43.4466 5.67 43.54C5.48333 43.5866 5.29667 43.61 5.11 43.61C4.97 43.6566 4.85333 43.68 4.76 43.68L3.78 43.54C3.73333 43.54 3.59333 43.61 3.36 43.75L2.94 43.89ZM20.93 2.02997C20.93 1.84331 20.8833 1.70331 20.79 1.60998L20.65 2.02997H20.93ZM6.3 4.61997L6.58 4.47997L6.44 4.26998C6.39333 4.31664 6.37 4.36331 6.37 4.40997C6.37 4.45664 6.34667 4.52664 6.3 4.61997ZM22.19 5.17998L22.47 4.96997C22.47 4.92331 22.3767 4.92331 22.19 4.96997C22.1433 5.01664 22.1433 5.08664 22.19 5.17998ZM23.1 5.66997C23.24 5.76331 23.3567 5.66997 23.45 5.38997C23.4033 5.34331 23.3333 5.31997 23.24 5.31997C23.0533 5.31997 23.0067 5.43664 23.1 5.66997ZM3.64 6.92997C3.78 6.97664 3.89667 6.95331 3.99 6.85998C4.08333 6.76664 4.03667 6.64997 3.85 6.50998C3.71 6.55664 3.64 6.69664 3.64 6.92997ZM8.68 8.39997C8.86667 8.30664 8.98333 8.23664 9.03 8.18997C8.84333 7.81664 8.77333 7.53664 8.82 7.34997C8.91333 7.25664 9.00667 7.16331 9.1 7.06997C9.19333 6.92997 9.28667 6.78997 9.38 6.64997C9.00667 6.55664 8.75 6.53331 8.61 6.57998C8.33 6.57998 8.16667 6.60331 8.12 6.64997C7.88667 6.78997 7.77 6.95331 7.77 7.13997C7.77 7.97997 8.07333 8.39997 8.68 8.39997ZM7.21 11.2C7.25667 11.1066 7.23333 11.0133 7.14 10.92C7.09333 10.8733 6.97667 10.8966 6.79 10.99C6.88333 11.13 7.02333 11.2 7.21 11.2ZM4.13 13.16C4.13 13.0666 4.08333 12.9733 3.99 12.88C3.94333 12.7866 3.85 12.81 3.71 12.95C3.71 13.09 3.85 13.16 4.13 13.16ZM23.8 14.07C23.8 14.0233 23.73 13.93 23.59 13.79L23.45 13.93C23.4967 13.9766 23.5433 14 23.59 14C23.6833 14 23.7533 14.0233 23.8 14.07ZM1.47 14.42C1.61 14.5133 1.72667 14.4433 1.82 14.21C1.77333 14.1633 1.70333 14.14 1.61 14.14C1.47 14.14 1.42333 14.2333 1.47 14.42ZM25.62 14.77C25.5733 14.6766 25.5033 14.6766 25.41 14.77L25.62 15.05V14.77ZM23.94 15.19C23.94 15.05 23.8933 14.9333 23.8 14.84C23.7067 14.84 23.6133 14.8866 23.52 14.98C23.52 15.12 23.66 15.19 23.94 15.19ZM9.17 18.34C9.26333 18.2466 9.31 18.13 9.31 17.99C9.07667 18.0366 8.91333 18.1533 8.82 18.34H9.17ZM9.52 19.04L9.38 18.83L8.89 19.04H9.52ZM12.18 19.46C12.18 19.3666 12.0867 19.32 11.9 19.32C12.04 19.46 12.1333 19.5066 12.18 19.46ZM6.3 24.22C6.34667 24.22 6.39333 24.1966 6.44 24.15L6.16 23.94C6.11333 23.94 6.06667 23.9633 6.02 24.01L6.3 24.22ZM12.6 25.34V24.85C12.3667 25.0833 12.2033 25.2 12.11 25.2C12.1567 25.2 12.18 25.2466 12.18 25.34H12.6ZM6.51 25.62L7 25.55C6.95333 25.3166 6.81333 25.1766 6.58 25.13L6.51 25.62ZM24.08 27.79C24.3133 27.5566 24.43 27.3233 24.43 27.09V26.88C24.3833 26.7866 24.29 26.6933 24.15 26.6C24.0567 26.5066 23.94 26.3666 23.8 26.18L23.66 26.95C23.66 27.1366 23.8 27.4166 24.08 27.79ZM16.45 28.35C17.0567 28.2566 17.3833 28.2333 17.43 28.28L17.36 27.72C17.1267 27.4866 16.9167 27.3933 16.73 27.44C16.6367 27.5333 16.5433 27.8366 16.45 28.35ZM28.35 27.65C28.35 27.65 28.3267 27.6733 28.28 27.72C28.3267 27.72 28.35 27.72 28.35 27.72C28.35 27.6733 28.35 27.65 28.35 27.65ZM15.05 30.24L14.91 30.03H14.84L14.91 30.24H15.05ZM6.3 31.99C6.44 32.0366 6.58 31.9666 6.72 31.78C6.58 31.64 6.46333 31.6166 6.37 31.71C6.27667 31.8033 6.25333 31.8966 6.3 31.99ZM4.06 33.39C4.10667 33.3433 4.13 33.2733 4.13 33.18C4.13 33.04 4.03667 32.97 3.85 32.97C3.80333 33.11 3.87333 33.25 4.06 33.39ZM26.32 37.1C26.5067 37.1 26.6467 37.0533 26.74 36.96C26.5067 36.5866 26.46 36.2833 26.6 36.05C26.6933 35.9566 26.7867 35.8633 26.88 35.77C26.9733 35.6766 27.0667 35.56 27.16 35.42C26.9733 35.3733 26.81 35.35 26.67 35.35C26.53 35.3033 26.4133 35.28 26.32 35.28C26.18 35.28 26.0167 35.3266 25.83 35.42C25.5967 35.56 25.48 35.77 25.48 36.05C25.5733 36.75 25.8533 37.1 26.32 37.1ZM6.51 36.61C6.55667 36.5166 6.51 36.4233 6.37 36.33C6.32333 36.2366 6.23 36.26 6.09 36.4C6.18333 36.54 6.32333 36.61 6.51 36.61ZM4.55 42.21C4.64333 42.1166 4.87667 42.0466 5.25 42C5.57667 42 5.71667 41.8366 5.67 41.51L5.6 41.3L5.32 41.23L4.69 41.44C4.64333 41.44 4.62 41.4166 4.62 41.37H4.48C4.29333 41.37 4.2 41.44 4.2 41.58C4.2 41.86 4.31667 42.07 4.55 42.21Z" fill="white"/>
</svg>
