<svg width="140" height="38" viewBox="0 0 140 38" fill="none" xmlns="http://www.w3.org/2000/svg">
<path d="M136.771 11.14C137.331 11.0867 137.758 11.1534 138.051 11.34C138.371 11.5267 138.705 11.8867 139.051 12.42C139.265 12.7667 139.371 13.06 139.371 13.3C139.371 13.8867 138.998 14.2334 138.251 14.34L136.851 14.5C135.545 14.6867 134.851 14.78 134.771 14.78C134.318 19.0467 133.958 22.7534 133.691 25.9C133.425 29.0467 133.251 32.1534 133.171 35.22C133.145 35.5934 132.985 35.8734 132.691 36.06C132.425 36.2467 132.065 36.34 131.611 36.34C130.811 36.34 130.011 36.1267 129.211 35.7C128.438 35.2467 128.065 34.74 128.091 34.18C128.171 31.3534 128.331 28.4734 128.571 25.54C128.811 22.58 129.131 19.1534 129.531 15.26L127.011 15.58C126.638 15.6067 126.345 15.5934 126.131 15.54C125.945 15.46 125.758 15.3 125.571 15.06C125.385 14.82 125.198 14.5534 125.011 14.26C124.798 13.9667 124.691 13.6734 124.691 13.38C124.691 13.14 124.785 12.9267 124.971 12.74C125.158 12.5534 125.438 12.4334 125.811 12.38C126.398 12.3 127.078 12.2067 127.851 12.1L129.891 11.82L130.611 4.90003C130.691 4.15336 131.238 3.78003 132.251 3.78003C133.051 3.78003 133.825 4.0067 134.571 4.46003C135.345 4.8867 135.705 5.38003 135.651 5.94003L135.131 11.3C135.878 11.2467 136.425 11.1934 136.771 11.14Z" fill="white"/>
<path d="M120.327 12.9801C120.594 12.7134 121.034 12.4867 121.647 12.3001C122.261 12.0867 122.821 11.9801 123.327 11.9801C124.127 11.9801 124.527 12.2201 124.527 12.7001C124.527 12.9667 124.407 13.2601 124.167 13.5801C123.341 14.7001 122.287 15.5667 121.007 16.1801C119.754 16.7667 118.394 17.0601 116.927 17.0601C115.434 17.0601 113.861 16.6601 112.207 15.8601C112.447 17.9401 112.567 20.0201 112.567 22.1001L113.807 22.1401C115.034 22.1934 116.674 22.2867 118.727 22.4201L120.207 22.5401C121.167 22.6201 121.647 22.9267 121.647 23.4601C121.647 23.9134 121.341 24.3801 120.727 24.8601C120.141 25.3401 119.541 25.5801 118.927 25.5801C117.834 25.5801 116.514 25.5267 114.967 25.4201L112.447 25.3001C112.234 28.0201 111.847 30.5934 111.287 33.0201C111.181 33.5801 110.727 34.0601 109.927 34.4601C109.154 34.8601 108.394 35.0601 107.647 35.0601C107.194 35.0601 106.847 34.9801 106.607 34.8201C106.367 34.6334 106.287 34.3534 106.367 33.9801C107.034 31.0467 107.447 28.0601 107.607 25.0201H106.927C106.314 25.0201 106.007 24.8334 106.007 24.4601C106.007 24.1934 106.127 23.9001 106.367 23.5801C106.634 23.2601 106.914 23.0201 107.207 22.8601L107.647 22.6201C107.647 19.3934 107.354 16.2201 106.767 13.1001V12.8201C106.634 12.6334 106.567 12.4734 106.567 12.3401C106.567 11.8601 106.954 11.3801 107.727 10.9001C108.527 10.4201 109.274 10.1801 109.967 10.1801C110.181 10.1801 110.421 10.2334 110.687 10.3401L112.247 11.2601C113.554 12.0601 114.661 12.6867 115.567 13.1401C116.501 13.5934 117.394 13.8201 118.247 13.8201C119.074 13.8201 119.767 13.5401 120.327 12.9801Z" fill="white"/>
<path d="M94.7533 22.82L94.4333 23.62L97.2333 25.98L96.9533 24.82C96.7666 24.0734 96.3933 22.4867 95.8333 20.06L94.7533 22.82ZM99.3133 11.14C99.6866 13.46 100.153 15.82 100.713 18.22C101.3 20.5934 102.007 23.3267 102.833 26.42C103.607 29.3534 104.113 31.3 104.353 32.26C104.38 32.34 104.393 32.46 104.393 32.62C104.393 33.26 104.033 33.82 103.313 34.3C102.593 34.7534 101.847 34.98 101.073 34.98C100.433 34.98 99.9399 34.8067 99.5933 34.46C98.8199 33.6334 98.0066 32.8467 97.1533 32.1C96.2999 31.3534 95.1799 30.4334 93.7933 29.34L92.4733 28.26C91.3533 30.66 90.4866 32.4334 89.8733 33.58C89.6866 33.98 89.1933 34.3534 88.3933 34.7C87.6199 35.02 86.8999 35.18 86.2333 35.18C85.4866 35.18 85.1133 34.94 85.1133 34.46C85.1133 34.3267 85.1533 34.1667 85.2333 33.98C86.0333 32.0067 86.9799 29.74 88.0733 27.18L88.9133 25.14C88.2466 24.4734 87.9133 24.14 87.9133 24.14C87.7266 23.9534 87.6333 23.74 87.6333 23.5C87.6333 23.0467 87.9266 22.62 88.5133 22.22C89.0999 21.7934 89.7533 21.5134 90.4733 21.38C91.7533 18.3134 92.9533 15.1934 94.0733 12.02C94.1799 11.6467 94.5133 11.3267 95.0733 11.06C95.6599 10.7667 96.2733 10.58 96.9133 10.5C97.3666 10.3667 97.7533 10.3 98.0733 10.3C98.8199 10.3 99.2333 10.58 99.3133 11.14Z" fill="white"/>
<path d="M74.6614 20.74C75.7014 19.9133 76.5414 19.18 77.1814 18.54C77.8481 17.9 78.3548 17.26 78.7014 16.62C77.2614 16.2467 75.1281 15.6333 72.3014 14.78L72.1014 22.9C72.9014 22.2333 73.3681 21.8333 73.5014 21.7L74.6614 20.74ZM81.1014 26.34C81.3148 25.9133 81.7681 25.5533 82.4614 25.26C83.1548 24.94 83.8214 24.78 84.4614 24.78C85.3414 24.78 85.7814 25.06 85.7814 25.62C85.7814 25.78 85.7414 25.9667 85.6614 26.18C84.5681 28.74 83.7414 31.22 83.1814 33.62C83.0481 34.1533 82.6614 34.6467 82.0214 35.1C81.7548 35.4467 81.3414 35.74 80.7814 35.98C80.2481 36.22 79.7148 36.34 79.1814 36.34C78.7281 36.34 78.3548 36.2467 78.0614 36.06C77.7948 35.8733 77.6481 35.58 77.6214 35.18C77.5148 33.4467 76.9414 31.86 75.9014 30.42C74.8881 28.98 73.5814 28.0467 71.9814 27.62L71.7814 33.42C71.7548 33.9267 71.3281 34.3933 70.5014 34.82C69.7014 35.2467 68.9281 35.46 68.1814 35.46C67.7814 35.46 67.4614 35.3933 67.2214 35.26C66.9814 35.1 66.8614 34.86 66.8614 34.54L66.9814 29.02C66.6348 28.78 66.4614 28.5 66.4614 28.18C66.4614 27.8067 66.6614 27.4467 67.0614 27.1C67.1948 22.2467 67.3548 17.4067 67.5414 12.58C67.5681 12.02 67.9414 11.54 68.6614 11.14C69.4081 10.7133 70.1548 10.5 70.9014 10.5C71.4614 10.5 71.8614 10.6333 72.1014 10.9C75.0081 11.7 78.0214 12.58 81.1414 13.54C81.6214 13.4333 81.9548 13.38 82.1414 13.38C82.5948 13.38 82.9414 13.4867 83.1814 13.7C83.4481 13.8867 83.5814 14.18 83.5814 14.58C83.5814 15.6733 83.2214 16.6867 82.5014 17.62C81.7814 18.5267 80.7814 19.54 79.5014 20.66L78.7014 21.38C77.4214 22.6333 76.1814 23.74 74.9814 24.7C77.1681 25.3133 78.9281 26.5267 80.2614 28.34C80.3681 28.0733 80.6481 27.4067 81.1014 26.34Z" fill="white"/>
<path d="M55.2571 13.3801L55.3371 13.3401L55.2571 13.3801ZM62.6571 23.7401C62.8971 23.6334 63.1504 23.5801 63.4171 23.5801C64.0571 23.5801 64.5638 23.9667 64.9371 24.7401C65.3371 25.5134 65.5371 26.3534 65.5371 27.2601C65.5371 27.7401 65.4704 28.1534 65.3371 28.5001C64.9371 29.5401 64.2838 30.4867 63.3771 31.3401C62.4704 32.1934 61.3771 33.0601 60.0971 33.9401C58.8438 34.7667 57.3638 35.5267 55.6571 36.2201C53.9771 36.8867 52.4171 37.2201 50.9771 37.2201C48.8171 37.2201 47.3771 36.3667 46.6571 34.6601C46.2304 33.7001 46.0171 32.4867 46.0171 31.0201C46.0171 29.1801 46.3104 27.2867 46.8971 25.3401C47.5104 23.3667 48.3371 21.0334 49.3771 18.3401C50.4171 15.7001 51.6571 13.1934 53.0971 10.8201C54.5371 8.42005 56.1238 7.22005 57.8571 7.22005C58.3104 7.22005 58.7238 7.31339 59.0971 7.50005C59.3904 5.47339 60.0704 3.98005 61.1371 3.02005C61.8038 2.46005 62.3771 2.18005 62.8571 2.18005C63.4171 2.18005 63.8438 2.51339 64.1371 3.18005C64.3238 3.66005 64.4171 4.27339 64.4171 5.02005C64.4171 5.39339 64.3904 5.90005 64.3371 6.54005L64.2971 7.74005C64.2438 9.68672 64.1238 11.6334 63.9371 13.5801C63.7771 15.3401 63.3904 17.0201 62.7771 18.6201C62.1638 20.2201 61.1904 21.0867 59.8571 21.2201C59.1904 21.3001 58.6438 20.9534 58.2171 20.1801C57.8171 19.4067 57.3904 18.2734 56.9371 16.7801C56.6438 15.8201 56.3904 15.1001 56.1771 14.6201C55.9904 14.1134 55.7771 13.7401 55.5371 13.5001C54.0171 16.1934 52.8971 19.1401 52.1771 22.3401L51.9771 23.1401C51.7638 24.1001 51.5904 24.9001 51.4571 25.5401C51.3504 26.1534 51.2971 26.7667 51.2971 27.3801C51.2971 28.7401 51.6438 29.6734 52.3371 30.1801C52.8171 30.5801 53.4971 30.7801 54.3771 30.7801C54.9638 30.7801 55.6038 30.6867 56.2971 30.5001C56.9904 30.3401 57.7238 30.0867 58.4971 29.7401C58.7371 29.6334 59.0971 29.4467 59.5771 29.1801C59.7904 29.1534 59.8971 29.0734 59.8971 28.9401C59.8971 28.8334 59.8304 28.7267 59.6971 28.6201C59.7504 28.3801 59.8038 28.0467 59.8571 27.6201C59.9104 27.2201 59.9771 26.8867 60.0571 26.6201C60.1371 26.3534 60.2704 26.0734 60.4571 25.7801C61.1504 24.7667 61.8838 24.0867 62.6571 23.7401Z" fill="white"/>
<path d="M43.3981 30.74C43.7981 30.8734 43.9981 31.1133 43.9981 31.46C43.9981 31.8867 43.7448 32.3533 43.2381 32.86C42.6781 33.42 41.9581 33.7 41.0781 33.7C40.6515 33.7 40.2915 33.6467 39.9981 33.54C38.5848 33.0867 37.3048 32.86 36.1581 32.86C34.1581 32.86 32.1181 33.5 30.0381 34.78C29.6915 35.02 29.2648 35.22 28.7581 35.38C28.2781 35.5133 27.8248 35.58 27.3981 35.58C26.9981 35.58 26.6781 35.5133 26.4381 35.38C26.1981 35.22 26.0781 34.98 26.0781 34.66C26.0781 34.4734 26.1048 34.3133 26.1581 34.18C26.9315 32.02 27.5448 30.0733 27.9981 28.34C28.4781 26.6067 28.7981 24.8467 28.9581 23.06C29.1981 20.66 29.3181 18.9 29.3181 17.78C29.3181 14.82 28.7448 12.5533 27.5981 10.98C27.4648 10.82 27.3981 10.6067 27.3981 10.34C27.3981 9.80668 27.7715 9.31335 28.5181 8.86001C29.2648 8.38001 29.9981 8.14001 30.7181 8.14001C31.1981 8.14001 31.5448 8.24668 31.7581 8.46002C32.1048 8.59335 32.3315 8.80668 32.4381 9.10001C33.1048 10.86 34.0248 12.3533 35.1981 13.58C36.3715 14.78 37.7581 15.38 39.3581 15.38C39.6515 15.38 40.0915 15.3267 40.6781 15.22C41.0515 15.1667 41.2915 15.14 41.3981 15.14C41.8515 15.14 42.1848 15.2467 42.3981 15.46C42.6381 15.6467 42.7581 15.9133 42.7581 16.26C42.7581 16.6333 42.5981 17.0067 42.2781 17.38C41.9848 17.7533 41.5848 18.02 41.0781 18.18C39.9848 18.5533 38.8915 18.74 37.7981 18.74C36.4915 18.74 35.2381 18.4733 34.0381 17.94C33.9848 19.4333 33.9181 20.5533 33.8381 21.3L33.5581 23.82C34.5981 23.6333 35.6381 23.4733 36.6781 23.34L37.2381 23.3C38.3048 23.3 38.8381 23.66 38.8381 24.38C38.8381 24.86 38.5715 25.2867 38.0381 25.66C37.5048 26.0333 36.9581 26.2733 36.3981 26.38C35.5715 26.54 34.4381 26.7133 32.9981 26.9C32.7048 28.2067 32.3848 29.4333 32.0381 30.58C33.7981 29.94 35.5848 29.62 37.3981 29.62C39.3981 29.62 41.3981 29.9933 43.3981 30.74Z" fill="white"/>
<path d="M22.4267 18.8201C22.5334 18.2867 22.9334 17.8334 23.6267 17.4601C24.3467 17.0867 25.0534 16.9001 25.7467 16.9001C26.6534 16.9001 27.0534 17.2467 26.9467 17.9401L26.7867 18.8601C26.3867 21.1267 25.9734 23.0467 25.5467 24.6201C25.1467 26.1667 24.52 27.6734 23.6667 29.1401C22.84 30.6067 21.7467 31.7667 20.3867 32.6201C18.6267 33.7401 16.8267 34.3001 14.9867 34.3001C13.8934 34.3001 12.8667 34.0734 11.9067 33.6201C10.9734 33.1667 10.1867 32.4601 9.5467 31.5001C8.4267 29.8467 7.8667 27.9534 7.8667 25.8201C7.8667 22.9401 8.89337 19.6067 10.9467 15.8201C11.64 14.5134 12.36 13.4734 13.1067 12.7001C13.88 11.9267 14.84 11.4601 15.9867 11.3001C16.0934 11.2734 16.24 11.2601 16.4267 11.2601C16.8534 11.2601 17.2267 11.3401 17.5467 11.5001C18.3467 9.74006 18.96 8.42006 19.3867 7.54006C19.5734 7.14006 20.0134 6.79339 20.7067 6.50006C21.4267 6.20672 22.0934 6.06006 22.7067 6.06006C23.5067 6.06006 23.9067 6.31339 23.9067 6.82006C23.9067 6.92673 23.8667 7.08672 23.7867 7.30006C21.9467 11.7801 20.4534 15.2601 19.3067 17.7401C19.12 18.1667 18.68 18.5267 17.9867 18.8201C17.32 19.1134 16.6667 19.2601 16.0267 19.2601C15.6 19.2601 15.2534 19.1934 14.9867 19.0601C14.72 18.9267 14.5867 18.7134 14.5867 18.4201C14.5867 18.2334 14.64 18.0334 14.7467 17.8201L15.3467 16.4601C15.2134 16.4334 15.0934 16.3667 14.9867 16.2601L14.1867 18.1401C13.44 19.7667 12.9467 21.3934 12.7067 23.0201C12.6267 23.5267 12.5867 24.0467 12.5867 24.5801C12.5867 25.7267 12.76 26.8067 13.1067 27.8201C13.4534 28.8334 14 29.6467 14.7467 30.2601C15.36 30.7934 15.96 31.0601 16.5467 31.0601C18.8934 31.0601 20.8534 26.9801 22.4267 18.8201Z" fill="white"/>
<path d="M2.84 7.42003C2.38667 7.10003 2.16 6.59336 2.16 5.90003C2.16 5.7667 2.18667 5.54003 2.24 5.22003C2.42667 4.42003 2.78667 3.67336 3.32 2.98003C3.88 2.26003 4.52 1.6867 5.24 1.26003C5.8 0.94003 6.36 0.780029 6.92 0.780029C7.50667 0.780029 7.96 0.98003 8.28 1.38003C8.52 1.70003 8.64 2.0867 8.64 2.54003C8.64 2.94003 8.52 3.4467 8.28 4.06003C8.01333 4.8067 7.6 5.4867 7.04 6.10003C6.50667 6.71336 5.89333 7.18003 5.2 7.50003C4.64 7.7667 4.14667 7.86003 3.72 7.78003C3.32 7.7267 3.02667 7.6067 2.84 7.42003ZM6.24 30.5C6.24 30.6867 6.2 30.9 6.12 31.14C6.06667 31.38 6.02667 31.5534 6 31.66L5.92 31.9C5.65333 32.8867 5.17333 33.82 4.48 34.7C3.78667 35.58 2.92 36.02 1.88 36.02C1.77333 36.02 1.69333 36.0067 1.64 35.98C1.21333 35.9267 0.866667 35.7667 0.6 35.5C0.2 35.02 0 34.2734 0 33.26C0 32.8867 0.0266667 32.46 0.08 31.98C0.0533333 31.9 0.0533333 31.82 0.08 31.74C0.08 31.6334 0.08 31.5667 0.08 31.54C0.16 29.6467 0.44 27.0734 0.92 23.82L1.08 22.58C1.34667 20.7667 1.52 19.4067 1.6 18.5L1.76 16.7C1.76 16.5134 1.77333 16.3667 1.8 16.26C1.85333 15.8867 1.86667 15.6467 1.84 15.54C1.81333 15.5134 1.8 15.4867 1.8 15.46C1.8 15.4067 1.78667 15.3667 1.76 15.34C1.6 15.1267 1.52 14.8467 1.52 14.5C1.52 14.0734 1.56 13.6467 1.64 13.22C1.66667 13.14 1.68 13.0067 1.68 12.82C1.86667 11.5934 2.38667 10.54 3.24 9.66003C4.12 8.78003 4.94667 8.34003 5.72 8.34003C6.01333 8.34003 6.29333 8.4067 6.56 8.54003C7.22667 8.8867 7.56 9.62003 7.56 10.74C7.50667 11.4867 7.48 12.0467 7.48 12.42L7.44 13.46L7.32 15.66C7.29333 17.0467 7.21333 18.46 7.08 19.9C7.05333 20.4334 6.89333 22.1934 6.6 25.18L6.48 26.42L6.4 27.22L6.16 29.42C6.13333 29.5267 6.12 29.62 6.12 29.7C6.14667 29.7534 6.16 29.82 6.16 29.9C6.21333 30.0334 6.22667 30.14 6.2 30.22L6.24 30.5Z" fill="white"/>
</svg>
