<svg width="77" height="77" viewBox="0 0 77 77" fill="none" xmlns="http://www.w3.org/2000/svg">
<circle cx="38.5" cy="38.5" r="38.5" fill="white"/>
<circle cx="38.5" cy="38.5" r="38" stroke="#5C5BAD" stroke-opacity="0.7"/>
<path d="M38.5 64C36.4167 64 34.6458 63.2708 33.1875 61.8125C31.7292 60.3542 31 58.5833 31 56.5C31 54.4167 31.7292 52.6458 33.1875 51.1875C34.6458 49.7292 36.4167 49 38.5 49C40.5833 49 42.3542 49.7292 43.8125 51.1875C45.2708 52.6458 46 54.4167 46 56.5C46 58.5833 45.2708 60.3542 43.8125 61.8125C42.3542 63.2708 40.5833 64 38.5 64ZM36 44V23.5625L29.5 30L26 26.5L38.5 14L51 26.5L47.4375 30L41 23.5625V44H36Z" fill="#5C5BAD"/>
</svg>
