<svg width="51" height="51" viewBox="0 0 51 51" fill="none" xmlns="http://www.w3.org/2000/svg">
<circle cx="25.5" cy="25.5" r="25.5" fill="white"/>
<circle cx="25.5" cy="25.5" r="25" stroke="#5C5BAD" stroke-opacity="0.7"/>
<path d="M25.5 42.5C24.0833 42.5 22.8792 42.0042 21.8875 41.0125C20.8958 40.0208 20.4 38.8167 20.4 37.4C20.4 35.9833 20.8958 34.7792 21.8875 33.7875C22.8792 32.7958 24.0833 32.3 25.5 32.3C26.9167 32.3 28.1208 32.7958 29.1125 33.7875C30.1042 34.7792 30.6 35.9833 30.6 37.4C30.6 38.8167 30.1042 40.0208 29.1125 41.0125C28.1208 42.0042 26.9167 42.5 25.5 42.5ZM23.8 28.9V15.0025L19.38 19.38L17 17L25.5 8.5L34 17L31.5775 19.38L27.2 15.0025V28.9H23.8Z" fill="#5C5BAD"/>
</svg>
