<svg width="394" height="60" viewBox="0 0 394 60" fill="none" xmlns="http://www.w3.org/2000/svg">
<rect x="16" width="378" height="60" rx="8" fill="#1C232F" fill-opacity="0.8"/>
<path d="M34.8965 12.9531V25.1074H33.8711V12.9531H34.8965ZM32.3398 13.2812V24.4922H31.3145V18.8184H28.7441C27.999 20.2334 26.8301 21.4844 25.1348 22.4824L24.5059 21.7031C27.1514 20.1377 28.4775 17.9434 28.6758 15.4004H25.0254V14.5117H29.7422C29.7354 15.708 29.5439 16.8633 29.1406 17.9434H31.3145V13.2812H32.3398ZM46.627 12.9668V19.9121H45.5605V12.9668H46.627ZM46.627 20.5684V24.9434H38.7246V20.5684H46.627ZM39.7773 21.4434V24.0684H45.5742V21.4434H39.7773ZM40.0645 13.6094C41.9102 13.6094 43.25 14.7578 43.25 16.4531C43.25 18.1211 41.9102 19.2832 40.0645 19.2832C38.2188 19.2832 36.8789 18.1211 36.8789 16.4531C36.8789 14.7578 38.2188 13.6094 40.0645 13.6094ZM40.0645 14.5254C38.8203 14.5117 37.918 15.3184 37.9316 16.4531C37.918 17.5742 38.8203 18.3672 40.0645 18.3672C41.2949 18.3672 42.1973 17.5742 42.1973 16.4531C42.1973 15.3184 41.2949 14.5117 40.0645 14.5254ZM59.1094 12.9531V25.1074H58.0703V12.9531H59.1094ZM56.6621 13.2129V24.4922H55.6367V18.5859H54.0781C53.9619 20.9512 52.957 22.4277 51.4531 22.4277C49.8672 22.4277 48.8418 20.7871 48.8418 18.2031C48.8418 15.6191 49.8672 13.9785 51.4531 13.9785C52.9297 13.9785 53.9277 15.4072 54.0645 17.6973H55.6367V13.2129H56.6621ZM51.4531 14.9902C50.4688 14.9902 49.8398 16.2207 49.8535 18.2031C49.8398 20.1719 50.4688 21.416 51.4531 21.4023C52.4375 21.416 53.0664 20.1719 53.0664 18.2031C53.0664 16.2207 52.4375 14.9902 51.4531 14.9902ZM65.0703 16.2207C65.0703 18.4219 66.4785 20.6367 68.2422 21.4434L67.5996 22.3184C66.2188 21.6074 65.0771 20.1514 64.5371 18.4219C63.9971 20.2402 62.8555 21.7988 61.4746 22.5371L60.7773 21.6758C62.5547 20.8008 63.9766 18.4629 63.9766 16.2207V14.0059H65.0703V16.2207ZM70.8672 12.9531V25.1348H69.8008V17.9844H66.916V17.1094H69.8008V12.9531H70.8672ZM86.248 19.2832V20.1582H82.4746V22.7012H87.5332V23.5898H76.4043V22.7012H81.4082V20.1582H77.8398V13.9512H86.1113V14.8398H78.9336V16.5762H85.8516V17.4512H78.9336V19.2832H86.248ZM99.6191 19.8984V20.7871H88.4902V19.8984H93.5215V18.5586H89.9395V15.5645H97.1035V14.2109H89.8984V13.3496H98.1836V16.3574H91.0059V17.7109H98.4434V18.5586H94.5742V19.8984H99.6191ZM98.4434 24.0957V24.9844H89.9668V21.6074H91.0469V24.0957H98.4434ZM106.141 13.1719C108.848 13.1719 110.434 13.9102 110.434 15.2637C110.434 16.6445 108.848 17.3828 106.141 17.3965C103.434 17.3828 101.834 16.6445 101.834 15.2637C101.834 13.9102 103.434 13.1719 106.141 13.1719ZM106.141 13.9785C104.117 13.9785 102.941 14.4707 102.955 15.2637C102.941 16.1113 104.117 16.5762 106.141 16.5762C108.15 16.5762 109.34 16.1113 109.34 15.2637C109.34 14.4707 108.15 13.9785 106.141 13.9785ZM111.678 18.2168V19.0918H100.604V18.2168H111.678ZM110.256 20.1445V22.8652H103.037V24.123H110.625V24.9707H101.971V22.0723H109.203V20.9648H101.943V20.1445H110.256ZM127.291 19.4062V20.2812H116.203V19.4062H121.207V18.2031H117.68V13.3086H125.91V14.1836H118.76V15.3184H125.582V16.1387H118.76V17.3418H125.979V18.2031H122.273V19.4062H127.291ZM121.754 21.1973C124.42 21.1836 125.924 21.8672 125.938 23.1387C125.924 24.4102 124.42 25.0801 121.754 25.0801C119.061 25.0801 117.557 24.4102 117.557 23.1387C117.557 21.8672 119.061 21.1836 121.754 21.1973ZM121.754 22.0039C119.744 22.0039 118.623 22.4141 118.637 23.1387C118.623 23.877 119.744 24.2598 121.754 24.2461C123.736 24.2598 124.857 23.877 124.857 23.1387C124.857 22.4141 123.736 22.0039 121.754 22.0039ZM134.387 15.0586V15.9336H128.289V15.0586H130.818V13.3223H131.885V15.0586H134.387ZM131.338 16.7539C132.869 16.7539 133.963 17.9023 133.977 19.5156C133.963 21.1426 132.869 22.3047 131.338 22.3047C129.82 22.3047 128.727 21.1426 128.727 19.5156C128.727 17.9023 129.82 16.7539 131.338 16.7539ZM131.338 17.6562C130.381 17.6699 129.684 18.4492 129.684 19.5156C129.684 20.5957 130.381 21.375 131.338 21.3613C132.309 21.375 133.02 20.5957 133.02 19.5156C133.02 18.4492 132.309 17.6699 131.338 17.6562ZM138.666 12.9531V25.1074H137.641V18.9688H136.027V24.5059H135.016V13.2539H136.027V18.0801H137.641V12.9531H138.666ZM150.041 14.1836V22.0176H144.436V14.1836H150.041ZM145.475 15.0449V21.1426H148.975V15.0449H145.475ZM153.336 12.9531V17.8066H155.373V18.7363H153.336V25.1074H152.27V12.9531H153.336ZM166.078 12.9531V25.1074H164.998V12.9531H166.078ZM163.275 14.2793V15.168H161.895V21.0195C162.578 20.9717 163.255 20.9102 163.904 20.8281L163.973 21.6348C161.32 22.0449 158.395 22.0859 156.139 22.0996L156.016 21.1836L157.697 21.1699V15.168H156.33V14.2793H163.275ZM158.75 21.1562C159.434 21.1426 160.138 21.1152 160.842 21.0742V15.168H158.75V21.1562ZM171.383 13.8965C173.174 13.9102 174.445 15.5508 174.459 18.1348C174.445 20.7188 173.174 22.3594 171.383 22.3594C169.578 22.3594 168.32 20.7188 168.32 18.1348C168.32 15.5508 169.578 13.9102 171.383 13.8965ZM171.383 14.8535C170.18 14.8672 169.332 16.1523 169.332 18.1348C169.332 20.1172 170.18 21.4023 171.383 21.4023C172.6 21.4023 173.42 20.1172 173.42 18.1348C173.42 16.1523 172.6 14.8672 171.383 14.8535ZM177.535 12.9531V17.8066H179.572V18.7363H177.535V25.1074H176.469V12.9531H177.535ZM191.344 18.5996V19.4473H180.215V18.5996H191.344ZM189.949 20.418V23.002H182.648V24.1641H190.346V24.9434H181.568V22.2637H188.883V21.2246H181.555V20.418H189.949ZM189.908 13.3223V15.8379H182.73V16.9043H190.127V17.6836H181.664V15.0996H188.828V14.1016H181.623V13.3223H189.908ZM199.984 15.4961C199.984 16.9453 201.215 18.2852 203.006 18.8184L202.5 19.6387C201.099 19.2217 200.005 18.3193 199.479 17.1504C198.945 18.4355 197.817 19.4131 196.375 19.8848L195.842 19.0371C197.646 18.4902 198.932 17.0957 198.932 15.4961V15.2637H196.184V14.375H198.932V12.8984H200.012V14.375H202.732V15.2637H199.984V15.4961ZM205.344 12.9531V15.9609H207.176V16.8633H205.344V20.0215H204.277V12.9531H205.344ZM205.562 20.6777V21.5527H202.117C202.295 22.8242 204.079 23.918 206.027 24.2324L205.631 25.0664C203.847 24.7725 202.233 23.8906 201.543 22.6738C200.846 23.8838 199.246 24.7451 197.482 25.0527L197.072 24.2324C199.034 23.918 200.798 22.8447 200.982 21.5527H197.551V20.6777H205.562ZM217.771 16.6445V17.5059H209.445V13.4043H210.512V16.6445H217.771ZM219.057 19.1602V20.0352H207.928V19.1602H219.057ZM217.84 23.918V24.8066H209.377V21.2793H210.443V23.918H217.84ZM233.631 20.7871V25.1074H232.551V21.6484H225.455V20.7871H233.631ZM233.631 12.9531V20.1172H232.551V18.3672H229.42C228.853 19.0576 227.957 19.4678 226.904 19.4609C225.086 19.4746 223.746 18.2715 223.746 16.5488C223.746 14.8535 225.086 13.6504 226.904 13.6504C227.95 13.6504 228.846 14.0605 229.42 14.7441H232.551V12.9531H233.631ZM226.904 14.5664C225.66 14.5664 224.771 15.4004 224.771 16.5488C224.771 17.7383 225.66 18.5586 226.904 18.5586C228.094 18.5586 229.01 17.7383 229.01 16.5488C229.01 15.4004 228.094 14.5664 226.904 14.5664ZM229.898 17.4785H232.551V15.6328H229.898C229.994 15.9199 230.049 16.2207 230.049 16.5488C230.049 16.877 229.994 17.1914 229.898 17.4785ZM245.156 12.9121V15.8652H247.002V16.7539H245.156V19.6387H244.09V12.9121H245.156ZM245.156 20.2676V22.9609H238.484V24.1504H245.607V24.9707H237.432V22.168H244.09V21.0742H237.404V20.2676H245.156ZM242.928 14.0605V14.9219H235.682V14.0605H238.771V12.8301H239.838V14.0605H242.928ZM239.305 15.4688C241.068 15.4688 242.217 16.2344 242.23 17.4648C242.217 18.6953 241.068 19.4609 239.305 19.4609C237.527 19.4609 236.365 18.6953 236.379 17.4648C236.365 16.2344 237.527 15.4688 239.305 15.4688ZM239.305 16.2617C238.156 16.2617 237.391 16.7402 237.404 17.4648C237.391 18.2031 238.156 18.6543 239.305 18.6543C240.453 18.6543 241.205 18.2031 241.219 17.4648C241.205 16.7402 240.453 16.2617 239.305 16.2617ZM253.291 13.1719C255.998 13.1719 257.584 13.9102 257.584 15.2637C257.584 16.6445 255.998 17.3828 253.291 17.3965C250.584 17.3828 248.984 16.6445 248.984 15.2637C248.984 13.9102 250.584 13.1719 253.291 13.1719ZM253.291 13.9785C251.268 13.9785 250.092 14.4707 250.105 15.2637C250.092 16.1113 251.268 16.5762 253.291 16.5762C255.301 16.5762 256.49 16.1113 256.49 15.2637C256.49 14.4707 255.301 13.9785 253.291 13.9785ZM258.828 18.2168V19.0918H247.754V18.2168H258.828ZM257.406 20.1445V22.8652H250.188V24.123H257.775V24.9707H249.121V22.0723H256.354V20.9648H249.094V20.1445H257.406ZM272.869 12.9668V16.9727H274.701V17.875H272.869V22.0723H271.803V12.9668H272.869ZM270.641 14.457V15.332H263.395V14.457H266.484V12.9668H267.551V14.457H270.641ZM267.018 16.002C268.754 16.002 269.93 16.8906 269.943 18.2715C269.93 19.6387 268.754 20.5137 267.018 20.5137C265.268 20.5137 264.078 19.6387 264.092 18.2715C264.078 16.8906 265.268 16.002 267.018 16.002ZM267.018 16.8496C265.869 16.8496 265.104 17.4102 265.117 18.2715C265.104 19.1328 265.869 19.6797 267.018 19.666C268.152 19.6797 268.918 19.1328 268.932 18.2715C268.918 17.4102 268.152 16.8496 267.018 16.8496ZM273.43 23.9453V24.8477H265.268V21.3477H266.32V23.9453H273.43ZM284.873 12.9531V17.7656H286.91V18.668H284.873V25.1348H283.807V12.9531H284.873ZM281.674 14.1426V15.0312H277.066V21.1836C279.268 21.1836 280.826 21.0811 282.631 20.7461L282.768 21.6758C280.867 22.0176 279.268 22.0859 276.957 22.0859H276V14.1426H281.674ZM288.852 24.082C288.373 24.082 287.963 23.6855 287.977 23.1934C287.963 22.7148 288.373 22.3184 288.852 22.3184C289.33 22.3184 289.727 22.7148 289.727 23.1934C289.727 23.6855 289.33 24.082 288.852 24.082ZM28.8125 38.2207C28.7988 40.4355 30.3164 42.6777 32.1074 43.4844L31.4512 44.332C30.0703 43.6553 28.874 42.2266 28.293 40.4902C27.7256 42.3291 26.5293 43.8604 25.1074 44.5781L24.4238 43.6758C26.2285 42.8418 27.7324 40.5312 27.7461 38.2207V36.0059H28.8125V38.2207ZM34.5137 34.9531V47.1348H33.4336V34.9531H34.5137ZM42.9355 36.0195V41.6523H37.2344V36.0195H42.9355ZM38.2871 36.9082V40.791H41.8828V36.9082H38.2871ZM46.627 34.9668V43.7031H45.5605V34.9668H46.627ZM47.0098 45.8086V46.6973H38.7793V42.8555H39.8457V45.8086H47.0098ZM52.6699 35.8418C54.584 35.8418 55.9375 37.0039 55.9375 38.6992C55.9375 40.3945 54.584 41.5566 52.6699 41.5566C50.7559 41.5566 49.375 40.3945 49.3887 38.6992C49.375 37.0039 50.7559 35.8418 52.6699 35.8418ZM52.6699 36.7852C51.3711 36.7852 50.4277 37.5645 50.4414 38.6992C50.4277 39.834 51.3711 40.6133 52.6699 40.6133C53.9551 40.6133 54.8848 39.834 54.8848 38.6992C54.8848 37.5645 53.9551 36.7852 52.6699 36.7852ZM58.6582 34.9531V47.1348H57.5918V34.9531H58.6582ZM48.7598 43.5391C51.002 43.5391 54.0918 43.5254 56.7852 43.1289L56.8672 43.9219C54.0918 44.4414 51.0977 44.4551 48.9102 44.4551L48.7598 43.5391ZM70.4023 36.0879C70.4023 37.7969 72.6445 39.2871 74.832 39.5879L74.3945 40.4629C72.5078 40.1484 70.6416 39.1025 69.8555 37.6055C69.0762 39.1094 67.2031 40.1484 65.3164 40.4629L64.8789 39.5879C67.0664 39.2871 69.2949 37.8242 69.2949 36.0879V35.3906H70.4023V36.0879ZM75.3789 41.8027V42.7051H70.3477V47.1074H69.2949V42.7051H64.3047V41.8027H75.3789ZM85.8105 34.9531V39.9023H87.7793V40.8047H85.8105V47.1074H84.7441V34.9531H85.8105ZM82.666 36.2656C82.666 39.7109 81.0527 42.8418 77.0879 44.7969L76.4863 43.9492C79.6309 42.3838 81.3398 40.0459 81.5859 37.168H77.0469V36.2656H82.666ZM103.092 40.0391V40.9141H98.0742V42.1445H101.67V44.9062H94.4512V46.123H102.039V46.9707H93.3848V44.1133H100.617V42.9648H93.3574V42.1445H97.0215V40.9141H92.0176V40.0391H103.092ZM102.107 35.3906V36.2383H98.1836C98.334 37.4961 100.364 38.4326 102.504 38.6172L102.148 39.4375C100.159 39.2324 98.2861 38.46 97.5684 37.2363C96.8301 38.46 94.9639 39.2324 92.9746 39.4375L92.6191 38.6172C94.7451 38.4326 96.7686 37.5098 96.9395 36.2383H93.0293V35.3906H102.107ZM107.385 35.8965C109.039 35.9102 110.229 37.3252 110.406 39.6016H113.127V34.9531H114.193V47.1348H113.127V40.4902H110.42C110.29 42.8691 109.08 44.3594 107.385 44.3594C105.594 44.3594 104.336 42.7188 104.336 40.1348C104.336 37.5508 105.594 35.9102 107.385 35.8965ZM107.385 36.8535C106.182 36.8672 105.361 38.1523 105.361 40.1348C105.361 42.1172 106.182 43.4023 107.385 43.4023C108.574 43.4023 109.408 42.1172 109.408 40.1348C109.408 38.1523 108.574 36.8672 107.385 36.8535ZM127.305 40.0664V40.9277H116.217V40.0664H127.305ZM125.979 38.1934V39.0684H117.693V35.377H125.855V36.2383H118.773V38.1934H125.979ZM125.869 42.0215V44.8379H118.65V46.0957H126.238V46.9707H117.584V44.0312H124.816V42.8555H117.557V42.0215H125.869ZM132.664 38.6855C132.664 40.75 134.168 42.8418 135.959 43.6211L135.357 44.4688C133.936 43.8193 132.705 42.418 132.145 40.7363C131.57 42.5205 130.347 44.0723 128.959 44.7695L128.316 43.9219C130.053 43.0879 131.57 40.791 131.584 38.6855V37.0996H128.713V36.2109H135.562V37.0996H132.664V38.6855ZM138.338 34.9531V47.1074H137.258V34.9531H138.338ZM147.32 35.6504C149.139 35.6504 150.479 36.8125 150.479 38.4531C150.479 40.1074 149.139 41.2559 147.32 41.2695C145.502 41.2559 144.148 40.1074 144.162 38.4531C144.148 36.8125 145.502 35.6504 147.32 35.6504ZM147.32 36.5527C146.131 36.5527 145.201 37.3594 145.215 38.4531C145.201 39.5742 146.131 40.3809 147.32 40.3809C148.523 40.3809 149.426 39.5742 149.426 38.4531C149.426 37.3594 148.523 36.5527 147.32 36.5527ZM153.432 34.9531V37.7012H155.264V38.5898H153.432V41.0371H152.365V34.9531H153.432ZM146.268 42.3496V45.8906C146.972 45.8701 147.908 45.7676 148.77 45.4805L148.934 46.3418C147.744 46.7383 146.596 46.7793 145.803 46.7793H145.229V42.3496H146.268ZM154.648 42.4043V43.2383H148.51V42.4043H151.066V41.3242H152.119V42.4043H154.648ZM151.572 43.6484C152.898 43.6484 153.842 44.3184 153.855 45.3711C153.842 46.4238 152.898 47.0801 151.572 47.0801C150.232 47.0801 149.303 46.4238 149.316 45.3711C149.303 44.3184 150.232 43.6484 151.572 43.6484ZM151.572 44.4277C150.82 44.4277 150.273 44.8105 150.273 45.3711C150.273 45.9453 150.82 46.3145 151.572 46.3145C152.338 46.3145 152.871 45.9453 152.871 45.3711C152.871 44.8105 152.338 44.4277 151.572 44.4277ZM165.846 40.6543V41.5293H162.086V44.6738H167.158V45.5762H156.029V44.6738H161.033V41.5293H157.451V35.9512H165.723V36.8262H158.531V40.6543H165.846ZM179.244 41.6523V42.541H168.115V41.6523H173.146V40.3672H169.564V37.4004H176.729V36.1426H169.523V35.2676H177.809V38.207H170.631V39.5059H178.068V40.3672H174.199V41.6523H179.244ZM177.877 43.4707V46.998H176.797V44.3457H169.359V43.4707H177.877ZM194.816 42.3086V43.2109H189.799V47.1348H188.746V43.2109H183.742V42.3086H194.816ZM189.812 37.3594C189.812 38.877 191.932 40.2031 194.105 40.5039L193.709 41.3652C191.829 41.0781 190.059 40.1348 189.293 38.8086C188.514 40.1484 186.716 41.0781 184.836 41.3652L184.439 40.5039C186.6 40.2031 188.746 38.8906 188.746 37.3594V37.3457H184.822V36.4707H188.746V34.9531H189.799V36.4707H193.75V37.3457H189.812V37.3594ZM205.877 34.9531V47.1348H204.811V34.9531H205.877ZM202.186 36.0879V40.4082H197.646V43.2793C199.663 43.2793 201.461 43.1904 203.635 42.8418L203.744 43.7441C201.502 44.0996 199.656 44.1816 197.564 44.1816H196.553V39.5332H201.105V36.9766H196.525V36.0879H202.186ZM211.605 35.7461C213.479 35.7598 214.832 36.9082 214.846 38.6035C214.832 40.1279 213.738 41.2148 212.152 41.4062V43.4844C213.287 43.4297 214.429 43.3477 215.488 43.2109L215.557 44.0176C212.986 44.4551 210.102 44.4824 207.969 44.4688L207.791 43.5664C208.769 43.5596 209.903 43.5527 211.072 43.5117V41.4062C209.459 41.2217 208.352 40.1348 208.365 38.6035C208.352 36.9082 209.705 35.7598 211.605 35.7461ZM211.605 36.6758C210.334 36.6758 209.404 37.4688 209.418 38.6035C209.404 39.7383 210.334 40.5312 211.605 40.5312C212.863 40.5312 213.779 39.7383 213.793 38.6035C213.779 37.4688 212.863 36.6758 211.605 36.6758ZM217.334 34.9531V39.9707H219.316V40.9004H217.334V47.1074H216.268V34.9531H217.334ZM234.67 42.3223V43.2109H229.611V47.1074H228.559V43.2109H223.541V42.3223H234.67ZM233.412 40.1895V41.0645H225.031V35.5273H233.275V36.4023H226.098V37.8242H232.988V38.6855H226.098V40.1895H233.412ZM246.783 44.7285V45.6172H235.654V44.7285H238.758V41.8301H236.666V40.9414H238.566V36.9766H236.639V36.0879H245.717V36.9766H243.789V40.9414H245.689V41.8301H243.598V44.7285H246.783ZM239.633 40.9414H242.736V36.9766H239.633V40.9414ZM239.838 44.7285H242.531V41.8301H239.838V44.7285ZM258.869 40.5996V41.4473H247.74V40.5996H258.869ZM257.475 42.418V45.002H250.174V46.1641H257.871V46.9434H249.094V44.2637H256.408V43.2246H249.08V42.418H257.475ZM257.434 35.3223V37.8379H250.256V38.9043H257.652V39.6836H249.189V37.0996H256.354V36.1016H249.148V35.3223H257.434ZM274.441 41.4062V42.2812H263.354V41.4062H268.357V40.2031H264.83V35.3086H273.061V36.1836H265.91V37.3184H272.732V38.1387H265.91V39.3418H273.129V40.2031H269.424V41.4062H274.441ZM268.904 43.1973C271.57 43.1836 273.074 43.8672 273.088 45.1387C273.074 46.4102 271.57 47.0801 268.904 47.0801C266.211 47.0801 264.707 46.4102 264.707 45.1387C264.707 43.8672 266.211 43.1836 268.904 43.1973ZM268.904 44.0039C266.895 44.0039 265.773 44.4141 265.787 45.1387C265.773 45.877 266.895 46.2598 268.904 46.2461C270.887 46.2598 272.008 45.877 272.008 45.1387C272.008 44.4141 270.887 44.0039 268.904 44.0039ZM281.537 37.0586V37.9336H275.439V37.0586H277.969V35.3223H279.035V37.0586H281.537ZM278.488 38.7539C280.02 38.7539 281.113 39.9023 281.127 41.5156C281.113 43.1426 280.02 44.3047 278.488 44.3047C276.971 44.3047 275.877 43.1426 275.877 41.5156C275.877 39.9023 276.971 38.7539 278.488 38.7539ZM278.488 39.6562C277.531 39.6699 276.834 40.4492 276.834 41.5156C276.834 42.5957 277.531 43.375 278.488 43.3613C279.459 43.375 280.17 42.5957 280.17 41.5156C280.17 40.4492 279.459 39.6699 278.488 39.6562ZM285.816 34.9531V47.1074H284.791V40.9688H283.178V46.5059H282.166V35.2539H283.178V40.0801H284.791V34.9531H285.816ZM297.191 36.1836V44.0176H291.586V36.1836H297.191ZM292.625 37.0449V43.1426H296.125V37.0449H292.625ZM300.486 34.9531V39.8066H302.523V40.7363H300.486V47.1074H299.42V34.9531H300.486ZM313.229 34.9531V47.1074H312.148V34.9531H313.229ZM310.426 36.2793V37.168H309.045V43.0195C309.729 42.9717 310.405 42.9102 311.055 42.8281L311.123 43.6348C308.471 44.0449 305.545 44.0859 303.289 44.0996L303.166 43.1836L304.848 43.1699V37.168H303.48V36.2793H310.426ZM305.9 43.1562C306.584 43.1426 307.288 43.1152 307.992 43.0742V37.168H305.9V43.1562ZM318.533 35.8965C320.324 35.9102 321.596 37.5508 321.609 40.1348C321.596 42.7188 320.324 44.3594 318.533 44.3594C316.729 44.3594 315.471 42.7188 315.471 40.1348C315.471 37.5508 316.729 35.9102 318.533 35.8965ZM318.533 36.8535C317.33 36.8672 316.482 38.1523 316.482 40.1348C316.482 42.1172 317.33 43.4023 318.533 43.4023C319.75 43.4023 320.57 42.1172 320.57 40.1348C320.57 38.1523 319.75 36.8672 318.533 36.8535ZM324.686 34.9531V39.8066H326.723V40.7363H324.686V47.1074H323.619V34.9531H324.686ZM338.494 40.5996V41.4473H327.365V40.5996H338.494ZM337.1 42.418V45.002H329.799V46.1641H337.496V46.9434H328.719V44.2637H336.033V43.2246H328.705V42.418H337.1ZM337.059 35.3223V37.8379H329.881V38.9043H337.277V39.6836H328.814V37.0996H335.979V36.1016H328.773V35.3223H337.059ZM353.082 35.459V36.334H349.227C349.24 37.7148 351.305 38.8086 353.451 39.0547L353.055 39.9023C351.065 39.6494 349.199 38.7607 348.529 37.4004C347.866 38.7607 346.007 39.6494 344.018 39.9023L343.621 39.0547C345.754 38.8086 347.805 37.7148 347.832 36.334H344.004V35.459H353.082ZM354.107 40.6816V41.5703H349.049V43.1699H352.699V47.1074H351.619V44.0449H344.223V43.1699H347.996V41.5703H342.992V40.6816H354.107ZM365.127 34.9668V43.8535H364.061V34.9668H365.127ZM365.51 45.9453V46.8477H357.279V42.9512H358.346V45.9453H365.51ZM358.564 35.8145C360.383 35.8145 361.75 37.0449 361.75 38.7949C361.75 40.5723 360.383 41.7891 358.564 41.7891C356.746 41.7891 355.379 40.5723 355.379 38.7949C355.379 37.0449 356.746 35.8145 358.564 35.8145ZM358.564 36.7578C357.334 36.7578 356.418 37.6055 356.432 38.7949C356.418 40.0117 357.334 40.8457 358.564 40.8457C359.768 40.8457 360.697 40.0117 360.697 38.7949C360.697 37.6055 359.768 36.7578 358.564 36.7578ZM376.598 34.9531V39.7656H378.635V40.668H376.598V47.1348H375.531V34.9531H376.598ZM373.398 36.1426V37.0312H368.791V43.1836C370.992 43.1836 372.551 43.0811 374.355 42.7461L374.492 43.6758C372.592 44.0176 370.992 44.0859 368.682 44.0859H367.725V36.1426H373.398ZM380.576 46.082C380.098 46.082 379.688 45.6855 379.701 45.1934C379.688 44.7148 380.098 44.3184 380.576 44.3184C381.055 44.3184 381.451 44.7148 381.451 45.1934C381.451 45.6855 381.055 46.082 380.576 46.082Z" fill="white"/>
<path d="M16 41L16 20L2.50535 29.3768C1.32245 30.1987 1.3701 31.9639 2.59561 32.7208L16 41Z" fill="#1C232F" fill-opacity="0.8"/>
</svg>
