<svg width="394" height="60" viewBox="0 0 394 60" fill="none" xmlns="http://www.w3.org/2000/svg">
<rect x="16" width="378" height="60" rx="8" fill="#1C232F" fill-opacity="0.8"/>
<path d="M28.8125 16.2207C28.7988 18.4355 30.3164 20.6777 32.1074 21.4844L31.4512 22.332C30.0703 21.6553 28.874 20.2266 28.293 18.4902C27.7256 20.3291 26.5293 21.8604 25.1074 22.5781L24.4238 21.6758C26.2285 20.8418 27.7324 18.5312 27.7461 16.2207V14.0059H28.8125V16.2207ZM34.5137 12.9531V25.1348H33.4336V12.9531H34.5137ZM42.9355 14.0195V19.6523H37.2344V14.0195H42.9355ZM38.2871 14.9082V18.791H41.8828V14.9082H38.2871ZM46.627 12.9668V21.7031H45.5605V12.9668H46.627ZM47.0098 23.8086V24.6973H38.7793V20.8555H39.8457V23.8086H47.0098ZM63.2793 18.6406V19.5293H58.2617V20.8281C60.5586 20.9238 61.9121 21.6758 61.9258 22.9609C61.9121 24.3145 60.3535 25.0801 57.7422 25.0801C55.1035 25.0801 53.5449 24.3145 53.5449 22.9609C53.5449 21.6758 54.8916 20.9238 57.209 20.8281V19.5293H52.2051V18.6406H63.2793ZM57.7422 21.6484C55.7871 21.6621 54.625 22.1406 54.6387 22.9609C54.625 23.7676 55.7871 24.2461 57.7422 24.2461C59.6699 24.2461 60.8457 23.7676 60.8457 22.9609C60.8457 22.1406 59.6699 21.6621 57.7422 21.6484ZM62.2949 13.5273V14.4023H58.4395C58.5078 15.7695 60.5176 16.8291 62.6641 17.0547L62.2676 17.9023C60.2783 17.6631 58.4121 16.7744 57.7422 15.4141C57.0791 16.7744 55.2197 17.6631 53.2168 17.9023L52.834 17.0547C54.9395 16.8291 56.9629 15.7695 57.0449 14.4023H53.2168V13.5273H62.2949ZM77.2246 12.9531V17.9707H79.2617V18.8594H77.2246V25.1074H76.1582V12.9531H77.2246ZM74.9824 14.9082V15.7969H67.75V14.9082H70.8809V13.1035H71.9473V14.9082H74.9824ZM71.4277 16.8086C73.1504 16.8086 74.3945 17.957 74.4082 19.5977C74.3945 21.2383 73.1504 22.3867 71.4277 22.3867C69.6914 22.3867 68.4336 21.2383 68.4473 19.5977C68.4336 17.957 69.6914 16.8086 71.4277 16.8086ZM71.4277 17.7109C70.293 17.7109 69.459 18.5039 69.4727 19.5977C69.459 20.7051 70.293 21.4844 71.4277 21.4707C72.5488 21.4844 73.3691 20.7051 73.3828 19.5977C73.3691 18.5039 72.5488 17.7109 71.4277 17.7109ZM91.293 17.8066V18.709H89.3242V25.1074H88.2578V12.9531H89.3242V17.8066H91.293ZM81.4902 14.1562V21.1152C83.2676 21.1084 85.0791 20.9717 87.082 20.5547L87.2188 21.4707C85.127 21.8945 83.2402 22.0176 81.3945 22.0176H80.4238V14.1562H81.4902ZM95.9961 13.8418C97.9102 13.8418 99.2637 15.0039 99.2637 16.6992C99.2637 18.3945 97.9102 19.5566 95.9961 19.5566C94.082 19.5566 92.7012 18.3945 92.7148 16.6992C92.7012 15.0039 94.082 13.8418 95.9961 13.8418ZM95.9961 14.7852C94.6973 14.7852 93.7539 15.5645 93.7676 16.6992C93.7539 17.834 94.6973 18.6133 95.9961 18.6133C97.2812 18.6133 98.2109 17.834 98.2109 16.6992C98.2109 15.5645 97.2812 14.7852 95.9961 14.7852ZM101.984 12.9531V25.1348H100.918V12.9531H101.984ZM92.0859 21.5391C94.3281 21.5391 97.418 21.5254 100.111 21.1289L100.193 21.9219C97.418 22.4414 94.4238 22.4551 92.2363 22.4551L92.0859 21.5391ZM117.707 20.7871V25.1074H116.627V21.6484H109.531V20.7871H117.707ZM117.707 12.9531V20.1172H116.627V18.3672H113.496C112.929 19.0576 112.033 19.4678 110.98 19.4609C109.162 19.4746 107.822 18.2715 107.822 16.5488C107.822 14.8535 109.162 13.6504 110.98 13.6504C112.026 13.6504 112.922 14.0605 113.496 14.7441H116.627V12.9531H117.707ZM110.98 14.5664C109.736 14.5664 108.848 15.4004 108.848 16.5488C108.848 17.7383 109.736 18.5586 110.98 18.5586C112.17 18.5586 113.086 17.7383 113.086 16.5488C113.086 15.4004 112.17 14.5664 110.98 14.5664ZM113.975 17.4785H116.627V15.6328H113.975C114.07 15.9199 114.125 16.2207 114.125 16.5488C114.125 16.877 114.07 17.1914 113.975 17.4785ZM129.232 12.9121V15.8652H131.078V16.7539H129.232V19.6387H128.166V12.9121H129.232ZM129.232 20.2676V22.9609H122.561V24.1504H129.684V24.9707H121.508V22.168H128.166V21.0742H121.48V20.2676H129.232ZM127.004 14.0605V14.9219H119.758V14.0605H122.848V12.8301H123.914V14.0605H127.004ZM123.381 15.4688C125.145 15.4688 126.293 16.2344 126.307 17.4648C126.293 18.6953 125.145 19.4609 123.381 19.4609C121.604 19.4609 120.441 18.6953 120.455 17.4648C120.441 16.2344 121.604 15.4688 123.381 15.4688ZM123.381 16.2617C122.232 16.2617 121.467 16.7402 121.48 17.4648C121.467 18.2031 122.232 18.6543 123.381 18.6543C124.529 18.6543 125.281 18.2031 125.295 17.4648C125.281 16.7402 124.529 16.2617 123.381 16.2617ZM142.959 22.7012V23.6035H131.83V22.7012H136.834V20.4043H133.225V16.6582H140.498V14.7441H133.197V13.8555H141.551V17.5332H134.291V19.5156H141.838V20.4043H137.887V22.7012H142.959ZM156.945 20.6367V24.9434H149.275V20.6367H156.945ZM150.328 21.5117V24.0684H155.879V21.5117H150.328ZM156.945 12.9531V15.8652H158.777V16.7676H156.945V19.9668H155.879V12.9531H156.945ZM149.016 13.582V15.4414H152.557V13.582H153.623V19.2012H147.963V13.582H149.016ZM149.016 18.3125H152.557V16.2891H149.016V18.3125ZM169.961 12.9531V25.1074H168.922V12.9531H169.961ZM167.514 13.2129V24.4922H166.488V18.5859H164.93C164.813 20.9512 163.809 22.4277 162.305 22.4277C160.719 22.4277 159.693 20.7871 159.693 18.2031C159.693 15.6191 160.719 13.9785 162.305 13.9785C163.781 13.9785 164.779 15.4072 164.916 17.6973H166.488V13.2129H167.514ZM162.305 14.9902C161.32 14.9902 160.691 16.2207 160.705 18.2031C160.691 20.1719 161.32 21.416 162.305 21.4023C163.289 21.416 163.918 20.1719 163.918 18.2031C163.918 16.2207 163.289 14.9902 162.305 14.9902ZM179.094 14.1016V24H177.85V15.3867H177.795L175.389 16.9863V15.7422L177.85 14.1016H179.094ZM191.371 12.9531V20.1582H190.291V18.2441H187.447V19.2832H181.869V13.8828H187.447V14.9355H190.291V12.9531H191.371ZM182.936 14.7578V18.4082H186.395V14.7578H182.936ZM187.338 20.5137C189.867 20.5137 191.412 21.3477 191.412 22.8105C191.412 24.2598 189.867 25.0801 187.338 25.0801C184.809 25.0801 183.264 24.2598 183.264 22.8105C183.264 21.3477 184.809 20.5137 187.338 20.5137ZM187.338 21.3477C185.479 21.3613 184.316 21.8945 184.33 22.8105C184.316 23.6855 185.479 24.2324 187.338 24.2324C189.197 24.2324 190.346 23.6855 190.346 22.8105C190.346 21.8945 189.197 21.3613 187.338 21.3477ZM187.447 17.3418H190.291V15.8242H187.447V17.3418ZM198.932 13.1719C201.639 13.1719 203.225 13.9102 203.225 15.2637C203.225 16.6445 201.639 17.3828 198.932 17.3965C196.225 17.3828 194.625 16.6445 194.625 15.2637C194.625 13.9102 196.225 13.1719 198.932 13.1719ZM198.932 13.9785C196.908 13.9785 195.732 14.4707 195.746 15.2637C195.732 16.1113 196.908 16.5762 198.932 16.5762C200.941 16.5762 202.131 16.1113 202.131 15.2637C202.131 14.4707 200.941 13.9785 198.932 13.9785ZM204.469 18.2168V19.0918H193.395V18.2168H204.469ZM203.047 20.1445V22.8652H195.828V24.123H203.416V24.9707H194.762V22.0723H201.994V20.9648H194.734V20.1445H203.047ZM213.164 15.25C213.164 16.9453 214.395 18.5449 216.172 19.1875L215.57 20.0215C214.237 19.4883 213.178 18.4287 212.658 17.1094C212.139 18.5791 211.031 19.748 209.596 20.3223L209.021 19.4473C210.84 18.7773 212.098 17.082 212.111 15.209V13.7051H213.164V15.25ZM219.084 12.9668V22.0723H218.004V16.7266H215.297V15.8242H218.004V12.9668H219.084ZM219.357 23.9453V24.8477H211.223V21.0332H212.303V23.9453H219.357ZM226.371 13.8418V14.7441H222.68V16.2617H226.234V17.1094H222.68V18.791C224.45 18.7842 225.558 18.7227 226.863 18.4629L226.973 19.3516C225.551 19.625 224.402 19.6934 222.42 19.6934H221.654V13.8418H226.371ZM231.43 12.9668V20.3359H230.404V17.0137H228.695V20.2539H227.697V13.1992H228.695V16.1387H230.404V12.9668H231.43ZM231.43 20.9648V25.1074H230.377V21.8398H223.24V20.9648H231.43ZM242.709 12.9121V15.8652H244.555V16.7539H242.709V19.6387H241.643V12.9121H242.709ZM242.709 20.2676V22.9609H236.037V24.1504H243.16V24.9707H234.984V22.168H241.643V21.0742H234.957V20.2676H242.709ZM240.48 14.0605V14.9219H233.234V14.0605H236.324V12.8301H237.391V14.0605H240.48ZM236.857 15.4688C238.621 15.4688 239.77 16.2344 239.783 17.4648C239.77 18.6953 238.621 19.4609 236.857 19.4609C235.08 19.4609 233.918 18.6953 233.932 17.4648C233.918 16.2344 235.08 15.4688 236.857 15.4688ZM236.857 16.2617C235.709 16.2617 234.943 16.7402 234.957 17.4648C234.943 18.2031 235.709 18.6543 236.857 18.6543C238.006 18.6543 238.758 18.2031 238.771 17.4648C238.758 16.7402 238.006 16.2617 236.857 16.2617ZM254.918 14.0879C254.918 15.7969 257.16 17.2871 259.348 17.5879L258.91 18.4629C257.023 18.1484 255.157 17.1025 254.371 15.6055C253.592 17.1094 251.719 18.1484 249.832 18.4629L249.395 17.5879C251.582 17.2871 253.811 15.8242 253.811 14.0879V13.3906H254.918V14.0879ZM259.895 19.8027V20.7051H254.863V25.1074H253.811V20.7051H248.82V19.8027H259.895ZM268.549 21.1152C268.549 22.1885 269.123 23.3301 270.285 23.9863C271.434 23.2686 272.049 22.0586 272.049 21.1152V20.4453H273.102V21.1152C273.102 22.3594 274.018 23.6172 275.576 24.1504L275.043 24.9434C273.826 24.5127 272.972 23.665 272.555 22.6465C272.179 23.6309 271.434 24.5605 270.312 25.0391C269.13 24.5879 268.378 23.6924 268.016 22.6738C267.585 23.6582 266.744 24.5059 265.582 24.9434L265.035 24.1504C266.566 23.5762 267.496 22.2773 267.51 21.1152V20.4453H268.549V21.1152ZM274.469 12.9668V19.9121H273.402V12.9668H274.469ZM267.906 13.6777C269.752 13.6777 271.092 14.8262 271.092 16.5215C271.092 18.1895 269.752 19.3379 267.906 19.3379C266.061 19.3379 264.721 18.1895 264.721 16.5215C264.721 14.8262 266.061 13.6777 267.906 13.6777ZM267.906 14.5938C266.662 14.5801 265.76 15.3867 265.773 16.5215C265.76 17.6426 266.662 18.4355 267.906 18.4492C269.137 18.4355 270.039 17.6426 270.039 16.5215C270.039 15.3867 269.137 14.5801 267.906 14.5938ZM285.939 12.9531V17.7656H287.977V18.668H285.939V25.1348H284.873V12.9531H285.939ZM282.74 14.1426V15.0312H278.133V21.1836C280.334 21.1836 281.893 21.0811 283.697 20.7461L283.834 21.6758C281.934 22.0176 280.334 22.0859 278.023 22.0859H277.066V14.1426H282.74ZM289.918 24.082C289.439 24.082 289.029 23.6855 289.043 23.1934C289.029 22.7148 289.439 22.3184 289.918 22.3184C290.396 22.3184 290.793 22.7148 290.793 23.1934C290.793 23.6855 290.396 24.082 289.918 24.082ZM30.6035 36.1836V44.0176H24.998V36.1836H30.6035ZM26.0371 37.0449V43.1426H29.5371V37.0449H26.0371ZM33.8984 34.9531V39.8066H35.9355V40.7363H33.8984V47.1074H32.832V34.9531H33.8984ZM46.6406 34.9531V47.1074H45.5605V34.9531H46.6406ZM43.8379 36.2793V37.168H42.457V43.0195C43.1406 42.9717 43.8174 42.9102 44.4668 42.8281L44.5352 43.6348C41.8828 44.0449 38.957 44.0859 36.7012 44.0996L36.5781 43.1836L38.2598 43.1699V37.168H36.8926V36.2793H43.8379ZM39.3125 43.1562C39.9961 43.1426 40.7002 43.1152 41.4043 43.0742V37.168H39.3125V43.1562ZM51.9453 35.8965C53.7363 35.9102 55.0078 37.5508 55.0215 40.1348C55.0078 42.7188 53.7363 44.3594 51.9453 44.3594C50.1406 44.3594 48.8828 42.7188 48.8828 40.1348C48.8828 37.5508 50.1406 35.9102 51.9453 35.8965ZM51.9453 36.8535C50.7422 36.8672 49.8945 38.1523 49.8945 40.1348C49.8945 42.1172 50.7422 43.4023 51.9453 43.4023C53.1621 43.4023 53.9824 42.1172 53.9824 40.1348C53.9824 38.1523 53.1621 36.8672 51.9453 36.8535ZM58.0977 34.9531V39.8066H60.1348V40.7363H58.0977V47.1074H57.0312V34.9531H58.0977ZM70.1973 34.9531V39.9023H72.166V40.8047H70.1973V47.1074H69.1309V34.9531H70.1973ZM67.0527 36.2656C67.0527 39.7109 65.4395 42.8418 61.4746 44.7969L60.873 43.9492C64.0176 42.3838 65.7266 40.0459 65.9727 37.168H61.4336V36.2656H67.0527ZM80.752 38.6855C80.752 40.75 82.2559 42.8418 84.0469 43.6211L83.4453 44.4688C82.0234 43.8193 80.793 42.418 80.2324 40.7363C79.6582 42.5205 78.4346 44.0723 77.0469 44.7695L76.4043 43.9219C78.1406 43.0879 79.6582 40.791 79.6719 38.6855V37.0996H76.8008V36.2109H83.6504V37.0996H80.752V38.6855ZM86.4258 34.9531V47.1074H85.3457V34.9531H86.4258ZM98.1699 35.4727V39.5742H94.5742V41.1328H99.5781V42.0078H88.5039V41.1328H93.5078V39.5742H89.9395V35.4727H98.1699ZM90.9922 36.334V38.7129H97.1035V36.334H90.9922ZM98.2109 43.2793V47.1074H97.1309V44.1406H89.7344V43.2793H98.2109ZM114.357 40.5996V41.4746H109.955V36.1152H114.207V36.9902H111.035V40.5996H114.357ZM115.246 44.6602V45.5488H104.117V44.6602H109.107V42.0898H110.16V44.6602H115.246ZM109.217 36.1152V37.0039H106.154V40.5859C107.18 40.5791 108.198 40.4971 109.326 40.2441L109.422 41.1465C108.096 41.4473 106.975 41.4883 105.758 41.4746H105.088V36.1152H109.217ZM126.047 38.6445V39.5059H117.721V35.4043H118.787V38.6445H126.047ZM127.332 41.1602V42.0352H116.203V41.1602H127.332ZM126.115 45.918V46.8066H117.652V43.2793H118.719V45.918H126.115ZM142.945 42.3223V43.2109H137.887V47.1074H136.834V43.2109H131.816V42.3223H142.945ZM141.688 40.1895V41.0645H133.307V35.5273H141.551V36.4023H134.373V37.8242H141.264V38.6855H134.373V40.1895H141.688ZM155.059 44.7285V45.6172H143.93V44.7285H147.033V41.8301H144.941V40.9414H146.842V36.9766H144.914V36.0879H153.992V36.9766H152.064V40.9414H153.965V41.8301H151.873V44.7285H155.059ZM147.908 40.9414H151.012V36.9766H147.908V40.9414ZM148.113 44.7285H150.807V41.8301H148.113V44.7285ZM167.158 44.7012V45.6035H156.029V44.7012H161.033V42.4043H157.424V38.6582H164.697V36.7441H157.396V35.8555H165.75V39.5332H158.49V41.5156H166.037V42.4043H162.086V44.7012H167.158ZM175.99 38.6855C175.99 40.75 177.494 42.8418 179.285 43.6211L178.684 44.4688C177.262 43.8193 176.031 42.418 175.471 40.7363C174.896 42.5205 173.673 44.0723 172.285 44.7695L171.643 43.9219C173.379 43.0879 174.896 40.791 174.91 38.6855V37.0996H172.039V36.2109H178.889V37.0996H175.99V38.6855ZM181.664 34.9531V47.1074H180.584V34.9531H181.664ZM193.408 35.4727V39.5742H189.812V41.1328H194.816V42.0078H183.742V41.1328H188.746V39.5742H185.178V35.4727H193.408ZM186.23 36.334V38.7129H192.342V36.334H186.23ZM193.449 43.2793V47.1074H192.369V44.1406H184.973V43.2793H193.449ZM205.344 34.9668V38.9727H207.176V39.875H205.344V44.0723H204.277V34.9668H205.344ZM203.115 36.457V37.332H195.869V36.457H198.959V34.9668H200.025V36.457H203.115ZM199.492 38.002C201.229 38.002 202.404 38.8906 202.418 40.2715C202.404 41.6387 201.229 42.5137 199.492 42.5137C197.742 42.5137 196.553 41.6387 196.566 40.2715C196.553 38.8906 197.742 38.002 199.492 38.002ZM199.492 38.8496C198.344 38.8496 197.578 39.4102 197.592 40.2715C197.578 41.1328 198.344 41.6797 199.492 41.666C200.627 41.6797 201.393 41.1328 201.406 40.2715C201.393 39.4102 200.627 38.8496 199.492 38.8496ZM205.904 45.9453V46.8477H197.742V43.3477H198.795V45.9453H205.904ZM215.598 37.4824C215.598 38.9727 216.828 40.2988 218.619 40.832L218.113 41.6797C216.712 41.2422 215.618 40.333 215.092 39.1641C214.559 40.4561 213.431 41.4404 211.988 41.9121L211.455 41.0645C213.26 40.5176 214.545 39.1094 214.545 37.4824V37.2637H211.797V36.4023H214.545V34.8984H215.625V36.4023H218.346V37.2637H215.598V37.4824ZM220.957 34.9531V38.043H222.789V38.9453H220.957V42.1582H219.891V34.9531H220.957ZM220.957 42.7188V46.9434H213.287V42.7188H220.957ZM214.34 43.5664V46.0684H219.891V43.5664H214.34ZM226.822 35.8965C227.937 35.9033 228.839 36.5527 229.365 37.6738H232.564V34.9531H233.631V47.1348H232.564V42.418H229.447C228.935 43.6484 227.998 44.3594 226.822 44.3594C225.031 44.3594 223.773 42.7188 223.773 40.1348C223.773 37.5508 225.031 35.9102 226.822 35.8965ZM226.822 36.8535C225.619 36.8672 224.799 38.1523 224.799 40.1348C224.799 42.1172 225.619 43.4023 226.822 43.4023C228.012 43.4023 228.846 42.1172 228.846 40.1348C228.846 38.1523 228.012 36.8672 226.822 36.8535ZM229.68 38.5762C229.789 39.0479 229.857 39.5674 229.857 40.1348C229.857 40.6338 229.803 41.1055 229.721 41.5293H232.564V38.5762H229.68ZM245.676 34.9668V44.1953H244.596V42.9375H242.08V42.1582H244.596V34.9668H245.676ZM245.977 45.9453V46.8477H237.336V43.293H238.416V45.9453H245.977ZM235.586 40.5996C237.855 40.5859 240.891 40.5723 243.502 40.2441L243.57 41.0234C242.483 41.1943 241.349 41.3037 240.234 41.3652V43.7715H239.154V41.4199C237.924 41.4746 236.755 41.4814 235.736 41.4746L235.586 40.5996ZM239.578 35.459C241.355 35.459 242.572 36.3066 242.586 37.5781C242.572 38.877 241.355 39.6836 239.578 39.6836C237.787 39.6836 236.57 38.877 236.57 37.5781C236.57 36.3066 237.787 35.459 239.578 35.459ZM239.578 36.2793C238.389 36.2656 237.582 36.7988 237.596 37.5781C237.582 38.3711 238.389 38.8906 239.578 38.8906C240.727 38.8906 241.547 38.3711 241.561 37.5781C241.547 36.7988 240.727 36.2656 239.578 36.2793ZM254.494 36.3066V36.9355C254.48 37.8926 254.48 39.5059 254.139 41.7617L253.059 41.666C253.387 39.6289 253.414 38.1523 253.414 37.1816H248.314V36.3066H254.494ZM251.309 39.7793V43.4707C252.655 43.4229 254.036 43.334 255.301 43.1836L255.355 43.9902C252.799 44.3867 249.941 44.4414 247.768 44.4277L247.631 43.5391C248.431 43.5322 249.319 43.5254 250.256 43.498V39.7793H251.309ZM257.133 34.9531V40.0391H259.102V40.9688H257.133V47.1074H256.066V34.9531H257.133ZM266.812 35.4043C268.631 35.418 269.957 36.5117 269.957 38.0977C269.957 39.6836 268.631 40.7773 266.812 40.7773C264.967 40.7773 263.654 39.6836 263.654 38.0977C263.654 36.5117 264.967 35.418 266.812 35.4043ZM266.812 36.3066C265.596 36.3066 264.693 37.0449 264.707 38.0977C264.693 39.1641 265.596 39.9023 266.812 39.9023C268.016 39.9023 268.918 39.1641 268.918 38.0977C268.918 37.0449 268.016 36.3066 266.812 36.3066ZM273.402 34.9531V41.2012H272.336V34.9531H273.402ZM273.402 41.7891V44.7148H266.58V46.082H273.84V46.9434H265.527V43.9082H272.336V42.6504H265.5V41.7891H273.402ZM285.488 34.9531V47.1074H284.408V34.9531H285.488ZM279.951 38.918C279.951 40.9551 281.373 42.9238 283.205 43.7031L282.604 44.5371C281.202 43.915 280.013 42.5957 279.445 40.9824C278.898 42.6914 277.716 44.0928 276.314 44.7559L275.713 43.9219C277.518 43.1016 278.898 41.0508 278.898 38.918V37.9473H276.041V37.0723H278.885V35.1855H279.951V37.0723H282.781V37.9473H279.951V38.918ZM297.068 34.9121V37.8652H298.914V38.7539H297.068V41.6387H296.002V34.9121H297.068ZM297.068 42.2676V44.9609H290.396V46.1504H297.52V46.9707H289.344V44.168H296.002V43.0742H289.316V42.2676H297.068ZM294.84 36.0605V36.9219H287.594V36.0605H290.684V34.8301H291.75V36.0605H294.84ZM291.217 37.4688C292.98 37.4688 294.129 38.2344 294.143 39.4648C294.129 40.6953 292.98 41.4609 291.217 41.4609C289.439 41.4609 288.277 40.6953 288.291 39.4648C288.277 38.2344 289.439 37.4688 291.217 37.4688ZM291.217 38.2617C290.068 38.2617 289.303 38.7402 289.316 39.4648C289.303 40.2031 290.068 40.6543 291.217 40.6543C292.365 40.6543 293.117 40.2031 293.131 39.4648C293.117 38.7402 292.365 38.2617 291.217 38.2617ZM313.256 34.9668V42.2676H312.176V40.627H308.949V39.7383H312.176V38.0977H309.072C308.272 40.0527 306.393 41.4678 303.795 42.2402L303.344 41.3926C306.283 40.5176 308.108 38.877 308.334 36.7715H303.959V35.8691H309.496C309.496 36.3477 309.441 36.8057 309.346 37.2363H312.176V34.9668H313.256ZM309.277 42.3906C311.738 42.3906 313.324 43.2656 313.324 44.7148C313.324 46.1777 311.738 47.0527 309.277 47.0527C306.789 47.0527 305.217 46.1777 305.217 44.7148C305.217 43.2656 306.789 42.3906 309.277 42.3906ZM309.277 43.252C307.445 43.2383 306.27 43.7988 306.27 44.7148C306.27 45.6309 307.445 46.1777 309.277 46.1777C311.082 46.1777 312.244 45.6309 312.258 44.7148C312.244 43.7988 311.082 43.2383 309.277 43.252ZM326.395 41.9258V42.8281H321.322V47.1074H320.27V42.8281H315.266V41.9258H326.395ZM320.803 35.4453C323.359 35.4453 325.082 36.4707 325.082 38.125C325.082 39.7383 323.359 40.7637 320.803 40.7637C318.246 40.7637 316.523 39.7383 316.523 38.125C316.523 36.4707 318.246 35.4453 320.803 35.4453ZM320.803 36.3203C318.902 36.3203 317.617 37.0312 317.631 38.125C317.617 39.2051 318.902 39.9023 320.803 39.9023C322.689 39.9023 323.988 39.2051 323.988 38.125C323.988 37.0312 322.689 36.3203 320.803 36.3203ZM334.967 36.3477C334.967 37.9883 336.211 39.4102 337.988 39.9707L337.414 40.8047C336.054 40.333 334.994 39.4033 334.475 38.1797C333.948 39.5811 332.827 40.6475 331.371 41.1738L330.824 40.3125C332.656 39.6836 333.914 38.166 333.914 36.3477V35.377H334.967V36.3477ZM340.395 34.9531V37.6191H342.227V38.5215H340.395V41.3105H339.328V34.9531H340.395ZM340.395 41.8574V44.7559H333.723V46.0957H340.846V46.9707H332.67V43.9355H339.328V42.7188H332.643V41.8574H340.395ZM353.014 34.9668V43.9082H351.961V34.9668H353.014ZM353.369 45.9453V46.8477H345.043V43.2109H346.123V45.9453H353.369ZM349.158 35.8281V39.3418H344.674V41.2832C346.93 41.2832 348.529 41.2148 350.457 40.873L350.566 41.7617C348.584 42.1035 346.943 42.1719 344.619 42.1855H343.635V38.4941H348.092V36.7031H343.607V35.8281H349.158ZM364.498 34.9531V39.7656H366.535V40.668H364.498V47.1348H363.432V34.9531H364.498ZM361.299 36.1426V37.0312H356.691V43.1836C358.893 43.1836 360.451 43.0811 362.256 42.7461L362.393 43.6758C360.492 44.0176 358.893 44.0859 356.582 44.0859H355.625V36.1426H361.299ZM368.477 46.082C367.998 46.082 367.588 45.6855 367.602 45.1934C367.588 44.7148 367.998 44.3184 368.477 44.3184C368.955 44.3184 369.352 44.7148 369.352 45.1934C369.352 45.6855 368.955 46.082 368.477 46.082Z" fill="white"/>
<path d="M16 41L16 20L2.50535 29.3768C1.32245 30.1987 1.3701 31.9639 2.59561 32.7208L16 41Z" fill="#1C232F" fill-opacity="0.8"/>
</svg>
