<svg width="140" height="37" viewBox="0 0 140 37" fill="none" xmlns="http://www.w3.org/2000/svg">
<path d="M136.772 10.4975C137.332 10.4441 137.758 10.5108 138.052 10.6975C138.372 10.8841 138.705 11.2441 139.052 11.7775C139.265 12.1241 139.372 12.4175 139.372 12.6575C139.372 13.2441 138.998 13.5908 138.252 13.6975L136.852 13.8575C135.545 14.0441 134.852 14.1375 134.772 14.1375C134.318 18.4041 133.958 22.1108 133.692 25.2575C133.425 28.4041 133.252 31.5108 133.172 34.5775C133.145 34.9508 132.985 35.2308 132.692 35.4175C132.425 35.6041 132.065 35.6975 131.612 35.6975C130.812 35.6975 130.012 35.4841 129.212 35.0575C128.438 34.6041 128.065 34.0975 128.092 33.5375C128.172 30.7108 128.332 27.8308 128.572 24.8975C128.812 21.9375 129.132 18.5108 129.532 14.6175L127.012 14.9375C126.638 14.9641 126.345 14.9508 126.132 14.8975C125.945 14.8175 125.758 14.6575 125.572 14.4175C125.385 14.1775 125.198 13.9108 125.012 13.6175C124.798 13.3241 124.692 13.0308 124.692 12.7375C124.692 12.4975 124.785 12.2841 124.972 12.0975C125.158 11.9108 125.438 11.7908 125.812 11.7375C126.398 11.6575 127.078 11.5641 127.852 11.4575L129.892 11.1775L130.612 4.25745C130.692 3.51078 131.238 3.13745 132.252 3.13745C133.052 3.13745 133.825 3.36412 134.572 3.81745C135.345 4.24412 135.705 4.73745 135.652 5.29745L135.132 10.6575C135.878 10.6041 136.425 10.5508 136.772 10.4975Z" fill="#111111"/>
<path d="M120.327 12.3375C120.594 12.0708 121.034 11.8441 121.647 11.6575C122.261 11.4441 122.821 11.3375 123.327 11.3375C124.127 11.3375 124.527 11.5775 124.527 12.0575C124.527 12.3241 124.407 12.6175 124.167 12.9375C123.341 14.0575 122.287 14.9241 121.007 15.5375C119.754 16.1241 118.394 16.4175 116.927 16.4175C115.434 16.4175 113.861 16.0175 112.207 15.2175C112.447 17.2975 112.567 19.3775 112.567 21.4575L113.807 21.4975C115.034 21.5508 116.674 21.6441 118.727 21.7775L120.207 21.8975C121.167 21.9775 121.647 22.2841 121.647 22.8175C121.647 23.2708 121.341 23.7375 120.727 24.2175C120.141 24.6975 119.541 24.9375 118.927 24.9375C117.834 24.9375 116.514 24.8841 114.967 24.7775L112.447 24.6575C112.234 27.3775 111.847 29.9508 111.287 32.3775C111.181 32.9375 110.727 33.4175 109.927 33.8175C109.154 34.2175 108.394 34.4175 107.647 34.4175C107.194 34.4175 106.847 34.3375 106.607 34.1775C106.367 33.9908 106.287 33.7108 106.367 33.3375C107.034 30.4041 107.447 27.4175 107.607 24.3775H106.927C106.314 24.3775 106.007 24.1908 106.007 23.8175C106.007 23.5508 106.127 23.2575 106.367 22.9375C106.634 22.6175 106.914 22.3775 107.207 22.2175L107.647 21.9775C107.647 18.7508 107.354 15.5775 106.767 12.4575V12.1775C106.634 11.9908 106.567 11.8308 106.567 11.6975C106.567 11.2175 106.954 10.7375 107.727 10.2575C108.527 9.77748 109.274 9.53748 109.967 9.53748C110.181 9.53748 110.421 9.59081 110.687 9.69748L112.247 10.6175C113.554 11.4175 114.661 12.0441 115.567 12.4975C116.501 12.9508 117.394 13.1775 118.247 13.1775C119.074 13.1775 119.767 12.8975 120.327 12.3375Z" fill="#111111"/>
<path d="M94.7534 22.1775L94.4334 22.9775L97.2334 25.3375L96.9534 24.1775C96.7667 23.4308 96.3934 21.8441 95.8334 19.4175L94.7534 22.1775ZM99.3134 10.4975C99.6867 12.8175 100.153 15.1775 100.713 17.5775C101.3 19.9508 102.007 22.6841 102.833 25.7775C103.607 28.7108 104.113 30.6575 104.353 31.6175C104.38 31.6975 104.393 31.8175 104.393 31.9775C104.393 32.6175 104.033 33.1775 103.313 33.6575C102.593 34.1108 101.847 34.3375 101.073 34.3375C100.433 34.3375 99.9401 34.1641 99.5934 33.8175C98.8201 32.9908 98.0067 32.2041 97.1534 31.4575C96.3001 30.7108 95.1801 29.7908 93.7934 28.6975L92.4734 27.6175C91.3534 30.0175 90.4867 31.7908 89.8734 32.9375C89.6867 33.3375 89.1934 33.7108 88.3934 34.0575C87.6201 34.3775 86.9001 34.5375 86.2334 34.5375C85.4867 34.5375 85.1134 34.2975 85.1134 33.8175C85.1134 33.6841 85.1534 33.5241 85.2334 33.3375C86.0334 31.3641 86.9801 29.0975 88.0734 26.5375L88.9134 24.4975C88.2467 23.8308 87.9134 23.4975 87.9134 23.4975C87.7267 23.3108 87.6334 23.0975 87.6334 22.8575C87.6334 22.4041 87.9267 21.9775 88.5134 21.5775C89.1001 21.1508 89.7534 20.8708 90.4734 20.7375C91.7534 17.6708 92.9534 14.5508 94.0734 11.3775C94.1801 11.0041 94.5134 10.6841 95.0734 10.4175C95.6601 10.1241 96.2734 9.93747 96.9134 9.85747C97.3667 9.72414 97.7534 9.65747 98.0734 9.65747C98.8201 9.65747 99.2334 9.93747 99.3134 10.4975Z" fill="#111111"/>
<path d="M74.6613 20.0974C75.7013 19.2708 76.5413 18.5374 77.1813 17.8974C77.848 17.2574 78.3546 16.6174 78.7013 15.9774C77.2613 15.6041 75.128 14.9908 72.3013 14.1374L72.1013 22.2574C72.9013 21.5908 73.368 21.1908 73.5013 21.0574L74.6613 20.0974ZM81.1013 25.6974C81.3146 25.2708 81.768 24.9108 82.4613 24.6174C83.1546 24.2974 83.8213 24.1374 84.4613 24.1374C85.3413 24.1374 85.7813 24.4174 85.7813 24.9774C85.7813 25.1374 85.7413 25.3241 85.6613 25.5374C84.568 28.0974 83.7413 30.5774 83.1813 32.9774C83.048 33.5108 82.6613 34.0041 82.0213 34.4574C81.7546 34.8041 81.3413 35.0974 80.7813 35.3374C80.248 35.5774 79.7146 35.6974 79.1813 35.6974C78.728 35.6974 78.3546 35.6041 78.0613 35.4174C77.7946 35.2308 77.648 34.9374 77.6213 34.5374C77.5146 32.8041 76.9413 31.2174 75.9013 29.7774C74.888 28.3374 73.5813 27.4041 71.9813 26.9774L71.7813 32.7774C71.7546 33.2841 71.328 33.7508 70.5013 34.1774C69.7013 34.6041 68.928 34.8174 68.1813 34.8174C67.7813 34.8174 67.4613 34.7508 67.2213 34.6174C66.9813 34.4574 66.8613 34.2174 66.8613 33.8974L66.9813 28.3774C66.6346 28.1374 66.4613 27.8574 66.4613 27.5374C66.4613 27.1641 66.6613 26.8041 67.0613 26.4574C67.1946 21.6041 67.3546 16.7641 67.5413 11.9374C67.568 11.3774 67.9413 10.8974 68.6613 10.4974C69.408 10.0708 70.1546 9.85742 70.9013 9.85742C71.4613 9.85742 71.8613 9.99076 72.1013 10.2574C75.008 11.0574 78.0213 11.9374 81.1413 12.8974C81.6213 12.7908 81.9546 12.7374 82.1413 12.7374C82.5946 12.7374 82.9413 12.8441 83.1813 13.0574C83.448 13.2441 83.5813 13.5374 83.5813 13.9374C83.5813 15.0308 83.2213 16.0441 82.5013 16.9774C81.7813 17.8841 80.7813 18.8974 79.5013 20.0174L78.7013 20.7374C77.4213 21.9908 76.1813 23.0974 74.9813 24.0574C77.168 24.6708 78.928 25.8841 80.2613 27.6974C80.368 27.4308 80.648 26.7641 81.1013 25.6974Z" fill="#111111"/>
<path d="M55.2568 12.7375L55.3368 12.6975L55.2568 12.7375ZM62.6568 23.0975C62.8968 22.9908 63.1502 22.9375 63.4168 22.9375C64.0568 22.9375 64.5635 23.3241 64.9369 24.0975C65.3369 24.8708 65.5368 25.7108 65.5368 26.6175C65.5368 27.0975 65.4702 27.5108 65.3368 27.8575C64.9368 28.8975 64.2835 29.8441 63.3768 30.6975C62.4702 31.5508 61.3768 32.4175 60.0968 33.2975C58.8435 34.1241 57.3635 34.8841 55.6568 35.5775C53.9768 36.2441 52.4168 36.5775 50.9768 36.5775C48.8168 36.5775 47.3768 35.7241 46.6568 34.0175C46.2302 33.0575 46.0168 31.8441 46.0168 30.3775C46.0168 28.5375 46.3102 26.6441 46.8968 24.6975C47.5102 22.7241 48.3368 20.3908 49.3768 17.6975C50.4168 15.0575 51.6568 12.5508 53.0968 10.1775C54.5368 7.77747 56.1235 6.57748 57.8568 6.57748C58.3102 6.57748 58.7235 6.67081 59.0968 6.85747C59.3902 4.83081 60.0702 3.33747 61.1368 2.37747C61.8035 1.81747 62.3768 1.53748 62.8568 1.53748C63.4168 1.53748 63.8435 1.87081 64.1368 2.53747C64.3235 3.01747 64.4168 3.63081 64.4168 4.37747C64.4168 4.75081 64.3902 5.25747 64.3368 5.89747L64.2968 7.09748C64.2435 9.04414 64.1235 10.9908 63.9368 12.9375C63.7768 14.6975 63.3902 16.3775 62.7768 17.9775C62.1635 19.5775 61.1902 20.4441 59.8568 20.5775C59.1902 20.6575 58.6435 20.3108 58.2168 19.5375C57.8168 18.7641 57.3902 17.6308 56.9368 16.1375C56.6435 15.1775 56.3902 14.4575 56.1768 13.9775C55.9902 13.4708 55.7768 13.0975 55.5368 12.8575C54.0168 15.5508 52.8968 18.4975 52.1768 21.6975L51.9768 22.4975C51.7635 23.4575 51.5902 24.2575 51.4568 24.8975C51.3502 25.5108 51.2968 26.1241 51.2968 26.7375C51.2968 28.0975 51.6435 29.0308 52.3368 29.5375C52.8168 29.9375 53.4968 30.1375 54.3768 30.1375C54.9635 30.1375 55.6035 30.0441 56.2968 29.8575C56.9902 29.6975 57.7235 29.4441 58.4968 29.0975C58.7368 28.9908 59.0968 28.8041 59.5768 28.5375C59.7902 28.5108 59.8968 28.4308 59.8968 28.2975C59.8968 28.1908 59.8302 28.0841 59.6968 27.9775C59.7502 27.7375 59.8035 27.4041 59.8568 26.9775C59.9102 26.5775 59.9768 26.2441 60.0568 25.9775C60.1368 25.7108 60.2702 25.4308 60.4568 25.1375C61.1502 24.1241 61.8835 23.4441 62.6568 23.0975Z" fill="#111111"/>
<path d="M43.3981 30.0974C43.7981 30.2308 43.9981 30.4708 43.9981 30.8174C43.9981 31.2441 43.7448 31.7108 43.2381 32.2174C42.6781 32.7774 41.9581 33.0574 41.0781 33.0574C40.6515 33.0574 40.2915 33.0041 39.9981 32.8974C38.5848 32.4441 37.3048 32.2174 36.1581 32.2174C34.1581 32.2174 32.1181 32.8574 30.0381 34.1374C29.6915 34.3774 29.2648 34.5774 28.7581 34.7374C28.2781 34.8708 27.8248 34.9374 27.3981 34.9374C26.9981 34.9374 26.6781 34.8708 26.4381 34.7374C26.1981 34.5774 26.0781 34.3374 26.0781 34.0174C26.0781 33.8308 26.1048 33.6708 26.1581 33.5374C26.9315 31.3774 27.5448 29.4308 27.9981 27.6974C28.4781 25.9641 28.7981 24.2041 28.9581 22.4174C29.1981 20.0174 29.3181 18.2574 29.3181 17.1374C29.3181 14.1774 28.7448 11.9108 27.5981 10.3374C27.4648 10.1774 27.3981 9.9641 27.3981 9.69744C27.3981 9.1641 27.7715 8.67077 28.5181 8.21744C29.2648 7.73744 29.9981 7.49744 30.7181 7.49744C31.1981 7.49744 31.5448 7.6041 31.7581 7.81744C32.1048 7.95077 32.3315 8.1641 32.4381 8.45744C33.1048 10.2174 34.0248 11.7108 35.1981 12.9374C36.3715 14.1374 37.7581 14.7374 39.3581 14.7374C39.6515 14.7374 40.0915 14.6841 40.6781 14.5774C41.0515 14.5241 41.2915 14.4974 41.3981 14.4974C41.8515 14.4974 42.1848 14.6041 42.3981 14.8174C42.6381 15.0041 42.7581 15.2708 42.7581 15.6174C42.7581 15.9908 42.5981 16.3641 42.2781 16.7374C41.9848 17.1108 41.5848 17.3774 41.0781 17.5374C39.9848 17.9108 38.8915 18.0974 37.7981 18.0974C36.4915 18.0974 35.2381 17.8308 34.0381 17.2974C33.9848 18.7908 33.9181 19.9108 33.8381 20.6574L33.5581 23.1774C34.5981 22.9908 35.6381 22.8308 36.6781 22.6974L37.2381 22.6574C38.3048 22.6574 38.8381 23.0174 38.8381 23.7374C38.8381 24.2174 38.5715 24.6441 38.0381 25.0174C37.5048 25.3908 36.9581 25.6308 36.3981 25.7374C35.5715 25.8974 34.4381 26.0708 32.9981 26.2574C32.7048 27.5641 32.3848 28.7908 32.0381 29.9374C33.7981 29.2974 35.5848 28.9774 37.3981 28.9774C39.3981 28.9774 41.3981 29.3508 43.3981 30.0974Z" fill="#111111"/>
<path d="M22.4266 18.1775C22.5332 17.6441 22.9332 17.1908 23.6266 16.8175C24.3466 16.4441 25.0532 16.2575 25.7466 16.2575C26.6532 16.2575 27.0532 16.6041 26.9466 17.2975L26.7866 18.2175C26.3866 20.4841 25.9732 22.4041 25.5466 23.9775C25.1466 25.5241 24.5199 27.0308 23.6666 28.4975C22.8399 29.9641 21.7466 31.1241 20.3866 31.9775C18.6266 33.0975 16.8266 33.6575 14.9866 33.6575C13.8932 33.6575 12.8666 33.4308 11.9066 32.9775C10.9732 32.5241 10.1866 31.8175 9.54658 30.8575C8.42658 29.2041 7.86658 27.3108 7.86658 25.1775C7.86658 22.2975 8.89324 18.9641 10.9466 15.1775C11.6399 13.8708 12.3599 12.8308 13.1066 12.0575C13.8799 11.2841 14.8399 10.8175 15.9866 10.6575C16.0932 10.6308 16.2399 10.6175 16.4266 10.6175C16.8532 10.6175 17.2266 10.6975 17.5466 10.8575C18.3466 9.09748 18.9599 7.77748 19.3866 6.89748C19.5732 6.49748 20.0132 6.15081 20.7066 5.85748C21.4266 5.56415 22.0932 5.41748 22.7066 5.41748C23.5066 5.41748 23.9066 5.67081 23.9066 6.17748C23.9066 6.28415 23.8666 6.44415 23.7866 6.65748C21.9466 11.1375 20.4532 14.6175 19.3066 17.0975C19.1199 17.5241 18.6799 17.8841 17.9866 18.1775C17.3199 18.4708 16.6666 18.6175 16.0266 18.6175C15.5999 18.6175 15.2532 18.5508 14.9866 18.4175C14.7199 18.2841 14.5866 18.0708 14.5866 17.7775C14.5866 17.5908 14.6399 17.3908 14.7466 17.1775L15.3466 15.8175C15.2132 15.7908 15.0932 15.7241 14.9866 15.6175L14.1866 17.4975C13.4399 19.1241 12.9466 20.7508 12.7066 22.3775C12.6266 22.8841 12.5866 23.4041 12.5866 23.9375C12.5866 25.0841 12.7599 26.1641 13.1066 27.1775C13.4532 28.1908 13.9999 29.0041 14.7466 29.6175C15.3599 30.1508 15.9599 30.4175 16.5466 30.4175C18.8932 30.4175 20.8532 26.3375 22.4266 18.1775Z" fill="#111111"/>
<path d="M2.84 6.77745C2.38667 6.45745 2.16 5.95078 2.16 5.25745C2.16 5.12412 2.18667 4.89745 2.24 4.57745C2.42667 3.77745 2.78667 3.03079 3.32 2.33745C3.88 1.61745 4.52 1.04412 5.24 0.617453C5.8 0.297452 6.36 0.137451 6.92 0.137451C7.50667 0.137451 7.96 0.337452 8.28 0.737452C8.52 1.05745 8.64 1.44412 8.64 1.89745C8.64 2.29745 8.52 2.80412 8.28 3.41745C8.01333 4.16412 7.6 4.84412 7.04 5.45745C6.50667 6.07079 5.89333 6.53745 5.2 6.85745C4.64 7.12412 4.14667 7.21745 3.72 7.13745C3.32 7.08412 3.02667 6.96412 2.84 6.77745ZM6.24 29.8575C6.24 30.0441 6.2 30.2575 6.12 30.4975C6.06667 30.7375 6.02667 30.9108 6 31.0175L5.92 31.2575C5.65333 32.2441 5.17333 33.1775 4.48 34.0575C3.78667 34.9375 2.92 35.3775 1.88 35.3775C1.77333 35.3775 1.69333 35.3641 1.64 35.3375C1.21333 35.2841 0.866667 35.1241 0.6 34.8575C0.2 34.3775 0 33.6308 0 32.6175C0 32.2441 0.0266667 31.8175 0.08 31.3375C0.0533333 31.2575 0.0533333 31.1775 0.08 31.0975C0.08 30.9908 0.08 30.9241 0.08 30.8975C0.16 29.0041 0.44 26.4308 0.92 23.1775L1.08 21.9375C1.34667 20.1241 1.52 18.7641 1.6 17.8575L1.76 16.0575C1.76 15.8708 1.77333 15.7241 1.8 15.6175C1.85333 15.2441 1.86667 15.0041 1.84 14.8975C1.81333 14.8708 1.8 14.8441 1.8 14.8175C1.8 14.7641 1.78667 14.7241 1.76 14.6975C1.6 14.4841 1.52 14.2041 1.52 13.8575C1.52 13.4308 1.56 13.0041 1.64 12.5775C1.66667 12.4975 1.68 12.3641 1.68 12.1775C1.86667 10.9508 2.38667 9.89745 3.24 9.01745C4.12 8.13745 4.94667 7.69745 5.72 7.69745C6.01333 7.69745 6.29333 7.76412 6.56 7.89745C7.22667 8.24412 7.56 8.97745 7.56 10.0975C7.50667 10.8441 7.48 11.4041 7.48 11.7775L7.44 12.8175L7.32 15.0175C7.29333 16.4041 7.21333 17.8175 7.08 19.2575C7.05333 19.7908 6.89333 21.5508 6.6 24.5375L6.48 25.7775L6.4 26.5775L6.16 28.7775C6.13333 28.8841 6.12 28.9775 6.12 29.0575C6.14667 29.1108 6.16 29.1775 6.16 29.2575C6.21333 29.3908 6.22667 29.4975 6.2 29.5775L6.24 29.8575Z" fill="#111111"/>
</svg>
