<svg width="20" height="21" viewBox="0 0 20 21" fill="none" xmlns="http://www.w3.org/2000/svg">
<path d="M10 5.89001C10.55 5.89001 11 6.34001 11 6.89001V10.89C11 11.44 10.55 11.89 10 11.89C9.45 11.89 9 11.44 9 10.89V6.89001C9 6.34001 9.45 5.89001 10 5.89001ZM9.99 0.890015C4.47 0.890015 0 5.37001 0 10.89C0 16.41 4.47 20.89 9.99 20.89C15.52 20.89 20 16.41 20 10.89C20 5.37001 15.52 0.890015 9.99 0.890015ZM10 18.89C5.58 18.89 2 15.31 2 10.89C2 6.47001 5.58 2.89001 10 2.89001C14.42 2.89001 18 6.47001 18 10.89C18 15.31 14.42 18.89 10 18.89ZM11 15.89H9V13.89H11V15.89Z" fill="white"/>
</svg>
