<svg width="40" height="40" viewBox="0 0 40 40" fill="none" xmlns="http://www.w3.org/2000/svg">
<circle cx="20" cy="20" r="20" fill="white"/>
<circle cx="20" cy="20" r="19.5" stroke="black" stroke-opacity="0.3"/>
<path d="M28.7663 20.2143C28.7663 14.8669 24.6169 11.2338 20 11.2338C15.4318 11.2338 11.2338 14.789 11.2338 20.2727C10.6494 20.6039 10.2598 21.2273 10.2598 21.9481V23.8961C10.2598 24.9675 11.1364 25.8442 12.2078 25.8442H13.1818V19.9026C13.1818 16.1331 16.2305 13.0844 20 13.0844C23.7695 13.0844 26.8182 16.1331 26.8182 19.9026V26.8182H19.026V28.7662H26.8182C27.8896 28.7662 28.7663 27.8896 28.7663 26.8182V25.6299C29.3409 25.3279 29.7403 24.7338 29.7403 24.0325V21.7922C29.7403 21.1104 29.3409 20.5162 28.7663 20.2143Z" fill="black"/>
<path d="M17.0779 21.9481C17.6159 21.9481 18.052 21.512 18.052 20.974C18.052 20.4361 17.6159 20 17.0779 20C16.54 20 16.1039 20.4361 16.1039 20.974C16.1039 21.512 16.54 21.9481 17.0779 21.9481Z" fill="black"/>
<path d="M22.9221 21.9481C23.46 21.9481 23.8961 21.512 23.8961 20.974C23.8961 20.4361 23.46 20 22.9221 20C22.3842 20 21.9481 20.4361 21.9481 20.974C21.9481 21.512 22.3842 21.9481 22.9221 21.9481Z" fill="black"/>
<path d="M25.8442 19.0552C25.3767 16.2792 22.9611 14.1558 20.0487 14.1558C17.0974 14.1558 13.9221 16.6006 14.1754 20.4383C16.5812 19.4545 18.3929 17.3117 18.9091 14.7013C20.1851 17.263 22.8052 19.026 25.8442 19.0552Z" fill="black"/>
</svg>
