<svg width="52" height="52" viewBox="0 0 52 52" fill="none" xmlns="http://www.w3.org/2000/svg">
<circle cx="26" cy="26" r="26" fill="#FEE500"/>
<path d="M26.0752 12.5483C17.986 12.5483 11.4625 17.7671 11.4625 24.1027C11.4625 28.2151 14.1763 31.8161 18.247 33.8723L16.8692 39.0181C16.8432 39.0952 16.8392 39.178 16.8577 39.2572C16.8761 39.3365 16.9162 39.4091 16.9736 39.4668C17.0572 39.5406 17.1648 39.5814 17.2763 39.5816C17.3687 39.5742 17.4564 39.5377 17.5268 39.4773L23.4553 35.4797C24.3305 35.6005 25.2126 35.6632 26.096 35.6675C34.1747 35.6675 40.7087 30.4488 40.7087 24.1027C40.7087 17.7566 34.1539 12.5483 26.0752 12.5483Z" fill="#392020"/>
<path d="M16.5765 22.276H14.9796C14.7816 22.2817 14.5861 22.231 14.4159 22.1299C14.3404 22.0825 14.2754 22.02 14.2251 21.9464C14.1748 21.8727 14.1403 21.7895 14.1237 21.7019C14.1186 21.6463 14.1186 21.5905 14.1237 21.535C14.1187 21.431 14.1389 21.3274 14.1825 21.2329C14.2261 21.1384 14.2919 21.0559 14.3742 20.9922C14.5561 20.8604 14.7758 20.7908 15.0004 20.7938H19.8122C20.0117 20.7868 20.2085 20.8415 20.3758 20.9504C20.4532 20.9957 20.5195 21.0576 20.57 21.1316C20.6206 21.2056 20.654 21.2899 20.6681 21.3784C20.6731 21.4304 20.6731 21.4829 20.6681 21.535C20.673 21.6404 20.6528 21.7455 20.6093 21.8416C20.5658 21.9378 20.5 22.0222 20.4176 22.0881C20.24 22.2197 20.0225 22.2861 19.8017 22.276H18.257V27.7662C18.2632 27.8832 18.2451 28.0001 18.2038 28.1097C18.1625 28.2193 18.0988 28.3192 18.0169 28.4029C17.9383 28.4829 17.8439 28.5456 17.7396 28.587C17.6354 28.6283 17.5236 28.6474 17.4115 28.6429C17.2155 28.6485 17.0236 28.5859 16.8688 28.4656C16.7213 28.348 16.6213 28.1812 16.587 27.9958C16.5766 27.9196 16.5766 27.8424 16.587 27.7662L16.5765 22.276Z" fill="#FEE500"/>
<path d="M21.1288 21.201C21.1747 21.0292 21.2825 20.8805 21.4314 20.7834C21.5902 20.6935 21.771 20.6501 21.9533 20.6582H22.3499C22.5434 20.6513 22.7349 20.6982 22.9031 20.7939C23.0814 20.9138 23.2081 21.0963 23.258 21.3053L25.3455 27.2026C25.3997 27.3564 25.445 27.5133 25.4812 27.6724C25.4848 27.7384 25.4848 27.8046 25.4812 27.8706C25.4848 27.9723 25.466 28.0736 25.4264 28.1674C25.3867 28.2611 25.3271 28.3451 25.2516 28.4134C25.1785 28.4883 25.0907 28.5474 24.9937 28.5869C24.8967 28.6264 24.7927 28.6455 24.688 28.643C24.527 28.659 24.3653 28.6204 24.229 28.5333C24.0926 28.4462 23.9896 28.3157 23.9365 28.1629L23.4981 26.8791H20.753L20.3146 28.1629C20.2628 28.3187 20.1585 28.4517 20.0195 28.5393C19.8806 28.6268 19.7156 28.6635 19.5527 28.643C19.3762 28.6476 19.2033 28.5924 19.0621 28.4864C18.9245 28.377 18.8317 28.2212 18.8012 28.0481C18.7956 27.9891 18.7956 27.9296 18.8012 27.8706C18.7832 27.767 18.7832 27.6612 18.8012 27.5576C18.8012 27.4427 18.8742 27.3174 18.916 27.2026L21.1288 21.201ZM22.1725 22.5684L21.1809 25.6996H23.1536L22.1725 22.5684Z" fill="#FEE500"/>
<path d="M25.7203 21.5352C25.7097 21.301 25.7922 21.0721 25.9499 20.8985C26.03 20.8177 26.1263 20.7545 26.2323 20.7131C26.3384 20.6718 26.452 20.6531 26.5657 20.6583C26.7612 20.6561 26.952 20.7185 27.1085 20.8358C27.2534 20.9583 27.3497 21.1286 27.3798 21.3159C27.3901 21.3886 27.3901 21.4625 27.3798 21.5352V27.0254H30.2502C30.4491 27.0228 30.6447 27.077 30.8138 27.1818C30.8898 27.2287 30.9551 27.2911 31.0055 27.3648C31.0558 27.4385 31.0901 27.522 31.1061 27.6098C31.1061 27.6098 31.1061 27.7142 31.1061 27.7664C31.111 27.8704 31.0909 27.9739 31.0472 28.0684C31.0036 28.1629 30.9379 28.2455 30.8556 28.3092C30.6736 28.441 30.454 28.5105 30.2293 28.5074H26.7014C26.4767 28.5219 26.2534 28.4634 26.0647 28.3405C25.8959 28.2143 25.7835 28.0269 25.7516 27.8187C25.7439 27.704 25.7439 27.5888 25.7516 27.4741L25.7203 21.5352Z" fill="#FEE500"/>
<path d="M31.2941 21.5352C31.2879 21.3016 31.3699 21.0743 31.5237 20.8985C31.6802 20.7564 31.8808 20.6724 32.0919 20.661C32.3029 20.6496 32.5115 20.7114 32.6823 20.8358C32.8305 20.9572 32.9304 21.1274 32.9641 21.3159C32.9693 21.3889 32.9693 21.4622 32.9641 21.5352V24.0923L35.6048 21.0445C35.7066 20.9405 35.8147 20.843 35.9284 20.7524C36.0356 20.6885 36.1585 20.6559 36.2833 20.6583C36.4657 20.6573 36.6441 20.712 36.7947 20.8149C36.8657 20.8627 36.9263 20.9244 36.9729 20.9961C37.0196 21.0678 37.0512 21.1482 37.0661 21.2325C37.0703 21.2531 37.0703 21.2745 37.0661 21.2951C37.061 21.3192 37.061 21.3441 37.0661 21.3681C37.0657 21.478 37.037 21.5859 36.9826 21.6813C36.9272 21.7824 36.8607 21.8768 36.7843 21.963L35.0517 23.8627L37.1392 27.0984V27.2027C37.2476 27.3523 37.3321 27.5179 37.3897 27.6934V27.7455C37.4017 27.8664 37.3843 27.9885 37.3389 28.1012C37.2934 28.214 37.2213 28.3139 37.1287 28.3926C36.9546 28.5242 36.7416 28.5941 36.5234 28.591C36.3783 28.597 36.2343 28.5645 36.1059 28.497C35.9668 28.4038 35.8523 28.2785 35.7718 28.1317L33.8305 25.0004L32.9015 25.9712V27.7142C32.9078 27.9477 32.8258 28.175 32.6719 28.3508C32.5894 28.4315 32.4913 28.4944 32.3836 28.5357C32.2759 28.577 32.1609 28.5958 32.0456 28.591C31.853 28.595 31.665 28.5323 31.5133 28.4135C31.3659 28.296 31.2658 28.1293 31.2315 27.9439C31.2212 27.8677 31.2212 27.7904 31.2315 27.7142L31.2941 21.5352Z" fill="#FEE500"/>
</svg>
