<svg width="52" height="52" viewBox="0 0 52 52" fill="none" xmlns="http://www.w3.org/2000/svg">
<circle cx="26" cy="26" r="26" fill="#F0F0F0"/>
<g clip-path="url(#clip0_361_1141)">
<path d="M42.6024 26.7556C42.6024 25.6016 42.5109 24.4413 42.3158 23.306H26.6641V29.8435H35.6271C35.2551 31.952 33.7268 34.0745 31.9768 35.2597L32.3102 39.2443L37.2896 39.2443C40.4297 36.2874 42.6024 31.9208 42.6024 26.7556Z" fill="#4285F4"/>
<path d="M26.2596 43.2289C30.7475 43.2289 34.5321 41.7739 37.2897 39.2624L31.9769 35.2597C30.485 36.2619 28.5097 36.7268 26.2657 36.7268C21.9247 36.7268 18.0233 33.8349 16.7027 29.947H11.3899V34.1791C14.2147 39.7273 19.9681 43.2289 26.2596 43.2289Z" fill="#34A853"/>
<path d="M16.7027 29.9469C15.9415 27.9264 16.2735 25.3265 17.0347 23.3059L17.3668 19.3214L11.3899 18.9893C8.81253 23.5864 8.75329 29.3344 11.3307 33.9315L16.7027 29.9469Z" fill="#FBBC04"/>
<path d="M26.5799 16.5238C29.0034 16.4876 31.3456 17.3685 33.1007 18.9856L37.9537 14.2972C34.8808 11.5095 30.8022 9.97688 26.5799 10.0252C20.1529 10.0252 14.2755 13.4381 11.3899 18.9893L17.0362 23.306C18.3791 19.4141 22.1454 16.5238 26.5799 16.5238Z" fill="#EA4335"/>
</g>
<defs>
<clipPath id="clip0_361_1141">
<rect width="33.2048" height="33.2048" fill="white" transform="translate(9.39758 10.024)"/>
</clipPath>
</defs>
</svg>
