<svg width="1166" height="1002" viewBox="0 0 1166 1002" fill="none" xmlns="http://www.w3.org/2000/svg">
<path d="M1166 0.269989H0V1001.27H1166V0.269989Z" fill="white"/>
<path d="M1166 0.269989H0V1001.27H1166V0.269989Z" fill="black"/>
<path d="M385 40.27H41C36.5817 40.27 33 43.8517 33 48.27V332.27C33 336.688 36.5817 340.27 41 340.27H385C389.418 340.27 393 336.688 393 332.27V48.27C393 43.8517 389.418 40.27 385 40.27Z" fill="white"/>
<path d="M130 291.27H56C51.5817 291.27 48 294.852 48 299.27V317.27C48 321.688 51.5817 325.27 56 325.27H130C134.418 325.27 138 321.688 138 317.27V299.27C138 294.852 134.418 291.27 130 291.27Z" fill="black"/>
<path d="M68.0601 302.96V314.27H66.6401V304.43H66.5801L63.8301 306.26V304.84L66.6401 302.97H68.0601V302.96Z" fill="white"/>
<path d="M93.2298 310.25V315.67H91.4798V311.67H83.5898V310.25H93.2298ZM93.2298 301.57V309.63H91.4798V301.57H93.2298ZM84.0498 302.32V307.32C85.9698 307.29 88.0198 307.12 90.1598 306.71L90.3798 308.12C87.9398 308.6 85.6598 308.76 83.4998 308.76H82.2998V302.32H84.0498ZM97.6298 302.94V310.71C99.0098 310.69 100.29 310.59 101.72 310.29L101.97 311.76C100.17 312.15 98.6298 312.21 96.8498 312.21H95.8998V302.94H97.6298ZM107.48 301.54V315.66H105.82V301.54H107.48ZM104.45 301.83V314.99H102.81V307.51H99.8598V306.1H102.81V301.83H104.45ZM120.89 301.55V309.55H119.14V301.55H120.89ZM120.89 310.24V315.49H111.51V310.24H120.89ZM113.23 311.61V314.08H119.18V311.61H113.23ZM113.19 302.22C115.36 302.22 116.99 303.6 116.99 305.6C116.99 307.6 115.37 308.94 113.19 308.94C111.01 308.94 109.38 307.53 109.38 305.6C109.38 303.67 111 302.22 113.19 302.22ZM113.19 303.69C111.96 303.69 111.06 304.42 111.08 305.6C111.06 306.74 111.96 307.48 113.19 307.48C114.42 307.48 115.28 306.75 115.28 305.6C115.28 304.45 114.4 303.69 113.19 303.69Z" fill="white"/>
<path d="M755 40.27H411C406.582 40.27 403 43.8517 403 48.27V332.27C403 336.688 406.582 340.27 411 340.27H755C759.418 340.27 763 336.688 763 332.27V48.27C763 43.8517 759.418 40.27 755 40.27Z" fill="white"/>
<path d="M501 291.27H425C420.582 291.27 417 294.852 417 299.27V317.27C417 321.688 420.582 325.27 425 325.27H501C505.418 325.27 509 321.688 509 317.27V299.27C509 294.852 505.418 291.27 501 291.27Z" fill="black"/>
<path d="M433.06 314.27V313.24L436.91 309.18C438.25 307.76 438.89 306.99 438.89 305.95C438.89 304.79 437.91 304.03 436.64 304.03C435.3 304.03 434.44 304.89 434.44 306.15H433.11C433.09 304.15 434.64 302.81 436.69 302.81C438.74 302.81 440.2 304.19 440.2 305.95C440.2 307.22 439.61 308.2 437.61 310.26L435.02 312.93V313.02H440.41V314.27H433.06Z" fill="white"/>
<path d="M464.23 310.25V315.67H462.48V311.67H454.59V310.25H464.23ZM464.23 301.57V309.63H462.48V301.57H464.23ZM455.05 302.32V307.32C456.97 307.29 459.02 307.12 461.16 306.71L461.38 308.12C458.94 308.6 456.66 308.76 454.5 308.76H453.3V302.32H455.05ZM468.62 302.94V310.71C470.01 310.69 471.28 310.59 472.72 310.29L472.97 311.76C471.17 312.15 469.62 312.21 467.84 312.21H466.89V302.94H468.62ZM478.48 301.54V315.66H476.83V301.54H478.48ZM475.45 301.83V314.99H473.81V307.51H470.86V306.1H473.81V301.83H475.45ZM491.89 301.55V309.55H490.14V301.55H491.89ZM491.89 310.24V315.49H482.52V310.24H491.89ZM484.23 311.61V314.08H490.19V311.61H484.23ZM484.19 302.22C486.36 302.22 487.98 303.6 487.98 305.6C487.98 307.6 486.36 308.94 484.19 308.94C482.02 308.94 480.38 307.53 480.38 305.6C480.38 303.67 482 302.22 484.19 302.22ZM484.19 303.69C482.95 303.69 482.06 304.42 482.08 305.6C482.06 306.74 482.95 307.48 484.19 307.48C485.43 307.48 486.28 306.75 486.28 305.6C486.28 304.45 485.41 303.69 484.19 303.69Z" fill="white"/>
<path d="M1125 40.27H781C776.582 40.27 773 43.8517 773 48.27V332.27C773 336.688 776.582 340.27 781 340.27H1125C1129.42 340.27 1133 336.688 1133 332.27V48.27C1133 43.8517 1129.42 40.27 1125 40.27Z" fill="white"/>
<path d="M1125 40.27H781C776.582 40.27 773 43.8517 773 48.27V332.27C773 336.688 776.582 340.27 781 340.27H1125C1129.42 340.27 1133 336.688 1133 332.27V48.27C1133 43.8517 1129.42 40.27 1125 40.27Z" fill="white"/>
<path d="M870 291.27H796C791.582 291.27 788 294.852 788 299.27V317.27C788 321.688 791.582 325.27 796 325.27H870C874.418 325.27 878 321.688 878 317.27V299.27C878 294.852 874.418 291.27 870 291.27Z" fill="black"/>
<path d="M808.06 302.94V314.27H806.65V304.41H806.58L803.83 306.23V304.82L806.65 302.93H808.06V302.94Z" fill="white"/>
<path d="M833.22 310.24V315.68H831.5V311.68H823.59V310.24H833.22ZM822.31 308.77V302.34H824.04V307.33C825.96 307.28 828.02 307.12 830.15 306.69L830.38 308.13C827.93 308.59 825.66 308.75 823.5 308.77H822.31ZM831.5 309.63V301.57H833.22V309.63H831.5ZM837.64 302.94V310.72C839.02 310.69 840.28 310.59 841.71 310.3L841.96 311.74C840.17 312.14 838.64 312.2 836.84 312.22H835.88V302.94H837.64ZM839.85 307.52V306.11H842.8V301.82H844.46V315H842.8V307.51H839.85V307.52ZM845.84 315.65V301.54H847.47V315.65H845.84ZM860.88 301.57V309.57H859.15V301.57H860.88ZM849.39 305.6C849.38 303.6 851.01 302.22 853.2 302.24C855.36 302.22 856.99 303.6 856.98 305.6C856.99 307.55 855.36 308.94 853.2 308.96C851.01 308.94 849.38 307.55 849.39 305.6ZM851.09 305.6C851.07 306.74 851.95 307.49 853.2 307.49C854.45 307.49 855.28 306.74 855.28 305.6C855.28 304.46 854.4 303.7 853.2 303.71C851.95 303.69 851.07 304.43 851.09 305.6ZM851.5 315.49V310.24H860.88V315.49H851.5ZM853.23 314.08H859.18V311.62H853.23V314.08Z" fill="white"/>
<path d="M1125 40.27H781C776.582 40.27 773 43.8517 773 48.27V332.27C773 336.688 776.582 340.27 781 340.27H1125C1129.42 340.27 1133 336.688 1133 332.27V48.27C1133 43.8517 1129.42 40.27 1125 40.27Z" fill="black"/>
<path d="M953 231.27C975.644 231.27 994 212.914 994 190.27C994 167.626 975.644 149.27 953 149.27C930.356 149.27 912 167.626 912 190.27C912 212.914 930.356 231.27 953 231.27Z" fill="#5C5BAD"/>
<path d="M944.61 200.21L935.44 191.3C934.41 190.31 932.79 190.31 931.77 191.3C930.74 192.29 930.74 193.87 931.77 194.86L942.75 205.52C943.77 206.51 945.42 206.51 946.45 205.52L974.23 178.57C975.26 177.58 975.26 176 974.23 175.01C973.21 174.02 971.59 174.02 970.56 175.01L944.61 200.2V200.21Z" fill="white"/>
<path d="M385 350.27H41C36.5817 350.27 33 353.852 33 358.27V642.27C33 646.688 36.5817 650.27 41 650.27H385C389.418 650.27 393 646.688 393 642.27V358.27C393 353.852 389.418 350.27 385 350.27Z" fill="white"/>
<path d="M131 601.27H55C50.5817 601.27 47 604.852 47 609.27V627.27C47 631.688 50.5817 635.27 55 635.27H131C135.418 635.27 139 631.688 139 627.27V609.27C139 604.852 135.418 601.27 131 601.27Z" fill="black"/>
<path d="M66.9703 624.43C64.7203 624.43 63.1103 623.23 63.0303 621.43H64.4503C64.5303 622.51 65.6103 623.18 66.9503 623.18C68.4303 623.18 69.5303 622.37 69.5303 621.2C69.5303 619.97 68.5503 619.09 66.7803 619.09H65.8603V617.86H66.7803C68.1603 617.86 69.1103 617.09 69.1103 615.92C69.1103 614.75 68.2803 614.03 67.0003 614.03C65.8003 614.03 64.6903 614.7 64.6203 615.81H63.2603C63.3403 614.01 64.9903 612.81 67.0103 612.81C69.1703 612.81 70.4803 614.22 70.4603 615.84C70.4803 617.12 69.7303 618.07 68.5403 618.4V618.48C70.0103 618.71 70.9203 619.76 70.9003 621.2C70.9203 623.06 69.2103 624.43 66.9603 624.43H66.9703Z" fill="white"/>
<path d="M94.2298 620.25V625.67H92.4798V621.67H84.5898V620.25H94.2298ZM94.2298 611.57V619.63H92.4798V611.57H94.2298ZM85.0498 612.32V617.32C86.9698 617.29 89.0198 617.12 91.1598 616.71L91.3798 618.12C88.9398 618.6 86.6598 618.76 84.4998 618.76H83.2998V612.32H85.0498ZM98.6298 612.94V620.71C100.01 620.69 101.29 620.59 102.72 620.29L102.97 621.76C101.17 622.15 99.6298 622.21 97.8498 622.21H96.8998V612.94H98.6298ZM108.48 611.54V625.66H106.82V611.54H108.48ZM105.45 611.83V624.99H103.81V617.51H100.86V616.1H103.81V611.83H105.45ZM121.89 611.55V619.55H120.14V611.55H121.89ZM121.89 620.24V625.49H112.51V620.24H121.89ZM114.23 621.61V624.08H120.18V621.61H114.23ZM114.19 612.22C116.36 612.22 117.99 613.6 117.99 615.6C117.99 617.6 116.37 618.94 114.19 618.94C112.01 618.94 110.38 617.53 110.38 615.6C110.38 613.67 112 612.22 114.19 612.22ZM114.19 613.69C112.96 613.69 112.06 614.42 112.08 615.6C112.06 616.74 112.96 617.48 114.19 617.48C115.42 617.48 116.28 616.75 116.28 615.6C116.28 614.45 115.4 613.69 114.19 613.69Z" fill="white"/>
<path d="M755 350.27H411C406.582 350.27 403 353.852 403 358.27V642.27C403 646.688 406.582 650.27 411 650.27H755C759.418 650.27 763 646.688 763 642.27V358.27C763 353.852 759.418 350.27 755 350.27Z" fill="white"/>
<path d="M501 601.27H425C420.582 601.27 417 604.852 417 609.27V627.27C417 631.688 420.582 635.27 425 635.27H501C505.418 635.27 509 631.688 509 627.27V609.27C509 604.852 505.418 601.27 501 601.27Z" fill="black"/>
<path d="M432.78 621.96V620.8L437.88 612.96H439.61V620.73H441.19V621.96H439.61V624.27H438.27V621.96H432.78ZM434.3 620.72H438.27V614.74H438.12L434.3 620.63V620.72Z" fill="white"/>
<path d="M464.23 620.25V625.67H462.48V621.67H454.59V620.25H464.23ZM464.23 611.57V619.63H462.48V611.57H464.23ZM455.05 612.32V617.32C456.97 617.29 459.02 617.12 461.16 616.71L461.38 618.12C458.94 618.6 456.66 618.76 454.5 618.76H453.3V612.32H455.05ZM468.62 612.94V620.71C470.01 620.69 471.28 620.59 472.72 620.29L472.97 621.76C471.17 622.15 469.62 622.21 467.84 622.21H466.89V612.94H468.62ZM478.48 611.54V625.66H476.83V611.54H478.48ZM475.45 611.83V624.99H473.81V617.51H470.86V616.1H473.81V611.83H475.45ZM491.89 611.55V619.55H490.14V611.55H491.89ZM491.89 620.24V625.49H482.52V620.24H491.89ZM484.23 621.61V624.08H490.19V621.61H484.23ZM484.19 612.22C486.36 612.22 487.98 613.6 487.98 615.6C487.98 617.6 486.36 618.94 484.19 618.94C482.02 618.94 480.38 617.53 480.38 615.6C480.38 613.67 482 612.22 484.19 612.22ZM484.19 613.69C482.95 613.69 482.06 614.42 482.08 615.6C482.06 616.74 482.95 617.48 484.19 617.48C485.43 617.48 486.28 616.75 486.28 615.6C486.28 614.45 485.41 613.69 484.19 613.69Z" fill="white"/>
<path d="M1125 350.27H781C776.582 350.27 773 353.852 773 358.27V642.27C773 646.688 776.582 650.27 781 650.27H1125C1129.42 650.27 1133 646.688 1133 642.27V358.27C1133 353.852 1129.42 350.27 1125 350.27Z" fill="white"/>
<path d="M871 601.27H795C790.582 601.27 787 604.852 787 609.27V627.27C787 631.688 790.582 635.27 795 635.27H871C875.418 635.27 879 631.688 879 627.27V609.27C879 604.852 875.418 601.27 871 601.27Z" fill="black"/>
<path d="M806.75 624.43C804.7 624.43 803.16 623.16 803.08 621.43H804.44C804.55 622.45 805.53 623.2 806.75 623.2C808.22 623.2 809.28 622.12 809.28 620.7C809.28 619.28 808.17 618.15 806.66 618.14C805.7 618.12 804.97 618.42 804.55 619.16H803.19L803.98 612.97H810.11V614.22H805.16L804.73 617.53H804.84C805.34 617.14 806.11 616.87 806.91 616.87C809.06 616.87 810.66 618.46 810.66 620.67C810.66 622.88 809 624.44 806.75 624.44V624.43Z" fill="white"/>
<path d="M834.23 620.25V625.67H832.48V621.67H824.59V620.25H834.23ZM834.23 611.57V619.63H832.48V611.57H834.23ZM825.05 612.32V617.32C826.97 617.29 829.02 617.12 831.16 616.71L831.38 618.12C828.94 618.6 826.66 618.76 824.5 618.76H823.3V612.32H825.05ZM838.62 612.94V620.71C840.01 620.69 841.28 620.59 842.72 620.29L842.97 621.76C841.17 622.15 839.62 622.21 837.84 622.21H836.89V612.94H838.62ZM848.48 611.54V625.66H846.83V611.54H848.48ZM845.45 611.83V624.99H843.81V617.51H840.86V616.1H843.81V611.83H845.45ZM861.89 611.55V619.55H860.14V611.55H861.89ZM861.89 620.24V625.49H852.52V620.24H861.89ZM854.23 621.61V624.08H860.19V621.61H854.23ZM854.19 612.22C856.36 612.22 857.98 613.6 857.98 615.6C857.98 617.6 856.36 618.94 854.19 618.94C852.02 618.94 850.38 617.53 850.38 615.6C850.38 613.67 852 612.22 854.19 612.22ZM854.19 613.69C852.95 613.69 852.06 614.42 852.08 615.6C852.06 616.74 852.95 617.48 854.19 617.48C855.43 617.48 856.28 616.75 856.28 615.6C856.28 614.45 855.41 613.69 854.19 613.69Z" fill="white"/>
<path d="M385 660.27H41C36.5817 660.27 33 663.852 33 668.27V952.27C33 956.688 36.5817 960.27 41 960.27H385C389.418 960.27 393 956.688 393 952.27V668.27C393 663.852 389.418 660.27 385 660.27Z" fill="white"/>
<path d="M131 911.27H55C50.5817 911.27 47 914.852 47 919.27V937.27C47 941.688 50.5817 945.27 55 945.27H131C135.418 945.27 139 941.688 139 937.27V919.27C139 914.852 135.418 911.27 131 911.27Z" fill="black"/>
<path d="M66.9999 934.43C65.0299 934.39 62.8799 933.24 62.8799 929.05C62.8799 924.86 64.5199 922.8 67.1799 922.8C69.1599 922.8 70.5599 924.02 70.8499 925.8H69.4599C69.1899 924.8 68.4399 924.05 67.1799 924.05C65.3199 924.05 64.2099 925.65 64.2099 928.36H64.3499C65.0099 927.43 66.0399 926.86 67.2599 926.86C69.2799 926.86 70.9499 928.43 70.9499 930.61C70.9499 932.79 69.3899 934.44 67.0099 934.43H66.9999ZM66.9999 933.19C68.4699 933.19 69.5599 932.04 69.5799 930.63C69.5599 929.24 68.5199 928.1 67.0299 928.1C65.5399 928.1 64.4099 929.3 64.3899 930.65C64.3899 931.97 65.4799 933.19 66.9999 933.19Z" fill="white"/>
<path d="M94.2298 930.25V935.68H92.4798V931.68H84.5898V930.25H94.2298ZM94.2298 921.57V929.63H92.4798V921.57H94.2298ZM85.0498 922.32V927.32C86.9698 927.29 89.0198 927.12 91.1598 926.71L91.3798 928.11C88.9398 928.6 86.6598 928.75 84.4998 928.75H83.2998V922.32H85.0498ZM98.6298 922.94V930.71C100.01 930.69 101.29 930.59 102.72 930.29L102.97 931.75C101.17 932.15 99.6298 932.21 97.8498 932.21H96.8998V922.94H98.6298ZM108.48 921.54V935.66H106.82V921.54H108.48ZM105.45 921.83V934.99H103.81V927.5H100.86V926.1H103.81V921.83H105.45ZM121.89 921.55V929.55H120.14V921.55H121.89ZM121.89 930.24V935.49H112.51V930.24H121.89ZM114.23 931.61V934.08H120.18V931.61H114.23ZM114.19 922.22C116.36 922.22 117.99 923.6 117.99 925.6C117.99 927.6 116.37 928.94 114.19 928.94C112.01 928.94 110.38 927.54 110.38 925.6C110.38 923.66 112 922.22 114.19 922.22ZM114.19 923.69C112.96 923.69 112.06 924.43 112.08 925.6C112.06 926.74 112.96 927.47 114.19 927.47C115.42 927.47 116.28 926.74 116.28 925.6C116.28 924.46 115.4 923.69 114.19 923.69Z" fill="white"/>
<path d="M755 660.27H411C406.582 660.27 403 663.852 403 668.27V952.27C403 956.688 406.582 960.27 411 960.27H755C759.418 960.27 763 956.688 763 952.27V668.27C763 663.852 759.418 660.27 755 660.27Z" fill="white"/>
<path d="M500.5 911.27H425.5C421.082 911.27 417.5 914.852 417.5 919.27V937.27C417.5 941.688 421.082 945.27 425.5 945.27H500.5C504.918 945.27 508.5 941.688 508.5 937.27V919.27C508.5 914.852 504.918 911.27 500.5 911.27Z" fill="black"/>
<path d="M433.92 934.27L439.11 924.29V924.21H433.12V922.96H440.56V924.27L435.39 934.27H433.92Z" fill="white"/>
<path d="M463.73 930.25V935.68H461.98V931.68H454.09V930.25H463.73ZM463.73 921.57V929.63H461.98V921.57H463.73ZM454.55 922.32V927.32C456.47 927.29 458.52 927.12 460.66 926.71L460.88 928.11C458.44 928.6 456.16 928.75 454 928.75H452.8V922.32H454.55ZM468.12 922.94V930.71C469.51 930.69 470.78 930.59 472.22 930.29L472.47 931.75C470.67 932.15 469.12 932.21 467.34 932.21H466.39V922.94H468.12ZM477.98 921.54V935.66H476.33V921.54H477.98ZM474.95 921.83V934.99H473.31V927.5H470.36V926.1H473.31V921.83H474.95ZM491.39 921.55V929.55H489.64V921.55H491.39ZM491.39 930.24V935.49H482.02V930.24H491.39ZM483.73 931.61V934.08H489.69V931.61H483.73ZM483.69 922.22C485.86 922.22 487.48 923.6 487.48 925.6C487.48 927.6 485.86 928.94 483.69 928.94C481.52 928.94 479.88 927.54 479.88 925.6C479.88 923.66 481.5 922.22 483.69 922.22ZM483.69 923.69C482.45 923.69 481.56 924.43 481.58 925.6C481.56 926.74 482.45 927.47 483.69 927.47C484.93 927.47 485.78 926.74 485.78 925.6C485.78 924.46 484.91 923.69 483.69 923.69Z" fill="white"/>
<path d="M1125 660.27H781C776.582 660.27 773 663.852 773 668.27V952.27C773 956.688 776.582 960.27 781 960.27H1125C1129.42 960.27 1133 956.688 1133 952.27V668.27C1133 663.852 1129.42 660.27 1125 660.27Z" fill="white"/>
<path d="M871 911.27H795C790.582 911.27 787 914.852 787 919.27V937.27C787 941.688 790.582 945.27 795 945.27H871C875.418 945.27 879 941.688 879 937.27V919.27C879 914.852 875.418 911.27 871 911.27Z" fill="black"/>
<path d="M806.84 934.43C804.47 934.43 802.81 933.11 802.83 931.27C802.81 929.8 803.83 928.6 805.12 928.39V928.33C804 928.07 803.27 927.04 803.27 925.8C803.27 924.07 804.78 922.8 806.84 922.8C808.9 922.8 810.42 924.07 810.44 925.8C810.42 927.04 809.67 928.07 808.56 928.33V928.39C809.84 928.6 810.86 929.8 810.88 931.27C810.86 933.11 809.2 934.43 806.84 934.43ZM806.84 933.19C808.47 933.19 809.47 932.38 809.47 931.19C809.47 929.94 808.36 929.02 806.84 929.02C805.32 929.02 804.2 929.94 804.23 931.19C804.2 932.38 805.22 933.19 806.84 933.19ZM806.84 927.83C808.12 927.83 809.06 927.05 809.06 925.91C809.06 924.77 808.17 924.02 806.84 924.02C805.51 924.02 804.62 924.79 804.62 925.91C804.62 927.03 805.55 927.83 806.84 927.83Z" fill="white"/>
<path d="M834.23 930.25V935.68H832.48V931.68H824.59V930.25H834.23ZM834.23 921.57V929.63H832.48V921.57H834.23ZM825.05 922.32V927.32C826.97 927.29 829.02 927.12 831.16 926.71L831.38 928.11C828.94 928.6 826.66 928.75 824.5 928.75H823.3V922.32H825.05ZM838.62 922.94V930.71C840.01 930.69 841.28 930.59 842.72 930.29L842.97 931.75C841.17 932.15 839.62 932.21 837.84 932.21H836.89V922.94H838.62ZM848.48 921.54V935.66H846.83V921.54H848.48ZM845.45 921.83V934.99H843.81V927.5H840.86V926.1H843.81V921.83H845.45ZM861.89 921.55V929.55H860.14V921.55H861.89ZM861.89 930.24V935.49H852.52V930.24H861.89ZM854.23 931.61V934.08H860.19V931.61H854.23ZM854.19 922.22C856.36 922.22 857.98 923.6 857.98 925.6C857.98 927.6 856.36 928.94 854.19 928.94C852.02 928.94 850.38 927.54 850.38 925.6C850.38 923.66 852 922.22 854.19 922.22ZM854.19 923.69C852.95 923.69 852.06 924.43 852.08 925.6C852.06 926.74 852.95 927.47 854.19 927.47C855.43 927.47 856.28 926.74 856.28 925.6C856.28 924.46 855.41 923.69 854.19 923.69Z" fill="white"/>
<path d="M1166 0.269989H0V1001.27H1166V0.269989Z" fill="white"/>
<path d="M1166 0.269989H0V1001.27H1166V0.269989Z" fill="black"/>
<path d="M385 40.27H41C36.5817 40.27 33 43.8517 33 48.27V332.27C33 336.688 36.5817 340.27 41 340.27H385C389.418 340.27 393 336.688 393 332.27V48.27C393 43.8517 389.418 40.27 385 40.27Z" fill="white"/>
<path d="M130 291.27H56C51.5817 291.27 48 294.852 48 299.27V317.27C48 321.688 51.5817 325.27 56 325.27H130C134.418 325.27 138 321.688 138 317.27V299.27C138 294.852 134.418 291.27 130 291.27Z" fill="black"/>
<path d="M68.0601 302.96V314.27H66.6401V304.43H66.5801L63.8301 306.26V304.84L66.6401 302.97H68.0601V302.96Z" fill="white"/>
<path d="M93.2298 310.25V315.67H91.4798V311.67H83.5898V310.25H93.2298ZM93.2298 301.57V309.63H91.4798V301.57H93.2298ZM84.0498 302.32V307.32C85.9698 307.29 88.0198 307.12 90.1598 306.71L90.3798 308.12C87.9398 308.6 85.6598 308.76 83.4998 308.76H82.2998V302.32H84.0498ZM97.6298 302.94V310.71C99.0098 310.69 100.29 310.59 101.72 310.29L101.97 311.76C100.17 312.15 98.6298 312.21 96.8498 312.21H95.8998V302.94H97.6298ZM107.48 301.54V315.66H105.82V301.54H107.48ZM104.45 301.83V314.99H102.81V307.51H99.8598V306.1H102.81V301.83H104.45ZM120.89 301.55V309.55H119.14V301.55H120.89ZM120.89 310.24V315.49H111.51V310.24H120.89ZM113.23 311.61V314.08H119.18V311.61H113.23ZM113.19 302.22C115.36 302.22 116.99 303.6 116.99 305.6C116.99 307.6 115.37 308.94 113.19 308.94C111.01 308.94 109.38 307.53 109.38 305.6C109.38 303.67 111 302.22 113.19 302.22ZM113.19 303.69C111.96 303.69 111.06 304.42 111.08 305.6C111.06 306.74 111.96 307.48 113.19 307.48C114.42 307.48 115.28 306.75 115.28 305.6C115.28 304.45 114.4 303.69 113.19 303.69Z" fill="white"/>
<path d="M755 40.27H411C406.582 40.27 403 43.8517 403 48.27V332.27C403 336.688 406.582 340.27 411 340.27H755C759.418 340.27 763 336.688 763 332.27V48.27C763 43.8517 759.418 40.27 755 40.27Z" fill="white"/>
<path d="M501 291.27H425C420.582 291.27 417 294.852 417 299.27V317.27C417 321.688 420.582 325.27 425 325.27H501C505.418 325.27 509 321.688 509 317.27V299.27C509 294.852 505.418 291.27 501 291.27Z" fill="black"/>
<path d="M433.06 314.27V313.24L436.91 309.18C438.25 307.76 438.89 306.99 438.89 305.95C438.89 304.79 437.91 304.03 436.64 304.03C435.3 304.03 434.44 304.89 434.44 306.15H433.11C433.09 304.15 434.64 302.81 436.69 302.81C438.74 302.81 440.2 304.19 440.2 305.95C440.2 307.22 439.61 308.2 437.61 310.26L435.02 312.93V313.02H440.41V314.27H433.06Z" fill="white"/>
<path d="M464.23 310.25V315.67H462.48V311.67H454.59V310.25H464.23ZM464.23 301.57V309.63H462.48V301.57H464.23ZM455.05 302.32V307.32C456.97 307.29 459.02 307.12 461.16 306.71L461.38 308.12C458.94 308.6 456.66 308.76 454.5 308.76H453.3V302.32H455.05ZM468.62 302.94V310.71C470.01 310.69 471.28 310.59 472.72 310.29L472.97 311.76C471.17 312.15 469.62 312.21 467.84 312.21H466.89V302.94H468.62ZM478.48 301.54V315.66H476.83V301.54H478.48ZM475.45 301.83V314.99H473.81V307.51H470.86V306.1H473.81V301.83H475.45ZM491.89 301.55V309.55H490.14V301.55H491.89ZM491.89 310.24V315.49H482.52V310.24H491.89ZM484.23 311.61V314.08H490.19V311.61H484.23ZM484.19 302.22C486.36 302.22 487.98 303.6 487.98 305.6C487.98 307.6 486.36 308.94 484.19 308.94C482.02 308.94 480.38 307.53 480.38 305.6C480.38 303.67 482 302.22 484.19 302.22ZM484.19 303.69C482.95 303.69 482.06 304.42 482.08 305.6C482.06 306.74 482.95 307.48 484.19 307.48C485.43 307.48 486.28 306.75 486.28 305.6C486.28 304.45 485.41 303.69 484.19 303.69Z" fill="white"/>
<path d="M1125 40.27H781C776.582 40.27 773 43.8517 773 48.27V332.27C773 336.688 776.582 340.27 781 340.27H1125C1129.42 340.27 1133 336.688 1133 332.27V48.27C1133 43.8517 1129.42 40.27 1125 40.27Z" fill="white"/>
<path d="M1125 40.27H781C776.582 40.27 773 43.8517 773 48.27V332.27C773 336.688 776.582 340.27 781 340.27H1125C1129.42 340.27 1133 336.688 1133 332.27V48.27C1133 43.8517 1129.42 40.27 1125 40.27Z" fill="white"/>
<path d="M870 291.27H796C791.582 291.27 788 294.852 788 299.27V317.27C788 321.688 791.582 325.27 796 325.27H870C874.418 325.27 878 321.688 878 317.27V299.27C878 294.852 874.418 291.27 870 291.27Z" fill="black"/>
<path d="M808.06 302.94V314.27H806.65V304.41H806.58L803.83 306.23V304.82L806.65 302.93H808.06V302.94Z" fill="white"/>
<path d="M833.22 310.24V315.68H831.5V311.68H823.59V310.24H833.22ZM822.31 308.77V302.34H824.04V307.33C825.96 307.28 828.02 307.12 830.15 306.69L830.38 308.13C827.93 308.59 825.66 308.75 823.5 308.77H822.31ZM831.5 309.63V301.57H833.22V309.63H831.5ZM837.64 302.94V310.72C839.02 310.69 840.28 310.59 841.71 310.3L841.96 311.74C840.17 312.14 838.64 312.2 836.84 312.22H835.88V302.94H837.64ZM839.85 307.52V306.11H842.8V301.82H844.46V315H842.8V307.51H839.85V307.52ZM845.84 315.65V301.54H847.47V315.65H845.84ZM860.88 301.57V309.57H859.15V301.57H860.88ZM849.39 305.6C849.38 303.6 851.01 302.22 853.2 302.24C855.36 302.22 856.99 303.6 856.98 305.6C856.99 307.55 855.36 308.94 853.2 308.96C851.01 308.94 849.38 307.55 849.39 305.6ZM851.09 305.6C851.07 306.74 851.95 307.49 853.2 307.49C854.45 307.49 855.28 306.74 855.28 305.6C855.28 304.46 854.4 303.7 853.2 303.71C851.95 303.69 851.07 304.43 851.09 305.6ZM851.5 315.49V310.24H860.88V315.49H851.5ZM853.23 314.08H859.18V311.62H853.23V314.08Z" fill="white"/>
<path d="M1125 40.27H781C776.582 40.27 773 43.8517 773 48.27V332.27C773 336.688 776.582 340.27 781 340.27H1125C1129.42 340.27 1133 336.688 1133 332.27V48.27C1133 43.8517 1129.42 40.27 1125 40.27Z" fill="black"/>
<path d="M953 231.27C975.644 231.27 994 212.914 994 190.27C994 167.626 975.644 149.27 953 149.27C930.356 149.27 912 167.626 912 190.27C912 212.914 930.356 231.27 953 231.27Z" fill="#5C5BAD"/>
<path d="M944.61 200.21L935.44 191.3C934.41 190.31 932.79 190.31 931.77 191.3C930.74 192.29 930.74 193.87 931.77 194.86L942.75 205.52C943.77 206.51 945.42 206.51 946.45 205.52L974.23 178.57C975.26 177.58 975.26 176 974.23 175.01C973.21 174.02 971.59 174.02 970.56 175.01L944.61 200.2V200.21Z" fill="white"/>
<path d="M385 350.27H41C36.5817 350.27 33 353.852 33 358.27V642.27C33 646.688 36.5817 650.27 41 650.27H385C389.418 650.27 393 646.688 393 642.27V358.27C393 353.852 389.418 350.27 385 350.27Z" fill="white"/>
<path d="M131 601.27H55C50.5817 601.27 47 604.852 47 609.27V627.27C47 631.688 50.5817 635.27 55 635.27H131C135.418 635.27 139 631.688 139 627.27V609.27C139 604.852 135.418 601.27 131 601.27Z" fill="black"/>
<path d="M66.9703 624.43C64.7203 624.43 63.1103 623.23 63.0303 621.43H64.4503C64.5303 622.51 65.6103 623.18 66.9503 623.18C68.4303 623.18 69.5303 622.37 69.5303 621.2C69.5303 619.97 68.5503 619.09 66.7803 619.09H65.8603V617.86H66.7803C68.1603 617.86 69.1103 617.09 69.1103 615.92C69.1103 614.75 68.2803 614.03 67.0003 614.03C65.8003 614.03 64.6903 614.7 64.6203 615.81H63.2603C63.3403 614.01 64.9903 612.81 67.0103 612.81C69.1703 612.81 70.4803 614.22 70.4603 615.84C70.4803 617.12 69.7303 618.07 68.5403 618.4V618.48C70.0103 618.71 70.9203 619.76 70.9003 621.2C70.9203 623.06 69.2103 624.43 66.9603 624.43H66.9703Z" fill="white"/>
<path d="M94.2298 620.25V625.67H92.4798V621.67H84.5898V620.25H94.2298ZM94.2298 611.57V619.63H92.4798V611.57H94.2298ZM85.0498 612.32V617.32C86.9698 617.29 89.0198 617.12 91.1598 616.71L91.3798 618.12C88.9398 618.6 86.6598 618.76 84.4998 618.76H83.2998V612.32H85.0498ZM98.6298 612.94V620.71C100.01 620.69 101.29 620.59 102.72 620.29L102.97 621.76C101.17 622.15 99.6298 622.21 97.8498 622.21H96.8998V612.94H98.6298ZM108.48 611.54V625.66H106.82V611.54H108.48ZM105.45 611.83V624.99H103.81V617.51H100.86V616.1H103.81V611.83H105.45ZM121.89 611.55V619.55H120.14V611.55H121.89ZM121.89 620.24V625.49H112.51V620.24H121.89ZM114.23 621.61V624.08H120.18V621.61H114.23ZM114.19 612.22C116.36 612.22 117.99 613.6 117.99 615.6C117.99 617.6 116.37 618.94 114.19 618.94C112.01 618.94 110.38 617.53 110.38 615.6C110.38 613.67 112 612.22 114.19 612.22ZM114.19 613.69C112.96 613.69 112.06 614.42 112.08 615.6C112.06 616.74 112.96 617.48 114.19 617.48C115.42 617.48 116.28 616.75 116.28 615.6C116.28 614.45 115.4 613.69 114.19 613.69Z" fill="white"/>
<path d="M755 350.27H411C406.582 350.27 403 353.852 403 358.27V642.27C403 646.688 406.582 650.27 411 650.27H755C759.418 650.27 763 646.688 763 642.27V358.27C763 353.852 759.418 350.27 755 350.27Z" fill="white"/>
<path d="M501 601.27H425C420.582 601.27 417 604.852 417 609.27V627.27C417 631.688 420.582 635.27 425 635.27H501C505.418 635.27 509 631.688 509 627.27V609.27C509 604.852 505.418 601.27 501 601.27Z" fill="black"/>
<path d="M432.78 621.96V620.8L437.88 612.96H439.61V620.73H441.19V621.96H439.61V624.27H438.27V621.96H432.78ZM434.3 620.72H438.27V614.74H438.12L434.3 620.63V620.72Z" fill="white"/>
<path d="M464.23 620.25V625.67H462.48V621.67H454.59V620.25H464.23ZM464.23 611.57V619.63H462.48V611.57H464.23ZM455.05 612.32V617.32C456.97 617.29 459.02 617.12 461.16 616.71L461.38 618.12C458.94 618.6 456.66 618.76 454.5 618.76H453.3V612.32H455.05ZM468.62 612.94V620.71C470.01 620.69 471.28 620.59 472.72 620.29L472.97 621.76C471.17 622.15 469.62 622.21 467.84 622.21H466.89V612.94H468.62ZM478.48 611.54V625.66H476.83V611.54H478.48ZM475.45 611.83V624.99H473.81V617.51H470.86V616.1H473.81V611.83H475.45ZM491.89 611.55V619.55H490.14V611.55H491.89ZM491.89 620.24V625.49H482.52V620.24H491.89ZM484.23 621.61V624.08H490.19V621.61H484.23ZM484.19 612.22C486.36 612.22 487.98 613.6 487.98 615.6C487.98 617.6 486.36 618.94 484.19 618.94C482.02 618.94 480.38 617.53 480.38 615.6C480.38 613.67 482 612.22 484.19 612.22ZM484.19 613.69C482.95 613.69 482.06 614.42 482.08 615.6C482.06 616.74 482.95 617.48 484.19 617.48C485.43 617.48 486.28 616.75 486.28 615.6C486.28 614.45 485.41 613.69 484.19 613.69Z" fill="white"/>
<path d="M1125 350.27H781C776.582 350.27 773 353.852 773 358.27V642.27C773 646.688 776.582 650.27 781 650.27H1125C1129.42 650.27 1133 646.688 1133 642.27V358.27C1133 353.852 1129.42 350.27 1125 350.27Z" fill="white"/>
<path d="M871 601.27H795C790.582 601.27 787 604.852 787 609.27V627.27C787 631.688 790.582 635.27 795 635.27H871C875.418 635.27 879 631.688 879 627.27V609.27C879 604.852 875.418 601.27 871 601.27Z" fill="black"/>
<path d="M806.75 624.43C804.7 624.43 803.16 623.16 803.08 621.43H804.44C804.55 622.45 805.53 623.2 806.75 623.2C808.22 623.2 809.28 622.12 809.28 620.7C809.28 619.28 808.17 618.15 806.66 618.14C805.7 618.12 804.97 618.42 804.55 619.16H803.19L803.98 612.97H810.11V614.22H805.16L804.73 617.53H804.84C805.34 617.14 806.11 616.87 806.91 616.87C809.06 616.87 810.66 618.46 810.66 620.67C810.66 622.88 809 624.44 806.75 624.44V624.43Z" fill="white"/>
<path d="M834.23 620.25V625.67H832.48V621.67H824.59V620.25H834.23ZM834.23 611.57V619.63H832.48V611.57H834.23ZM825.05 612.32V617.32C826.97 617.29 829.02 617.12 831.16 616.71L831.38 618.12C828.94 618.6 826.66 618.76 824.5 618.76H823.3V612.32H825.05ZM838.62 612.94V620.71C840.01 620.69 841.28 620.59 842.72 620.29L842.97 621.76C841.17 622.15 839.62 622.21 837.84 622.21H836.89V612.94H838.62ZM848.48 611.54V625.66H846.83V611.54H848.48ZM845.45 611.83V624.99H843.81V617.51H840.86V616.1H843.81V611.83H845.45ZM861.89 611.55V619.55H860.14V611.55H861.89ZM861.89 620.24V625.49H852.52V620.24H861.89ZM854.23 621.61V624.08H860.19V621.61H854.23ZM854.19 612.22C856.36 612.22 857.98 613.6 857.98 615.6C857.98 617.6 856.36 618.94 854.19 618.94C852.02 618.94 850.38 617.53 850.38 615.6C850.38 613.67 852 612.22 854.19 612.22ZM854.19 613.69C852.95 613.69 852.06 614.42 852.08 615.6C852.06 616.74 852.95 617.48 854.19 617.48C855.43 617.48 856.28 616.75 856.28 615.6C856.28 614.45 855.41 613.69 854.19 613.69Z" fill="white"/>
<path d="M385 660.27H41C36.5817 660.27 33 663.852 33 668.27V952.27C33 956.688 36.5817 960.27 41 960.27H385C389.418 960.27 393 956.688 393 952.27V668.27C393 663.852 389.418 660.27 385 660.27Z" fill="white"/>
<path d="M131 911.27H55C50.5817 911.27 47 914.852 47 919.27V937.27C47 941.688 50.5817 945.27 55 945.27H131C135.418 945.27 139 941.688 139 937.27V919.27C139 914.852 135.418 911.27 131 911.27Z" fill="black"/>
<path d="M66.9999 934.43C65.0299 934.39 62.8799 933.24 62.8799 929.05C62.8799 924.86 64.5199 922.8 67.1799 922.8C69.1599 922.8 70.5599 924.02 70.8499 925.8H69.4599C69.1899 924.8 68.4399 924.05 67.1799 924.05C65.3199 924.05 64.2099 925.65 64.2099 928.36H64.3499C65.0099 927.43 66.0399 926.86 67.2599 926.86C69.2799 926.86 70.9499 928.43 70.9499 930.61C70.9499 932.79 69.3899 934.44 67.0099 934.43H66.9999ZM66.9999 933.19C68.4699 933.19 69.5599 932.04 69.5799 930.63C69.5599 929.24 68.5199 928.1 67.0299 928.1C65.5399 928.1 64.4099 929.3 64.3899 930.65C64.3899 931.97 65.4799 933.19 66.9999 933.19Z" fill="white"/>
<path d="M94.2298 930.25V935.68H92.4798V931.68H84.5898V930.25H94.2298ZM94.2298 921.57V929.63H92.4798V921.57H94.2298ZM85.0498 922.32V927.32C86.9698 927.29 89.0198 927.12 91.1598 926.71L91.3798 928.11C88.9398 928.6 86.6598 928.75 84.4998 928.75H83.2998V922.32H85.0498ZM98.6298 922.94V930.71C100.01 930.69 101.29 930.59 102.72 930.29L102.97 931.75C101.17 932.15 99.6298 932.21 97.8498 932.21H96.8998V922.94H98.6298ZM108.48 921.54V935.66H106.82V921.54H108.48ZM105.45 921.83V934.99H103.81V927.5H100.86V926.1H103.81V921.83H105.45ZM121.89 921.55V929.55H120.14V921.55H121.89ZM121.89 930.24V935.49H112.51V930.24H121.89ZM114.23 931.61V934.08H120.18V931.61H114.23ZM114.19 922.22C116.36 922.22 117.99 923.6 117.99 925.6C117.99 927.6 116.37 928.94 114.19 928.94C112.01 928.94 110.38 927.54 110.38 925.6C110.38 923.66 112 922.22 114.19 922.22ZM114.19 923.69C112.96 923.69 112.06 924.43 112.08 925.6C112.06 926.74 112.96 927.47 114.19 927.47C115.42 927.47 116.28 926.74 116.28 925.6C116.28 924.46 115.4 923.69 114.19 923.69Z" fill="white"/>
<path d="M755 660.27H411C406.582 660.27 403 663.852 403 668.27V952.27C403 956.688 406.582 960.27 411 960.27H755C759.418 960.27 763 956.688 763 952.27V668.27C763 663.852 759.418 660.27 755 660.27Z" fill="white"/>
<path d="M500.5 911.27H425.5C421.082 911.27 417.5 914.852 417.5 919.27V937.27C417.5 941.688 421.082 945.27 425.5 945.27H500.5C504.918 945.27 508.5 941.688 508.5 937.27V919.27C508.5 914.852 504.918 911.27 500.5 911.27Z" fill="black"/>
<path d="M433.92 934.27L439.11 924.29V924.21H433.12V922.96H440.56V924.27L435.39 934.27H433.92Z" fill="white"/>
<path d="M463.73 930.25V935.68H461.98V931.68H454.09V930.25H463.73ZM463.73 921.57V929.63H461.98V921.57H463.73ZM454.55 922.32V927.32C456.47 927.29 458.52 927.12 460.66 926.71L460.88 928.11C458.44 928.6 456.16 928.75 454 928.75H452.8V922.32H454.55ZM468.12 922.94V930.71C469.51 930.69 470.78 930.59 472.22 930.29L472.47 931.75C470.67 932.15 469.12 932.21 467.34 932.21H466.39V922.94H468.12ZM477.98 921.54V935.66H476.33V921.54H477.98ZM474.95 921.83V934.99H473.31V927.5H470.36V926.1H473.31V921.83H474.95ZM491.39 921.55V929.55H489.64V921.55H491.39ZM491.39 930.24V935.49H482.02V930.24H491.39ZM483.73 931.61V934.08H489.69V931.61H483.73ZM483.69 922.22C485.86 922.22 487.48 923.6 487.48 925.6C487.48 927.6 485.86 928.94 483.69 928.94C481.52 928.94 479.88 927.54 479.88 925.6C479.88 923.66 481.5 922.22 483.69 922.22ZM483.69 923.69C482.45 923.69 481.56 924.43 481.58 925.6C481.56 926.74 482.45 927.47 483.69 927.47C484.93 927.47 485.78 926.74 485.78 925.6C485.78 924.46 484.91 923.69 483.69 923.69Z" fill="white"/>
<path d="M1125 660.27H781C776.582 660.27 773 663.852 773 668.27V952.27C773 956.688 776.582 960.27 781 960.27H1125C1129.42 960.27 1133 956.688 1133 952.27V668.27C1133 663.852 1129.42 660.27 1125 660.27Z" fill="white"/>
<path d="M871 911.27H795C790.582 911.27 787 914.852 787 919.27V937.27C787 941.688 790.582 945.27 795 945.27H871C875.418 945.27 879 941.688 879 937.27V919.27C879 914.852 875.418 911.27 871 911.27Z" fill="black"/>
<path d="M806.84 934.43C804.47 934.43 802.81 933.11 802.83 931.27C802.81 929.8 803.83 928.6 805.12 928.39V928.33C804 928.07 803.27 927.04 803.27 925.8C803.27 924.07 804.78 922.8 806.84 922.8C808.9 922.8 810.42 924.07 810.44 925.8C810.42 927.04 809.67 928.07 808.56 928.33V928.39C809.84 928.6 810.86 929.8 810.88 931.27C810.86 933.11 809.2 934.43 806.84 934.43ZM806.84 933.19C808.47 933.19 809.47 932.38 809.47 931.19C809.47 929.94 808.36 929.02 806.84 929.02C805.32 929.02 804.2 929.94 804.23 931.19C804.2 932.38 805.22 933.19 806.84 933.19ZM806.84 927.83C808.12 927.83 809.06 927.05 809.06 925.91C809.06 924.77 808.17 924.02 806.84 924.02C805.51 924.02 804.62 924.79 804.62 925.91C804.62 927.03 805.55 927.83 806.84 927.83Z" fill="white"/>
<path d="M834.23 930.25V935.68H832.48V931.68H824.59V930.25H834.23ZM834.23 921.57V929.63H832.48V921.57H834.23ZM825.05 922.32V927.32C826.97 927.29 829.02 927.12 831.16 926.71L831.38 928.11C828.94 928.6 826.66 928.75 824.5 928.75H823.3V922.32H825.05ZM838.62 922.94V930.71C840.01 930.69 841.28 930.59 842.72 930.29L842.97 931.75C841.17 932.15 839.62 932.21 837.84 932.21H836.89V922.94H838.62ZM848.48 921.54V935.66H846.83V921.54H848.48ZM845.45 921.83V934.99H843.81V927.5H840.86V926.1H843.81V921.83H845.45ZM861.89 921.55V929.55H860.14V921.55H861.89ZM861.89 930.24V935.49H852.52V930.24H861.89ZM854.23 931.61V934.08H860.19V931.61H854.23ZM854.19 922.22C856.36 922.22 857.98 923.6 857.98 925.6C857.98 927.6 856.36 928.94 854.19 928.94C852.02 928.94 850.38 927.54 850.38 925.6C850.38 923.66 852 922.22 854.19 922.22ZM854.19 923.69C852.95 923.69 852.06 924.43 852.08 925.6C852.06 926.74 852.95 927.47 854.19 927.47C855.43 927.47 856.28 926.74 856.28 925.6C856.28 924.46 855.41 923.69 854.19 923.69Z" fill="white"/>
</svg>
