<svg width="626" height="468" viewBox="0 0 626 468" fill="none" xmlns="http://www.w3.org/2000/svg">
<rect width="626" height="468" rx="8" fill="white"/>
<path d="M274.972 90.3271C274.972 93.0127 276.949 95.5518 280.294 96.5527L279.146 98.4326C276.668 97.6514 274.825 96.0034 273.849 93.916C272.884 96.1743 271.004 97.9321 268.453 98.8232L267.281 96.9678C270.626 95.8936 272.677 93.2324 272.677 90.3271V89.9365H267.916V88.0566H272.677V85.3467H274.996V88.0566H279.732V89.9365H274.972V90.3271ZM284.493 85.1758V91.8896H287.667V93.8184H284.493V101.387H282.174V85.1758H284.493ZM285.421 104.731V106.611H270.626V99.9707H272.945V104.731H285.421ZM306.1 85.2246V91.6699H309.273V93.623H306.1V101.289H303.78V85.2246H306.1ZM307.027 104.731V106.611H292.232V99.7021H294.552V104.731H307.027ZM292.037 86.7871V90.2783H297.774V86.7871H300.069V97.6758H289.767V86.7871H292.037ZM292.037 95.8203H297.774V92.1094H292.037V95.8203ZM336.617 98.335V100.239H327.73V107.075H325.436V100.239H316.598V98.335H336.617ZM334.396 94.4531V96.3086H319.234V86.1768H334.151V88.0322H321.505V90.2783H333.663V92.085H321.505V94.4531H334.396ZM358.248 102.583V104.487H338.229V102.583H343.6V97.7246H339.986V95.8447H343.258V89.0332H339.938V87.1289H356.417V89.0332H353.072V95.8447H356.344V97.7246H352.755V102.583H358.248ZM345.553 95.8447H350.802V89.0332H345.553V95.8447ZM345.919 102.583H350.436V97.7246H345.919V102.583Z" fill="#999999"/>
<path d="M260.073 171.079V183.213H255.698V174.6H238.676V171.079H260.073ZM260.073 152.075V169.814H255.698V152.075H260.073ZM240.18 153.716V164.517C244.213 164.448 248.571 164.089 253.066 163.218L253.579 166.738C248.247 167.798 243.188 168.14 238.505 168.14H235.805V153.716H240.18ZM269.848 155.015V171.968C272.702 171.917 275.334 171.711 278.256 171.079L278.837 174.736C275.009 175.557 271.66 175.693 267.661 175.693H265.473V155.015H269.848ZM291.245 152.041V183.145H287.143V152.041H291.245ZM284.58 152.622V181.777H280.444V165.405H274.223V161.885H280.444V152.622H284.58ZM320.571 152.075V169.644H316.196V152.075H320.571ZM320.571 171.045V182.803H299.721V171.045H320.571ZM304.028 174.497V179.316H316.298V174.497H304.028ZM303.515 153.477C308.369 153.477 312.026 156.553 312.026 160.996C312.026 165.269 308.369 168.413 303.515 168.413C298.662 168.413 295.004 165.269 295.004 160.996C295.004 156.553 298.662 153.477 303.515 153.477ZM303.515 157.134C301.02 157.134 299.243 158.569 299.277 160.996C299.243 163.32 301.02 164.756 303.515 164.756C305.942 164.756 307.719 163.32 307.719 160.996C307.719 158.569 305.942 157.134 303.515 157.134ZM358.886 152.28V169.575H355.673V152.28H358.886ZM338.652 154.058V164.79C343.591 164.756 347.932 164.397 352.529 163.423L352.973 166.123C347.915 167.148 343.3 167.524 337.934 167.524H335.405V154.058H338.652ZM358.886 170.977V182.495H338.823V170.977H358.886ZM342.001 173.54V179.897H355.708V173.54H342.001ZM377.719 152.793C384.624 152.793 388.657 154.639 388.657 158.057C388.657 161.475 384.624 163.354 377.719 163.354C370.815 163.354 366.782 161.475 366.782 158.057C366.782 154.639 370.815 152.793 377.719 152.793ZM377.719 155.186C372.832 155.186 370.131 156.245 370.166 158.057C370.131 159.937 372.832 160.928 377.719 160.928C382.607 160.928 385.307 159.937 385.307 158.057C385.307 156.245 382.607 155.186 377.719 155.186ZM391.699 165.234V167.832H363.774V165.234H391.699ZM388.178 170.19V177.368H370.336V180.103H389.033V182.598H367.158V175.01H384.965V172.617H367.124V170.19H388.178ZM116.364 218.55V223.848C119.167 223.694 122.004 223.455 124.67 223.062L124.909 225.454C117.971 226.719 110.554 226.787 105.085 226.787L104.675 224.121C107.136 224.104 110.041 224.087 113.117 223.984V218.55H116.364ZM123.234 206.177V208.809H116.364C116.535 212.397 119.44 215.508 124.021 216.738L122.517 219.268C118.859 218.225 116.125 216.003 114.758 213.081C113.408 216.157 110.725 218.481 107.033 219.541L105.495 217.08C110.058 215.781 112.929 212.568 113.083 208.809H106.315V206.177H113.117V202.52H116.364V206.177H123.234ZM129.831 202.28V232.974H126.584V202.28H129.831ZM150.305 213.184V217.319H162.678V219.985H134.753V217.319H147.092V213.184H150.305ZM148.698 222.207C155.329 222.207 159.26 224.087 159.26 227.539C159.26 230.957 155.329 232.871 148.698 232.837C142.033 232.871 138.068 230.957 138.068 227.539C138.068 224.087 142.033 222.207 148.698 222.207ZM148.698 224.702C143.981 224.702 141.35 225.693 141.35 227.539C141.35 229.385 143.981 230.376 148.698 230.376C153.347 230.376 156.013 229.385 156.013 227.539C156.013 225.693 153.347 224.702 148.698 224.702ZM160.183 203.682V206.279H150.886C151.347 209.202 155.688 211.68 161.242 212.227L160.08 214.79C154.748 214.175 150.373 211.987 148.698 208.74C147.023 211.987 142.648 214.175 137.351 214.79L136.188 212.227C141.708 211.68 146.049 209.236 146.511 206.279H137.316V203.682H160.183ZM175.974 207.715C175.974 211.577 178.742 215.371 183.356 216.943L181.682 219.473C178.247 218.276 175.7 215.833 174.367 212.808C173.034 216.174 170.351 218.875 166.711 220.156L165.036 217.593C169.753 215.986 172.658 211.885 172.658 207.749V206.895H166.027V204.263H182.536V206.895H175.974V207.715ZM190.534 222.139V232.905H187.287V224.771H169.787V222.139H190.534ZM190.534 202.28V220.601H187.287V212.739H181.613V210.073H187.287V202.28H190.534ZM209.196 204.126C215.622 204.126 220.51 207.51 220.51 212.671C220.51 217.832 215.622 221.25 209.196 221.216C202.771 221.25 197.917 217.832 197.917 212.671C197.917 207.51 202.771 204.126 209.196 204.126ZM209.196 206.758C204.514 206.724 200.993 209.116 201.027 212.671C200.993 216.26 204.514 218.55 209.196 218.55C213.879 218.55 217.365 216.26 217.365 212.671C217.365 209.116 213.879 206.724 209.196 206.758ZM223.278 226.24V228.94H195.251V226.24H223.278ZM253.527 226.514V229.248H225.5V226.514H237.839V221.147H228.918V211.406H246.896V207.1H228.85V204.434H250.109V214.004H232.131V218.481H250.827V221.147H241.052V226.514H253.527ZM275.573 211.304C275.573 216.431 278.923 221.729 283.64 223.745L281.862 226.274C278.256 224.685 275.385 221.318 273.967 217.217C272.548 221.592 269.66 225.317 266.105 227.061L264.226 224.497C268.84 222.344 272.258 216.567 272.292 211.304V208.057H265.285V205.356H282.546V208.057H275.573V211.304ZM289.655 202.28V232.905H286.408V202.28H289.655ZM318.913 203.545V214.038H310.095V217.593H322.468V220.225H294.543V217.593H306.882V214.038H298.098V203.545H318.913ZM301.276 206.108V211.44H315.7V206.108H301.276ZM319.05 223.13V232.905H315.769V225.693H297.653V223.13H319.05ZM348.649 202.28V214.688H353.571V217.388H348.649V232.905H345.437V202.28H348.649ZM342.771 207.065V209.731H324.621V207.065H332.175V202.69H335.422V207.065H342.771ZM333.815 211.987C338.19 211.987 341.403 214.927 341.438 219.097C341.403 223.301 338.19 226.206 333.815 226.24C329.406 226.206 326.193 223.301 326.193 219.097C326.193 214.927 329.406 211.987 333.815 211.987ZM333.815 214.653C331.218 214.653 329.27 216.465 329.304 219.097C329.27 221.763 331.218 223.54 333.815 223.506C336.413 223.54 338.327 221.763 338.327 219.097C338.327 216.465 336.413 214.653 333.815 214.653ZM366.286 210.073C366.252 215.679 369.636 221.284 374.387 223.403L372.438 225.967C368.918 224.292 366.132 220.857 364.714 216.67C363.278 221.147 360.458 224.856 356.784 226.65L354.802 223.916C359.621 221.763 363.005 215.918 363.005 210.073V204.844H366.286V210.073ZM380.402 202.28V232.974H377.155V202.28H380.402ZM398.859 204.502C398.859 206.775 398.483 208.86 397.766 210.757H402.106V202.93H405.183V219.438H402.106V213.389H396.398C394.45 216.414 391.357 218.823 387.136 220.601L385.495 218.174C391.562 215.764 394.912 212.004 395.51 207.134H386.896V204.502H398.859ZM411.403 202.314V219.917H408.327V202.314H411.403ZM396.193 222.754C396.159 225.403 397.475 228.171 400.261 229.863C403.046 228.018 404.396 225.044 404.431 222.754V220.908H407.575V222.754C407.575 225.933 409.694 229.077 413.659 230.376L412.087 232.769C409.045 231.692 406.994 229.641 405.935 227.095C404.96 229.556 403.149 231.829 400.295 233.008C397.373 231.897 395.544 229.692 394.621 227.163C393.51 229.624 391.477 231.675 388.605 232.769L386.965 230.376C390.896 228.975 393.083 225.728 393.083 222.754V220.908H396.193V222.754ZM422.204 220.635V223.882H436.594V220.635H439.841V232.529H418.991V220.635H422.204ZM422.204 229.932H436.594V226.411H422.204V229.932ZM443.464 216.021V218.721H415.539V216.021H443.464ZM431.159 203.921C431.159 207.441 436.047 210.859 441.926 211.577L440.764 214.141C435.791 213.44 431.467 211.099 429.519 207.852C427.519 211.116 423.178 213.44 418.273 214.141L417.043 211.577C422.99 210.825 427.844 207.544 427.844 203.921V202.622H431.159V203.921ZM471.218 202.28V232.905H467.971V202.28H471.218ZM450.881 205.254V222.31C455.341 222.275 460.041 221.917 464.963 220.908L465.407 223.643C459.973 224.736 455.051 225.112 450.231 225.112H447.668V205.254H450.881ZM500.373 202.28V214.722H504.816V217.388H500.373V232.905H497.126V202.28H500.373ZM485.266 205.562C485.266 213.218 483.864 220.19 478.327 226.104L475.764 224.292C480.241 219.644 481.865 214.363 482.189 208.228H476.857V205.562H485.266ZM493.708 205.562C493.708 213.32 492.751 221.455 487.111 228.12L484.514 226.343C489.06 221.028 490.427 214.773 490.666 208.228H486.257V205.562H493.708ZM511.311 222.651C511.345 218.174 512.678 216.807 514.934 215.405C516.369 214.517 517.463 213.286 517.463 211.475C517.463 209.321 515.822 207.988 513.771 207.988C511.926 207.988 510.148 209.116 509.978 211.646H506.286C506.423 207.305 509.704 204.912 513.771 204.912C518.215 204.912 521.188 207.578 521.188 211.475C521.188 214.209 519.89 216.055 517.702 217.388C515.651 218.618 514.865 219.883 514.797 222.651V222.856H511.311V222.651ZM513.19 230.239C511.857 230.239 510.729 229.146 510.764 227.812C510.729 226.479 511.857 225.386 513.19 225.386C514.489 225.386 515.617 226.479 515.617 227.812C515.617 229.146 514.489 230.239 513.19 230.239Z" fill="black"/>
<rect x="80" y="273" width="210" height="60" rx="8" fill="#B4B4B4"/>
<path d="M176.797 295.383V297.75H172.484C172.496 300.129 174.043 302.555 177.5 303.539L176.023 305.93C173.645 305.238 171.992 303.785 171.055 301.945C170.094 303.926 168.406 305.496 165.969 306.281L164.469 303.914C167.926 302.859 169.496 300.316 169.508 297.75H165.219V295.383H169.508V292.969H172.531V295.383H176.797ZM181.555 292.828V299.156H184.438V301.57H181.555V308.602H178.555V292.828H181.555ZM182.328 311.391V313.781H167.727V307.219H170.703V311.391H182.328ZM193.438 295.734C193.414 298.594 194.891 301.219 198.312 302.273L196.742 304.617C194.445 303.82 192.887 302.344 192.008 300.422C191.047 302.648 189.324 304.406 186.758 305.273L185.188 302.883C188.844 301.711 190.391 298.852 190.414 295.875V293.93H193.438V295.734ZM203.352 292.828V305.32H200.375V299.18H196.367V296.742H200.375V292.828H203.352ZM196.062 305.883C200.609 305.883 203.398 307.406 203.422 310.031C203.398 312.656 200.609 314.156 196.062 314.156C191.516 314.156 188.727 312.656 188.727 310.031C188.727 307.406 191.516 305.883 196.062 305.883ZM196.062 308.203C193.227 308.203 191.703 308.812 191.703 310.031C191.703 311.203 193.227 311.836 196.062 311.836C198.898 311.836 200.445 311.203 200.445 310.031C200.445 308.812 198.898 308.203 196.062 308.203Z" fill="white"/>
<rect x="336" y="273" width="210" height="60" rx="8" fill="#5C5BAD"/>
<path d="M437.555 292.852V298.852H440.438V301.312H437.555V308.555H434.555V292.852H437.555ZM438.328 311.391V313.781H423.727V306.938H426.703V311.391H438.328ZM424.242 294.352V297.445H428.602V294.352H431.602V305.156H421.266V294.352H424.242ZM424.242 302.812H428.602V299.742H424.242V302.812ZM459.82 292.828V314.156H456.984V303.445H454.922V313.125H452.18V293.18H454.922V301.055H456.984V292.828H459.82ZM449.93 295.289V297.703H444.984V306.797C447.047 306.785 448.875 306.68 450.938 306.305L451.148 308.742C448.547 309.234 446.273 309.305 443.461 309.328H441.984V295.289H449.93Z" fill="white"/>
<rect x="80" y="388" width="5" height="218.68" rx="2.5" transform="rotate(-90 80 388)" fill="#5C5BAD"/>
<path opacity="0.1" d="M82.5289 388C81.1482 388 80 386.881 80 385.5C80 384.119 81.1193 383 82.5 383L543.5 383C544.881 383 546 384.119 546 385.5C546 386.881 544.852 388 543.471 388C363.908 388 262.092 388 82.5289 388Z" fill="#1C232F"/>
</svg>
