<svg width="626" height="328" viewBox="0 0 626 328" fill="none" xmlns="http://www.w3.org/2000/svg">
<rect width="626" height="328" rx="8" fill="white"/>
<path d="M264.75 97.8V101.6C266.75 101.5 268.8 101.325 270.7 101.05L270.9 102.75C265.925 103.65 260.625 103.7 256.7 103.7L256.4 101.8C258.175 101.8 260.25 101.775 262.45 101.7V97.8H264.75ZM257 96.75C260.3 95.85 262.325 93.55 262.4 90.85H257.6V88.95H262.45V86.35H264.75V88.95H269.7V90.85H264.8C264.875 93.425 266.95 95.65 270.25 96.5L269.15 98.35C266.55 97.6 264.6 96 263.625 93.925C262.65 96.125 260.725 97.775 258.1 98.55L257 96.75ZM272.1 108.1V86.2H274.4V108.1H272.1ZM296.756 88.6V90.5H278.906V88.6H286.706V86.1H289.006V88.6H296.756ZM277.906 102.25V100.35H297.956V102.25H289.006V108.1H286.706V102.25H277.906ZM280.606 95.3C280.581 92.95 283.306 91.625 287.856 91.65C292.406 91.625 295.131 92.95 295.156 95.3C295.131 97.675 292.406 98.975 287.856 99C283.306 98.975 280.581 97.675 280.606 95.3ZM283.006 95.3C282.981 96.55 284.731 97.25 287.856 97.25C291.006 97.25 292.731 96.55 292.756 95.3C292.731 94.075 291.006 93.375 287.856 93.4C284.731 93.375 282.981 94.075 283.006 95.3ZM306.663 87.75C310.113 87.75 312.588 89.9 312.613 92.95C312.588 96.05 310.113 98.175 306.663 98.2C303.213 98.175 300.688 96.05 300.713 92.95C300.688 89.9 303.213 87.75 306.663 87.75ZM299.613 101.45C303.613 101.475 309.138 101.45 313.913 100.75L314.113 102.45C309.138 103.375 303.838 103.4 299.913 103.4L299.613 101.45ZM302.963 92.95C302.963 94.9 304.513 96.175 306.663 96.15C308.763 96.175 310.338 94.9 310.363 92.95C310.338 91.05 308.763 89.775 306.663 89.75C304.513 89.775 302.963 91.05 302.963 92.95ZM315.313 108.1V86.2H317.613V108.1H315.313ZM344.423 86.2V92.7H347.573V94.6H344.423V102.3H342.123V86.2H344.423ZM328.073 98.65V87.8H330.373V91.3H336.073V87.8H338.373V98.65H328.073ZM330.373 96.8H336.073V93.1H330.373V96.8ZM330.573 107.6V100.7H332.873V105.75H345.373V107.6H330.573ZM368.829 98.55V100.45H348.829V98.55H357.679V96.4H351.379V90.8H363.979V88.65H351.329V86.85H366.329V92.45H353.679V94.6H366.729V96.4H359.979V98.55H368.829ZM351.429 107.95V101.8H353.729V106.05H366.779V107.95H351.429Z" fill="#999999"/>
<path d="M275.197 171.079V183.213H270.822V174.6H253.801V171.079H275.197ZM275.197 152.075V169.814H270.822V152.075H275.197ZM255.305 153.716V164.517C259.338 164.448 263.696 164.089 268.19 163.218L268.703 166.738C263.371 167.798 258.312 168.14 253.63 168.14H250.93V153.716H255.305ZM284.973 155.015V171.968C287.827 171.917 290.458 171.711 293.381 171.079L293.962 174.736C290.134 175.557 286.784 175.693 282.785 175.693H280.598V155.015H284.973ZM306.369 152.041V183.145H302.268V152.041H306.369ZM299.704 152.622V181.777H295.568V165.405H289.348V161.885H295.568V152.622H299.704ZM335.695 152.075V169.644H331.32V152.075H335.695ZM335.695 171.045V182.803H314.846V171.045H335.695ZM319.152 174.497V179.316H331.423V174.497H319.152ZM318.64 153.477C323.493 153.477 327.15 156.553 327.15 160.996C327.15 165.269 323.493 168.413 318.64 168.413C313.786 168.413 310.129 165.269 310.129 160.996C310.129 156.553 313.786 153.477 318.64 153.477ZM318.64 157.134C316.145 157.134 314.367 158.569 314.401 160.996C314.367 163.32 316.145 164.756 318.64 164.756C321.066 164.756 322.844 163.32 322.844 160.996C322.844 158.569 321.066 157.134 318.64 157.134ZM374.011 152.28V169.575H370.798V152.28H374.011ZM353.776 154.058V164.79C358.715 164.756 363.056 164.397 367.653 163.423L368.098 166.123C363.039 167.148 358.425 167.524 353.059 167.524H350.529V154.058H353.776ZM374.011 170.977V182.495H353.947V170.977H374.011ZM357.126 173.54V179.897H370.832V173.54H357.126Z" fill="black"/>
<rect x="80" y="248" width="5" height="218.68" rx="2.5" transform="rotate(-90 80 248)" fill="#5C5BAD"/>
<path opacity="0.1" d="M82.5289 248C81.1482 248 80 246.881 80 245.5C80 244.119 81.1193 243 82.5 243L543.5 243C544.881 243 546 244.119 546 245.5C546 246.881 544.852 248 543.471 248C363.908 248 262.092 248 82.5289 248Z" fill="#1C232F"/>
</svg>
