<svg width="626" height="328" viewBox="0 0 626 328" fill="none" xmlns="http://www.w3.org/2000/svg">
<rect width="626" height="328" rx="8" fill="white"/>
<path d="M279.776 87.3242V105H277.066V90.0098H276.969L272.745 92.7686V90.2051L277.14 87.3242H279.776ZM301.749 85.2246V101.387H299.43V93.1348H294.645V97.749H284.562V86.665H286.881V90.376H292.35V86.665H294.645V91.2549H299.43V85.2246H301.749ZM302.237 104.731V106.611H287.467V99.7998H289.811V104.731H302.237ZM286.881 95.8691H292.35V92.1582H286.881V95.8691ZM324.259 85.2002V107.075H322.037V95.8936H319.938V106.001H317.789V85.6152H319.938V93.9893H322.037V85.2002H324.259ZM309.61 91.6211C309.586 93.5498 309.684 96.7725 311.148 99.1406C312.552 96.8701 312.638 93.7939 312.638 91.6211V89.6436H311.441V87.7881H316.642V89.6436H314.664V91.6211C314.64 94.502 315.079 98.335 317.618 100.337L316.3 101.948C314.969 100.874 314.164 99.2383 313.688 97.4072C313.26 99.2871 312.503 101.033 311.124 102.168C309.757 101.021 308.988 99.2505 308.561 97.3828C308.097 99.2017 307.303 100.862 305.973 101.948L304.63 100.337C307.169 98.335 307.584 94.4531 307.584 91.6211V89.6436H305.411V87.7881H310.807V89.6436H309.61V91.6211ZM351.065 85.2246V101.411H348.746V93.1592H344.645V91.2793H348.746V85.2246H351.065ZM351.627 104.731V106.611H336.808V100.02H339.151V104.731H351.627ZM343.839 86.9092V88.7891H336.222V91.499H343.204V93.3301H336.222V96.2109C339.969 96.1987 342.203 96.1133 344.864 95.6494L345.084 97.5293C342.203 98.042 339.762 98.1396 335.562 98.1396H333.927V86.9092H343.839Z" fill="#999999"/>
<path d="M197.062 154.57C201.643 154.57 204.89 158.74 204.924 165.303C204.89 171.899 201.643 176.069 197.062 176.069C192.482 176.069 189.201 171.899 189.235 165.303C189.201 158.74 192.482 154.57 197.062 154.57ZM197.062 157.476C194.26 157.476 192.346 160.483 192.346 165.303C192.346 170.156 194.26 173.164 197.062 173.164C199.899 173.164 201.813 170.156 201.813 165.303C201.813 160.483 199.899 157.476 197.062 157.476ZM212.717 152.28V164.277H217.639V167.012H212.717V182.905H209.47V152.28H212.717ZM230.49 158.501C230.49 162.124 233.498 165.542 238.249 166.841L236.711 169.37C233.122 168.345 230.371 166.123 228.952 163.252C227.568 166.396 224.816 168.857 221.159 170.02L219.621 167.524C224.304 166.021 227.243 162.397 227.243 158.501V158.296H220.441V155.698H227.243V152.144H230.524V155.698H237.258V158.296H230.49V158.501ZM244.504 152.314V170.396H241.257V152.314H244.504ZM244.504 171.831V182.529H224.372V171.831H244.504ZM227.585 174.463V179.897H241.325V174.463H227.585ZM274.719 152.28V182.974H271.472V152.28H274.719ZM258.347 154.57C262.893 154.57 266.242 158.74 266.242 165.303C266.242 171.899 262.893 176.069 258.347 176.069C253.732 176.069 250.417 171.899 250.417 165.303C250.417 158.74 253.732 154.57 258.347 154.57ZM258.347 157.476C255.51 157.476 253.562 160.483 253.562 165.303C253.562 170.156 255.51 173.164 258.347 173.164C261.149 173.164 263.098 170.156 263.098 165.303C263.098 160.483 261.149 157.476 258.347 157.476ZM292.526 153.75V158.022H300.559V153.75H303.771V167.285H289.348V153.75H292.526ZM292.526 164.722H300.559V160.483H292.526V164.722ZM312.214 152.28V158.809H316.657V161.543H312.214V168.584H308.967V152.28H312.214ZM301.276 170.122V177.402H294.372V180.103C298.627 180.085 300.764 180.017 303.293 179.453L303.635 181.88C300.729 182.495 298.405 182.563 293.107 182.563H291.228V175.044H298.166V172.617H291.159V170.122H301.276ZM312.214 170.122V182.769H309.001V172.72H302.609V170.122H312.214ZM327.014 154.023C331.696 154.023 335.148 156.963 335.183 161.304C335.148 165.576 331.696 168.55 327.014 168.55C322.331 168.55 318.845 165.576 318.879 161.304C318.845 156.963 322.331 154.023 327.014 154.023ZM327.014 156.758C324.143 156.758 322.023 158.604 322.058 161.304C322.023 164.038 324.143 165.815 327.014 165.85C329.885 165.815 332.004 164.038 332.004 161.304C332.004 158.604 329.885 156.758 327.014 156.758ZM342.463 152.28V159.39H346.906V162.056H342.463V169.609H339.216V152.28H342.463ZM328.688 172.48C328.688 175.129 329.987 177.915 332.79 179.59C335.576 177.778 336.926 174.805 336.926 172.48V170.942H340.104V172.48C340.104 175.693 342.189 178.77 346.188 180.103L344.548 182.529C341.574 181.436 339.523 179.385 338.498 176.855C337.507 179.333 335.661 181.641 332.824 182.803C329.902 181.675 328.056 179.504 327.116 176.992C326.005 179.402 323.989 181.453 321.135 182.529L319.528 180.103C323.425 178.701 325.578 175.454 325.578 172.48V170.942H328.688V172.48ZM355.314 170.635V173.882H369.704V170.635H372.951V182.529H352.102V170.635H355.314ZM355.314 179.932H369.704V176.411H355.314V179.932ZM376.574 166.021V168.721H348.649V166.021H376.574ZM364.27 153.921C364.27 157.441 369.157 160.859 375.036 161.577L373.874 164.141C368.901 163.44 364.577 161.099 362.629 157.852C360.629 161.116 356.289 163.44 351.384 164.141L350.153 161.577C356.101 160.825 360.954 157.544 360.954 153.921V152.622H364.27V153.921ZM404.328 152.28V182.905H401.081V152.28H404.328ZM383.991 155.254V172.31C388.452 172.275 393.151 171.917 398.073 170.908L398.518 173.643C393.083 174.736 388.161 175.112 383.342 175.112H380.778V155.254H383.991ZM433.005 152.28V164.141H437.927V166.807H433.005V182.974H429.758V152.28H433.005ZM424.768 155.22V157.852H413.693V172.651C418.837 172.634 422.7 172.412 427.058 171.626L427.468 174.36C422.683 175.215 418.615 175.386 412.907 175.352H410.446V155.22H424.768Z" fill="black"/>
<rect x="80" y="248" width="5" height="218.68" rx="2.5" transform="rotate(-90 80 248)" fill="#5C5BAD"/>
<path opacity="0.1" d="M82.5289 248C81.1482 248 80 246.881 80 245.5C80 244.119 81.1193 243 82.5 243L543.5 243C544.881 243 546 244.119 546 245.5C546 246.881 544.852 248 543.471 248C363.908 248 262.092 248 82.5289 248Z" fill="#1C232F"/>
</svg>
