<svg width="394" height="60" viewBox="0 0 394 60" fill="none" xmlns="http://www.w3.org/2000/svg">
<rect x="16" width="378" height="60" rx="8" fill="#1C232F" fill-opacity="0.8"/>
<path d="M28.8125 16.2207C28.7988 18.4355 30.3164 20.6777 32.1074 21.4844L31.4512 22.332C30.0703 21.6553 28.874 20.2266 28.293 18.4902C27.7256 20.3291 26.5293 21.8604 25.1074 22.5781L24.4238 21.6758C26.2285 20.8418 27.7324 18.5312 27.7461 16.2207V14.0059H28.8125V16.2207ZM34.5137 12.9531V25.1348H33.4336V12.9531H34.5137ZM42.9355 14.0195V19.6523H37.2344V14.0195H42.9355ZM38.2871 14.9082V18.791H41.8828V14.9082H38.2871ZM46.627 12.9668V21.7031H45.5605V12.9668H46.627ZM47.0098 23.8086V24.6973H38.7793V20.8555H39.8457V23.8086H47.0098ZM55.4316 14.3066V14.9355C55.418 15.8926 55.418 17.5059 55.0762 19.7617L53.9961 19.666C54.3242 17.6289 54.3516 16.1523 54.3516 15.1816H49.252V14.3066H55.4316ZM52.2461 17.7793V21.4707C53.5928 21.4229 54.9736 21.334 56.2383 21.1836L56.293 21.9902C53.7363 22.3867 50.8789 22.4414 48.7051 22.4277L48.5684 21.5391C49.3682 21.5322 50.2568 21.5254 51.1934 21.498V17.7793H52.2461ZM58.0703 12.9531V18.0391H60.0391V18.9688H58.0703V25.1074H57.0039V12.9531H58.0703ZM74.6953 12.9531V25.1074H73.6699V18.7363H71.8789V24.4785H70.8945V13.2266H71.8789V17.8477H73.6699V12.9531H74.6953ZM69.3086 14.4434V15.332H65.8223V21.1836C67.4971 21.1768 68.6592 21.1152 70.0059 20.8418L70.1016 21.7441C68.6387 22.0449 67.3945 22.0996 65.5352 22.0996H64.7559V14.4434H69.3086ZM86.4395 12.9668V19.6387H85.373V12.9668H86.4395ZM82.5703 13.5547V16.8359H78.0859V18.4902C80.2598 18.4766 81.8867 18.4355 83.8555 18.1074L83.9785 18.9961C81.9414 19.3242 80.2734 19.3789 78.0312 19.3926H77.0469V15.9883H81.5039V14.4434H77.0195V13.5547H82.5703ZM79.6172 20.2539V21.7031H85.373V20.2539H86.4395V24.9434H78.5371V20.2539H79.6172ZM79.6172 24.0684H85.373V22.5645H79.6172V24.0684ZM97.9102 12.9531V17.9707H99.9473V18.8594H97.9102V25.1074H96.8438V12.9531H97.9102ZM95.668 14.9082V15.7969H88.4355V14.9082H91.5664V13.1035H92.6328V14.9082H95.668ZM92.1133 16.8086C93.8359 16.8086 95.0801 17.957 95.0938 19.5977C95.0801 21.2383 93.8359 22.3867 92.1133 22.3867C90.377 22.3867 89.1191 21.2383 89.1328 19.5977C89.1191 17.957 90.377 16.8086 92.1133 16.8086ZM92.1133 17.7109C90.9785 17.7109 90.1445 18.5039 90.1582 19.5977C90.1445 20.7051 90.9785 21.4844 92.1133 21.4707C93.2344 21.4844 94.0547 20.7051 94.0684 19.5977C94.0547 18.5039 93.2344 17.7109 92.1133 17.7109ZM110.434 16.6445V17.5059H102.107V13.4043H103.174V16.6445H110.434ZM111.719 19.1602V20.0352H100.59V19.1602H111.719ZM110.502 23.918V24.8066H102.039V21.2793H103.105V23.918H110.502ZM120.592 14.9629C120.592 16.5488 121.918 17.957 123.723 18.5039L123.176 19.3516C121.754 18.9004 120.612 17.9229 120.059 16.6719C119.525 18.0117 118.377 19.0576 116.928 19.5566L116.367 18.709C118.199 18.1348 119.512 16.6309 119.512 14.9629V14.6484H116.668V13.7734H123.395V14.6484H120.592V14.9629ZM126.252 12.9531V19.5293H125.186V12.9531H126.252ZM119.443 20.1309V21.6074H125.186V20.1309H126.252V24.9434H118.377V20.1309H119.443ZM119.443 24.0684H125.186V22.4688H119.443V24.0684ZM137.818 12.9531V16.5762H139.664V17.4785H137.818V21.7578H136.752V12.9531H137.818ZM134.305 14.0059V14.9082H129.957V18.6953C132.397 18.6953 133.785 18.6338 135.412 18.2988L135.549 19.1875C133.84 19.5156 132.391 19.5977 129.834 19.5977H128.891V14.0059H134.305ZM138.379 23.9453V24.8477H130.217V20.8691H131.27V23.9453H138.379ZM150.438 12.9531V25.1348H149.357V12.9531H150.438ZM143.971 13.8965C145.775 13.9102 147.074 15.5508 147.074 18.1348C147.074 20.7188 145.775 22.3594 143.971 22.3594C142.152 22.3594 140.867 20.7188 140.867 18.1348C140.867 15.5508 142.152 13.9102 143.971 13.8965ZM143.971 14.8535C142.754 14.8672 141.906 16.1523 141.906 18.1348C141.906 20.1172 142.754 21.4023 143.971 21.4023C145.188 21.4023 146.035 20.1172 146.035 18.1348C146.035 16.1523 145.188 14.8672 143.971 14.8535ZM158.545 14.1699V15.8789H161.525V12.9531H162.592V25.1348H161.525V20.1172H158.545V22.0312H153.008V14.1699H158.545ZM154.074 15.0176V21.1699H157.506V15.0176H154.074ZM158.545 19.2285H161.525V16.7676H158.545V19.2285ZM168.566 24L168.553 23.0977L171.93 19.543C173.105 18.2988 173.666 17.6289 173.666 16.7129C173.666 15.7012 172.805 15.0312 171.697 15.0312C170.521 15.0312 169.77 15.7832 169.77 16.8906H168.607C168.594 15.1406 169.947 13.9648 171.738 13.9648C173.529 13.9648 174.814 15.168 174.814 16.7129C174.814 17.8203 174.295 18.6816 172.545 20.4863L170.275 22.8242V22.9062H174.992V24H168.566ZM186.422 12.9531V20.1582H185.342V18.2441H182.498V19.2832H176.92V13.8828H182.498V14.9355H185.342V12.9531H186.422ZM177.986 14.7578V18.4082H181.445V14.7578H177.986ZM182.389 20.5137C184.918 20.5137 186.463 21.3477 186.463 22.8105C186.463 24.2598 184.918 25.0801 182.389 25.0801C179.859 25.0801 178.314 24.2598 178.314 22.8105C178.314 21.3477 179.859 20.5137 182.389 20.5137ZM182.389 21.3477C180.529 21.3613 179.367 21.8945 179.381 22.8105C179.367 23.6855 180.529 24.2324 182.389 24.2324C184.248 24.2324 185.396 23.6855 185.396 22.8105C185.396 21.8945 184.248 21.3613 182.389 21.3477ZM182.498 17.3418H185.342V15.8242H182.498V17.3418ZM201.98 12.9531V25.1348H200.9V12.9531H201.98ZM195.514 13.8965C197.318 13.9102 198.617 15.5508 198.617 18.1348C198.617 20.7188 197.318 22.3594 195.514 22.3594C193.695 22.3594 192.41 20.7188 192.41 18.1348C192.41 15.5508 193.695 13.9102 195.514 13.8965ZM195.514 14.8535C194.297 14.8672 193.449 16.1523 193.449 18.1348C193.449 20.1172 194.297 21.4023 195.514 21.4023C196.73 21.4023 197.578 20.1172 197.578 18.1348C197.578 16.1523 196.73 14.8672 195.514 14.8535ZM208.119 14.9219C208.119 16.5762 209.377 18.0938 211.141 18.6953L210.553 19.543C209.206 19.0508 208.146 18.0459 207.613 16.7812C207.094 18.21 206.014 19.3379 204.592 19.8848L204.018 19.0234C205.836 18.3398 207.053 16.7129 207.066 14.8398V13.582H208.119V14.9219ZM213.561 12.9531V16.125H215.393V17.0273H213.561V20.3496H212.494V12.9531H213.561ZM209.664 20.6641C212.166 20.6641 213.67 21.4707 213.67 22.8652C213.67 24.2871 212.166 25.0801 209.664 25.0801C207.162 25.0801 205.631 24.2871 205.631 22.8652C205.631 21.4707 207.162 20.6641 209.664 20.6641ZM209.664 21.5254C207.832 21.5254 206.697 22.0312 206.711 22.8652C206.697 23.7266 207.832 24.2188 209.664 24.2324C211.51 24.2188 212.631 23.7266 212.631 22.8652C212.631 22.0312 211.51 21.5254 209.664 21.5254ZM219.604 13.4043C221.422 13.418 222.748 14.5117 222.748 16.0977C222.748 17.6836 221.422 18.7773 219.604 18.7773C217.758 18.7773 216.445 17.6836 216.445 16.0977C216.445 14.5117 217.758 13.418 219.604 13.4043ZM219.604 14.3066C218.387 14.3066 217.484 15.0449 217.498 16.0977C217.484 17.1641 218.387 17.9023 219.604 17.9023C220.807 17.9023 221.709 17.1641 221.709 16.0977C221.709 15.0449 220.807 14.3066 219.604 14.3066ZM226.193 12.9531V19.2012H225.127V12.9531H226.193ZM226.193 19.7891V22.7148H219.371V24.082H226.631V24.9434H218.318V21.9082H225.127V20.6504H218.291V19.7891H226.193ZM241.848 12.9668V20.2676H240.768V18.627H237.541V17.7383H240.768V16.0977H237.664C236.864 18.0527 234.984 19.4678 232.387 20.2402L231.936 19.3926C234.875 18.5176 236.7 16.877 236.926 14.7715H232.551V13.8691H238.088C238.088 14.3477 238.033 14.8057 237.938 15.2363H240.768V12.9668H241.848ZM237.869 20.3906C240.33 20.3906 241.916 21.2656 241.916 22.7148C241.916 24.1777 240.33 25.0527 237.869 25.0527C235.381 25.0527 233.809 24.1777 233.809 22.7148C233.809 21.2656 235.381 20.3906 237.869 20.3906ZM237.869 21.252C236.037 21.2383 234.861 21.7988 234.861 22.7148C234.861 23.6309 236.037 24.1777 237.869 24.1777C239.674 24.1777 240.836 23.6309 240.85 22.7148C240.836 21.7988 239.674 21.2383 237.869 21.252ZM254.986 19.9258V20.8281H249.914V25.1074H248.861V20.8281H243.857V19.9258H254.986ZM249.395 13.4453C251.951 13.4453 253.674 14.4707 253.674 16.125C253.674 17.7383 251.951 18.7637 249.395 18.7637C246.838 18.7637 245.115 17.7383 245.115 16.125C245.115 14.4707 246.838 13.4453 249.395 13.4453ZM249.395 14.3203C247.494 14.3203 246.209 15.0312 246.223 16.125C246.209 17.2051 247.494 17.9023 249.395 17.9023C251.281 17.9023 252.58 17.2051 252.58 16.125C252.58 15.0312 251.281 14.3203 249.395 14.3203ZM266.389 12.9531V25.1074H265.35V12.9531H266.389ZM263.941 13.2129V24.4922H262.916V18.5859H261.357C261.241 20.9512 260.236 22.4277 258.732 22.4277C257.146 22.4277 256.121 20.7871 256.121 18.2031C256.121 15.6191 257.146 13.9785 258.732 13.9785C260.209 13.9785 261.207 15.4072 261.344 17.6973H262.916V13.2129H263.941ZM258.732 14.9902C257.748 14.9902 257.119 16.2207 257.133 18.2031C257.119 20.1719 257.748 21.416 258.732 21.4023C259.717 21.416 260.346 20.1719 260.346 18.2031C260.346 16.2207 259.717 14.9902 258.732 14.9902ZM277.9 16.6445V17.5059H269.574V13.4043H270.641V16.6445H277.9ZM279.186 19.1602V20.0352H268.057V19.1602H279.186ZM277.969 23.918V24.8066H269.506V21.2793H270.572V23.918H277.969ZM287.963 16.2207C287.963 18.4219 289.371 20.6367 291.135 21.4434L290.492 22.3184C289.111 21.6074 287.97 20.1514 287.43 18.4219C286.89 20.2402 285.748 21.7988 284.367 22.5371L283.67 21.6758C285.447 20.8008 286.869 18.4629 286.869 16.2207V14.0059H287.963V16.2207ZM293.76 12.9531V25.1348H292.693V17.9844H289.809V17.1094H292.693V12.9531H293.76ZM306.912 22.7012V23.6035H295.783V22.7012H300.787V20.4043H297.178V16.6582H304.451V14.7441H297.15V13.8555H305.504V17.5332H298.244V19.5156H305.791V20.4043H301.84V22.7012H306.912ZM318.998 18.5996V19.4473H307.869V18.5996H318.998ZM317.604 20.418V23.002H310.303V24.1641H318V24.9434H309.223V22.2637H316.537V21.2246H309.209V20.418H317.604ZM317.562 13.3223V15.8379H310.385V16.9043H317.781V17.6836H309.318V15.0996H316.482V14.1016H309.277V13.3223H317.562ZM333.531 12.9668V21.8535H332.465V12.9668H333.531ZM333.914 23.9453V24.8477H325.684V20.9512H326.75V23.9453H333.914ZM326.969 13.8145C328.787 13.8145 330.154 15.0449 330.154 16.7949C330.154 18.5723 328.787 19.7891 326.969 19.7891C325.15 19.7891 323.783 18.5723 323.783 16.7949C323.783 15.0449 325.15 13.8145 326.969 13.8145ZM326.969 14.7578C325.738 14.7578 324.822 15.6055 324.836 16.7949C324.822 18.0117 325.738 18.8457 326.969 18.8457C328.172 18.8457 329.102 18.0117 329.102 16.7949C329.102 15.6055 328.172 14.7578 326.969 14.7578ZM339.943 16.6855C339.943 18.75 341.447 20.8418 343.238 21.6211L342.637 22.4688C341.215 21.8193 339.984 20.418 339.424 18.7363C338.85 20.5205 337.626 22.0723 336.238 22.7695L335.596 21.9219C337.332 21.0879 338.85 18.791 338.863 16.6855V15.0996H335.992V14.2109H342.842V15.0996H339.943V16.6855ZM345.617 12.9531V25.1074H344.537V12.9531H345.617ZM360.615 12.9531V17.9023H362.584V18.8047H360.615V25.1074H359.549V12.9531H360.615ZM357.471 14.2656C357.471 17.7109 355.857 20.8418 351.893 22.7969L351.291 21.9492C354.436 20.3838 356.145 18.0459 356.391 15.168H351.852V14.2656H357.471ZM373.125 16.3574V17.2461H364.826V13.1992H365.893V16.3574H373.125ZM374.396 18.668V19.5566H363.309V18.668H374.396ZM368.846 20.6504C371.457 20.6504 373.016 21.4434 373.029 22.8516C373.016 24.2598 371.457 25.0527 368.846 25.0527C366.221 25.0527 364.648 24.2598 364.648 22.8516C364.648 21.4434 366.221 20.6504 368.846 20.6504ZM368.846 21.498C366.891 21.5117 365.729 21.9902 365.742 22.8516C365.729 23.6992 366.891 24.2188 368.846 24.2188C370.773 24.2188 371.949 23.6992 371.949 22.8516C371.949 21.9902 370.773 21.5117 368.846 21.498ZM376.693 24.082C376.215 24.082 375.805 23.6855 375.818 23.1934C375.805 22.7148 376.215 22.3184 376.693 22.3184C377.172 22.3184 377.568 22.7148 377.568 23.1934C377.568 23.6855 377.172 24.082 376.693 24.082ZM33.9941 42.6367V46.9434H26.3242V42.6367H33.9941ZM27.377 43.5117V46.0684H32.9277V43.5117H27.377ZM33.9941 34.9531V37.8652H35.8262V38.7676H33.9941V41.9668H32.9277V34.9531H33.9941ZM26.0645 35.582V37.4414H29.6055V35.582H30.6719V41.2012H25.0117V35.582H26.0645ZM26.0645 40.3125H29.6055V38.2891H26.0645V40.3125ZM47.0098 34.9531V47.1074H45.9707V34.9531H47.0098ZM44.5625 35.2129V46.4922H43.5371V40.5859H41.9785C41.8623 42.9512 40.8574 44.4277 39.3535 44.4277C37.7676 44.4277 36.7422 42.7871 36.7422 40.2031C36.7422 37.6191 37.7676 35.9785 39.3535 35.9785C40.8301 35.9785 41.8281 37.4072 41.9648 39.6973H43.5371V35.2129H44.5625ZM39.3535 36.9902C38.3691 36.9902 37.7402 38.2207 37.7539 40.2031C37.7402 42.1719 38.3691 43.416 39.3535 43.4023C40.3379 43.416 40.9668 42.1719 40.9668 40.2031C40.9668 38.2207 40.3379 36.9902 39.3535 36.9902ZM58.5215 38.6445V39.5059H50.1953V35.4043H51.2617V38.6445H58.5215ZM59.8066 41.1602V42.0352H48.6777V41.1602H59.8066ZM58.5898 45.918V46.8066H50.127V43.2793H51.1934V45.918H58.5898ZM70.4434 36.0605V41.6523H64.8242V36.0605H70.4434ZM65.877 36.9355V40.791H69.4043V36.9355H65.877ZM73.8066 34.9531V38.6582H75.6387V39.5605H73.8066V43.8672H72.7402V34.9531H73.8066ZM74.3672 45.9453V46.8477H66.2051V43.0195H67.2578V45.9453H74.3672ZM80.5195 37.2637C80.5195 38.8496 81.709 40.2715 83.5 40.8594L82.9941 41.707C81.5928 41.249 80.5332 40.2783 80.0137 39.0547C79.4873 40.4492 78.3662 41.5361 76.9102 42.0625L76.3633 41.2012C78.1816 40.5859 79.4531 39.0137 79.4668 37.2637V36.7441H76.6914V35.8555H83.2539V36.7441H80.5195V37.2637ZM85.9062 34.9531V38.0566H87.7383V38.959H85.9062V42.2949H84.8398V34.9531H85.9062ZM82.0098 42.623C84.5117 42.623 86.0156 43.4434 86.0156 44.8379C86.0156 46.2598 84.5117 47.0801 82.0098 47.0801C79.5078 47.0801 77.9766 46.2598 77.9766 44.8379C77.9766 43.4434 79.5078 42.623 82.0098 42.623ZM82.0098 43.4844C80.1777 43.4844 79.043 43.9902 79.0566 44.8379C79.043 45.7129 80.1777 46.2188 82.0098 46.2188C83.8555 46.2188 84.9766 45.7129 84.9766 44.8379C84.9766 43.9902 83.8555 43.4844 82.0098 43.4844ZM91.9492 35.4043C93.7676 35.418 95.0938 36.5117 95.0938 38.0977C95.0938 39.6836 93.7676 40.7773 91.9492 40.7773C90.1035 40.7773 88.791 39.6836 88.791 38.0977C88.791 36.5117 90.1035 35.418 91.9492 35.4043ZM91.9492 36.3066C90.7324 36.3066 89.8301 37.0449 89.8438 38.0977C89.8301 39.1641 90.7324 39.9023 91.9492 39.9023C93.1523 39.9023 94.0547 39.1641 94.0547 38.0977C94.0547 37.0449 93.1523 36.3066 91.9492 36.3066ZM98.5391 34.9531V41.2012H97.4727V34.9531H98.5391ZM98.5391 41.7891V44.7148H91.7168V46.082H98.9766V46.9434H90.6641V43.9082H97.4727V42.6504H90.6367V41.7891H98.5391ZM110.625 34.9531V47.1074H109.545V34.9531H110.625ZM105.088 38.918C105.088 40.9551 106.51 42.9238 108.342 43.7031L107.74 44.5371C106.339 43.915 105.149 42.5957 104.582 40.9824C104.035 42.6914 102.853 44.0928 101.451 44.7559L100.85 43.9219C102.654 43.1016 104.035 41.0508 104.035 38.918V37.9473H101.178V37.0723H104.021V35.1855H105.088V37.0723H107.918V37.9473H105.088V38.918ZM126.648 36.0059V36.8672H116.791V36.0059H121.221V34.7754H122.287V36.0059H126.648ZM121.754 37.3457C124.256 37.3457 125.691 37.9609 125.691 39.1094C125.691 40.1895 124.461 40.7842 122.287 40.8457V41.8574H127.291V42.7324H116.217V41.8574H121.221V40.8457C119.033 40.7842 117.803 40.1895 117.803 39.1094C117.803 37.9609 119.238 37.3457 121.754 37.3457ZM121.754 38.125C119.936 38.125 118.896 38.4941 118.91 39.1094C118.896 39.752 119.936 40.1074 121.754 40.1074C123.572 40.1074 124.584 39.752 124.598 39.1094C124.584 38.4941 123.572 38.125 121.754 38.125ZM125.814 43.7168V47.1074H124.748V44.5645H117.406V43.7168H125.814ZM139.391 41.3652V42.2402H128.316V41.3652H139.391ZM138.16 45.9453V46.8477H129.752V43.3066H130.832V45.9453H138.16ZM133.854 35.3906C136.465 35.377 138.146 36.2793 138.146 37.7969C138.146 39.3145 136.465 40.2168 133.854 40.2168C131.215 40.2168 129.547 39.3145 129.547 37.7969C129.547 36.2793 131.215 35.377 133.854 35.3906ZM133.854 36.252C131.898 36.252 130.641 36.8398 130.654 37.7969C130.641 38.7539 131.898 39.3418 133.854 39.3418C135.795 39.3418 137.053 38.7539 137.053 37.7969C137.053 36.8398 135.795 36.252 133.854 36.252ZM153.336 34.9531V39.7656H155.373V40.668H153.336V47.1348H152.27V34.9531H153.336ZM150.137 36.1426V37.0312H145.529V43.1836C147.73 43.1836 149.289 43.0811 151.094 42.7461L151.23 43.6758C149.33 44.0176 147.73 44.0859 145.42 44.0859H144.463V36.1426H150.137ZM162.127 36.0879C162.127 37.7969 164.369 39.2871 166.557 39.5879L166.119 40.4629C164.232 40.1484 162.366 39.1025 161.58 37.6055C160.801 39.1094 158.928 40.1484 157.041 40.4629L156.604 39.5879C158.791 39.2871 161.02 37.8242 161.02 36.0879V35.3906H162.127V36.0879ZM167.104 41.8027V42.7051H162.072V47.1074H161.02V42.7051H156.029V41.8027H167.104ZM178.205 34.9531V41.1738H177.125V39.9023H173.885V39.0547H177.125V37.5918H174.062C173.297 39.5127 171.41 40.8047 168.717 41.4473L168.334 40.5586C171.314 39.8682 173.051 38.4121 173.256 36.457H168.949V35.5684H174.432C174.432 35.9717 174.391 36.3613 174.322 36.7305H177.125V34.9531H178.205ZM178.205 41.7207V44.6875H171.424V46.1094H178.615V46.998H170.357V43.8672H177.125V42.5957H170.33V41.7207H178.205ZM191.357 44.7012V45.6035H180.229V44.7012H185.232V42.4043H181.623V38.6582H188.896V36.7441H181.596V35.8555H189.949V39.5332H182.689V41.5156H190.236V42.4043H186.285V44.7012H191.357ZM205.863 34.9668V44.1953H204.783V42.9375H202.268V42.1582H204.783V34.9668H205.863ZM206.164 45.9453V46.8477H197.523V43.293H198.604V45.9453H206.164ZM195.773 40.5996C198.043 40.5859 201.078 40.5723 203.689 40.2441L203.758 41.0234C202.671 41.1943 201.536 41.3037 200.422 41.3652V43.7715H199.342V41.4199C198.111 41.4746 196.942 41.4814 195.924 41.4746L195.773 40.5996ZM199.766 35.459C201.543 35.459 202.76 36.3066 202.773 37.5781C202.76 38.877 201.543 39.6836 199.766 39.6836C197.975 39.6836 196.758 38.877 196.758 37.5781C196.758 36.3066 197.975 35.459 199.766 35.459ZM199.766 36.2793C198.576 36.2656 197.77 36.7988 197.783 37.5781C197.77 38.3711 198.576 38.8906 199.766 38.8906C200.914 38.8906 201.734 38.3711 201.748 37.5781C201.734 36.7988 200.914 36.2656 199.766 36.2793ZM217.348 34.9531V39.9707H219.385V40.8594H217.348V47.1074H216.281V34.9531H217.348ZM215.105 36.9082V37.7969H207.873V36.9082H211.004V35.1035H212.07V36.9082H215.105ZM211.551 38.8086C213.273 38.8086 214.518 39.957 214.531 41.5977C214.518 43.2383 213.273 44.3867 211.551 44.3867C209.814 44.3867 208.557 43.2383 208.57 41.5977C208.557 39.957 209.814 38.8086 211.551 38.8086ZM211.551 39.7109C210.416 39.7109 209.582 40.5039 209.596 41.5977C209.582 42.7051 210.416 43.4844 211.551 43.4707C212.672 43.4844 213.492 42.7051 213.506 41.5977C213.492 40.5039 212.672 39.7109 211.551 39.7109ZM229.871 38.6445V39.5059H221.545V35.4043H222.611V38.6445H229.871ZM231.156 41.1602V42.0352H220.027V41.1602H231.156ZM229.939 45.918V46.8066H221.477V43.2793H222.543V45.918H229.939ZM239.797 37.4824C239.797 38.9727 241.027 40.2988 242.818 40.832L242.312 41.6797C240.911 41.2422 239.817 40.333 239.291 39.1641C238.758 40.4561 237.63 41.4404 236.188 41.9121L235.654 41.0645C237.459 40.5176 238.744 39.1094 238.744 37.4824V37.2637H235.996V36.4023H238.744V34.8984H239.824V36.4023H242.545V37.2637H239.797V37.4824ZM245.156 34.9531V38.043H246.988V38.9453H245.156V42.1582H244.09V34.9531H245.156ZM245.156 42.7188V46.9434H237.486V42.7188H245.156ZM238.539 43.5664V46.0684H244.09V43.5664H238.539ZM251.021 35.8965C252.136 35.9033 253.038 36.5527 253.564 37.6738H256.764V34.9531H257.83V47.1348H256.764V42.418H253.646C253.134 43.6484 252.197 44.3594 251.021 44.3594C249.23 44.3594 247.973 42.7188 247.973 40.1348C247.973 37.5508 249.23 35.9102 251.021 35.8965ZM251.021 36.8535C249.818 36.8672 248.998 38.1523 248.998 40.1348C248.998 42.1172 249.818 43.4023 251.021 43.4023C252.211 43.4023 253.045 42.1172 253.045 40.1348C253.045 38.1523 252.211 36.8672 251.021 36.8535ZM253.879 38.5762C253.988 39.0479 254.057 39.5674 254.057 40.1348C254.057 40.6338 254.002 41.1055 253.92 41.5293H256.764V38.5762H253.879ZM269.875 34.9668V44.1953H268.795V42.9375H266.279V42.1582H268.795V34.9668H269.875ZM270.176 45.9453V46.8477H261.535V43.293H262.615V45.9453H270.176ZM259.785 40.5996C262.055 40.5859 265.09 40.5723 267.701 40.2441L267.77 41.0234C266.683 41.1943 265.548 41.3037 264.434 41.3652V43.7715H263.354V41.4199C262.123 41.4746 260.954 41.4814 259.936 41.4746L259.785 40.5996ZM263.777 35.459C265.555 35.459 266.771 36.3066 266.785 37.5781C266.771 38.877 265.555 39.6836 263.777 39.6836C261.986 39.6836 260.77 38.877 260.77 37.5781C260.77 36.3066 261.986 35.459 263.777 35.459ZM263.777 36.2793C262.588 36.2656 261.781 36.7988 261.795 37.5781C261.781 38.3711 262.588 38.8906 263.777 38.8906C264.926 38.8906 265.746 38.3711 265.76 37.5781C265.746 36.7988 264.926 36.2656 263.777 36.2793ZM284.873 34.9531V39.9707H286.91V40.8594H284.873V47.1074H283.807V34.9531H284.873ZM282.631 36.9082V37.7969H275.398V36.9082H278.529V35.1035H279.596V36.9082H282.631ZM279.076 38.8086C280.799 38.8086 282.043 39.957 282.057 41.5977C282.043 43.2383 280.799 44.3867 279.076 44.3867C277.34 44.3867 276.082 43.2383 276.096 41.5977C276.082 39.957 277.34 38.8086 279.076 38.8086ZM279.076 39.7109C277.941 39.7109 277.107 40.5039 277.121 41.5977C277.107 42.7051 277.941 43.4844 279.076 43.4707C280.197 43.4844 281.018 42.7051 281.031 41.5977C281.018 40.5039 280.197 39.7109 279.076 39.7109ZM298.941 39.8066V40.709H296.973V47.1074H295.906V34.9531H296.973V39.8066H298.941ZM289.139 36.1562V43.1152C290.916 43.1084 292.728 42.9717 294.73 42.5547L294.867 43.4707C292.775 43.8945 290.889 44.0176 289.043 44.0176H288.072V36.1562H289.139ZM310.781 40.5996V41.4473H299.652V40.5996H310.781ZM309.387 42.418V45.002H302.086V46.1641H309.783V46.9434H301.006V44.2637H308.32V43.2246H300.992V42.418H309.387ZM309.346 35.3223V37.8379H302.168V38.9043H309.564V39.6836H301.102V37.0996H308.266V36.1016H301.061V35.3223H309.346ZM325.369 35.459V36.334H321.514C321.527 37.7148 323.592 38.8086 325.738 39.0547L325.342 39.9023C323.353 39.6494 321.486 38.7607 320.816 37.4004C320.153 38.7607 318.294 39.6494 316.305 39.9023L315.908 39.0547C318.041 38.8086 320.092 37.7148 320.119 36.334H316.291V35.459H325.369ZM326.395 40.6816V41.5703H321.336V43.1699H324.986V47.1074H323.906V44.0449H316.51V43.1699H320.283V41.5703H315.279V40.6816H326.395ZM330.824 35.4043C332.643 35.418 333.969 36.5117 333.969 38.0977C333.969 39.6836 332.643 40.7773 330.824 40.7773C328.979 40.7773 327.666 39.6836 327.666 38.0977C327.666 36.5117 328.979 35.418 330.824 35.4043ZM330.824 36.3066C329.607 36.3066 328.705 37.0449 328.719 38.0977C328.705 39.1641 329.607 39.9023 330.824 39.9023C332.027 39.9023 332.93 39.1641 332.93 38.0977C332.93 37.0449 332.027 36.3066 330.824 36.3066ZM337.414 34.9531V41.2012H336.348V34.9531H337.414ZM337.414 41.7891V44.7148H330.592V46.082H337.852V46.9434H329.539V43.9082H336.348V42.6504H329.512V41.7891H337.414ZM349.09 36.0879C349.09 37.7969 351.332 39.2871 353.52 39.5879L353.082 40.4629C351.195 40.1484 349.329 39.1025 348.543 37.6055C347.764 39.1094 345.891 40.1484 344.004 40.4629L343.566 39.5879C345.754 39.2871 347.982 37.8242 347.982 36.0879V35.3906H349.09V36.0879ZM354.066 41.8027V42.7051H349.035V47.1074H347.982V42.7051H342.992V41.8027H354.066ZM362.721 43.1152C362.721 44.1885 363.295 45.3301 364.457 45.9863C365.605 45.2686 366.221 44.0586 366.221 43.1152V42.4453H367.273V43.1152C367.273 44.3594 368.189 45.6172 369.748 46.1504L369.215 46.9434C367.998 46.5127 367.144 45.665 366.727 44.6465C366.351 45.6309 365.605 46.5605 364.484 47.0391C363.302 46.5879 362.55 45.6924 362.188 44.6738C361.757 45.6582 360.916 46.5059 359.754 46.9434L359.207 46.1504C360.738 45.5762 361.668 44.2773 361.682 43.1152V42.4453H362.721V43.1152ZM368.641 34.9668V41.9121H367.574V34.9668H368.641ZM362.078 35.6777C363.924 35.6777 365.264 36.8262 365.264 38.5215C365.264 40.1895 363.924 41.3379 362.078 41.3379C360.232 41.3379 358.893 40.1895 358.893 38.5215C358.893 36.8262 360.232 35.6777 362.078 35.6777ZM362.078 36.5938C360.834 36.5801 359.932 37.3867 359.945 38.5215C359.932 39.6426 360.834 40.4355 362.078 40.4492C363.309 40.4355 364.211 39.6426 364.211 38.5215C364.211 37.3867 363.309 36.5801 362.078 36.5938ZM380.111 34.9531V39.7656H382.148V40.668H380.111V47.1348H379.045V34.9531H380.111ZM376.912 36.1426V37.0312H372.305V43.1836C374.506 43.1836 376.064 43.0811 377.869 42.7461L378.006 43.6758C376.105 44.0176 374.506 44.0859 372.195 44.0859H371.238V36.1426H376.912ZM384.09 46.082C383.611 46.082 383.201 45.6855 383.215 45.1934C383.201 44.7148 383.611 44.3184 384.09 44.3184C384.568 44.3184 384.965 44.7148 384.965 45.1934C384.965 45.6855 384.568 46.082 384.09 46.082Z" fill="white"/>
<path d="M16 41L16 20L2.50535 29.3768C1.32245 30.1987 1.3701 31.9639 2.59561 32.7208L16 41Z" fill="#1C232F" fill-opacity="0.8"/>
</svg>
