<svg width="394" height="82" viewBox="0 0 394 82" fill="none" xmlns="http://www.w3.org/2000/svg">
<rect x="16" width="378" height="82" rx="8" fill="#1C232F" fill-opacity="0.8"/>
<path d="M28.8125 16.2207C28.7988 18.4355 30.3164 20.6777 32.1074 21.4844L31.4512 22.332C30.0703 21.6553 28.874 20.2266 28.293 18.4902C27.7256 20.3291 26.5293 21.8604 25.1074 22.5781L24.4238 21.6758C26.2285 20.8418 27.7324 18.5312 27.7461 16.2207V14.0059H28.8125V16.2207ZM34.5137 12.9531V25.1348H33.4336V12.9531H34.5137ZM42.9355 14.0195V19.6523H37.2344V14.0195H42.9355ZM38.2871 14.9082V18.791H41.8828V14.9082H38.2871ZM46.627 12.9668V21.7031H45.5605V12.9668H46.627ZM47.0098 23.8086V24.6973H38.7793V20.8555H39.8457V23.8086H47.0098ZM63.2793 18.6406V19.5293H58.2617V20.8281C60.5586 20.9238 61.9121 21.6758 61.9258 22.9609C61.9121 24.3145 60.3535 25.0801 57.7422 25.0801C55.1035 25.0801 53.5449 24.3145 53.5449 22.9609C53.5449 21.6758 54.8916 20.9238 57.209 20.8281V19.5293H52.2051V18.6406H63.2793ZM57.7422 21.6484C55.7871 21.6621 54.625 22.1406 54.6387 22.9609C54.625 23.7676 55.7871 24.2461 57.7422 24.2461C59.6699 24.2461 60.8457 23.7676 60.8457 22.9609C60.8457 22.1406 59.6699 21.6621 57.7422 21.6484ZM62.2949 13.5273V14.4023H58.4395C58.5078 15.7695 60.5176 16.8291 62.6641 17.0547L62.2676 17.9023C60.2783 17.6631 58.4121 16.7744 57.7422 15.4141C57.0791 16.7744 55.2197 17.6631 53.2168 17.9023L52.834 17.0547C54.9395 16.8291 56.9629 15.7695 57.0449 14.4023H53.2168V13.5273H62.2949ZM77.2246 12.9531V17.9707H79.2617V18.8594H77.2246V25.1074H76.1582V12.9531H77.2246ZM74.9824 14.9082V15.7969H67.75V14.9082H70.8809V13.1035H71.9473V14.9082H74.9824ZM71.4277 16.8086C73.1504 16.8086 74.3945 17.957 74.4082 19.5977C74.3945 21.2383 73.1504 22.3867 71.4277 22.3867C69.6914 22.3867 68.4336 21.2383 68.4473 19.5977C68.4336 17.957 69.6914 16.8086 71.4277 16.8086ZM71.4277 17.7109C70.293 17.7109 69.459 18.5039 69.4727 19.5977C69.459 20.7051 70.293 21.4844 71.4277 21.4707C72.5488 21.4844 73.3691 20.7051 73.3828 19.5977C73.3691 18.5039 72.5488 17.7109 71.4277 17.7109ZM91.293 17.8066V18.709H89.3242V25.1074H88.2578V12.9531H89.3242V17.8066H91.293ZM81.4902 14.1562V21.1152C83.2676 21.1084 85.0791 20.9717 87.082 20.5547L87.2188 21.4707C85.127 21.8945 83.2402 22.0176 81.3945 22.0176H80.4238V14.1562H81.4902ZM95.9961 13.8418C97.9102 13.8418 99.2637 15.0039 99.2637 16.6992C99.2637 18.3945 97.9102 19.5566 95.9961 19.5566C94.082 19.5566 92.7012 18.3945 92.7148 16.6992C92.7012 15.0039 94.082 13.8418 95.9961 13.8418ZM95.9961 14.7852C94.6973 14.7852 93.7539 15.5645 93.7676 16.6992C93.7539 17.834 94.6973 18.6133 95.9961 18.6133C97.2812 18.6133 98.2109 17.834 98.2109 16.6992C98.2109 15.5645 97.2812 14.7852 95.9961 14.7852ZM101.984 12.9531V25.1348H100.918V12.9531H101.984ZM92.0859 21.5391C94.3281 21.5391 97.418 21.5254 100.111 21.1289L100.193 21.9219C97.418 22.4414 94.4238 22.4551 92.2363 22.4551L92.0859 21.5391ZM117.707 20.7871V25.1074H116.627V21.6484H109.531V20.7871H117.707ZM117.707 12.9531V20.1172H116.627V18.3672H113.496C112.929 19.0576 112.033 19.4678 110.98 19.4609C109.162 19.4746 107.822 18.2715 107.822 16.5488C107.822 14.8535 109.162 13.6504 110.98 13.6504C112.026 13.6504 112.922 14.0605 113.496 14.7441H116.627V12.9531H117.707ZM110.98 14.5664C109.736 14.5664 108.848 15.4004 108.848 16.5488C108.848 17.7383 109.736 18.5586 110.98 18.5586C112.17 18.5586 113.086 17.7383 113.086 16.5488C113.086 15.4004 112.17 14.5664 110.98 14.5664ZM113.975 17.4785H116.627V15.6328H113.975C114.07 15.9199 114.125 16.2207 114.125 16.5488C114.125 16.877 114.07 17.1914 113.975 17.4785ZM129.232 12.9121V15.8652H131.078V16.7539H129.232V19.6387H128.166V12.9121H129.232ZM129.232 20.2676V22.9609H122.561V24.1504H129.684V24.9707H121.508V22.168H128.166V21.0742H121.48V20.2676H129.232ZM127.004 14.0605V14.9219H119.758V14.0605H122.848V12.8301H123.914V14.0605H127.004ZM123.381 15.4688C125.145 15.4688 126.293 16.2344 126.307 17.4648C126.293 18.6953 125.145 19.4609 123.381 19.4609C121.604 19.4609 120.441 18.6953 120.455 17.4648C120.441 16.2344 121.604 15.4688 123.381 15.4688ZM123.381 16.2617C122.232 16.2617 121.467 16.7402 121.48 17.4648C121.467 18.2031 122.232 18.6543 123.381 18.6543C124.529 18.6543 125.281 18.2031 125.295 17.4648C125.281 16.7402 124.529 16.2617 123.381 16.2617ZM142.959 22.7012V23.6035H131.83V22.7012H136.834V20.4043H133.225V16.6582H140.498V14.7441H133.197V13.8555H141.551V17.5332H134.291V19.5156H141.838V20.4043H137.887V22.7012H142.959ZM156.945 20.6367V24.9434H149.275V20.6367H156.945ZM150.328 21.5117V24.0684H155.879V21.5117H150.328ZM156.945 12.9531V15.8652H158.777V16.7676H156.945V19.9668H155.879V12.9531H156.945ZM149.016 13.582V15.4414H152.557V13.582H153.623V19.2012H147.963V13.582H149.016ZM149.016 18.3125H152.557V16.2891H149.016V18.3125ZM169.961 12.9531V25.1074H168.922V12.9531H169.961ZM167.514 13.2129V24.4922H166.488V18.5859H164.93C164.813 20.9512 163.809 22.4277 162.305 22.4277C160.719 22.4277 159.693 20.7871 159.693 18.2031C159.693 15.6191 160.719 13.9785 162.305 13.9785C163.781 13.9785 164.779 15.4072 164.916 17.6973H166.488V13.2129H167.514ZM162.305 14.9902C161.32 14.9902 160.691 16.2207 160.705 18.2031C160.691 20.1719 161.32 21.416 162.305 21.4023C163.289 21.416 163.918 20.1719 163.918 18.2031C163.918 16.2207 163.289 14.9902 162.305 14.9902ZM179.094 14.1016V24H177.85V15.3867H177.795L175.389 16.9863V15.7422L177.85 14.1016H179.094ZM191.371 12.9531V20.1582H190.291V18.2441H187.447V19.2832H181.869V13.8828H187.447V14.9355H190.291V12.9531H191.371ZM182.936 14.7578V18.4082H186.395V14.7578H182.936ZM187.338 20.5137C189.867 20.5137 191.412 21.3477 191.412 22.8105C191.412 24.2598 189.867 25.0801 187.338 25.0801C184.809 25.0801 183.264 24.2598 183.264 22.8105C183.264 21.3477 184.809 20.5137 187.338 20.5137ZM187.338 21.3477C185.479 21.3613 184.316 21.8945 184.33 22.8105C184.316 23.6855 185.479 24.2324 187.338 24.2324C189.197 24.2324 190.346 23.6855 190.346 22.8105C190.346 21.8945 189.197 21.3613 187.338 21.3477ZM187.447 17.3418H190.291V15.8242H187.447V17.3418ZM198.932 13.1719C201.639 13.1719 203.225 13.9102 203.225 15.2637C203.225 16.6445 201.639 17.3828 198.932 17.3965C196.225 17.3828 194.625 16.6445 194.625 15.2637C194.625 13.9102 196.225 13.1719 198.932 13.1719ZM198.932 13.9785C196.908 13.9785 195.732 14.4707 195.746 15.2637C195.732 16.1113 196.908 16.5762 198.932 16.5762C200.941 16.5762 202.131 16.1113 202.131 15.2637C202.131 14.4707 200.941 13.9785 198.932 13.9785ZM204.469 18.2168V19.0918H193.395V18.2168H204.469ZM203.047 20.1445V22.8652H195.828V24.123H203.416V24.9707H194.762V22.0723H201.994V20.9648H194.734V20.1445H203.047ZM213.355 16.6855C213.355 18.75 214.859 20.8418 216.65 21.6211L216.049 22.4688C214.627 21.8193 213.396 20.418 212.836 18.7363C212.262 20.5205 211.038 22.0723 209.65 22.7695L209.008 21.9219C210.744 21.0879 212.262 18.791 212.275 16.6855V15.0996H209.404V14.2109H216.254V15.0996H213.355V16.6855ZM219.029 12.9531V25.1074H217.949V12.9531H219.029ZM230.773 13.4727V17.5742H227.178V19.1328H232.182V20.0078H221.107V19.1328H226.111V17.5742H222.543V13.4727H230.773ZM223.596 14.334V16.7129H229.707V14.334H223.596ZM230.814 21.2793V25.1074H229.734V22.1406H222.338V21.2793H230.814ZM242.613 12.9531V17.9707H244.65V18.8594H242.613V25.1074H241.547V12.9531H242.613ZM240.371 14.9082V15.7969H233.139V14.9082H236.27V13.1035H237.336V14.9082H240.371ZM236.816 16.8086C238.539 16.8086 239.783 17.957 239.797 19.5977C239.783 21.2383 238.539 22.3867 236.816 22.3867C235.08 22.3867 233.822 21.2383 233.836 19.5977C233.822 17.957 235.08 16.8086 236.816 16.8086ZM236.816 17.7109C235.682 17.7109 234.848 18.5039 234.861 19.5977C234.848 20.7051 235.682 21.4844 236.816 21.4707C237.938 21.4844 238.758 20.7051 238.771 19.5977C238.758 18.5039 237.938 17.7109 236.816 17.7109ZM248.574 13.8965C249.688 13.9033 250.591 14.5527 251.117 15.6738H254.316V12.9531H255.383V25.1348H254.316V20.418H251.199C250.687 21.6484 249.75 22.3594 248.574 22.3594C246.783 22.3594 245.525 20.7188 245.525 18.1348C245.525 15.5508 246.783 13.9102 248.574 13.8965ZM248.574 14.8535C247.371 14.8672 246.551 16.1523 246.551 18.1348C246.551 20.1172 247.371 21.4023 248.574 21.4023C249.764 21.4023 250.598 20.1172 250.598 18.1348C250.598 16.1523 249.764 14.8672 248.574 14.8535ZM251.432 16.5762C251.541 17.0479 251.609 17.5674 251.609 18.1348C251.609 18.6338 251.555 19.1055 251.473 19.5293H254.316V16.5762H251.432ZM265.24 16.2207C265.227 18.4355 266.744 20.6777 268.535 21.4844L267.879 22.332C266.498 21.6553 265.302 20.2266 264.721 18.4902C264.153 20.3291 262.957 21.8604 261.535 22.5781L260.852 21.6758C262.656 20.8418 264.16 18.5312 264.174 16.2207V14.0059H265.24V16.2207ZM270.941 12.9531V25.1348H269.861V12.9531H270.941ZM279.363 14.0195V19.6523H273.662V14.0195H279.363ZM274.715 14.9082V18.791H278.311V14.9082H274.715ZM283.055 12.9668V21.7031H281.988V12.9668H283.055ZM283.438 23.8086V24.6973H275.207V20.8555H276.273V23.8086H283.438ZM295.154 12.9668V21.8535H294.088V12.9668H295.154ZM295.537 23.9453V24.8477H287.307V20.9512H288.373V23.9453H295.537ZM288.592 13.8145C290.41 13.8145 291.777 15.0449 291.777 16.7949C291.777 18.5723 290.41 19.7891 288.592 19.7891C286.773 19.7891 285.406 18.5723 285.406 16.7949C285.406 15.0449 286.773 13.8145 288.592 13.8145ZM288.592 14.7578C287.361 14.7578 286.445 15.6055 286.459 16.7949C286.445 18.0117 287.361 18.8457 288.592 18.8457C289.795 18.8457 290.725 18.0117 290.725 16.7949C290.725 15.6055 289.795 14.7578 288.592 14.7578ZM301.566 16.6855C301.566 18.75 303.07 20.8418 304.861 21.6211L304.26 22.4688C302.838 21.8193 301.607 20.418 301.047 18.7363C300.473 20.5205 299.249 22.0723 297.861 22.7695L297.219 21.9219C298.955 21.0879 300.473 18.791 300.486 16.6855V15.0996H297.615V14.2109H304.465V15.0996H301.566V16.6855ZM307.24 12.9531V25.1074H306.16V12.9531H307.24ZM318.943 14.1836V22.0176H313.338V14.1836H318.943ZM314.377 15.0449V21.1426H317.877V15.0449H314.377ZM322.238 12.9531V17.8066H324.275V18.7363H322.238V25.1074H321.172V12.9531H322.238ZM334.98 12.9531V25.1074H333.9V12.9531H334.98ZM332.178 14.2793V15.168H330.797V21.0195C331.48 20.9717 332.157 20.9102 332.807 20.8281L332.875 21.6348C330.223 22.0449 327.297 22.0859 325.041 22.0996L324.918 21.1836L326.6 21.1699V15.168H325.232V14.2793H332.178ZM327.652 21.1562C328.336 21.1426 329.04 21.1152 329.744 21.0742V15.168H327.652V21.1562ZM340.285 13.8965C342.076 13.9102 343.348 15.5508 343.361 18.1348C343.348 20.7188 342.076 22.3594 340.285 22.3594C338.48 22.3594 337.223 20.7188 337.223 18.1348C337.223 15.5508 338.48 13.9102 340.285 13.8965ZM340.285 14.8535C339.082 14.8672 338.234 16.1523 338.234 18.1348C338.234 20.1172 339.082 21.4023 340.285 21.4023C341.502 21.4023 342.322 20.1172 342.322 18.1348C342.322 16.1523 341.502 14.8672 340.285 14.8535ZM346.438 12.9531V17.8066H348.475V18.7363H346.438V25.1074H345.371V12.9531H346.438ZM359.166 12.9668V21.8535H358.1V12.9668H359.166ZM359.549 23.9453V24.8477H351.318V20.9512H352.385V23.9453H359.549ZM352.604 13.8145C354.422 13.8145 355.789 15.0449 355.789 16.7949C355.789 18.5723 354.422 19.7891 352.604 19.7891C350.785 19.7891 349.418 18.5723 349.418 16.7949C349.418 15.0449 350.785 13.8145 352.604 13.8145ZM352.604 14.7578C351.373 14.7578 350.457 15.6055 350.471 16.7949C350.457 18.0117 351.373 18.8457 352.604 18.8457C353.807 18.8457 354.736 18.0117 354.736 16.7949C354.736 15.6055 353.807 14.7578 352.604 14.7578ZM365.578 16.6855C365.578 18.75 367.082 20.8418 368.873 21.6211L368.271 22.4688C366.85 21.8193 365.619 20.418 365.059 18.7363C364.484 20.5205 363.261 22.0723 361.873 22.7695L361.23 21.9219C362.967 21.0879 364.484 18.791 364.498 16.6855V15.0996H361.627V14.2109H368.477V15.0996H365.578V16.6855ZM371.252 12.9531V25.1074H370.172V12.9531H371.252ZM33.9805 34.9668V38.6445H35.7988V39.5469H33.9805V43.1152H32.9004V34.9668H33.9805ZM24.4375 41.8711C25.4082 41.8711 26.543 41.8711 27.7324 41.8301V40.9414C26.3174 40.8184 25.4082 40.1553 25.4082 39.1504C25.4082 38.043 26.543 37.3594 28.252 37.3594C29.9746 37.3594 31.0957 38.043 31.1094 39.1504C31.0957 40.1484 30.207 40.8115 28.7988 40.9414V41.7891C29.9336 41.7344 31.082 41.6455 32.1484 41.4883L32.2441 42.2676C29.6055 42.7324 26.6934 42.7461 24.5605 42.7461L24.4375 41.8711ZM33.9805 43.7168V47.1074H32.9004V44.5781H25.9277V43.7168H33.9805ZM31.7793 36.0742V36.8945H24.7383V36.0742H27.7324V34.8574H28.7988V36.0742H31.7793ZM28.252 38.125C27.1309 38.1113 26.4336 38.5078 26.4336 39.1504C26.4336 39.7793 27.1309 40.2168 28.252 40.2031C29.373 40.2168 30.084 39.7793 30.084 39.1504C30.084 38.5078 29.373 38.1113 28.252 38.125ZM46.627 34.9668V43.8535H45.5605V34.9668H46.627ZM47.0098 45.9453V46.8477H38.7793V42.9512H39.8457V45.9453H47.0098ZM40.0645 35.8145C41.8828 35.8145 43.25 37.0449 43.25 38.7949C43.25 40.5723 41.8828 41.7891 40.0645 41.7891C38.2461 41.7891 36.8789 40.5723 36.8789 38.7949C36.8789 37.0449 38.2461 35.8145 40.0645 35.8145ZM40.0645 36.7578C38.834 36.7578 37.918 37.6055 37.9316 38.7949C37.918 40.0117 38.834 40.8457 40.0645 40.8457C41.2676 40.8457 42.1973 40.0117 42.1973 38.7949C42.1973 37.6055 41.2676 36.7578 40.0645 36.7578ZM58.1934 34.9121V37.8652H60.0391V38.7539H58.1934V41.6387H57.127V34.9121H58.1934ZM58.1934 42.2676V44.9609H51.5215V46.1504H58.6445V46.9707H50.4688V44.168H57.127V43.0742H50.4414V42.2676H58.1934ZM55.9648 36.0605V36.9219H48.7188V36.0605H51.8086V34.8301H52.875V36.0605H55.9648ZM52.3418 37.4688C54.1055 37.4688 55.2539 38.2344 55.2676 39.4648C55.2539 40.6953 54.1055 41.4609 52.3418 41.4609C50.5645 41.4609 49.4023 40.6953 49.416 39.4648C49.4023 38.2344 50.5645 37.4688 52.3418 37.4688ZM52.3418 38.2617C51.1934 38.2617 50.4277 38.7402 50.4414 39.4648C50.4277 40.2031 51.1934 40.6543 52.3418 40.6543C53.4902 40.6543 54.2422 40.2031 54.2559 39.4648C54.2422 38.7402 53.4902 38.2617 52.3418 38.2617ZM70.4023 36.0879C70.4023 37.7969 72.6445 39.2871 74.832 39.5879L74.3945 40.4629C72.5078 40.1484 70.6416 39.1025 69.8555 37.6055C69.0762 39.1094 67.2031 40.1484 65.3164 40.4629L64.8789 39.5879C67.0664 39.2871 69.2949 37.8242 69.2949 36.0879V35.3906H70.4023V36.0879ZM75.3789 41.8027V42.7051H70.3477V47.1074H69.2949V42.7051H64.3047V41.8027H75.3789ZM84.0332 43.1152C84.0332 44.1885 84.6074 45.3301 85.7695 45.9863C86.918 45.2686 87.5332 44.0586 87.5332 43.1152V42.4453H88.5859V43.1152C88.5859 44.3594 89.502 45.6172 91.0605 46.1504L90.5273 46.9434C89.3105 46.5127 88.4561 45.665 88.0391 44.6465C87.6631 45.6309 86.918 46.5605 85.7969 47.0391C84.6143 46.5879 83.8623 45.6924 83.5 44.6738C83.0693 45.6582 82.2285 46.5059 81.0664 46.9434L80.5195 46.1504C82.0508 45.5762 82.9805 44.2773 82.9941 43.1152V42.4453H84.0332V43.1152ZM89.9531 34.9668V41.9121H88.8867V34.9668H89.9531ZM83.3906 35.6777C85.2363 35.6777 86.5762 36.8262 86.5762 38.5215C86.5762 40.1895 85.2363 41.3379 83.3906 41.3379C81.5449 41.3379 80.2051 40.1895 80.2051 38.5215C80.2051 36.8262 81.5449 35.6777 83.3906 35.6777ZM83.3906 36.5938C82.1465 36.5801 81.2441 37.3867 81.2578 38.5215C81.2441 39.6426 82.1465 40.4355 83.3906 40.4492C84.6211 40.4355 85.5234 39.6426 85.5234 38.5215C85.5234 37.3867 84.6211 36.5801 83.3906 36.5938ZM101.424 34.9531V39.7656H103.461V40.668H101.424V47.1348H100.357V34.9531H101.424ZM98.2246 36.1426V37.0312H93.6172V43.1836C95.8184 43.1836 97.377 43.0811 99.1816 42.7461L99.3184 43.6758C97.418 44.0176 95.8184 44.0859 93.5078 44.0859H92.5508V36.1426H98.2246ZM105.402 46.082C104.924 46.082 104.514 45.6855 104.527 45.1934C104.514 44.7148 104.924 44.3184 105.402 44.3184C105.881 44.3184 106.277 44.7148 106.277 45.1934C106.277 45.6855 105.881 46.082 105.402 46.082ZM33.9941 56.9531V60.5762H35.8398V61.4785H33.9941V65.7578H32.9277V56.9531H33.9941ZM30.4805 58.0059V58.9082H26.1328V62.6953C28.5732 62.6953 29.9609 62.6338 31.5879 62.2988L31.7246 63.1875C30.0156 63.5156 28.5664 63.5977 26.0098 63.5977H25.0664V58.0059H30.4805ZM34.5547 67.9453V68.8477H26.3926V64.8691H27.4453V67.9453H34.5547ZM38.5879 67.084L37.5215 70.8027H36.5098L37.2617 67.084H38.5879ZM47.666 57.8418C49.5801 57.8418 50.9336 59.0039 50.9336 60.6992C50.9336 62.3945 49.5801 63.5566 47.666 63.5566C45.752 63.5566 44.3711 62.3945 44.3848 60.6992C44.3711 59.0039 45.752 57.8418 47.666 57.8418ZM47.666 58.7852C46.3672 58.7852 45.4238 59.5645 45.4375 60.6992C45.4238 61.834 46.3672 62.6133 47.666 62.6133C48.9512 62.6133 49.8809 61.834 49.8809 60.6992C49.8809 59.5645 48.9512 58.7852 47.666 58.7852ZM53.6543 56.9531V69.1348H52.5879V56.9531H53.6543ZM43.7559 65.5391C45.998 65.5391 49.0879 65.5254 51.7812 65.1289L51.8633 65.9219C49.0879 66.4414 46.0938 66.4551 43.9062 66.4551L43.7559 65.5391ZM59.8613 60.2207C59.8613 62.3672 61.2832 64.5684 63.0059 65.416L62.3496 66.2773C61.0098 65.5732 59.8887 64.1377 59.3555 62.4492C58.8086 64.2471 57.6602 65.7783 56.293 66.5098L55.6094 65.6484C57.3867 64.7734 58.7949 62.4355 58.8086 60.2207V58.0059H59.8613V60.2207ZM65.1934 56.9531V61.8887H67.2305V62.8184H65.1934V69.1074H64.127V56.9531H65.1934ZM77.7168 60.6445V61.5059H69.3906V57.4043H70.457V60.6445H77.7168ZM79.002 63.1602V64.0352H67.873V63.1602H79.002ZM77.7852 67.918V68.8066H69.3223V65.2793H70.3887V67.918H77.7852ZM92.9883 56.9668V60.6445H94.8066V61.5469H92.9883V65.1152H91.9082V56.9668H92.9883ZM83.4453 63.8711C84.416 63.8711 85.5508 63.8711 86.7402 63.8301V62.9414C85.3252 62.8184 84.416 62.1553 84.416 61.1504C84.416 60.043 85.5508 59.3594 87.2598 59.3594C88.9824 59.3594 90.1035 60.043 90.1172 61.1504C90.1035 62.1484 89.2148 62.8115 87.8066 62.9414V63.7891C88.9414 63.7344 90.0898 63.6455 91.1562 63.4883L91.252 64.2676C88.6133 64.7324 85.7012 64.7461 83.5684 64.7461L83.4453 63.8711ZM92.9883 65.7168V69.1074H91.9082V66.5781H84.9355V65.7168H92.9883ZM90.7871 58.0742V58.8945H83.7461V58.0742H86.7402V56.8574H87.8066V58.0742H90.7871ZM87.2598 60.125C86.1387 60.1113 85.4414 60.5078 85.4414 61.1504C85.4414 61.7793 86.1387 62.2168 87.2598 62.2031C88.3809 62.2168 89.0918 61.7793 89.0918 61.1504C89.0918 60.5078 88.3809 60.1113 87.2598 60.125ZM105.635 56.9668V65.8535H104.568V56.9668H105.635ZM106.018 67.9453V68.8477H97.7871V64.9512H98.8535V67.9453H106.018ZM99.0723 57.8145C100.891 57.8145 102.258 59.0449 102.258 60.7949C102.258 62.5723 100.891 63.7891 99.0723 63.7891C97.2539 63.7891 95.8867 62.5723 95.8867 60.7949C95.8867 59.0449 97.2539 57.8145 99.0723 57.8145ZM99.0723 58.7578C97.8418 58.7578 96.9258 59.6055 96.9395 60.7949C96.9258 62.0117 97.8418 62.8457 99.0723 62.8457C100.275 62.8457 101.205 62.0117 101.205 60.7949C101.205 59.6055 100.275 58.7578 99.0723 58.7578ZM117.721 56.9531V69.1348H116.641V56.9531H117.721ZM111.254 57.8965C113.059 57.9102 114.357 59.5508 114.357 62.1348C114.357 64.7188 113.059 66.3594 111.254 66.3594C109.436 66.3594 108.15 64.7188 108.15 62.1348C108.15 59.5508 109.436 57.9102 111.254 57.8965ZM111.254 58.8535C110.037 58.8672 109.189 60.1523 109.189 62.1348C109.189 64.1172 110.037 65.4023 111.254 65.4023C112.471 65.4023 113.318 64.1172 113.318 62.1348C113.318 60.1523 112.471 58.8672 111.254 58.8535ZM125.855 57.1582V58.3203H131.871V57.1582H132.938V61.1504H124.789V57.1582H125.855ZM125.855 60.3164H131.871V59.1406H125.855V60.3164ZM134.387 62.1621V63.0508H129.369V64.2402H132.965V66.9336H125.746V68.123H133.334V68.9707H124.68V66.1406H131.912V65.0605H124.652V64.2402H128.303V63.0508H123.312V62.1621H134.387ZM144.818 56.9531V61.9023H146.787V62.8047H144.818V69.1074H143.752V56.9531H144.818ZM141.674 58.2656C141.674 61.7109 140.061 64.8418 136.096 66.7969L135.494 65.9492C138.639 64.3838 140.348 62.0459 140.594 59.168H136.055V58.2656H141.674ZM157.328 60.3574V61.2461H149.029V57.1992H150.096V60.3574H157.328ZM158.6 62.668V63.5566H147.512V62.668H158.6ZM153.049 64.6504C155.66 64.6504 157.219 65.4434 157.232 66.8516C157.219 68.2598 155.66 69.0527 153.049 69.0527C150.424 69.0527 148.852 68.2598 148.852 66.8516C148.852 65.4434 150.424 64.6504 153.049 64.6504ZM153.049 65.498C151.094 65.5117 149.932 65.9902 149.945 66.8516C149.932 67.6992 151.094 68.2188 153.049 68.2188C154.977 68.2188 156.152 67.6992 156.152 66.8516C156.152 65.9902 154.977 65.5117 153.049 65.498Z" fill="white"/>
<path d="M16 56.0333L16 27.3333L1.61952 40.9895C0.755432 41.8101 0.796082 43.1994 1.70666 43.9681L16 56.0333Z" fill="#1C232F" fill-opacity="0.8"/>
</svg>
