<svg width="330" height="119" viewBox="0 0 330 119" fill="none" xmlns="http://www.w3.org/2000/svg">
<g filter="url(#filter0_d_1149_1835)">
<path d="M15.536 21.336C15.216 22.296 14.72 23.192 14.048 24.024C13.376 24.824 12.592 25.544 11.696 26.184C10.832 26.792 9.856 27.272 8.768 27.624C7.68 27.976 6.528 28.152 5.312 28.152C4.256 28.152 3.728 27.656 3.728 26.664V23.064C3.728 22.136 4.256 21.672 5.312 21.672C6.272 21.672 7.152 21.464 7.952 21.048C8.784 20.632 9.488 20.072 10.064 19.368C10.672 18.632 11.136 17.784 11.456 16.824C11.808 15.832 11.984 14.792 11.984 13.704V6.984C11.984 5.832 12.512 5.256 13.568 5.256H17.408C18.432 5.256 18.944 5.832 18.944 6.984V13.704C18.944 14.792 19.104 15.832 19.424 16.824C19.776 17.784 20.24 18.632 20.816 19.368C21.424 20.072 22.128 20.632 22.928 21.048C23.76 21.464 24.656 21.672 25.616 21.672C26.608 21.672 27.104 22.136 27.104 23.064V26.664C27.104 27.656 26.608 28.152 25.616 28.152C24.432 28.152 23.296 27.976 22.208 27.624C21.152 27.272 20.176 26.792 19.28 26.184C18.416 25.544 17.648 24.808 16.976 23.976C16.336 23.144 15.856 22.264 15.536 21.336ZM31.952 5.736C31.952 4.68 32.48 4.152 33.536 4.152H37.328C38.384 4.152 38.912 4.68 38.912 5.736V32.616C38.912 33.672 38.384 34.2 37.328 34.2H33.536C32.48 34.2 31.952 33.672 31.952 32.616V5.736ZM19.616 47.88C15.936 47.88 13.088 47.048 11.072 45.384C9.088 43.752 8.096 41.416 8.096 38.376C8.096 37.16 8.128 36.232 8.192 35.592C8.256 34.92 8.32 34.296 8.384 33.72C8.448 33.208 8.592 32.824 8.816 32.568C9.072 32.28 9.456 32.136 9.968 32.136H13.76C14.272 32.136 14.672 32.28 14.96 32.568C15.28 32.824 15.408 33.208 15.344 33.72C15.248 34.456 15.168 35.08 15.104 35.592C15.072 36.104 15.056 36.68 15.056 37.32C15.056 40.04 16.864 41.4 20.48 41.4C23.744 41.4 26.912 41.32 29.984 41.16C33.088 41 35.92 40.792 38.48 40.536C38.96 40.472 39.312 40.584 39.536 40.872C39.792 41.16 39.936 41.544 39.968 42.024L40.208 45.528C40.24 46.424 39.744 46.92 38.72 47.016C36.32 47.272 33.584 47.48 30.512 47.64C27.472 47.8 23.84 47.88 19.616 47.88ZM46.2853 8.568C46.3813 7.64 46.9253 7.176 47.9173 7.176H51.6613C52.2053 7.176 52.6213 7.32 52.9093 7.608C53.1973 7.896 53.3093 8.28 53.2453 8.76C53.0533 10.52 52.8933 12.168 52.7653 13.704C52.6373 15.208 52.5253 16.696 52.4293 18.168C52.3653 19.608 52.3013 21.096 52.2373 22.632C52.2053 24.136 52.1893 25.752 52.1893 27.48C52.1893 30.072 52.6853 31.912 53.6773 33C54.6693 34.088 56.1733 34.632 58.1893 34.632C59.0213 34.632 60.0773 34.488 61.3573 34.2C62.6373 33.88 63.8853 33.48 65.1013 33C65.2933 32.904 65.4853 32.856 65.6773 32.856C66.1573 32.856 66.5253 33.272 66.7812 34.104L67.7413 37.464C67.9013 37.944 67.8693 38.328 67.6453 38.616C67.4533 38.872 67.0853 39.112 66.5413 39.336C65.1013 39.88 63.5973 40.312 62.0293 40.632C60.4613 40.952 59.1173 41.112 57.9973 41.112C53.7093 41.112 50.5093 40.056 48.3973 37.944C46.2853 35.8 45.2293 32.424 45.2293 27.816C45.2293 25.992 45.2453 24.312 45.2773 22.776C45.3413 21.24 45.4053 19.736 45.4693 18.264C45.5653 16.76 45.6773 15.24 45.8053 13.704C45.9333 12.136 46.0933 10.424 46.2853 8.568ZM71.7733 5.736C71.7733 4.68 72.3013 4.152 73.3573 4.152H77.1493C78.2053 4.152 78.7333 4.68 78.7333 5.736V21.816C78.9893 21.4 79.3733 21.08 79.8853 20.856C80.4293 20.6 81.0373 20.472 81.7093 20.472H83.2453C84.2373 20.472 84.7333 20.968 84.7333 21.96V25.704C84.7333 26.696 84.2373 27.192 83.2453 27.192H81.5173C80.6853 27.192 80.0133 27.448 79.5013 27.96C78.9893 28.44 78.7333 29.064 78.7333 29.832V45.576C78.7333 46.632 78.2053 47.16 77.1493 47.16H73.3573C72.3013 47.16 71.7733 46.632 71.7733 45.576V5.736ZM99.6444 17.592C99.6444 16.024 99.3884 14.984 98.8764 14.472C98.3644 13.928 97.5484 13.656 96.4284 13.656C95.2764 13.656 93.9964 13.752 92.5884 13.944C91.1804 14.136 89.8044 14.328 88.4604 14.52C88.0124 14.584 87.6444 14.488 87.3564 14.232C87.1004 13.944 86.9724 13.544 86.9724 13.032V9.528C86.9724 9.08 87.0844 8.76 87.3084 8.568C87.5324 8.344 87.9164 8.168 88.4604 8.04C89.8044 7.72 91.1964 7.496 92.6364 7.368C94.0764 7.24 95.5324 7.176 97.0044 7.176C98.6044 7.176 99.9804 7.352 101.132 7.704C102.284 8.024 103.228 8.568 103.964 9.336C104.7 10.104 105.244 11.096 105.596 12.312C105.98 13.528 106.172 15.016 106.172 16.776C106.172 17.352 106.172 17.944 106.172 18.552C106.172 19.128 106.156 19.704 106.124 20.28H109.484C110.476 20.28 110.972 19.816 110.972 18.888V6.12C110.972 5.128 111.468 4.632 112.46 4.632H115.964C116.956 4.632 117.452 5.128 117.452 6.12V45.672C117.452 46.664 116.956 47.16 115.964 47.16H112.46C111.468 47.16 110.972 46.664 110.972 45.672V26.28C110.588 26.76 110.06 27 109.388 27H105.788C105.628 29.08 105.436 31.144 105.212 33.192C104.988 35.208 104.716 37.224 104.396 39.24C104.268 40.168 103.74 40.632 102.812 40.632H99.3084C98.2524 40.632 97.7884 40.136 97.9164 39.144C98.4604 35.176 98.8764 31.416 99.1644 27.864C99.4844 24.312 99.6444 20.888 99.6444 17.592ZM120.092 5.64C120.092 4.648 120.588 4.152 121.58 4.152H125.084C126.076 4.152 126.572 4.648 126.572 5.64V45.672C126.572 46.664 126.076 47.16 125.084 47.16H121.58C120.588 47.16 120.092 46.664 120.092 45.672V5.64ZM179.605 40.536C178.741 40.536 177.893 40.52 177.061 40.488C176.229 40.488 175.269 40.472 174.181 40.44C173.125 40.44 171.861 40.424 170.389 40.392C168.917 40.392 167.077 40.392 164.869 40.392C163.109 40.392 161.685 40.408 160.597 40.44C159.509 40.504 158.661 40.584 158.053 40.68C157.477 40.776 157.077 40.904 156.853 41.064C156.661 41.224 156.565 41.432 156.565 41.688C156.565 41.944 156.693 42.152 156.949 42.312C157.205 42.472 157.717 42.584 158.485 42.648C159.253 42.744 160.357 42.792 161.797 42.792C163.237 42.824 165.141 42.84 167.509 42.84C168.501 42.84 169.589 42.824 170.773 42.792C171.957 42.76 173.141 42.696 174.325 42.6C175.541 42.536 176.693 42.456 177.781 42.36C178.869 42.264 179.813 42.136 180.613 41.976C181.445 41.816 181.893 42.152 181.957 42.984L182.197 45.768C182.261 46.504 181.893 46.92 181.093 47.016C180.229 47.144 179.221 47.256 178.069 47.352C176.917 47.448 175.717 47.528 174.469 47.592C173.253 47.688 172.037 47.752 170.821 47.784C169.637 47.848 168.549 47.88 167.557 47.88C164.101 47.88 161.221 47.784 158.917 47.592C156.613 47.432 154.773 47.112 153.397 46.632C152.021 46.184 151.045 45.544 150.469 44.712C149.893 43.912 149.605 42.872 149.605 41.592C149.605 40.344 149.893 39.32 150.469 38.52C151.077 37.688 152.005 37.048 153.253 36.6C154.501 36.12 156.069 35.8 157.957 35.64C159.877 35.448 162.149 35.352 164.773 35.352C166.117 35.352 167.477 35.352 168.853 35.352C170.261 35.32 171.493 35.304 172.549 35.304C173.733 35.304 174.325 34.984 174.325 34.344C174.325 33.672 173.765 33.336 172.645 33.336C171.493 33.336 170.021 33.352 168.229 33.384C166.469 33.416 164.597 33.48 162.613 33.576C160.661 33.64 158.725 33.72 156.805 33.816C154.885 33.912 153.221 34.024 151.813 34.152C150.981 34.216 150.565 33.832 150.565 33V30.216C150.565 29.48 150.981 29.096 151.813 29.064C153.637 28.936 155.589 28.824 157.669 28.728C159.781 28.632 161.909 28.552 164.053 28.488C166.229 28.424 168.373 28.392 170.485 28.392C172.597 28.392 174.581 28.424 176.437 28.488C177.973 28.552 179.157 28.872 179.989 29.448C180.821 29.992 181.237 30.84 181.237 31.992C181.237 32.92 180.981 33.72 180.469 34.392C179.989 35.032 179.317 35.496 178.453 35.784H179.605C179.957 35.784 180.245 35.88 180.469 36.072C180.725 36.264 180.853 36.536 180.853 36.888V39.384C180.853 39.736 180.741 40.008 180.517 40.2C180.293 40.424 179.989 40.536 179.605 40.536ZM178.693 5.208C179.685 5.208 180.181 5.704 180.181 6.696V9.24C180.181 10.232 179.685 10.728 178.693 10.728H169.381C169.957 11.72 171.045 12.52 172.645 13.128C174.277 13.736 176.501 14.04 179.317 14.04C180.373 14.04 180.901 14.504 180.901 15.432V18.072C180.901 19 180.373 19.496 179.317 19.56C177.653 19.624 176.085 19.544 174.613 19.32C173.141 19.064 171.797 18.68 170.581 18.168C169.397 17.656 168.357 17.032 167.461 16.296C166.565 15.56 165.877 14.744 165.397 13.848C164.885 14.744 164.181 15.56 163.285 16.296C162.389 17.032 161.333 17.656 160.117 18.168C158.933 18.68 157.605 19.064 156.133 19.32C154.661 19.544 153.093 19.624 151.429 19.56C150.373 19.496 149.845 19 149.845 18.072V15.432C149.845 14.504 150.373 14.04 151.429 14.04C154.245 14.04 156.469 13.736 158.101 13.128C159.765 12.52 160.885 11.72 161.461 10.728H152.053C151.061 10.728 150.565 10.232 150.565 9.24V6.696C150.565 5.704 151.061 5.208 152.053 5.208H178.693ZM147.829 21.048C149.909 21.208 152.453 21.32 155.461 21.384C158.501 21.416 161.717 21.432 165.109 21.432C166.997 21.432 168.821 21.432 170.581 21.432C172.341 21.4 173.973 21.368 175.477 21.336C177.013 21.304 178.373 21.272 179.557 21.24C180.773 21.176 181.749 21.112 182.485 21.048C183.509 20.952 184.021 21.4 184.021 22.392V24.936C184.021 25.384 183.909 25.72 183.685 25.944C183.461 26.168 183.077 26.312 182.533 26.376C181.797 26.44 180.821 26.504 179.605 26.568C178.421 26.6 177.061 26.632 175.525 26.664C174.021 26.696 172.389 26.728 170.629 26.76C168.869 26.76 167.045 26.76 165.157 26.76C161.765 26.76 158.549 26.744 155.509 26.712C152.501 26.648 149.941 26.536 147.829 26.376C147.285 26.312 146.901 26.168 146.677 25.944C146.453 25.72 146.341 25.384 146.341 24.936V22.392C146.341 21.4 146.837 20.952 147.829 21.048ZM202.292 39.048C202.58 37.064 202.836 35.192 203.06 33.432C203.284 31.672 203.46 29.96 203.588 28.296C203.748 26.632 203.86 25 203.924 23.4C203.988 21.8 204.02 20.184 204.02 18.552C204.02 16.728 203.748 15.464 203.204 14.76C202.66 14.024 201.7 13.656 200.324 13.656C199.268 13.656 198.308 13.688 197.444 13.752C196.58 13.816 195.764 13.896 194.996 13.992C194.228 14.056 193.476 14.136 192.74 14.232C192.004 14.328 191.236 14.424 190.436 14.52C189.444 14.616 188.948 14.12 188.948 13.032V9.528C188.948 8.664 189.444 8.168 190.436 8.04C191.652 7.88 192.74 7.752 193.7 7.656C194.692 7.528 195.604 7.432 196.436 7.368C197.3 7.304 198.116 7.256 198.884 7.224C199.684 7.192 200.516 7.176 201.38 7.176C203.076 7.176 204.532 7.384 205.748 7.8C206.964 8.184 207.956 8.808 208.724 9.672C209.524 10.504 210.1 11.592 210.452 12.936C210.836 14.248 211.028 15.848 211.028 17.736C211.028 19.656 210.996 21.528 210.932 23.352C210.868 25.144 210.756 26.92 210.596 28.68C210.468 30.44 210.292 32.2 210.068 33.96C209.844 35.688 209.572 37.448 209.252 39.24C209.156 39.784 208.98 40.152 208.724 40.344C208.5 40.536 208.132 40.632 207.62 40.632H203.78C203.236 40.632 202.836 40.488 202.58 40.2C202.324 39.912 202.228 39.528 202.292 39.048ZM216.452 5.736C216.452 4.68 216.98 4.152 218.036 4.152H221.828C222.884 4.152 223.412 4.68 223.412 5.736V45.576C223.412 46.632 222.884 47.16 221.828 47.16H218.036C216.98 47.16 216.452 46.632 216.452 45.576V5.736ZM231.409 25.608C233.489 25.768 236.017 25.88 238.993 25.944C242.001 25.976 245.201 25.992 248.593 25.992C250.481 25.992 252.289 25.992 254.017 25.992C255.777 25.96 257.409 25.928 258.913 25.896C260.417 25.864 261.761 25.832 262.945 25.8C264.161 25.736 265.137 25.672 265.873 25.608C266.961 25.512 267.505 25.992 267.505 27.048V29.88C267.505 30.808 266.977 31.32 265.921 31.416C265.185 31.48 264.209 31.544 262.993 31.608C261.809 31.64 260.465 31.672 258.961 31.704C257.457 31.736 255.825 31.768 254.065 31.8C252.337 31.8 250.529 31.8 248.641 31.8C245.249 31.8 242.049 31.784 239.041 31.752C236.065 31.688 233.521 31.576 231.409 31.416C230.353 31.32 229.825 30.808 229.825 29.88V27.048C229.825 25.992 230.353 25.512 231.409 25.608ZM263.521 22.248C262.209 22.408 260.833 22.552 259.393 22.68C257.985 22.776 256.481 22.856 254.881 22.92C253.313 22.984 251.617 23.032 249.793 23.064C247.969 23.096 246.001 23.112 243.889 23.112C240.593 23.112 238.081 22.392 236.353 20.952C234.657 19.48 233.809 17.288 233.809 14.376C233.809 13.8 233.809 13.176 233.809 12.504C233.841 11.8 233.873 11.096 233.905 10.392C233.937 9.688 233.969 9.016 234.001 8.376C234.033 7.736 234.065 7.176 234.097 6.696C234.193 5.704 234.801 5.208 235.921 5.208H239.713C240.705 5.208 241.153 5.736 241.057 6.792C241.025 7.208 240.977 7.704 240.913 8.28C240.881 8.856 240.849 9.432 240.817 10.008C240.817 10.552 240.801 11.08 240.769 11.592C240.769 12.104 240.769 12.536 240.769 12.888C240.769 14.104 241.121 15.032 241.825 15.672C242.561 16.312 243.601 16.632 244.945 16.632C248.305 16.632 251.457 16.568 254.401 16.44C257.345 16.312 260.225 16.088 263.041 15.768C264.033 15.672 264.577 16.136 264.673 17.16L264.961 20.712C265.025 21.192 264.913 21.56 264.625 21.816C264.369 22.04 264.001 22.184 263.521 22.248ZM264.241 47.016C261.201 47.304 257.825 47.512 254.113 47.64C250.401 47.8 246.657 47.88 242.881 47.88C239.713 47.88 237.281 47.112 235.585 45.576C233.921 44.072 233.089 41.896 233.089 39.048C233.089 38.216 233.121 37.56 233.185 37.08C233.249 36.568 233.313 36.088 233.377 35.64C233.569 34.584 234.097 34.056 234.961 34.056H238.753C239.297 34.056 239.713 34.2 240.001 34.488C240.289 34.776 240.401 35.16 240.337 35.64C240.273 35.992 240.209 36.408 240.145 36.888C240.081 37.336 240.049 37.768 240.049 38.184C240.049 40.328 241.265 41.4 243.697 41.4C245.521 41.4 247.345 41.368 249.169 41.304C251.025 41.272 252.817 41.224 254.545 41.16C256.273 41.096 257.921 41 259.489 40.872C261.089 40.776 262.529 40.664 263.809 40.536C264.257 40.472 264.625 40.568 264.913 40.824C265.233 41.112 265.409 41.512 265.441 42.024L265.681 45.432C265.745 46.392 265.265 46.92 264.241 47.016ZM6.128 97.6C5.072 97.472 4.544 96.96 4.544 96.064V92.512C4.544 91.456 5.072 90.976 6.128 91.072C7.024 91.168 8.064 91.264 9.248 91.36C10.464 91.424 11.744 91.504 13.088 91.6C14.432 91.664 15.808 91.728 17.216 91.792C18.656 91.856 20.048 91.904 21.392 91.936C20.944 91.712 20.576 91.392 20.288 90.976C20.032 90.528 19.904 90 19.904 89.392V85.792C16.064 85.632 13.2 84.688 11.312 82.96C9.456 81.232 8.528 78.544 8.528 74.896C8.528 74.064 8.528 73.152 8.528 72.16C8.56 71.136 8.592 70.096 8.624 69.04C8.656 67.984 8.688 66.944 8.72 65.92C8.752 64.896 8.784 63.968 8.816 63.136C8.88 62.144 9.488 61.648 10.64 61.648H14.432C15.392 61.648 15.84 62.176 15.776 63.232C15.712 64.576 15.648 66.24 15.584 68.224C15.52 70.176 15.488 72.128 15.488 74.08C15.488 75.904 15.936 77.232 16.832 78.064C17.76 78.896 19.248 79.312 21.296 79.312C22.64 79.312 24.016 79.296 25.424 79.264C26.864 79.2 28.288 79.12 29.696 79.024C31.104 78.928 32.48 78.816 33.824 78.688C35.2 78.56 36.48 78.4 37.664 78.208C38.656 78.048 39.2 78.512 39.296 79.6L39.68 83.152C39.776 84.016 39.296 84.528 38.24 84.688C36.608 84.944 34.832 85.152 32.912 85.312C30.992 85.472 28.976 85.6 26.864 85.696V89.776C26.864 90.288 26.944 90.688 27.104 90.976C27.296 91.232 27.52 91.424 27.776 91.552C28.064 91.68 28.384 91.76 28.736 91.792C29.12 91.792 29.504 91.792 29.888 91.792C30.56 91.792 31.328 91.776 32.192 91.744C33.088 91.712 34.016 91.664 34.976 91.6C35.936 91.536 36.896 91.456 37.856 91.36C38.848 91.264 39.76 91.168 40.592 91.072C41.104 91.008 41.504 91.104 41.792 91.36C42.08 91.616 42.224 92 42.224 92.512V96.064C42.224 96.896 41.696 97.408 40.64 97.6C39.904 97.728 38.928 97.84 37.712 97.936C36.528 98.032 35.184 98.112 33.68 98.176C32.176 98.272 30.544 98.336 28.784 98.368C27.056 98.4 25.248 98.416 23.36 98.416C19.968 98.416 16.768 98.352 13.76 98.224C10.784 98.096 8.24 97.888 6.128 97.6ZM79.3111 60.64C79.3111 59.648 79.8071 59.152 80.7991 59.152H84.3031C85.2951 59.152 85.7911 59.648 85.7911 60.64V100.672C85.7911 101.664 85.2951 102.16 84.3031 102.16H80.7991C79.8071 102.16 79.3111 101.664 79.3111 100.672V82.192H77.3431C76.7991 82.192 76.3511 82.368 75.9991 82.72C75.6471 83.04 75.4711 83.472 75.4711 84.016V100.672C75.4711 101.664 74.9751 102.16 73.9831 102.16H70.4791C69.4871 102.16 68.9911 101.664 68.9911 100.672V61.12C68.9911 60.128 69.4871 59.632 70.4791 59.632H73.9831C74.9751 59.632 75.4711 60.128 75.4711 61.12V76.384C75.9191 75.776 76.5911 75.472 77.4871 75.472H79.3111V60.64ZM55.8391 62.176C58.9751 62.176 61.3431 62.784 62.9431 64C64.5751 65.184 65.3911 66.992 65.3911 69.424C65.3911 72.272 64.5271 74.448 62.7991 75.952H63.6151C64.5431 75.952 65.0071 76.416 65.0071 77.344V80.56C65.0071 81.488 64.5431 81.952 63.6151 81.952C62.3351 81.952 61.2791 81.952 60.4471 81.952C59.6471 81.92 58.9271 81.904 58.2871 81.904C56.1751 81.904 54.6871 82.192 53.8231 82.768C52.9911 83.344 52.5751 84.352 52.5751 85.792C52.5751 87.04 53.0071 88 53.8711 88.672C54.7351 89.312 55.9831 89.632 57.6151 89.632C58.4791 89.632 59.4711 89.52 60.5911 89.296C61.7111 89.04 62.8631 88.688 64.0471 88.24C64.2391 88.144 64.4311 88.096 64.6231 88.096C65.1031 88.096 65.4711 88.512 65.7271 89.344L66.6871 92.704C66.8471 93.184 66.8151 93.568 66.5911 93.856C66.3991 94.112 66.0311 94.352 65.4871 94.576C64.1431 95.12 62.7511 95.504 61.3111 95.728C59.8711 95.984 58.4791 96.112 57.1351 96.112C53.6151 96.112 50.8951 95.232 48.9751 93.472C47.0551 91.712 46.0951 89.152 46.0951 85.792C46.0951 82.4 46.8791 79.824 48.4471 78.064C50.0151 76.304 52.3191 75.424 55.3591 75.424C57.7271 75.424 58.9111 74.32 58.9111 72.112C58.9111 70.928 58.5751 70.064 57.9031 69.52C57.2311 68.944 56.2871 68.656 55.0711 68.656C54.3031 68.656 53.4711 68.72 52.5751 68.848C51.6791 68.976 50.4951 69.152 49.0231 69.376C48.0311 69.536 47.5351 69.12 47.5351 68.128V64.288C47.5351 63.84 47.6311 63.504 47.8231 63.28C48.0471 63.056 48.4151 62.896 48.9271 62.8C50.0151 62.576 51.1511 62.416 52.3351 62.32C53.5511 62.224 54.7191 62.176 55.8391 62.176ZM98.2505 81.232C96.2345 81.232 94.6825 80.768 93.5945 79.84C92.5385 78.912 92.0105 77.584 92.0105 75.856V63.04C92.0105 61.184 92.9225 60.256 94.7465 60.256H106.891C109.099 60.256 110.843 60.816 112.123 61.936C113.403 63.024 114.043 64.672 114.043 66.88C114.043 68.704 113.611 70.384 112.747 71.92C111.915 73.456 110.747 74.56 109.243 75.232H112.267C113.259 75.232 113.755 75.728 113.755 76.72V79.744C113.755 80.736 113.259 81.232 112.267 81.232H98.2505ZM123.931 84.688C124.987 84.688 125.515 85.216 125.515 86.272V89.584C125.515 90.64 124.987 91.168 123.931 91.168H113.995C114.155 92.576 115.163 93.728 117.019 94.624C118.907 95.52 121.451 95.968 124.651 95.968C125.707 95.968 126.235 96.432 126.235 97.36V100.96C126.235 101.92 125.707 102.416 124.651 102.448C123.083 102.512 121.547 102.432 120.043 102.208C118.571 101.984 117.195 101.616 115.915 101.104C114.667 100.592 113.563 99.92 112.603 99.088C111.643 98.256 110.923 97.248 110.443 96.064C109.963 97.248 109.243 98.256 108.283 99.088C107.355 99.92 106.251 100.592 104.971 101.104C103.723 101.616 102.347 101.984 100.843 102.208C99.3705 102.432 97.8505 102.512 96.2825 102.448C95.2265 102.416 94.6985 101.92 94.6985 100.96V97.36C94.6985 96.432 95.2265 95.968 96.2825 95.968C99.4825 95.968 102.027 95.504 103.915 94.576C105.803 93.68 106.827 92.544 106.987 91.168H97.0025C95.9465 91.168 95.4185 90.64 95.4185 89.584V86.272C95.4185 85.216 95.9465 84.688 97.0025 84.688H123.931ZM125.515 79.936C125.515 80.992 124.987 81.52 123.931 81.52H120.139C119.083 81.52 118.555 80.992 118.555 79.936V60.736C118.555 59.68 119.083 59.152 120.139 59.152H123.931C124.987 59.152 125.515 59.68 125.515 60.736V67.696C125.771 67.28 126.155 66.96 126.667 66.736C127.211 66.48 127.819 66.352 128.491 66.352H130.027C131.019 66.352 131.515 66.848 131.515 67.84V71.344C131.515 72.336 131.019 72.832 130.027 72.832H128.299C127.467 72.832 126.795 73.088 126.283 73.6C125.771 74.08 125.515 74.704 125.515 75.472V79.936ZM103.099 74.992C104.315 74.992 105.291 74.544 106.027 73.648C106.795 72.72 107.179 71.536 107.179 70.096C107.179 67.696 105.979 66.496 103.579 66.496H100.363C99.3705 66.496 98.8745 66.992 98.8745 67.984V73.216C98.8745 74.4 99.5945 74.992 101.035 74.992H103.099ZM157.37 60.16C157.37 60.864 157.802 61.216 158.666 61.216H167.066C168.122 61.216 168.65 61.744 168.65 62.8V66.112C168.65 67.168 168.122 67.696 167.066 67.696H157.37C157.434 69.712 158.346 71.312 160.106 72.496C161.866 73.68 164.426 74.272 167.786 74.272C168.842 74.272 169.37 74.736 169.37 75.664V79.264C169.37 79.904 169.178 80.32 168.794 80.512C168.41 80.672 167.946 80.752 167.402 80.752C164.074 80.752 161.21 80.176 158.81 79.024C156.442 77.872 154.778 76.336 153.818 74.416C153.338 75.376 152.666 76.256 151.802 77.056C150.97 77.824 149.978 78.48 148.826 79.024C147.674 79.568 146.378 80 144.938 80.32C143.498 80.608 141.946 80.752 140.282 80.752C139.738 80.752 139.274 80.672 138.89 80.512C138.506 80.32 138.314 79.904 138.314 79.264V75.664C138.314 74.736 138.842 74.272 139.898 74.272C143.29 74.272 145.866 73.68 147.626 72.496C149.418 71.312 150.346 69.712 150.41 67.696H140.618C139.562 67.696 139.034 67.168 139.034 66.112V62.8C139.034 61.744 139.562 61.216 140.618 61.216H151.13C150.65 60.928 150.41 60.464 150.41 59.824V58.24C150.41 57.248 150.906 56.752 151.898 56.752H155.882C156.874 56.752 157.37 57.248 157.37 58.24V60.16ZM157.13 98.896C157.13 99.952 156.618 100.48 155.594 100.48H151.754C150.698 100.48 150.17 99.952 150.17 98.896V93.52C150.17 93.008 150.298 92.544 150.554 92.128C150.81 91.712 151.162 91.408 151.61 91.216C148.602 91.184 145.786 91.104 143.162 90.976C140.538 90.848 138.282 90.656 136.394 90.4C135.338 90.272 134.81 89.76 134.81 88.864V85.312C134.81 84.8 134.938 84.416 135.194 84.16C135.482 83.904 135.882 83.808 136.394 83.872C138.474 84.128 141.002 84.336 143.978 84.496C146.986 84.624 150.186 84.688 153.578 84.688C155.466 84.688 157.274 84.672 159.002 84.64C160.762 84.576 162.394 84.512 163.898 84.448C165.402 84.384 166.746 84.304 167.93 84.208C169.146 84.112 170.122 84 170.858 83.872C171.37 83.776 171.77 83.872 172.058 84.16C172.346 84.416 172.49 84.8 172.49 85.312V88.864C172.49 89.696 171.962 90.208 170.906 90.4C169.754 90.592 168.122 90.768 166.01 90.928C163.93 91.088 161.658 91.168 159.194 91.168C157.818 91.168 157.13 91.84 157.13 93.184V98.896ZM190.761 94.048C191.049 92.064 191.305 90.192 191.529 88.432C191.753 86.672 191.929 84.96 192.057 83.296C192.217 81.632 192.329 80 192.393 78.4C192.457 76.8 192.489 75.184 192.489 73.552C192.489 71.728 192.217 70.464 191.673 69.76C191.129 69.024 190.169 68.656 188.793 68.656C187.737 68.656 186.777 68.688 185.913 68.752C185.049 68.816 184.233 68.896 183.465 68.992C182.697 69.056 181.945 69.136 181.209 69.232C180.473 69.328 179.705 69.424 178.905 69.52C177.913 69.616 177.417 69.12 177.417 68.032V64.528C177.417 63.664 177.913 63.168 178.905 63.04C180.121 62.88 181.209 62.752 182.169 62.656C183.161 62.528 184.073 62.432 184.905 62.368C185.769 62.304 186.585 62.256 187.353 62.224C188.153 62.192 188.985 62.176 189.849 62.176C191.545 62.176 193.001 62.384 194.217 62.8C195.433 63.184 196.425 63.808 197.193 64.672C197.993 65.504 198.569 66.592 198.921 67.936C199.305 69.248 199.497 70.848 199.497 72.736C199.497 74.656 199.465 76.528 199.401 78.352C199.337 80.144 199.225 81.92 199.065 83.68C198.937 85.44 198.761 87.2 198.537 88.96C198.313 90.688 198.041 92.448 197.721 94.24C197.625 94.784 197.449 95.152 197.193 95.344C196.969 95.536 196.601 95.632 196.089 95.632H192.249C191.705 95.632 191.305 95.488 191.049 95.2C190.793 94.912 190.697 94.528 190.761 94.048ZM204.921 60.736C204.921 59.68 205.449 59.152 206.505 59.152H210.297C211.353 59.152 211.881 59.68 211.881 60.736V100.576C211.881 101.632 211.353 102.16 210.297 102.16H206.505C205.449 102.16 204.921 101.632 204.921 100.576V60.736ZM243.363 72.592C243.363 71.024 243.107 69.984 242.595 69.472C242.083 68.928 241.267 68.656 240.147 68.656C238.995 68.656 237.715 68.752 236.307 68.944C234.899 69.136 233.523 69.328 232.179 69.52C231.731 69.584 231.363 69.488 231.075 69.232C230.819 68.944 230.691 68.544 230.691 68.032V64.528C230.691 64.08 230.803 63.76 231.027 63.568C231.251 63.344 231.635 63.168 232.179 63.04C233.523 62.72 234.915 62.496 236.355 62.368C237.795 62.24 239.251 62.176 240.723 62.176C242.323 62.176 243.699 62.352 244.851 62.704C246.003 63.024 246.947 63.568 247.683 64.336C248.419 65.104 248.963 66.096 249.315 67.312C249.699 68.528 249.891 70.016 249.891 71.776C249.891 72.352 249.891 72.944 249.891 73.552C249.891 74.128 249.875 74.704 249.843 75.28H253.203C254.195 75.28 254.691 74.816 254.691 73.888V61.12C254.691 60.128 255.187 59.632 256.179 59.632H259.683C260.675 59.632 261.171 60.128 261.171 61.12V100.672C261.171 101.664 260.675 102.16 259.683 102.16H256.179C255.187 102.16 254.691 101.664 254.691 100.672V81.28C254.307 81.76 253.779 82 253.107 82H249.507C249.347 84.08 249.155 86.144 248.931 88.192C248.707 90.208 248.435 92.224 248.115 94.24C247.987 95.168 247.459 95.632 246.531 95.632H243.027C241.971 95.632 241.507 95.136 241.635 94.144C242.179 90.176 242.595 86.416 242.883 82.864C243.203 79.312 243.363 75.888 243.363 72.592ZM263.811 60.64C263.811 59.648 264.307 59.152 265.299 59.152H268.803C269.795 59.152 270.291 59.648 270.291 60.64V100.672C270.291 101.664 269.795 102.16 268.803 102.16H265.299C264.307 102.16 263.811 101.664 263.811 100.672V60.64ZM301.087 96.16C302.015 96.16 302.783 95.872 303.391 95.296C304.031 94.72 304.351 94 304.351 93.136C304.351 91.664 303.503 90.928 301.807 90.928H288.031C287.103 90.928 286.639 91.392 286.639 92.32V94.384C286.639 95.568 287.359 96.16 288.799 96.16H301.087ZM287.263 66.016C285.919 66.016 284.847 66.448 284.047 67.312C283.279 68.144 282.895 69.28 282.895 70.72C282.895 72.192 283.279 73.36 284.047 74.224C284.847 75.056 285.919 75.472 287.263 75.472C288.607 75.472 289.679 75.056 290.479 74.224C291.279 73.36 291.679 72.192 291.679 70.72C291.679 69.28 291.279 68.144 290.479 67.312C289.679 66.448 288.607 66.016 287.263 66.016ZM310.495 96.4C311.487 96.4 311.983 96.896 311.983 97.888V100.912C311.983 101.904 311.487 102.4 310.495 102.4H285.919C283.903 102.4 282.351 101.936 281.263 101.008C280.207 100.08 279.679 98.752 279.679 97.024V87.472C279.679 85.616 280.591 84.688 282.415 84.688H304.687C306.735 84.688 308.351 85.2 309.535 86.224C310.719 87.248 311.311 88.656 311.311 90.448C311.311 91.856 310.975 93.056 310.303 94.048C309.663 95.072 308.735 95.856 307.519 96.4H310.495ZM298.543 70.72C298.543 72.384 298.271 73.904 297.727 75.28C297.215 76.624 296.463 77.776 295.471 78.736C294.479 79.696 293.295 80.432 291.919 80.944C290.543 81.456 288.991 81.712 287.263 81.712C285.567 81.712 284.015 81.456 282.607 80.944C281.231 80.432 280.047 79.696 279.055 78.736C278.095 77.776 277.343 76.624 276.799 75.28C276.287 73.904 276.031 72.384 276.031 70.72C276.031 69.024 276.287 67.504 276.799 66.16C277.343 64.816 278.095 63.68 279.055 62.752C280.047 61.792 281.231 61.056 282.607 60.544C283.983 60.032 285.535 59.776 287.263 59.776C288.991 59.776 290.543 60.032 291.919 60.544C293.327 61.056 294.511 61.792 295.471 62.752C296.463 63.68 297.215 64.816 297.727 66.16C298.271 67.504 298.543 69.024 298.543 70.72ZM304.015 60.736C304.015 59.68 304.543 59.152 305.599 59.152H309.391C310.447 59.152 310.975 59.68 310.975 60.736V79.936C310.975 80.992 310.447 81.52 309.391 81.52H305.599C304.543 81.52 304.015 80.992 304.015 79.936V60.736Z" fill="white"/>
</g>
<defs>
<filter id="filter0_d_1149_1835" x="0.628027" y="0.0519772" width="328.454" height="118.592" filterUnits="userSpaceOnUse" color-interpolation-filters="sRGB">
<feFlood flood-opacity="0" result="BackgroundImageFix"/>
<feColorMatrix in="SourceAlpha" type="matrix" values="0 0 0 0 0 0 0 0 0 0 0 0 0 0 0 0 0 0 127 0" result="hardAlpha"/>
<feOffset dx="7" dy="6"/>
<feGaussianBlur stdDeviation="5.05"/>
<feComposite in2="hardAlpha" operator="out"/>
<feColorMatrix type="matrix" values="0 0 0 0 0 0 0 0 0 0 0 0 0 0 0 0 0 0 0.25 0"/>
<feBlend mode="normal" in2="BackgroundImageFix" result="effect1_dropShadow_1149_1835"/>
<feBlend mode="normal" in="SourceGraphic" in2="effect1_dropShadow_1149_1835" result="shape"/>
</filter>
</defs>
</svg>
