<svg width="315" height="114" viewBox="0 0 315 114" fill="none" xmlns="http://www.w3.org/2000/svg">
<g filter="url(#filter0_d_1207_2033)">
<path d="M5.128 100.6C4.072 100.472 3.544 99.96 3.544 99.064V95.512C3.544 94.456 4.072 93.976 5.128 94.072C6.024 94.168 7.064 94.264 8.248 94.36C9.464 94.424 10.744 94.504 12.088 94.6C13.432 94.664 14.808 94.728 16.216 94.792C17.656 94.856 19.048 94.904 20.392 94.936C19.944 94.712 19.576 94.392 19.288 93.976C19.032 93.528 18.904 93 18.904 92.392V88.792C15.064 88.632 12.2 87.688 10.312 85.96C8.456 84.232 7.528 81.544 7.528 77.896C7.528 77.064 7.528 76.152 7.528 75.16C7.56 74.136 7.592 73.096 7.624 72.04C7.656 70.984 7.688 69.944 7.72 68.92C7.752 67.896 7.784 66.968 7.816 66.136C7.88 65.144 8.488 64.648 9.64 64.648H13.432C14.392 64.648 14.84 65.176 14.776 66.232C14.712 67.576 14.648 69.24 14.584 71.224C14.52 73.176 14.488 75.128 14.488 77.08C14.488 78.904 14.936 80.232 15.832 81.064C16.76 81.896 18.248 82.312 20.296 82.312C21.64 82.312 23.016 82.296 24.424 82.264C25.864 82.2 27.288 82.12 28.696 82.024C30.104 81.928 31.48 81.816 32.824 81.688C34.2 81.56 35.48 81.4 36.664 81.208C37.656 81.048 38.2 81.512 38.296 82.6L38.68 86.152C38.776 87.016 38.296 87.528 37.24 87.688C35.608 87.944 33.832 88.152 31.912 88.312C29.992 88.472 27.976 88.6 25.864 88.696V92.776C25.864 93.288 25.944 93.688 26.104 93.976C26.296 94.232 26.52 94.424 26.776 94.552C27.064 94.68 27.384 94.76 27.736 94.792C28.12 94.792 28.504 94.792 28.888 94.792C29.56 94.792 30.328 94.776 31.192 94.744C32.088 94.712 33.016 94.664 33.976 94.6C34.936 94.536 35.896 94.456 36.856 94.36C37.848 94.264 38.76 94.168 39.592 94.072C40.104 94.008 40.504 94.104 40.792 94.36C41.08 94.616 41.224 95 41.224 95.512V99.064C41.224 99.896 40.696 100.408 39.64 100.6C38.904 100.728 37.928 100.84 36.712 100.936C35.528 101.032 34.184 101.112 32.68 101.176C31.176 101.272 29.544 101.336 27.784 101.368C26.056 101.4 24.248 101.416 22.36 101.416C18.968 101.416 15.768 101.352 12.76 101.224C9.784 101.096 7.24 100.888 5.128 100.6ZM78.3111 63.64C78.3111 62.648 78.8071 62.152 79.7991 62.152H83.3031C84.2951 62.152 84.7911 62.648 84.7911 63.64V103.672C84.7911 104.664 84.2951 105.16 83.3031 105.16H79.7991C78.8071 105.16 78.3111 104.664 78.3111 103.672V85.192H76.3431C75.7991 85.192 75.3511 85.368 74.9991 85.72C74.6471 86.04 74.4711 86.472 74.4711 87.016V103.672C74.4711 104.664 73.9751 105.16 72.9831 105.16H69.4791C68.4871 105.16 67.9911 104.664 67.9911 103.672V64.12C67.9911 63.128 68.4871 62.632 69.4791 62.632H72.9831C73.9751 62.632 74.4711 63.128 74.4711 64.12V79.384C74.9191 78.776 75.5911 78.472 76.4871 78.472H78.3111V63.64ZM54.8391 65.176C57.9751 65.176 60.3431 65.784 61.9431 67C63.5751 68.184 64.3911 69.992 64.3911 72.424C64.3911 75.272 63.5271 77.448 61.7991 78.952H62.6151C63.5431 78.952 64.0071 79.416 64.0071 80.344V83.56C64.0071 84.488 63.5431 84.952 62.6151 84.952C61.3351 84.952 60.2791 84.952 59.4471 84.952C58.6471 84.92 57.9271 84.904 57.2871 84.904C55.1751 84.904 53.6871 85.192 52.8231 85.768C51.9911 86.344 51.5751 87.352 51.5751 88.792C51.5751 90.04 52.0071 91 52.8711 91.672C53.7351 92.312 54.9831 92.632 56.6151 92.632C57.4791 92.632 58.4711 92.52 59.5911 92.296C60.7111 92.04 61.8631 91.688 63.0471 91.24C63.2391 91.144 63.4311 91.096 63.6231 91.096C64.1031 91.096 64.4711 91.512 64.7271 92.344L65.6871 95.704C65.8471 96.184 65.8151 96.568 65.5911 96.856C65.3991 97.112 65.0311 97.352 64.4871 97.576C63.1431 98.12 61.7511 98.504 60.3111 98.728C58.8711 98.984 57.4791 99.112 56.1351 99.112C52.6151 99.112 49.8951 98.232 47.9751 96.472C46.0551 94.712 45.0951 92.152 45.0951 88.792C45.0951 85.4 45.8791 82.824 47.4471 81.064C49.0151 79.304 51.3191 78.424 54.3591 78.424C56.7271 78.424 57.9111 77.32 57.9111 75.112C57.9111 73.928 57.5751 73.064 56.9031 72.52C56.2311 71.944 55.2871 71.656 54.0711 71.656C53.3031 71.656 52.4711 71.72 51.5751 71.848C50.6791 71.976 49.4951 72.152 48.0231 72.376C47.0311 72.536 46.5351 72.12 46.5351 71.128V67.288C46.5351 66.84 46.6311 66.504 46.8231 66.28C47.0471 66.056 47.4151 65.896 47.9271 65.8C49.0151 65.576 50.1511 65.416 51.3351 65.32C52.5511 65.224 53.7191 65.176 54.8391 65.176ZM97.2505 84.232C95.2345 84.232 93.6825 83.768 92.5945 82.84C91.5385 81.912 91.0105 80.584 91.0105 78.856V66.04C91.0105 64.184 91.9225 63.256 93.7465 63.256H105.891C108.099 63.256 109.843 63.816 111.123 64.936C112.403 66.024 113.043 67.672 113.043 69.88C113.043 71.704 112.611 73.384 111.747 74.92C110.915 76.456 109.747 77.56 108.243 78.232H111.267C112.259 78.232 112.755 78.728 112.755 79.72V82.744C112.755 83.736 112.259 84.232 111.267 84.232H97.2505ZM122.931 87.688C123.987 87.688 124.515 88.216 124.515 89.272V92.584C124.515 93.64 123.987 94.168 122.931 94.168H112.995C113.155 95.576 114.163 96.728 116.019 97.624C117.907 98.52 120.451 98.968 123.651 98.968C124.707 98.968 125.235 99.432 125.235 100.36V103.96C125.235 104.92 124.707 105.416 123.651 105.448C122.083 105.512 120.547 105.432 119.043 105.208C117.571 104.984 116.195 104.616 114.915 104.104C113.667 103.592 112.563 102.92 111.603 102.088C110.643 101.256 109.923 100.248 109.443 99.064C108.963 100.248 108.243 101.256 107.283 102.088C106.355 102.92 105.251 103.592 103.971 104.104C102.723 104.616 101.347 104.984 99.8425 105.208C98.3705 105.432 96.8505 105.512 95.2825 105.448C94.2265 105.416 93.6985 104.92 93.6985 103.96V100.36C93.6985 99.432 94.2265 98.968 95.2825 98.968C98.4825 98.968 101.027 98.504 102.915 97.576C104.803 96.68 105.827 95.544 105.987 94.168H96.0025C94.9465 94.168 94.4185 93.64 94.4185 92.584V89.272C94.4185 88.216 94.9465 87.688 96.0025 87.688H122.931ZM124.515 82.936C124.515 83.992 123.987 84.52 122.931 84.52H119.139C118.083 84.52 117.555 83.992 117.555 82.936V63.736C117.555 62.68 118.083 62.152 119.139 62.152H122.931C123.987 62.152 124.515 62.68 124.515 63.736V70.696C124.771 70.28 125.155 69.96 125.667 69.736C126.211 69.48 126.819 69.352 127.491 69.352H129.027C130.019 69.352 130.515 69.848 130.515 70.84V74.344C130.515 75.336 130.019 75.832 129.027 75.832H127.299C126.467 75.832 125.795 76.088 125.283 76.6C124.771 77.08 124.515 77.704 124.515 78.472V82.936ZM102.099 77.992C103.315 77.992 104.291 77.544 105.027 76.648C105.795 75.72 106.179 74.536 106.179 73.096C106.179 70.696 104.979 69.496 102.579 69.496H99.3625C98.3705 69.496 97.8745 69.992 97.8745 70.984V76.216C97.8745 77.4 98.5945 77.992 100.035 77.992H102.099ZM156.37 63.16C156.37 63.864 156.802 64.216 157.666 64.216H166.066C167.122 64.216 167.65 64.744 167.65 65.8V69.112C167.65 70.168 167.122 70.696 166.066 70.696H156.37C156.434 72.712 157.346 74.312 159.106 75.496C160.866 76.68 163.426 77.272 166.786 77.272C167.842 77.272 168.37 77.736 168.37 78.664V82.264C168.37 82.904 168.178 83.32 167.794 83.512C167.41 83.672 166.946 83.752 166.402 83.752C163.074 83.752 160.21 83.176 157.81 82.024C155.442 80.872 153.778 79.336 152.818 77.416C152.338 78.376 151.666 79.256 150.802 80.056C149.97 80.824 148.978 81.48 147.826 82.024C146.674 82.568 145.378 83 143.938 83.32C142.498 83.608 140.946 83.752 139.282 83.752C138.738 83.752 138.274 83.672 137.89 83.512C137.506 83.32 137.314 82.904 137.314 82.264V78.664C137.314 77.736 137.842 77.272 138.898 77.272C142.29 77.272 144.866 76.68 146.626 75.496C148.418 74.312 149.346 72.712 149.41 70.696H139.618C138.562 70.696 138.034 70.168 138.034 69.112V65.8C138.034 64.744 138.562 64.216 139.618 64.216H150.13C149.65 63.928 149.41 63.464 149.41 62.824V61.24C149.41 60.248 149.906 59.752 150.898 59.752H154.882C155.874 59.752 156.37 60.248 156.37 61.24V63.16ZM156.13 101.896C156.13 102.952 155.618 103.48 154.594 103.48H150.754C149.698 103.48 149.17 102.952 149.17 101.896V96.52C149.17 96.008 149.298 95.544 149.554 95.128C149.81 94.712 150.162 94.408 150.61 94.216C147.602 94.184 144.786 94.104 142.162 93.976C139.538 93.848 137.282 93.656 135.394 93.4C134.338 93.272 133.81 92.76 133.81 91.864V88.312C133.81 87.8 133.938 87.416 134.194 87.16C134.482 86.904 134.882 86.808 135.394 86.872C137.474 87.128 140.002 87.336 142.978 87.496C145.986 87.624 149.186 87.688 152.578 87.688C154.466 87.688 156.274 87.672 158.002 87.64C159.762 87.576 161.394 87.512 162.898 87.448C164.402 87.384 165.746 87.304 166.93 87.208C168.146 87.112 169.122 87 169.858 86.872C170.37 86.776 170.77 86.872 171.058 87.16C171.346 87.416 171.49 87.8 171.49 88.312V91.864C171.49 92.696 170.962 93.208 169.906 93.4C168.754 93.592 167.122 93.768 165.01 93.928C162.93 94.088 160.658 94.168 158.194 94.168C156.818 94.168 156.13 94.84 156.13 96.184V101.896ZM189.761 97.048C190.049 95.064 190.305 93.192 190.529 91.432C190.753 89.672 190.929 87.96 191.057 86.296C191.217 84.632 191.329 83 191.393 81.4C191.457 79.8 191.489 78.184 191.489 76.552C191.489 74.728 191.217 73.464 190.673 72.76C190.129 72.024 189.169 71.656 187.793 71.656C186.737 71.656 185.777 71.688 184.913 71.752C184.049 71.816 183.233 71.896 182.465 71.992C181.697 72.056 180.945 72.136 180.209 72.232C179.473 72.328 178.705 72.424 177.905 72.52C176.913 72.616 176.417 72.12 176.417 71.032V67.528C176.417 66.664 176.913 66.168 177.905 66.04C179.121 65.88 180.209 65.752 181.169 65.656C182.161 65.528 183.073 65.432 183.905 65.368C184.769 65.304 185.585 65.256 186.353 65.224C187.153 65.192 187.985 65.176 188.849 65.176C190.545 65.176 192.001 65.384 193.217 65.8C194.433 66.184 195.425 66.808 196.193 67.672C196.993 68.504 197.569 69.592 197.921 70.936C198.305 72.248 198.497 73.848 198.497 75.736C198.497 77.656 198.465 79.528 198.401 81.352C198.337 83.144 198.225 84.92 198.065 86.68C197.937 88.44 197.761 90.2 197.537 91.96C197.313 93.688 197.041 95.448 196.721 97.24C196.625 97.784 196.449 98.152 196.193 98.344C195.969 98.536 195.601 98.632 195.089 98.632H191.249C190.705 98.632 190.305 98.488 190.049 98.2C189.793 97.912 189.697 97.528 189.761 97.048ZM203.921 63.736C203.921 62.68 204.449 62.152 205.505 62.152H209.297C210.353 62.152 210.881 62.68 210.881 63.736V103.576C210.881 104.632 210.353 105.16 209.297 105.16H205.505C204.449 105.16 203.921 104.632 203.921 103.576V63.736ZM242.363 75.592C242.363 74.024 242.107 72.984 241.595 72.472C241.083 71.928 240.267 71.656 239.147 71.656C237.995 71.656 236.715 71.752 235.307 71.944C233.899 72.136 232.523 72.328 231.179 72.52C230.731 72.584 230.363 72.488 230.075 72.232C229.819 71.944 229.691 71.544 229.691 71.032V67.528C229.691 67.08 229.803 66.76 230.027 66.568C230.251 66.344 230.635 66.168 231.179 66.04C232.523 65.72 233.915 65.496 235.355 65.368C236.795 65.24 238.251 65.176 239.723 65.176C241.323 65.176 242.699 65.352 243.851 65.704C245.003 66.024 245.947 66.568 246.683 67.336C247.419 68.104 247.963 69.096 248.315 70.312C248.699 71.528 248.891 73.016 248.891 74.776C248.891 75.352 248.891 75.944 248.891 76.552C248.891 77.128 248.875 77.704 248.843 78.28H252.203C253.195 78.28 253.691 77.816 253.691 76.888V64.12C253.691 63.128 254.187 62.632 255.179 62.632H258.683C259.675 62.632 260.171 63.128 260.171 64.12V103.672C260.171 104.664 259.675 105.16 258.683 105.16H255.179C254.187 105.16 253.691 104.664 253.691 103.672V84.28C253.307 84.76 252.779 85 252.107 85H248.507C248.347 87.08 248.155 89.144 247.931 91.192C247.707 93.208 247.435 95.224 247.115 97.24C246.987 98.168 246.459 98.632 245.531 98.632H242.027C240.971 98.632 240.507 98.136 240.635 97.144C241.179 93.176 241.595 89.416 241.883 85.864C242.203 82.312 242.363 78.888 242.363 75.592ZM262.811 63.64C262.811 62.648 263.307 62.152 264.299 62.152H267.803C268.795 62.152 269.291 62.648 269.291 63.64V103.672C269.291 104.664 268.795 105.16 267.803 105.16H264.299C263.307 105.16 262.811 104.664 262.811 103.672V63.64ZM300.087 99.16C301.015 99.16 301.783 98.872 302.391 98.296C303.031 97.72 303.351 97 303.351 96.136C303.351 94.664 302.503 93.928 300.807 93.928H287.031C286.103 93.928 285.639 94.392 285.639 95.32V97.384C285.639 98.568 286.359 99.16 287.799 99.16H300.087ZM286.263 69.016C284.919 69.016 283.847 69.448 283.047 70.312C282.279 71.144 281.895 72.28 281.895 73.72C281.895 75.192 282.279 76.36 283.047 77.224C283.847 78.056 284.919 78.472 286.263 78.472C287.607 78.472 288.679 78.056 289.479 77.224C290.279 76.36 290.679 75.192 290.679 73.72C290.679 72.28 290.279 71.144 289.479 70.312C288.679 69.448 287.607 69.016 286.263 69.016ZM309.495 99.4C310.487 99.4 310.983 99.896 310.983 100.888V103.912C310.983 104.904 310.487 105.4 309.495 105.4H284.919C282.903 105.4 281.351 104.936 280.263 104.008C279.207 103.08 278.679 101.752 278.679 100.024V90.472C278.679 88.616 279.591 87.688 281.415 87.688H303.687C305.735 87.688 307.351 88.2 308.535 89.224C309.719 90.248 310.311 91.656 310.311 93.448C310.311 94.856 309.975 96.056 309.303 97.048C308.663 98.072 307.735 98.856 306.519 99.4H309.495ZM297.543 73.72C297.543 75.384 297.271 76.904 296.727 78.28C296.215 79.624 295.463 80.776 294.471 81.736C293.479 82.696 292.295 83.432 290.919 83.944C289.543 84.456 287.991 84.712 286.263 84.712C284.567 84.712 283.015 84.456 281.607 83.944C280.231 83.432 279.047 82.696 278.055 81.736C277.095 80.776 276.343 79.624 275.799 78.28C275.287 76.904 275.031 75.384 275.031 73.72C275.031 72.024 275.287 70.504 275.799 69.16C276.343 67.816 277.095 66.68 278.055 65.752C279.047 64.792 280.231 64.056 281.607 63.544C282.983 63.032 284.535 62.776 286.263 62.776C287.991 62.776 289.543 63.032 290.919 63.544C292.327 64.056 293.511 64.792 294.471 65.752C295.463 66.68 296.215 67.816 296.727 69.16C297.271 70.504 297.543 72.024 297.543 73.72ZM303.015 63.736C303.015 62.68 303.543 62.152 304.599 62.152H308.391C309.447 62.152 309.975 62.68 309.975 63.736V82.936C309.975 83.992 309.447 84.52 308.391 84.52H304.599C303.543 84.52 303.015 83.992 303.015 82.936V63.736Z" fill="white"/>
</g>
<g filter="url(#filter1_d_1207_2033)">
<path d="M14.536 20.336C14.216 21.296 13.72 22.192 13.048 23.024C12.376 23.824 11.592 24.544 10.696 25.184C9.832 25.792 8.856 26.272 7.768 26.624C6.68 26.976 5.528 27.152 4.312 27.152C3.256 27.152 2.728 26.656 2.728 25.664V22.064C2.728 21.136 3.256 20.672 4.312 20.672C5.272 20.672 6.152 20.464 6.952 20.048C7.784 19.632 8.488 19.072 9.064 18.368C9.672 17.632 10.136 16.784 10.456 15.824C10.808 14.832 10.984 13.792 10.984 12.704V5.984C10.984 4.832 11.512 4.256 12.568 4.256H16.408C17.432 4.256 17.944 4.832 17.944 5.984V12.704C17.944 13.792 18.104 14.832 18.424 15.824C18.776 16.784 19.24 17.632 19.816 18.368C20.424 19.072 21.128 19.632 21.928 20.048C22.76 20.464 23.656 20.672 24.616 20.672C25.608 20.672 26.104 21.136 26.104 22.064V25.664C26.104 26.656 25.608 27.152 24.616 27.152C23.432 27.152 22.296 26.976 21.208 26.624C20.152 26.272 19.176 25.792 18.28 25.184C17.416 24.544 16.648 23.808 15.976 22.976C15.336 22.144 14.856 21.264 14.536 20.336ZM30.952 4.736C30.952 3.68 31.48 3.152 32.536 3.152H36.328C37.384 3.152 37.912 3.68 37.912 4.736V31.616C37.912 32.672 37.384 33.2 36.328 33.2H32.536C31.48 33.2 30.952 32.672 30.952 31.616V4.736ZM18.616 46.88C14.936 46.88 12.088 46.048 10.072 44.384C8.088 42.752 7.096 40.416 7.096 37.376C7.096 36.16 7.128 35.232 7.192 34.592C7.256 33.92 7.32 33.296 7.384 32.72C7.448 32.208 7.592 31.824 7.816 31.568C8.072 31.28 8.456 31.136 8.968 31.136H12.76C13.272 31.136 13.672 31.28 13.96 31.568C14.28 31.824 14.408 32.208 14.344 32.72C14.248 33.456 14.168 34.08 14.104 34.592C14.072 35.104 14.056 35.68 14.056 36.32C14.056 39.04 15.864 40.4 19.48 40.4C22.744 40.4 25.912 40.32 28.984 40.16C32.088 40 34.92 39.792 37.48 39.536C37.96 39.472 38.312 39.584 38.536 39.872C38.792 40.16 38.936 40.544 38.968 41.024L39.208 44.528C39.24 45.424 38.744 45.92 37.72 46.016C35.32 46.272 32.584 46.48 29.512 46.64C26.472 46.8 22.84 46.88 18.616 46.88ZM45.2853 7.568C45.3813 6.64 45.9253 6.176 46.9173 6.176H50.6613C51.2053 6.176 51.6213 6.32 51.9093 6.608C52.1973 6.896 52.3093 7.28 52.2453 7.76C52.0533 9.52 51.8933 11.168 51.7653 12.704C51.6373 14.208 51.5253 15.696 51.4293 17.168C51.3653 18.608 51.3013 20.096 51.2373 21.632C51.2053 23.136 51.1893 24.752 51.1893 26.48C51.1893 29.072 51.6853 30.912 52.6773 32C53.6693 33.088 55.1733 33.632 57.1893 33.632C58.0213 33.632 59.0773 33.488 60.3573 33.2C61.6373 32.88 62.8853 32.48 64.1013 32C64.2933 31.904 64.4853 31.856 64.6773 31.856C65.1573 31.856 65.5253 32.272 65.7812 33.104L66.7413 36.464C66.9013 36.944 66.8693 37.328 66.6453 37.616C66.4533 37.872 66.0853 38.112 65.5413 38.336C64.1013 38.88 62.5973 39.312 61.0293 39.632C59.4613 39.952 58.1173 40.112 56.9973 40.112C52.7093 40.112 49.5093 39.056 47.3973 36.944C45.2853 34.8 44.2293 31.424 44.2293 26.816C44.2293 24.992 44.2453 23.312 44.2773 21.776C44.3413 20.24 44.4053 18.736 44.4693 17.264C44.5653 15.76 44.6773 14.24 44.8053 12.704C44.9333 11.136 45.0933 9.424 45.2853 7.568ZM70.7733 4.736C70.7733 3.68 71.3013 3.152 72.3573 3.152H76.1493C77.2053 3.152 77.7333 3.68 77.7333 4.736V20.816C77.9893 20.4 78.3733 20.08 78.8853 19.856C79.4293 19.6 80.0373 19.472 80.7093 19.472H82.2453C83.2373 19.472 83.7333 19.968 83.7333 20.96V24.704C83.7333 25.696 83.2373 26.192 82.2453 26.192H80.5173C79.6853 26.192 79.0133 26.448 78.5013 26.96C77.9893 27.44 77.7333 28.064 77.7333 28.832V44.576C77.7333 45.632 77.2053 46.16 76.1493 46.16H72.3573C71.3013 46.16 70.7733 45.632 70.7733 44.576V4.736ZM98.6444 16.592C98.6444 15.024 98.3884 13.984 97.8764 13.472C97.3644 12.928 96.5484 12.656 95.4284 12.656C94.2764 12.656 92.9964 12.752 91.5884 12.944C90.1804 13.136 88.8044 13.328 87.4604 13.52C87.0124 13.584 86.6444 13.488 86.3564 13.232C86.1004 12.944 85.9724 12.544 85.9724 12.032V8.528C85.9724 8.08 86.0844 7.76 86.3084 7.568C86.5324 7.344 86.9164 7.168 87.4604 7.04C88.8044 6.72 90.1964 6.496 91.6364 6.368C93.0764 6.24 94.5324 6.176 96.0044 6.176C97.6044 6.176 98.9804 6.352 100.132 6.704C101.284 7.024 102.228 7.568 102.964 8.336C103.7 9.104 104.244 10.096 104.596 11.312C104.98 12.528 105.172 14.016 105.172 15.776C105.172 16.352 105.172 16.944 105.172 17.552C105.172 18.128 105.156 18.704 105.124 19.28H108.484C109.476 19.28 109.972 18.816 109.972 17.888V5.12C109.972 4.128 110.468 3.632 111.46 3.632H114.964C115.956 3.632 116.452 4.128 116.452 5.12V44.672C116.452 45.664 115.956 46.16 114.964 46.16H111.46C110.468 46.16 109.972 45.664 109.972 44.672V25.28C109.588 25.76 109.06 26 108.388 26H104.788C104.628 28.08 104.436 30.144 104.212 32.192C103.988 34.208 103.716 36.224 103.396 38.24C103.268 39.168 102.74 39.632 101.812 39.632H98.3084C97.2524 39.632 96.7884 39.136 96.9164 38.144C97.4604 34.176 97.8764 30.416 98.1644 26.864C98.4844 23.312 98.6444 19.888 98.6444 16.592ZM119.092 4.64C119.092 3.648 119.588 3.152 120.58 3.152H124.084C125.076 3.152 125.572 3.648 125.572 4.64V44.672C125.572 45.664 125.076 46.16 124.084 46.16H120.58C119.588 46.16 119.092 45.664 119.092 44.672V4.64ZM178.605 39.536C177.741 39.536 176.893 39.52 176.061 39.488C175.229 39.488 174.269 39.472 173.181 39.44C172.125 39.44 170.861 39.424 169.389 39.392C167.917 39.392 166.077 39.392 163.869 39.392C162.109 39.392 160.685 39.408 159.597 39.44C158.509 39.504 157.661 39.584 157.053 39.68C156.477 39.776 156.077 39.904 155.853 40.064C155.661 40.224 155.565 40.432 155.565 40.688C155.565 40.944 155.693 41.152 155.949 41.312C156.205 41.472 156.717 41.584 157.485 41.648C158.253 41.744 159.357 41.792 160.797 41.792C162.237 41.824 164.141 41.84 166.509 41.84C167.501 41.84 168.589 41.824 169.773 41.792C170.957 41.76 172.141 41.696 173.325 41.6C174.541 41.536 175.693 41.456 176.781 41.36C177.869 41.264 178.813 41.136 179.613 40.976C180.445 40.816 180.893 41.152 180.957 41.984L181.197 44.768C181.261 45.504 180.893 45.92 180.093 46.016C179.229 46.144 178.221 46.256 177.069 46.352C175.917 46.448 174.717 46.528 173.469 46.592C172.253 46.688 171.037 46.752 169.821 46.784C168.637 46.848 167.549 46.88 166.557 46.88C163.101 46.88 160.221 46.784 157.917 46.592C155.613 46.432 153.773 46.112 152.397 45.632C151.021 45.184 150.045 44.544 149.469 43.712C148.893 42.912 148.605 41.872 148.605 40.592C148.605 39.344 148.893 38.32 149.469 37.52C150.077 36.688 151.005 36.048 152.253 35.6C153.501 35.12 155.069 34.8 156.957 34.64C158.877 34.448 161.149 34.352 163.773 34.352C165.117 34.352 166.477 34.352 167.853 34.352C169.261 34.32 170.493 34.304 171.549 34.304C172.733 34.304 173.325 33.984 173.325 33.344C173.325 32.672 172.765 32.336 171.645 32.336C170.493 32.336 169.021 32.352 167.229 32.384C165.469 32.416 163.597 32.48 161.613 32.576C159.661 32.64 157.725 32.72 155.805 32.816C153.885 32.912 152.221 33.024 150.813 33.152C149.981 33.216 149.565 32.832 149.565 32V29.216C149.565 28.48 149.981 28.096 150.813 28.064C152.637 27.936 154.589 27.824 156.669 27.728C158.781 27.632 160.909 27.552 163.053 27.488C165.229 27.424 167.373 27.392 169.485 27.392C171.597 27.392 173.581 27.424 175.437 27.488C176.973 27.552 178.157 27.872 178.989 28.448C179.821 28.992 180.237 29.84 180.237 30.992C180.237 31.92 179.981 32.72 179.469 33.392C178.989 34.032 178.317 34.496 177.453 34.784H178.605C178.957 34.784 179.245 34.88 179.469 35.072C179.725 35.264 179.853 35.536 179.853 35.888V38.384C179.853 38.736 179.741 39.008 179.517 39.2C179.293 39.424 178.989 39.536 178.605 39.536ZM177.693 4.208C178.685 4.208 179.181 4.704 179.181 5.696V8.24C179.181 9.232 178.685 9.728 177.693 9.728H168.381C168.957 10.72 170.045 11.52 171.645 12.128C173.277 12.736 175.501 13.04 178.317 13.04C179.373 13.04 179.901 13.504 179.901 14.432V17.072C179.901 18 179.373 18.496 178.317 18.56C176.653 18.624 175.085 18.544 173.613 18.32C172.141 18.064 170.797 17.68 169.581 17.168C168.397 16.656 167.357 16.032 166.461 15.296C165.565 14.56 164.877 13.744 164.397 12.848C163.885 13.744 163.181 14.56 162.285 15.296C161.389 16.032 160.333 16.656 159.117 17.168C157.933 17.68 156.605 18.064 155.133 18.32C153.661 18.544 152.093 18.624 150.429 18.56C149.373 18.496 148.845 18 148.845 17.072V14.432C148.845 13.504 149.373 13.04 150.429 13.04C153.245 13.04 155.469 12.736 157.101 12.128C158.765 11.52 159.885 10.72 160.461 9.728H151.053C150.061 9.728 149.565 9.232 149.565 8.24V5.696C149.565 4.704 150.061 4.208 151.053 4.208H177.693ZM146.829 20.048C148.909 20.208 151.453 20.32 154.461 20.384C157.501 20.416 160.717 20.432 164.109 20.432C165.997 20.432 167.821 20.432 169.581 20.432C171.341 20.4 172.973 20.368 174.477 20.336C176.013 20.304 177.373 20.272 178.557 20.24C179.773 20.176 180.749 20.112 181.485 20.048C182.509 19.952 183.021 20.4 183.021 21.392V23.936C183.021 24.384 182.909 24.72 182.685 24.944C182.461 25.168 182.077 25.312 181.533 25.376C180.797 25.44 179.821 25.504 178.605 25.568C177.421 25.6 176.061 25.632 174.525 25.664C173.021 25.696 171.389 25.728 169.629 25.76C167.869 25.76 166.045 25.76 164.157 25.76C160.765 25.76 157.549 25.744 154.509 25.712C151.501 25.648 148.941 25.536 146.829 25.376C146.285 25.312 145.901 25.168 145.677 24.944C145.453 24.72 145.341 24.384 145.341 23.936V21.392C145.341 20.4 145.837 19.952 146.829 20.048ZM201.292 38.048C201.58 36.064 201.836 34.192 202.06 32.432C202.284 30.672 202.46 28.96 202.588 27.296C202.748 25.632 202.86 24 202.924 22.4C202.988 20.8 203.02 19.184 203.02 17.552C203.02 15.728 202.748 14.464 202.204 13.76C201.66 13.024 200.7 12.656 199.324 12.656C198.268 12.656 197.308 12.688 196.444 12.752C195.58 12.816 194.764 12.896 193.996 12.992C193.228 13.056 192.476 13.136 191.74 13.232C191.004 13.328 190.236 13.424 189.436 13.52C188.444 13.616 187.948 13.12 187.948 12.032V8.528C187.948 7.664 188.444 7.168 189.436 7.04C190.652 6.88 191.74 6.752 192.7 6.656C193.692 6.528 194.604 6.432 195.436 6.368C196.3 6.304 197.116 6.256 197.884 6.224C198.684 6.192 199.516 6.176 200.38 6.176C202.076 6.176 203.532 6.384 204.748 6.8C205.964 7.184 206.956 7.808 207.724 8.672C208.524 9.504 209.1 10.592 209.452 11.936C209.836 13.248 210.028 14.848 210.028 16.736C210.028 18.656 209.996 20.528 209.932 22.352C209.868 24.144 209.756 25.92 209.596 27.68C209.468 29.44 209.292 31.2 209.068 32.96C208.844 34.688 208.572 36.448 208.252 38.24C208.156 38.784 207.98 39.152 207.724 39.344C207.5 39.536 207.132 39.632 206.62 39.632H202.78C202.236 39.632 201.836 39.488 201.58 39.2C201.324 38.912 201.228 38.528 201.292 38.048ZM215.452 4.736C215.452 3.68 215.98 3.152 217.036 3.152H220.828C221.884 3.152 222.412 3.68 222.412 4.736V44.576C222.412 45.632 221.884 46.16 220.828 46.16H217.036C215.98 46.16 215.452 45.632 215.452 44.576V4.736ZM230.409 24.608C232.489 24.768 235.017 24.88 237.993 24.944C241.001 24.976 244.201 24.992 247.593 24.992C249.481 24.992 251.289 24.992 253.017 24.992C254.777 24.96 256.409 24.928 257.913 24.896C259.417 24.864 260.761 24.832 261.945 24.8C263.161 24.736 264.137 24.672 264.873 24.608C265.961 24.512 266.505 24.992 266.505 26.048V28.88C266.505 29.808 265.977 30.32 264.921 30.416C264.185 30.48 263.209 30.544 261.993 30.608C260.809 30.64 259.465 30.672 257.961 30.704C256.457 30.736 254.825 30.768 253.065 30.8C251.337 30.8 249.529 30.8 247.641 30.8C244.249 30.8 241.049 30.784 238.041 30.752C235.065 30.688 232.521 30.576 230.409 30.416C229.353 30.32 228.825 29.808 228.825 28.88V26.048C228.825 24.992 229.353 24.512 230.409 24.608ZM262.521 21.248C261.209 21.408 259.833 21.552 258.393 21.68C256.985 21.776 255.481 21.856 253.881 21.92C252.313 21.984 250.617 22.032 248.793 22.064C246.969 22.096 245.001 22.112 242.889 22.112C239.593 22.112 237.081 21.392 235.353 19.952C233.657 18.48 232.809 16.288 232.809 13.376C232.809 12.8 232.809 12.176 232.809 11.504C232.841 10.8 232.873 10.096 232.905 9.392C232.937 8.688 232.969 8.016 233.001 7.376C233.033 6.736 233.065 6.176 233.097 5.696C233.193 4.704 233.801 4.208 234.921 4.208H238.713C239.705 4.208 240.153 4.736 240.057 5.792C240.025 6.208 239.977 6.704 239.913 7.28C239.881 7.856 239.849 8.432 239.817 9.008C239.817 9.552 239.801 10.08 239.769 10.592C239.769 11.104 239.769 11.536 239.769 11.888C239.769 13.104 240.121 14.032 240.825 14.672C241.561 15.312 242.601 15.632 243.945 15.632C247.305 15.632 250.457 15.568 253.401 15.44C256.345 15.312 259.225 15.088 262.041 14.768C263.033 14.672 263.577 15.136 263.673 16.16L263.961 19.712C264.025 20.192 263.913 20.56 263.625 20.816C263.369 21.04 263.001 21.184 262.521 21.248ZM263.241 46.016C260.201 46.304 256.825 46.512 253.113 46.64C249.401 46.8 245.657 46.88 241.881 46.88C238.713 46.88 236.281 46.112 234.585 44.576C232.921 43.072 232.089 40.896 232.089 38.048C232.089 37.216 232.121 36.56 232.185 36.08C232.249 35.568 232.313 35.088 232.377 34.64C232.569 33.584 233.097 33.056 233.961 33.056H237.753C238.297 33.056 238.713 33.2 239.001 33.488C239.289 33.776 239.401 34.16 239.337 34.64C239.273 34.992 239.209 35.408 239.145 35.888C239.081 36.336 239.049 36.768 239.049 37.184C239.049 39.328 240.265 40.4 242.697 40.4C244.521 40.4 246.345 40.368 248.169 40.304C250.025 40.272 251.817 40.224 253.545 40.16C255.273 40.096 256.921 40 258.489 39.872C260.089 39.776 261.529 39.664 262.809 39.536C263.257 39.472 263.625 39.568 263.913 39.824C264.233 40.112 264.409 40.512 264.441 41.024L264.681 44.432C264.745 45.392 264.265 45.92 263.241 46.016Z" fill="white"/>
</g>
<defs>
<filter id="filter0_d_1207_2033" x="1.54492" y="57.752" width="313.438" height="51.792" filterUnits="userSpaceOnUse" color-interpolation-filters="sRGB">
<feFlood flood-opacity="0" result="BackgroundImageFix"/>
<feColorMatrix in="SourceAlpha" type="matrix" values="0 0 0 0 0 0 0 0 0 0 0 0 0 0 0 0 0 0 127 0" result="hardAlpha"/>
<feOffset dx="1" dy="1"/>
<feGaussianBlur stdDeviation="1.5"/>
<feComposite in2="hardAlpha" operator="out"/>
<feColorMatrix type="matrix" values="0 0 0 0 0 0 0 0 0 0 0 0 0 0 0 0 0 0 0.25 0"/>
<feBlend mode="normal" in2="BackgroundImageFix" result="effect1_dropShadow_1207_2033"/>
<feBlend mode="normal" in="SourceGraphic" in2="effect1_dropShadow_1207_2033" result="shape"/>
</filter>
<filter id="filter1_d_1207_2033" x="0.728516" y="1.15198" width="269.777" height="49.728" filterUnits="userSpaceOnUse" color-interpolation-filters="sRGB">
<feFlood flood-opacity="0" result="BackgroundImageFix"/>
<feColorMatrix in="SourceAlpha" type="matrix" values="0 0 0 0 0 0 0 0 0 0 0 0 0 0 0 0 0 0 127 0" result="hardAlpha"/>
<feOffset dx="1" dy="1"/>
<feGaussianBlur stdDeviation="1.5"/>
<feComposite in2="hardAlpha" operator="out"/>
<feColorMatrix type="matrix" values="0 0 0 0 0 0 0 0 0 0 0 0 0 0 0 0 0 0 0.25 0"/>
<feBlend mode="normal" in2="BackgroundImageFix" result="effect1_dropShadow_1207_2033"/>
<feBlend mode="normal" in="SourceGraphic" in2="effect1_dropShadow_1207_2033" result="shape"/>
</filter>
</defs>
</svg>
